<?xml version="1.0" standalone="no"?>
<!DOCTYPE svg PUBLIC "-//W3C//DTD SVG 1.1//EN" "http://www.w3.org/Graphics/SVG/1.1/DTD/svg11.dtd" >
<svg xmlns="http://www.w3.org/2000/svg">
<metadata>
Created by FontPrep 20130207 at Wed Feb  8 01:33:03 2017
 By Ricardo Lino
Copyright (c) Typographer Mediengestaltung, 2000. All rights reserved.
</metadata>
<defs>
<font id="4deb611cd6ff9591378909799b76067b" horiz-adv-x='1024' >
  <font-face 
    font-family="CaslonAntique-BoldItalic"
    font-weight="700"
    font-style="italic"
    font-stretch="normal"
    units-per-em="2048"
    panose-1="2 0 8 3 0 0 0 0 0 0"
    ascent="1638"
    descent="-410"
    x-height="731"
    cap-height="1376"
    bbox="-371 -623 1954 1817"
    underline-thickness="86"
    underline-position="-223"
    slope="-11"
    unicode-range="U+0020-FFFD"
  />
<missing-glyph horiz-adv-x="972" 
d="M283 1272v-1106h446v1106h-446zM123 0v1436h768v-1436h-768z" />
    <glyph glyph-name=".notdef" unicode="&#xfffd;" horiz-adv-x="972" 
d="M283 1272v-1106h446v1106h-446zM123 0v1436h768v-1436h-768z" />
    <glyph glyph-name=".null" horiz-adv-x="0" 
 />
    <glyph glyph-name="nonmarkingreturn" horiz-adv-x="681" 
 />
    <glyph glyph-name="space" unicode=" " horiz-adv-x="665" 
 />
    <glyph glyph-name="exclam" unicode="!" horiz-adv-x="403" 
d="M233 223q15 1 59 -25t48 -28q14 -18 14 -36t-4 -38q-23 -109 -143 -108q-29 0 -68 45q-16 15 -16 39t4 41q22 110 106 110zM297 801q0 18 -6 61v8q0 35 20 163t27 206q31 143 125 158q39 8 57 8q78 0 78 -113t-92 -360l-14 -58l-54 -176q-27 -71 -35 -98l-34 -145
l-21 -66q-2 -23 -4 -36t-15 -28t-36 -16q-53 0 -55 43v4q0 17 12 66l6 39q6 16 10 76t9 96q5 35 9 71t13 91v6z" />
    <glyph glyph-name="quotedbl" unicode="&#x22;" horiz-adv-x="638" 
d="M344 1042l-10 75q0 68 26 104l-4 -4q8 31 23 47q49 61 91 61t71 -55q16 -28 16 -48t-4 -32l-35 -74l-10 -31q-31 -47 -36 -67t-21 -80q-25 -76 -64 -76q-55 0 -55 80q0 41 12 98v2zM639 928v8q4 6 6 27q6 18 10 28l-2 -2q2 23 4 34t3 25q0 14 2 28t2 69v39q0 29 34 92
l23 37q25 26 75 26t76 -75v-7q2 -6 2 -8l-4 -24l2 -17q-7 -62 -36 -110q-29 -47 -45 -92q-55 -133 -91 -134q-20 0 -43 23q-18 6 -18 33z" />
    <glyph glyph-name="numbersign" unicode="#" horiz-adv-x="1028" 
d="M779 780q-5 0 -7 2l-61 -4q-39 0 -72 -2q-14 -4 -33 -59l-22 -51q-6 -31 -29 -82v-4h2l-4 -39q92 0 104 14q8 12 -79 20l53 5q10 2 41 2l35 2l2 2q0 4 6 10l22 43q27 51 27 59l22 76l2 4q-4 2 -9 2zM1161 954q82 0 82 -46q0 -10 -17 -60q-17 -49 -73 -49l-16 -2l-52 -4
q-78 0 -98 -5q-31 -2 -47 -26q-2 -12 -6 -21l-2 -12h2q-23 -66 -43 -113l-8 -26q-2 -8 -2 -15h22q16 0 74 5h6q18 2 33 4l2 -19v19q68 0 67 -43v-11q-18 -88 -47 -96q-90 -8 -150 -11t-77 -17q-23 -25 -29 -58l-8 -49q-2 -2 -2 0l-24 -51q-14 -26 -30 -94t-73 -68
q-8 4 -33 4h-20q-41 0 -41 35v6l8 23q40 110 47 127l8 20q6 20 19 49l22 53v3q0 6 -22 6l-66 -2h-49q-23 -2 -29 -15q-4 -4 -22 -51l-29 -51q-6 -20 -10 -33l-8 -27l2 3q-2 -8 -9 -26t-12 -30l-10 -30q-31 -64 -82 -64q-77 -1 -80 43q1 16 17 62q16 45 18 55t16 36t35 93h-2
q6 18 6 26t-2 13h-18q-27 0 -100 -8h-13q-74 0 -73 45v6l4 26q16 66 55 78q27 0 35 2l51 4l53 -2h13q49 0 67 19v-2q16 16 29 71t29 84q16 28 16 38q0 9 -4 9h-10l-89 -4q-18 0 -30 -4h-4q-76 0 -76 39v8q12 76 39 97q25 10 63 12l47 4q12 2 56 2l51 2q43 10 55 68l10 45
q1 8 5 14t9 20t15 39t25 76q20 74 75 74q8 0 33 -6l23 2q20 0 37 -17l2 -16l-2 -10l-9 -23h2q-4 -14 -16 -45l-24 -65l2 2q-4 -16 -10 -30q-6 -13 -13 -28l-14 -34q-1 -6 -9 -23t-12 -27v-4q0 -6 17 -6l65 4q10 2 43 2l37 2q2 0 5 10t10 21q7 10 10 23q30 45 30 61
q4 10 11 29l8 20q2 8 7 30t17 60q31 66 82 66q80 0 80 -53v-7q0 -14 -27 -86q-26 -52 -57 -141q-4 -20 -4 -30t4 -11l82 4l35 2q6 2 14 2z" />
    <glyph glyph-name="dollar" unicode="$" horiz-adv-x="921" 
d="M682 1221q0 16 -18 20q-35 -14 -91 -45q-9 -8 -41 -61t-32 -82t6 -48t14 -43t10 -28l45 -35q2 -2 6 -4t11 -8q14 9 24 43t9 55l2 31l6 18l6 41l39 127q4 17 4 19zM403 23q0 10 -4 16q-9 4 -31 6q-22 1 -54 19t-142 55q-55 12 -55 59v10l14 56q4 12 4 37q4 25 6 39t25 73
l4 45l14 39q0 2 2 5q2 2 6 14t7 16q21 20 35 20t18 -2l24 -2v-26q2 -7 5 -13l6 -20l4 -63l6 -31l8 -47l21 -43q6 -41 15 -61t37 -45q28 -24 38 -23q2 0 16 24t19 37l8 45l22 66q0 16 2 24l9 45q0 25 4 37l10 30q18 50 18 92t-6 60q0 -8 -33 19l-22 22l-57 21q-47 53 -76 96
q-23 74 -27 98l2 -2q-4 8 -4 62t4 65l-2 -2q26 96 66 156q104 154 280 188l29 7q6 2 11 3t13 3q7 2 9 2l14 100q5 37 61 37t56 -37q0 -8 -2 -14l-6 -23l-7 -24l-18 -47q16 0 53 -7l96 -39l82 -22q12 -12 21 -29v-10q0 -28 -14 -92l-3 -33l-12 -59l-18 -111v-4q0 -59 -58 -59
q-37 0 -38 53q-2 10 -6 21t-7 46l-24 64q-6 53 -11 72q-10 10 -41 30l-38 31l-21 -49l-8 -37l-14 -41l2 2l-13 -69q-2 -25 -16 -80l-23 -68v-12q0 -20 14 -36t62 -50l68 -27q14 -8 18 -12l47 -86l27 -58l6 -34q10 -55 10 -129t-65 -154l-8 -14q0 -4 -28 -38q-42 -52 -56 -73
l-21 -10q-28 -28 -94 -53q-48 -23 -104 -32t-62 -36q-2 -8 -2 -31v-16l-8 -23q-4 -12 -4 -22l-6 -19l2 3l-13 -70q-10 -37 -48 -37t-60 33v6q-2 6 -2 14t6 33v29q2 8 13 36t11 44l2 22v19zM629 516l-6 -47q-14 -36 -19 -47l2 2l-20 -100q-22 -65 -39 -181l28 13q14 8 64 28
q41 37 80 97h-2q60 106 -6 198q-35 54 -68 68q-8 -4 -14 -31z" />
    <glyph glyph-name="percent" unicode="%" horiz-adv-x="1136" 
d="M572 1276q-52 0 -74 -29q-8 -14 -25 -65l-10 -23l-6 -29l-13 -53l-4 -14v4q-4 -8 -4 -29l-24 -84l-4 -30l-11 -35l-4 -41v-8q3 -46 17 -66t53 -20q59 0 84 90q6 18 24 77t21 62v2q0 15 8 47l8 29l4 31l17 90q-2 6 -2 22l-2 25q-1 47 -53 47zM825 225q-6 -25 -6 -57
t19 -55q18 -18 55 -19q61 0 82 86q8 8 8 31l2 4q0 4 4 13t10 34l21 66q2 6 6 41l12 37l2 28l17 86v2q-2 8 -2 23l-2 24q-2 45 -54 45t-75 -28q-18 -29 -27 -68l-8 -20l-2 -31l-17 -49l-8 -37l2 -2l-2 -12l-20 -70zM1251 1401q59 0 60 -45v-10q-2 -12 -17 -31l-174 -221
q-25 -43 -104 -140q-40 -44 -94 -114t-57 -77t-17 -22l-31 -30q-12 -23 -37 -52t-95 -135q-71 -107 -91 -125l-72 -63l-14 -25q-4 -11 -10 -17t-16 -22q-10 -14 -18 -20q-7 -6 -61 -78q-66 -66 -94 -105t-37 -49q-43 -53 -79 -53q-70 0 -70 45v4q6 16 22 33q10 18 35 47
t39 51q14 23 21 29q8 6 21 22t28 30t22 22l39 55l80 101l16 24l29 35q47 55 64 70q23 16 92 127q12 18 55 65l35 49l67 76l54 76q46 45 78 92t54 78t33 49t29 37q17 20 32 43t63 81q49 58 69 76t51 17zM1198 476q0 -8 2 -11l-2 -41l-2 -16q0 -6 -6 -54q-14 -28 -14 -39
l-9 -20l-30 -90q-31 -98 -103 -160q-82 -65 -174 -65t-166 90q-29 35 -28 102q0 20 2 29l12 59q2 10 9 46t30 114l8 26l21 41v-4q20 57 69 127t99 96t105 25q54 0 85 -20q96 -59 96 -174v-13q-4 -40 -4 -48zM442 637q-102 0 -176 92v-2q-22 29 -24 77t-4 56l16 62q4 8 6 55
q4 3 7 19t7 26l9 29l-2 -2q4 8 12 32h-2l6 21l22 43q19 59 73 128t87 87h-2q58 33 113 33t90 -21q92 -61 92 -168v-22q-2 -12 -2 -32t2 -28l-2 -39l-8 -65q-4 -20 -17 -43l-6 -21h2l-30 -88q-29 -76 -60 -108h2q-109 -121 -211 -121z" />
    <glyph glyph-name="ampersand" unicode="&#x26;" horiz-adv-x="1122" 
d="M174 508l21 2q33 92 53 148q44 124 133 186l65 43q34 17 66 27t35 18v4q0 2 -17 57l2 -2q-12 31 -12 45l-2 31q0 33 6 51q18 94 105 187q35 31 99 65t126 35q180 0 180 -139q0 -23 -6 -54q-25 -109 -96 -108q-35 0 -49 39q-4 15 -4 29t6 26l-2 -2l6 18v13q0 12 2 20v2
q0 23 -31 23t-61 -25q-60 -65 -60 -98l-2 -16l-14 -56q0 -12 18 -56t37 -63q16 -12 76 -34q10 -10 10 -23q-10 -31 -37 -31h-12q-33 4 -82 4h-16q-41 0 -115 -57q-82 -45 -131 -215q-35 -63 -35 -80v-12l6 -59l-2 -25q-2 -8 -18 -57l2 2q-6 -27 -6 -103v-18q0 -80 25 -114
t48 -39t60 -13l53 -12q16 0 86 20l-2 -2q10 4 51 16q6 2 37 33q4 7 12 13q50 32 74 67q55 70 62 107l2 26q12 86 12 118t-12 43t-17 15q-8 -2 -28 -26q-27 -27 -56 -27q-45 0 -57 53q-4 16 -4 30q0 91 61 138l31 23q86 62 112 72t97 20l82 23l57 12l-2 -2q2 0 37 18l25 8h4
q31 0 30 -28v-2q-6 -18 -67 -62l-33 -26l-65 -43h2q-27 -25 -43 -31t-25 -11q-10 -5 -22 -9t-25 -7v-10q0 -6 4 -10q70 -92 70 -137t-9 -80q-4 -87 -30 -166q-16 -34 -46 -62t-59 -67q-74 -96 -145 -111l-35 -8q-129 -37 -213 -37q-101 1 -114 7t-21 12q-87 33 -162 127
q-6 12 -39 38q-27 14 -49 76q-6 27 -20 137v5l8 63z" />
    <glyph glyph-name="quotesingle" unicode="'" horiz-adv-x="286" 
d="M420 1333q23 1 43 -29t20 -57v-4l-4 -26q2 -6 2 -19v-6q-10 -59 -35 -106q-26 -47 -38 -80q-43 -135 -82 -136q-12 0 -30 18t-20 32v6l31 121q0 6 -2 10l-2 2q-6 17 -6 41v112q2 18 31 62q35 59 92 59z" />
    <glyph glyph-name="parenleft" unicode="(" horiz-adv-x="559" 
d="M381 223q0 -59 6 -88q4 -57 14 -110l15 -39q2 -4 6 -17t15 -41t12 -43v-6q-6 -35 -39 -35q-47 0 -99 162q-66 72 -65 191q0 10 -17 112l-2 53q-18 95 0 197q7 11 13 33t8 28t2 9l-2 -2q38 163 61 219q24 57 66 141l33 68q31 39 76 111t63 77q10 4 35 41l41 41v-2l26 33
q14 18 29 35v-2q34 43 62 43t28 -31v-12q-26 -37 -54 -73t-46 -67l-74 -131q-33 -66 -35 -90l-12 -55q-18 -57 -31 -82l-10 -29q-8 -16 -35 -108l-12 -37q-4 -12 -4 -43l-9 -53q0 -22 -6 -37t-14 -45l2 2q-8 -29 -16 -109q-31 -150 -31 -209z" />
    <glyph glyph-name="parenright" unicode=")" horiz-adv-x="569" 
d="M463 1231q0 55 -26 100t-25 60v6q6 35 47 35q35 0 57 -78q6 -33 31 -66l16 -45l10 -25t14 -29t13 -54l6 -66q27 -44 27 -94v-14l-2 -58l2 -129l-10 -63l-2 -54q-2 -2 -11 -32q-2 0 -6 -4h2l-24 -84q-10 -25 -26 -78t-46 -112t-43 -75l-12 -22l-19 -29q-14 -29 -63 -102
q-63 -83 -83 -101t-73 -75l-31 -31q-66 -62 -82 -62t-23 3t-7 24q6 14 30 41t107 158l55 92q27 50 74 188l10 29h-2l31 121l27 90q0 24 6 90q4 12 9 25q5 14 9 26h-2l21 70q1 16 6 65l2 27q6 49 6 88l14 60l-2 34l-2 23l-2 6l-2 41q-4 20 -4 70l-2 4v6z" />
    <glyph glyph-name="asterisk" unicode="*" horiz-adv-x="702" 
d="M404 1221q28 0 55 -17h-2l18 -10l10 -10l31 -8q6 -4 29 -17v19q0 6 8 22l6 21q2 6 2 16l-2 39v8q0 55 57 76q23 8 41 8q29 0 43 -39l2 -51l-12 -35l2 2l-14 -65q-4 -12 -4 -20t20 -7q20 0 70 37q16 8 45 8q12 4 17 4h3l19 6q37 0 37 -51q0 -10 -4 -51q-8 -33 -50 -51
q-10 -2 -38 -4l-54 -13l-34 2h-3q-12 0 -18 -24l2 -4q7 -7 10 -15l17 -32l10 -27q23 -29 24 -51q2 -51 -32 -79q-35 -28 -58 -28q-41 0 -65 86l2 -2l-12 31v20l-9 39l-28 -26q-29 -29 -29 -45q-4 -7 -9 -17t-9 -16v2q-8 -14 -38 -28t-52 -15q-22 1 -40 23q-19 22 -20 47v10
q4 20 33 49l25 27l47 43q23 12 28 26q-49 10 -102 35l2 -2l-19 6q-35 6 -34 35v2l14 37q2 4 2 8l8 35q24 31 52 31z" />
    <glyph glyph-name="plus" unicode="+" horiz-adv-x="897" 
d="M315 575q-2 1 -20 7h-6l-23 2q-45 10 -45 41q0 6 2 12l6 27l2 43q8 39 74 38q27 0 76 -2l78 5l55 -11q20 0 25 15l10 43q18 55 18 61t4 41l7 25l8 75q14 74 76 74q80 0 86 -45v-6q0 -18 -15 -82l-6 -35q-2 -6 -2 -19t-8 -30l2 2q-24 -71 -14 -104q2 -2 8 -2l67 4l27 -2
q10 -2 20 -2l78 8q84 0 84 -56v-14q-12 -72 -53 -82l-109 -8q-2 2 -4 2h-63q-100 0 -111 -47q-2 -4 -2 -27l-2 -28q0 -16 -2 -29q-6 -8 -16 -57l-4 -29q-2 -14 -7 -41l-4 -31q-12 -45 -57 -45q-10 0 -35 6l-22 -2h-4q-18 0 -28 12t-9 28q0 16 1 26t3 21t6 40q21 56 24 89
q3 32 11 46q0 7 4 11h-2l10 28v9q0 1 -8 4l-21 4h-4l-59 -4h-60z" />
    <glyph glyph-name="comma" unicode="," horiz-adv-x="354" 
d="M96 69q0 15 4 25l-2 -2q12 59 60 88q19 11 82 27h8q45 -4 57 -51l-2 2l6 -25l-2 2q2 -6 6 -22l9 -41q0 -14 -7 -52q-6 -10 -9 -22q-19 -75 -93 -127l-43 -29q-53 -14 -102 -14q-27 0 -27 27v8q4 18 25 43q4 0 14 7t23 15t26 17h-2q17 13 23 51q0 20 -27 39t-27 34z" />
    <glyph glyph-name="hyphen" unicode="-" horiz-adv-x="370" 
d="M373 397l63 4q37 0 53 -28l7 -17v-4q-2 -8 -9 -14l-8 -16h2l-9 -22q-5 -12 -7 -19t-12 -17q-11 -10 -29 -10t-27 2l-21 2q-10 0 -16 4h-2q-12 0 -41 -4q-2 -4 -12 -4l-2 -2l-55 8l-35 -6l-109 -4q-39 0 -38 31v4l34 90q4 14 33 22l41 -2h33l24 -4l31 6l25 2l49 -2
q16 -2 31 -2z" />
    <glyph glyph-name="period" unicode="." horiz-adv-x="344" 
d="M199 190q14 0 54 -20t46 -31v4q10 -20 10 -30t-4 -31q-18 -92 -129 -92q-20 0 -61 37q-26 26 -15 69q19 94 99 94z" />
    <glyph glyph-name="slash" unicode="/" horiz-adv-x="845" 
d="M1086 1432q54 0 55 -43v-11q-4 -23 -15 -32l-45 -64q-9 -9 -24 -35q-15 -19 -25 -35t-20 -29t-16 -21l-16 -22q-11 -15 -15 -22l-31 -63q-18 -25 -34 -44t-56 -75v2q-55 -82 -113 -158q-31 -48 -59 -80t-41 -63q-12 -16 -32 -50t-28 -38q-4 -6 -9 -12l-15 -21t-17 -22
l-20 -41q-8 -20 -35 -54l-43 -49l-24 -22v2q-12 -20 -34 -60t-63 -82l-24 -47q-80 -86 -92 -104v2q-13 -23 -21 -37q-32 -59 -90 -59q-35 0 -53 22q-4 8 -4 25q10 29 69 100l25 31l26 49q47 51 66 78v-2l43 69l70 95q74 125 131 182h-2l41 51l28 49q20 32 34 52t99 139
q49 63 82 102l17 31l61 90q39 78 47 89t45 54v-2l54 82q10 10 16 25q53 78 107 78z" />
    <glyph glyph-name="zero" unicode="0" horiz-adv-x="901" 
d="M379 223q0 -59 22 -102q0 -8 21 -29h-2q2 -4 53 -8l29 -2q72 0 133 131q6 12 27 90l22 66h-2l74 270q12 24 12 72l18 61l9 64l39 211v79q0 59 -13 123q-20 45 -71 45t-101 -41q-6 -4 -8 -4q-53 -29 -84 -141l-16 -55l-11 -54l-22 -61l-6 -43q-27 -72 -32 -112t-7 -46v-4
l-4 -22q-9 -34 -18 -59q-9 -26 -19 -58l2 2l-12 -64q-29 -103 -31 -186l-2 -47v-76zM449 -39q-84 0 -158 76q-95 103 -105 163t-10 87v32q0 86 8 130q8 19 11 43l4 32q9 70 18 102q10 32 20 78t35 117h-2l11 39l38 86l-2 -2q26 97 119 239q94 142 144 171v-2q91 59 161 61
l78 -4q77 -2 142 -111q53 -74 65 -172l2 -26l-10 -131q-4 -24 -4 -78l-6 -66q-6 -82 -17 -131l-24 -69l-2 -13l-47 -159l-23 -60l2 2q-25 -123 -131 -252q-8 -12 -16 -20h2q-104 -123 -203 -148q-57 -14 -100 -14z" />
    <glyph glyph-name="one" unicode="1" horiz-adv-x="522" 
d="M332 1270v14q14 45 102 74v-2q1 0 25 9t49 17q78 35 113 35q57 0 57 -51q0 -18 -2 -27l-8 -24l-66 -305l-123 -504l-18 -88l-4 -51l-17 -68l-8 -61q-4 -23 -6 -48q2 -14 17 -52t16 -60v-6q-4 -32 -34 -52t-42 -20l-82 4q-66 -4 -108 -4q-68 0 -68 49v12q3 36 33 66
q8 10 13 17q5 6 18 24t21 30t11 31l39 168l19 66q18 72 22 92l8 35l8 61q0 11 5 23l18 76q2 4 10 37t18 71t17 82l10 49q14 137 15 176v4q-9 18 -9 23l-14 14q-19 12 -27 20t-18 13q-10 6 -10 31z" />
    <glyph glyph-name="two" unicode="2" horiz-adv-x="827" 
d="M784 1104q0 6 -4 35l-12 12q-70 53 -100 57q0 -4 -14 -6t-22 -5q-9 -3 -16 -5q-104 -12 -172 -64q-8 -6 -24 -6q-39 0 -39 39v8q6 29 90 123q102 109 229 109q98 0 118 -5q20 -6 42 -18q20 -12 35 -18l18 -12q68 -43 82 -64q35 -58 35 -112t-8 -85l-16 -59l-7 -47
q-10 -53 -67 -154q-41 -68 -141 -157q-5 -2 -15 -12l-26 -27q-16 -17 -30 -27l-31 -24q-17 -14 -35 -32t-115 -106q-27 -31 -164 -168q-12 -20 -19 -28h6q6 -2 18 -2t21 -4l56 4l35 2l102 -10q55 0 96 32v-2l37 41q10 12 33 12q49 0 49 -43q0 -12 -7 -28q-8 -16 -14 -33
t-10 -25t-6 -14l-12 -35q0 -12 -19 -55q-33 -88 -88 -88l-110 4q-31 0 -43 -2h-35l-33 -2q-23 -2 -76 -2h-49q-41 0 -67 2l-21 2l-108 -4h-7q-51 0 -51 47q0 8 4 20l-2 -2q6 35 62 109l6 6q19 31 31 43q12 11 20 21t26 26t54 58q37 42 68 69h-3q5 7 23 23t27 26l174 176
q42 42 67 72q139 176 172 320q4 20 4 39l-2 43v12z" />
    <glyph glyph-name="three" unicode="3" horiz-adv-x="851" 
d="M424 -33h-21l-67 -4h-4q-68 0 -139 84q-23 31 -84 127q-18 36 -3 113q21 116 109 116q55 0 82 -59v2q20 -33 20 -62t-8 -55l-6 -20l10 22q-2 -10 -18 -55v-2q0 -4 -2 -4l12 -14q49 -61 78 -62q63 0 135 43q42 32 60 56l22 24q2 2 13 17t20 24v-4q29 43 59 154l8 41v20
q-4 4 -14 27l-16 32q-23 70 -25 72q-39 55 -123 80q-43 12 -43 53v12q8 39 144 86q27 3 88 93t66 123t5 49v16q-6 16 -14 51q-25 82 -121 82t-137 -28h2q-35 -23 -51 -23q-39 0 -39 41l2 14q12 72 123 123q78 39 125 39t86 -22q112 -51 144 -80t50 -52q16 -27 33 -75l14 -43
l2 -19l-6 -43q0 -4 -2 -8t-8 -29q-25 -131 -184 -247q-47 -37 -49 -45v-3q0 -6 18 -24q63 -57 96 -133l15 -43q8 -16 10 -25l2 -26q0 -47 -16 -136q-4 -10 -7 -14q-7 -35 -55 -160q-41 -72 -94 -104t-111 -53l-30 -19l-62 -14q-53 -27 -94 -27z" />
    <glyph glyph-name="four" unicode="4" horiz-adv-x="823" 
d="M442 737q10 0 54 6l110 -12q16 0 25 6q0 3 6 19l25 73q12 36 20 64l16 90q4 13 15 82q-34 -26 -92 -76q-58 -51 -76 -71l-35 -39q-43 -55 -61 -74h2q-12 -16 -31 -35t-27 -31q29 -4 31 -4l4 2h14zM924 1409q49 0 49 -55q0 -19 -2 -29l-6 -25q-1 -6 -5 -22t-8 -27
l-82 -389q-2 -10 -2 -28t-8 -27q-4 -10 -8 -32t-7 -36t-3 -18l22 -25q6 -8 6 -24q0 -61 -47 -107q-16 -14 -30 -28l-7 -43l-16 -72l-10 -41l-8 -49l-31 -146q-4 -39 -12 -67q-23 -115 -97 -115q-32 0 -68 16t-57 24q-21 9 -18 18q46 116 53 146q6 31 6 60v35l4 25
q6 41 39 151l15 64q0 2 4 10v6q0 16 -47 16h-236q-27 0 -43 3h-41q-94 0 -94 59l2 12q4 35 45 70l72 59q6 8 74 80l26 23q37 39 135 118q2 10 23 25v-2q2 2 10 9t12 11l86 88q61 55 78 72q10 14 49 45l56 56l41 45q31 31 49 47q28 14 37 14z" />
    <glyph glyph-name="five" unicode="5" horiz-adv-x="825" 
d="M397 -37h-37q-31 0 -65 10l-21 9q-37 16 -51 22q-66 43 -82 80v-2q-33 57 -33 141t52 133q32 31 69 31q78 0 78 -88q0 -19 -14 -65t-14 -68q0 -51 51 -74q41 -12 82 -18h6q39 0 108 45q21 12 64 59l28 33v-2l21 33q29 37 45 116l2 7l2 2v9q0 7 2 11l6 31q8 40 8 100
t-38 125q-40 65 -103 92q-10 2 -32 6q-21 5 -31 7t-32 6t-32 6q-92 16 -92 69v7q0 12 47 143l-2 -2q20 92 64 207q0 8 18 82q18 98 61 120q16 8 54 9h55q18 0 104 4h33q10 -2 15 -2h8l98 8q40 0 57 -35v39q66 0 66 -45v-10q-2 -18 -51 -64l-33 -33q-42 -47 -82 -56t-86 -16
t-62 -16t-79 -10h-17q-18 0 -24 -12l-15 -45q-14 -29 -30 -70v-4l28 -14q9 -6 35 -12t78 -34q52 -27 135 -120q23 -33 29 -55l20 -64l-2 2l21 -45l8 -47v-37l2 -41q0 -14 -4 -18q-25 -164 -49 -221q-40 -76 -118 -174t-177 -152q-51 -33 -152 -33z" />
    <glyph glyph-name="six" unicode="6" horiz-adv-x="915" 
d="M586 715q-150 0 -201 -219q-3 -41 -15 -80t-12 -65q0 -27 35 -136q23 -63 57 -85t88 -22t103 29q84 51 111 197q8 45 10 55l12 60q4 25 4 41t-4 61q-26 106 -71 135t-117 29zM995 1438q51 0 52 -39v-4q-6 -23 -25 -36t-100 -52q-44 -23 -130 -100t-114 -117t-46 -64
q-17 -25 -32 -41t-41 -57q-69 -86 -76 -123q2 3 63 10q62 6 97 10t85 4t69 -10v2q27 -8 71 -47q54 -42 60 -62t28 -65q27 -113 37 -149l-2 -19q0 -4 -2 -16l-6 -43q-8 -37 -49 -164q-154 -282 -450 -284q-125 0 -150 16h2q-31 18 -91 88t-67 94h2q-39 109 -39 152l9 67l2 23
l14 100q6 42 30 116q60 189 144 308l43 51q37 55 76 94q190 201 387 293q29 10 49 23l25 12q50 29 75 29z" />
    <glyph glyph-name="seven" unicode="7" horiz-adv-x="778" 
d="M731 1368q86 0 135 -4l39 4q27 -2 72 -2q74 0 74 -43l-2 -6v-6q-2 -12 -21 -45l-96 -136l-62 -100q-12 -20 -51 -89t-58 -98q-19 -30 -29 -48t-101 -179l-25 -38h2l-57 -89h2l-164 -290q-12 -18 -61 -109q-33 -72 -60 -84q-10 -6 -53 -6q-51 -12 -88 -12q-84 0 -84 45v4
q23 43 61 96l70 94q112 143 215 311q4 6 26 33q22 26 70 99l25 32l20 31q41 61 70 103v-2q98 157 135 215l47 77v5q0 1 -2 2l-30 4q-37 6 -60 6h-45l-47 2q-35 0 -66 -2l-53 -2q-51 -4 -114 -72q-23 -23 -52 -22q-41 0 -41 38v13q2 12 78 180q44 154 109 154q20 0 28 -6
t21 -27l16 -25q0 -2 142 -4z" />
    <glyph glyph-name="eight" unicode="8" horiz-adv-x="905" 
d="M768 1274q-62 0 -127 -49q-76 -49 -88 -125q-8 -32 -8 -50t33 -83q2 -8 57 -66q4 0 12 -12q9 -13 15 -19t8 -10q6 -2 28 -2t33 6l-2 -2l10 6l23 17q4 2 9 7t13 9h-2q111 82 140 203l2 24q0 49 -31 82q-29 43 -41 52q-22 12 -84 12zM270 286q0 -83 64 -147q54 -45 118 -45
t95 6t51 29q111 100 131 199q4 20 6 55v29l2 26q0 4 -5 12t-23 40q-18 33 -56 75h2q-67 47 -118 53l-25 -4q-55 -11 -80 -36l-35 -33q-18 -20 -59 -66l-43 -108q-1 0 -13 -28t-12 -57zM802 1415q66 0 75 -6l30 -14q55 -31 68 -43q57 -66 65 -146q6 -35 7 -80q-9 -60 -13 -78
t-34 -100t-80 -112q-10 -6 -48 -27q-39 -29 -43 -33l27 -24q16 -16 49 -58q8 -27 21 -69l12 -37q14 -60 14 -84q-4 -14 -6 -28t-6 -40l-10 -53q-31 -166 -189 -317q-51 -43 -92 -60q-121 -43 -176 -43h-43q-115 0 -186 70q-55 49 -82 131q-12 61 -12 80v10q12 178 81 291
q23 35 85 84t67 53q27 12 31 23v4q0 25 -30 90t-32 115q0 50 5 96q5 47 34 145q20 35 80 96l41 39q41 45 123 74q101 51 167 51z" />
    <glyph glyph-name="nine" unicode="9" horiz-adv-x="903" 
d="M868 983q0 70 -45 209v-4q-43 76 -125 76q-31 0 -92 -39q-94 -55 -131 -244q-38 -173 0 -254q45 -68 111 -68t96 5q61 16 109 59q27 18 34 68l13 71l6 25l20 63q4 25 4 33zM242 879q0 25 16 110q47 211 248 348q59 39 127 55t84 17l37 -2l65 4q5 0 88 -37l47 -39
q88 -76 113 -147q8 -20 10 -103t-5 -124t-17 -127v-3q0 -49 -70 -229l-67 -121l-23 -32h2q-14 -31 -51 -76l-80 -82q-82 -88 -172 -156q-50 -43 -83 -58t-41 -22t-38 -17q-30 -11 -151 -67q-45 -14 -62 -14q-43 0 -43 37v6q2 4 2 6q4 25 52 48t83 48l70 48l29 22
q111 82 204 209l56 70q44 70 51 100v6q-41 -33 -125 -33h-20l-52 2l-98 6q-55 18 -117 112t-69 226v9z" />
    <glyph glyph-name="colon" unicode=":" horiz-adv-x="362" 
d="M213 217q12 0 53 -22t47 -31q23 -19 13 -72q-23 -104 -140 -104q-23 0 -63 43q-27 34 -17 78q23 108 107 108zM305 686q14 0 56 -22q41 -22 51 -32q10 -8 10 -26q0 -76 -43 -119q-37 -33 -100 -32q-31 0 -64 51q-16 16 -16 42t2 32q22 106 104 106z" />
    <glyph glyph-name="semicolon" unicode=";" horiz-adv-x="366" 
d="M317 709q11 0 57 -23t50 -33v2q12 -21 12 -35t-4 -34q-23 -113 -143 -113q-27 0 -64 51q-16 18 -16 44t2 34q24 107 106 107zM70 -182q-27 0 -27 26v11q5 29 35 49q6 4 55 37h-2q25 16 25 45q0 30 -28 51t-28 36t4 27l-2 -2q12 59 62 92q6 4 84 29h8q47 -4 65 -66
q1 -7 1 -12l-3 2l7 -24l8 -43q0 -42 -10 -61t-11 -27q-18 -74 -92 -125q-23 -16 -45 -29q-49 -16 -106 -16z" />
    <glyph glyph-name="less" unicode="&#x3c;" horiz-adv-x="983" 
d="M1202 1268l-26 -125l-682 -393l512 -402l-50 -239l-733 575l13 35z" />
    <glyph glyph-name="equal" unicode="=" horiz-adv-x="899" 
d="M580 662q-32 -3 -136 -3h-28q-23 -2 -45 -2l-86 2q-39 6 -39 33v8l12 35l4 37q6 39 72 39q12 -2 51 -4l98 4q27 -4 66 -4h69l27 2l47 2q20 2 42 2t81 6h16q35 -4 72 -4h35q33 0 41 -4v2q33 -6 33 -37q0 -8 -2 -14l-6 -25l-3 -28q-6 -39 -67 -39l-98 4q-18 0 -54 -8h-28
q-43 0 -72 -2l-53 -2h-49zM709 457q-45 0 -72 -2h-100q-69 -6 -93 -4t-47 2h-28l-47 -4l-84 6q-39 4 -39 28l2 4v7l10 34l4 37q11 37 72 37l55 -2l96 2q57 -4 76 -4t43 2l39 2h35q27 2 53 2t84 6h16l107 -4q33 0 41 -4v2q33 -2 33 -37q0 -8 -2 -14l-5 -25l-2 -28
q-8 -39 -69 -39l-101 4q-16 0 -51 -8h-26z" />
    <glyph glyph-name="greater" unicode="&#x3e;" horiz-adv-x="983" 
d="M100 104l27 129l684 392l-514 403l49 238l733 -574l-6 -35z" />
    <glyph glyph-name="question" unicode="?" horiz-adv-x="706" 
d="M360 221q29 0 107 -43q16 -23 16 -40t-8 -57t-35 -58t-69 -31v2q-18 -8 -33 -8q-49 0 -72 49q-14 27 -14 53t2 35q18 98 106 98zM682 1141v41q-4 125 -96 125q-115 0 -127 -82q-4 -12 -4 -23t14 -36q14 -24 14 -42q0 -73 -61 -118q-20 -10 -41 -11q-49 0 -74 49l-8 25
q-12 25 -12 47v14q18 90 80 160q59 59 93 80q35 22 93 34t72 11l51 -6q8 -4 19 -4t41 -5t70 -59q77 -104 78 -170q1 -65 -20 -172q-6 -29 -45 -94l-31 -49l-55 -61q-55 -79 -115 -131q-4 -11 -79 -107l-27 -35v2q-10 -16 -26 -47t-28 -49q-11 -18 -30 -90q-20 -20 -45 -21
q-41 0 -41 39q3 26 24 93q34 108 52 126q21 44 30 65q10 21 29 54t27 45q8 11 17 29t14 25h-3l50 84l20 30l21 43q33 57 51 94v3l6 38q2 23 2 56z" />
    <glyph glyph-name="at" unicode="@" horiz-adv-x="1382" 
d="M969 858q-127 0 -207 -90q-23 -23 -37 -51l-47 -127q-8 -45 -8 -53q0 -72 80 -72t127 65q23 27 47 74v-2q2 2 39 84q0 10 10 25l16 39h-2l12 45l15 34v11q0 18 -45 18zM1538 919q0 -135 -65 -257q-76 -150 -222 -226q-95 -54 -161 -72t-70 -20l-25 -6l-53 2
q-10 -2 -33 -2q-55 0 -61 29l-2 12q-5 1 -32 -13t-91 -26l-41 -8q-25 0 -66 17t-51 34q-49 68 -49 162q0 31 6 49l-2 -2q14 78 72 180q80 141 194 203q55 27 124 43t81 16q55 0 84 -53l17 12l67 -4l49 -4q23 -13 23 -29t-4 -28t-66 -178l-55 -142q-35 -94 -47 -114v-19
q0 -12 8 -12q43 0 111 55q143 117 151 184l10 52q14 78 15 90q-4 78 -15 184q0 45 -77 143q-14 23 -41 60q-38 23 -160 33l-68 10q-28 -5 -92 -25q-57 -23 -121 -51v2q-66 -43 -133 -98t-151 -164q-25 -47 -29 -55l-21 -37l-55 -144l-16 -120q-4 -57 -4 -60v-4q0 -64 6 -106
l4 -70l-2 4l4 -18q10 -14 51 -62q18 -47 30 -56t26 -18q14 -8 27 -16t54 -43q25 -14 58 -20l57 -4q27 -2 51 -3h13q76 0 114 9l-2 -2q41 13 78 31t71 32t58 27l51 37q129 92 162 99t59 19q35 0 35 -30v-6q-16 -59 -151 -162q-129 -88 -248 -135q-98 -31 -129 -37l2 2
l-203 -15q-87 0 -151 27q-41 12 -101 68q-8 12 -47 39q-3 5 -30 34t-62 93l-25 67q-14 42 -38 90q0 23 -3 60l-6 55l-2 22q0 10 4 23l-2 -2q2 8 6 33l13 84q18 74 61 204q31 76 82 146l45 65l39 37l23 27l36 33q51 51 140 118q180 106 399 106t332 -112q80 -80 100 -110
q10 -20 22 -52t19 -48q37 -92 37 -163z" />
    <glyph glyph-name="A" unicode="A" horiz-adv-x="1056" 
d="M724 668q7 0 11 10q22 123 13 186q-6 82 -15 88l-22 -30q-19 -27 -34 -42q-13 -16 -45 -73t-32 -79t2 -23q2 -10 53 -25l37 -8q25 -4 32 -4zM738 -6q-54 0 -54 35v6q4 25 45 49h-2q63 45 76 96v84q0 4 -7 33q-8 29 -12 48t-6 128v2q-12 55 -61 55h-6q-13 4 -51 16t-88 13
q-50 0 -91 -20q-18 -9 -48 -69t-64 -99t-48 -85t-16 -48l-12 -43h2q-4 -14 -4 -29v-10q18 -33 51 -70q18 -29 18 -47q-6 -39 -71 -39h-221q-63 0 -64 39v6q2 4 3 15t22 28l45 29q5 5 25 33q42 59 71 88q4 4 43 84q8 10 61 102l13 18l209 367v-4q2 10 96 160h-2q20 41 49 79
h-2q29 49 45 74q57 106 88 201q33 88 82 88q23 0 39 -47h-2q8 -25 26 -193q3 -8 9 -26t14 -45q-4 -14 -4 -28t2 -26v-20q0 -4 4 -66q4 -10 18 -77l23 -140l4 -71l10 -111q2 -33 13 -113l4 -43q2 -16 4 -52q13 -201 49 -218q2 -2 6 -5t11 -11q8 -7 18 -17t10 -32v-13
q-8 -39 -61 -49l-45 -2l-72 -2l-49 -2l-31 4q-25 4 -39 6q-21 -14 -75 -14z" />
    <glyph glyph-name="B" unicode="B" horiz-adv-x="1028" 
d="M627 1049q-1 -61 -11 -93t-17 -67t-7 -57t24 -41q14 -14 33 -15q61 0 94 21l58 37q6 4 18 10q13 6 21 12t32 16q63 63 80 154q4 20 9 84v6q0 20 -21 41v-2q-20 16 -29 39v-4q-8 16 -30 41q-6 0 -56 4l-73 14q-27 -4 -72 -43l-18 -35l-9 -26q-8 -20 -12 -35l-14 -47v-14z
M815 355v10l23 96q6 27 6 41t-4 26q-64 134 -187 134h-80q-30 -5 -55 -107l-18 -92l-17 -39v-14l-2 -25l-24 -109q-2 -6 -10 -32t-23 -68v-4q0 -31 38 -49t40 -19l39 5q23 4 71 6q37 20 72 47q68 45 107 114q0 14 14 58q10 15 10 21zM1186 1071q0 -141 -60 -209
q-23 -31 -88 -86l-18 -18q-16 -16 -36 -34t-26 -22v-6q0 -8 13 -18v2q23 -14 61 -80l19 -51q18 -57 18 -95t-4 -53l-4 -24q-4 -6 -8 -27l2 2q-4 -16 -4 -18q-27 -133 -158 -236q-164 -102 -238 -102h-2q-23 -2 -80 -2h-92l-143 2l-100 4h-29q-27 -4 -69 -4t-42 39v10
q4 21 19 33l71 63q57 86 105 320l94 434l2 18q0 3 3 23l5 33l25 78q2 4 9 53t7 61l-2 35l-4 33l2 -2q0 2 -2 2v2q-18 25 -33 49q-16 14 -16 37v6q6 37 37 43l-4 -2q18 4 88 8l69 8l179 -14h135l28 -2q49 -4 148 -80q57 -29 82 -61q41 -63 41 -152zM958 702q-2 -4 -2 -6z" />
    <glyph glyph-name="C" unicode="C" horiz-adv-x="1259" 
d="M1305 367q-1 -22 -7 -32q-6 -9 -6 -20l2 2l-20 -81l-12 -56q-14 -68 -28 -84t-30 -24l-20 -11q-8 -5 -46 -27t-67 -26l-59 -16q-98 -29 -125 -29q-142 0 -166 4h-76t-105 36t-75 50l-41 37q-68 61 -111 113q-37 57 -71 150t-39 173v9q0 33 26 172q18 78 56 182
q47 109 118 178q16 16 62 57l70 86q33 46 180 108t199 76t133 13q188 0 339 -102q5 0 19 -10t49 -23q35 -14 35 -49v-9q-12 -84 -21 -122q-10 -39 -16 -66l-12 -57q-10 -37 -44 -37t-44 41q0 2 -2 7q-2 4 -4 12t-14 55q-13 47 -15 49q-6 16 -25 28l-51 41q-18 16 -92 74
q-4 2 -82 18l-70 9q-29 0 -63 -19q-63 -18 -139 -73l-64 -35q-168 -147 -184 -246l-23 -94q-8 -17 -8 -19v-4q-31 -51 -37 -78h2q-4 -63 -12 -90v-2l-10 -31l2 3l-8 -31l-4 -10l-3 -31l-14 -68q-2 -4 -2 -20t23 -84q23 -70 39 -90q90 -125 223 -125h6l98 2l41 2l51 2
q59 0 84 14h-2q44 26 99 76q32 43 64 79t44 62v-4q18 59 64 60q41 0 41 -45z" />
    <glyph glyph-name="D" unicode="D" horiz-adv-x="1245" 
d="M467 192q0 -28 20 -53t52 -24l67 18l66 10l45 11q51 11 67 23t41 36l58 53l35 35v-2q2 2 10 13t16 20v-2q2 5 27 29t61 81q0 6 12 37t21 53l27 76q4 23 18 66l20 57l5 59l8 52q18 86 13 99t-13 33q-7 20 -19 54q-12 36 -32 78q-22 29 -50 45t-32 20q-68 68 -144 68
q-158 0 -186 -109q-8 -40 -43 -110q2 0 2 2q0 -12 -2 -14v-60l-4 -24q0 -2 -33 -117l-6 -17l2 3q-6 -20 -8 -39q-12 -42 -21 -76l-2 -2v-2l-8 -25l-6 -92q-9 -43 -23 -72l-12 -49l-16 -53q-8 -110 -25 -154q-8 -7 -8 -35zM776 1374q39 -10 256 -10q27 -4 131 -72l15 -8
l22 -22q63 -45 107 -113q23 -25 63 -111q14 -94 14 -120v-13q-6 -82 -16 -127l-41 -198q-12 -57 -72 -174v2q-25 -45 -34 -60q-47 -63 -138 -166q-87 -79 -280 -141l2 2q-94 -43 -168 -45l-102 -4l-31 -2l-15 -2q-6 0 -10 -2l-22 2q-4 0 -8 1q-3 1 -9 2t-15 4t-79 3h-223
q-41 6 -41 43t29 61q16 8 59 33l-2 -2q55 35 68 113q12 34 45 139q8 37 14 92v10q2 6 5 24q3 17 9 37t11 40t8 28l-2 -2q0 4 8 48l20 98q4 20 5 34q6 84 49 210h-2q15 30 18 102q2 72 1 86t-15 39q-8 4 -15 12q-16 10 -22 19q-19 14 -13 53h-2q17 47 113 47q43 0 65 -5
t36 -6q13 -1 85 15z" />
    <glyph glyph-name="E" unicode="E" horiz-adv-x="978" 
d="M745 6q-29 -4 -131 -4h-30l-148 -4h-33q-8 0 -22 2h-166l-86 -4q-29 0 -39 6t-10 29v6q6 35 43 55l-2 -2q27 12 47 19q41 37 51 61t21 55h-2l16 56q0 22 6 34q0 8 10 45l17 70q0 14 16 78q9 49 19 85t12 43t4 11l2 2l8 31l25 143l12 56l25 86q18 68 32 104l-2 59
q0 66 -2 68q-18 42 -69 78q-14 8 -15 26l2 7v8q8 57 78 57h6l43 -2v-37q7 15 41 28q33 13 62 13l37 2q20 2 66 2t102 -14l2 -2l69 8q29 0 49 2l54 2q41 0 69 -6t31 -6l2 -2q7 2 49 8h14q57 0 58 -49v-4l-14 -111q-8 -29 -17 -106l-4 -47q-10 -45 -49 -45q-23 10 -47 34
q-10 10 -27 86l-10 25l-19 37q-8 12 -38 24l2 -2q-61 7 -101 20t-73 13q-80 0 -89 -31q-4 -9 -6 -16l2 2q-2 -4 -5 -16t-5 -19l-10 -28l2 2l-39 -123q-7 -52 -24 -120t-17 -85q0 -35 33 -35q23 0 75 30t84 62t54 31q31 0 37 -41q-2 -6 -6 -51l-5 -37q-4 -43 -28 -113h2
l-10 -37q-2 -10 -7 -38v-2q0 -34 -32 -93q-12 -18 -34 -18t-44 39l-19 29l-6 45l-22 28q-8 16 -14 22t-39 7q-32 0 -37 -10q-8 -33 -21 -88q-55 -124 -55 -158q-6 -12 -6 -33l-13 -51q-4 -18 -22 -92v6l-4 -21q-8 -18 -10 -24l2 -2q0 -33 84 -37l18 -2l49 -4l21 -2
q25 6 45 10q55 11 65 23l49 38q11 8 25 17l19 11q5 3 8 5q32 49 60 97t64 47q36 0 35 -43q-1 -14 -17 -92t-32 -119l2 2l-20 -72q-25 -57 -76 -57q-16 0 -107 20z" />
    <glyph glyph-name="F" unicode="F" horiz-adv-x="925" 
d="M416 1202q0 2 -10 17l-13 18q-8 16 -18 18l-27 17h2q-18 6 -18 31v16q14 45 65 45h6l35 -2q39 8 70 8t108 -14q51 0 115 14q86 6 123 6t123 -6l16 2q10 0 25 2h72q12 2 43 2q61 0 61 -43l-2 -14l-12 -47l-39 -203q-12 -53 -51 -53q-47 0 -80 102q-9 19 -17 62t-41 57
l-16 6l-12 6q-4 4 -6 4l-78 -8q-10 0 -22 5t-40 5q-61 0 -102 -49q-12 -10 -28 -55t-17 -49l2 2l-10 -51l-3 -9q-20 -51 -28 -155l-4 -10l-17 -58q-4 -12 -4 -25t6 -16q11 -4 51 -4t60 9t72 75q59 61 104 62q31 0 31 -40q-1 -40 -9 -80t-19 -68t-27 -109q-2 -131 -54 -131
q-35 0 -41 26l-24 74h2q-10 27 -48 47t-69 21q-57 0 -78 -97q-8 -33 -30 -94l2 2l-19 -80l-2 -37l-41 -180v-39q2 -8 6 -41q6 -6 27 -16v2q29 -18 29 -47v-8q-6 -31 -42 -31t-55 2l-45 2l-2 2q-4 0 -8 -2h-31l-69 6l-129 -6q-23 0 -30 8t-5 31t59 65q86 98 107 189l35 172
l59 299l6 41l27 74l-2 -2l12 71l16 51l19 99v41l-2 26v37z" />
    <glyph glyph-name="G" unicode="G" horiz-adv-x="1333" 
d="M215 591q0 44 6 75l4 22q2 6 6 20t7 19l-2 -2l16 61q51 205 276 424q43 45 121 86l2 2q4 2 9 6q69 48 141 71q71 23 94 24h20q82 4 124 4q220 0 272 -25l67 -35l-2 3q41 -14 82 -37q45 -43 45 -76t-4 -45t-4 -14l2 2q-20 -90 -43 -168q-23 -96 -55 -97q-45 0 -68 142
q-10 49 -12 53q-18 12 -37 29q-20 53 -59 79q-69 60 -179 60t-206 -50t-117 -73q-53 -47 -107 -139q-84 -154 -102 -226v-8q0 -25 -6 -49l-6 -31q0 -17 -15 -53l-16 -78l-20 -168q6 -20 6 -26q0 -7 2 -11t6 -26t8 -33q20 -121 147 -180q78 -31 120 -31t90 12t87 13
q66 4 103 61q43 54 43 116t-47 66q-25 2 -37 2q-39 12 -39 39v7l2 6q4 25 37 41l108 12q35 4 44 5t128 -9h19l49 4q47 0 47 -47v-6l-4 -13l2 2q-4 -22 -16 -32l-41 -39q-6 -6 -23 -76l-10 -47l-20 -78q-2 -5 -6 -27t-12 -42q-19 -53 -73 -54l-90 6q-2 0 -75 -18l-72 -6
l-86 -10q-98 -12 -115 -13q-129 0 -162 13q-197 76 -272 235q-64 131 -74 297q-8 35 -8 79z" />
    <glyph glyph-name="H" unicode="H" horiz-adv-x="1423" 
d="M1426 1353l-3 -1l-2 2q2 0 5 -1zM465 1200q0 55 -49 72q-41 12 -41 47v10q10 43 80 43h22q10 -2 27 -2h61q18 -2 41 -2h60l88 2q61 0 61 -37q-5 -31 -24 -47l-46 -31q-55 -37 -79 -151q-2 -10 -4 -38t-11 -56l-6 -31q-14 -70 -31 -107q-16 -38 -20 -53v-10q0 -31 59 -45
q25 -6 119 -6h72q86 0 117 8l112 -14h4q33 0 94 26q35 9 35 47l2 21q2 6 2 14l7 23l16 86l27 96q4 53 14 83q10 31 10 58t-5 37t-22 17q-41 18 -40 47v8q8 41 67 41h43q12 0 27 2h28v-39q111 0 129 14q6 9 -24 13t-55 6q4 2 14 2l22 2q39 6 56 6q104 0 104 -39v-6
q-6 -16 -86 -78q-33 -33 -59 -143l-8 -54q-4 -29 -13 -53q-18 -87 -18 -135l-12 -37q-4 -18 -37 -143l-9 -17q0 -35 -12 -86l-2 -24l-72 -305q-8 -43 -8 -83t11 -55l6 -2q47 -35 47 -67v-4q-6 -35 -53 -35l-56 4h-190l-49 -2h-21q-43 0 -43 35v4q12 18 19 22h-2l67 54
q20 14 43 75l-2 -2q2 10 35 123l4 21v30q0 12 2 19l20 86q-9 -3 3 21q14 28 14 32l-2 -2q10 56 10 68v18q-10 20 -63 22t-68 5h-16q-33 0 -78 -4h-21l-6 2h-10q-10 2 -33 2h-18v37q-4 -8 -22 -24t-34 -17h-6q-23 0 -69 8h-4q-33 4 -39 4q-95 0 -121 -57l-27 -119
q0 -9 -5 -31t-13 -76l-4 -26q-2 -4 -21 -58l-6 -43q9 -60 10 -76q1 -23 37 -59q37 -51 33 -69l4 8q-6 -31 -43 -31h-178q-8 0 -37 4h-12q-2 2 -13 2l-24 -2l-29 -2q-27 -2 -55 -2q-100 0 -101 47v8q6 43 68 51q68 14 85 44t26 58q9 29 12 34h-2q10 33 24 114v4l21 113
q0 2 1 5t10 40t32 109q18 131 57 219l9 41q3 10 7 41q4 30 17 69l-2 -2l23 123l10 41q4 29 4 41z" />
    <glyph glyph-name="I" unicode="I" horiz-adv-x="534" 
d="M420 1218q0 18 -28 45q-28 28 -27 52v8q10 49 71 51l113 -6q59 8 94 8q94 0 94 -59v-14q0 -19 -33 -39t-49 -50q-35 -61 -75 -276q-6 -57 -29 -164l-10 -53q-33 -147 -39 -161t-15 -62v-2q-2 -2 -2 -14t-8 -54q-4 -4 -6 -20l-4 -21q-2 -12 -6 -63l-19 -101l-6 -28
q12 -25 19 -72l26 -29q6 -16 6 -37v-10q-6 -47 -43 -47h-57q-27 -2 -47 -2t-47 2h-84q-33 0 -66 8q-29 16 -28 45v10q6 18 18 31l55 41q22 26 39 88l17 47l2 2v2q4 8 7 42t7 49l-2 -3q2 6 9 37t19 69t16 64q3 26 6 42q3 18 7 46t7 42l14 61q2 6 6 39l41 199q4 16 9 67t5 57
l19 103q4 12 4 30z" />
    <glyph glyph-name="J" unicode="J" horiz-adv-x="557" 
d="M-8 -500v11q2 15 30 53t46 71q43 75 71 201l29 131l22 58l3 10l8 37q12 49 28 98t23 74q16 131 20 153v11l9 36q8 29 14 68t20 125l21 86l6 41l10 43l17 59v27q4 49 30 186l4 25q4 12 9 18v105q-4 10 -33 30q-33 33 -33 56q0 2 2 10q2 33 20 41t107 20h6q49 -8 66 -8h12
q88 12 98 13q59 0 60 -52l-2 -18q-8 -16 -43 -45v-2q-3 -3 -4 -10t-11 -31h2l-10 -27q0 -16 -49 -237v-2q-29 -101 -31 -121l-18 -109q-4 -10 -8 -37l-45 -217l-19 -82l-24 -141q-19 -70 -33 -158l-12 -90l-7 -16q-25 -152 -90 -240l-12 -22q-65 -122 -100 -142h2l-76 -61
l-72 -64l-24 -4q-39 0 -39 39z" />
    <glyph glyph-name="K" unicode="K" horiz-adv-x="1200" 
d="M1311 1354l59 2l10 2q90 0 90 -45v-8q-8 -31 -137 -105h2l-82 -65q-104 -64 -117 -73t-16 -10t-31 -27q-27 -25 -122 -93l-82 -58q-45 -31 -135 -104q-4 -6 -11 -22v-5q-1 -17 23 -49t110 -176q73 -81 170 -211l66 -88l2 -4q13 -13 18 -23t46 -60t40 -81v-6
q-6 -39 -52 -39t-109 8h-6q-20 -2 -109 -6l-43 -2q-66 0 -66 43v10q6 18 21 33l37 27l-2 2l-31 61q-55 70 -84 121l-35 31q-17 23 -59 75t-52 60t-28 37l-14 8q-6 0 -13 6l-28 29q-10 0 -17 -25l-12 -84q-16 -33 -35 -102q-2 -10 -2 -51l-10 -68l-2 -45q-2 -12 -2 -29v-6
q2 -16 20 -28t29 -23q2 -6 14 -14t13 -25v-4q-2 -4 -2 -6q-5 -37 -37 -37t-41 2h-49q-10 2 -21 2l-39 -2h-18q-43 0 -137 -4h-46q-43 0 -43 37v6q2 33 68 55q51 12 69 123t40 170l6 25q4 16 5 24t5 33l57 299l6 37q0 4 5 16l-3 -2q27 104 29 117l8 41q10 55 18 140t15 98
q-23 23 -55 51q-14 16 -15 41v14q8 41 66 41h14q37 0 70 -4h12l64 2l4 2h24l19 2h20l64 -4q92 -4 92 -51q-5 -35 -25 -49q-2 -2 -38 -20t-46 -21q-29 -12 -59 -109q-10 -31 -10 -37l-12 -71q-2 -4 -27 -76l2 2l-6 -23v-4q0 -18 2 -33v-16q-2 -10 -2 -27v-18h4q19 0 45 16
q20 19 55 41l25 19q29 25 55 45q94 61 236 180h-2q102 89 102 131q0 -2 4 -2l-33 33q-16 16 -16 41v12q10 45 61 45z" />
    <glyph glyph-name="L" unicode="L" horiz-adv-x="888" 
d="M137 -12q-66 0 -65 43v6q6 23 39 55q90 50 116 148q27 74 45 168l19 88q5 20 12 69q0 33 47 166q0 47 21 125l43 207l6 49l10 51v23q-4 14 -12 35l-12 28q-5 0 -15 8t-29 17q-20 8 -20 35v12q11 41 82 41l20 2l129 -4q35 2 111 6l55 2q59 0 60 -39v-6q-2 -6 -3 -17
t-26 -26l-22 -10l-41 -45l-15 -15q-76 -131 -119 -422l-59 -272q-10 -49 -27 -84v-2q-10 -61 -10 -111l-6 -55q-1 -4 -9 -21q-18 -42 -18 -71q0 -45 56 -45q20 0 67 8q68 0 82 2l21 2h53q8 0 55 41q63 61 74 78q66 90 90 90q33 0 33 -35q0 -6 -2 -18h2l-25 -86l-10 -68
l-10 -57q-6 -57 -58 -80q-29 -4 -77 -4h-50l-133 4v37q0 -5 -15 -23t-30 -18h-14q-23 -2 -51 -2l-152 10q-31 0 -55 -2l-57 -2l-21 -4q-9 -2 -29 -5t-29 -5t-22 -2z" />
    <glyph glyph-name="M" unicode="M" horiz-adv-x="1546" 
d="M389 240q0 -45 3 -70t63 -78q35 -39 34 -59v-6q-6 -39 -73 -39l-82 4q-207 0 -242 14l2 -2q-31 6 -31 39q0 8 3 12v2q4 21 13 29t58 31q80 39 119 174q10 66 68 289l61 221q10 59 11 101t7 61t15 76q10 57 17 95t7 54t-6 31q-24 12 -60 39t-36 57v12q10 45 49 47
q14 0 35 2h51v-39q0 3 15 19t43 15t38 -1l138 10q49 0 55 -47q-2 -6 -2 -28l-2 -33q-12 -72 -12 -123v-25q4 -115 63 -321q0 -46 10 -100q9 -55 13 -81t9 -37t12 -31t23 -65q16 -44 7 -47q19 0 59 54q4 6 10 14q8 8 115 166l16 29h-2l86 137h-2l82 143l51 96l50 76h-2
q8 12 25 45t27 47t21 37q13 22 27 46t46 33t81 9t82 -4h12l62 2h4q25 0 45 -33v2q10 -16 10 -30v-8q-6 -28 -29 -35l-41 -17q-31 -10 -73 -75q-2 -2 -30 -97t-56 -245l-13 -86q-29 -117 -39 -170l-49 -238q-22 -73 -22 -119v-28q6 -66 10 -70l45 -29q14 -14 14 -37v-16
q-16 -43 -51 -43h-4l-41 2h-344q-57 0 -57 35v6q4 23 69 63q72 51 76 56q28 21 43 57q4 35 43 168l14 66q8 20 14 40t11 32q4 11 6 52l12 68q4 97 39 193h-2q8 46 17 65q-29 -58 -72 -113l-33 -36q-12 -12 -49 -76t-80 -127l-82 -162q-21 -21 -53 -74q-20 -23 -70 -118
l-51 -78q-2 -2 -4 -6q-2 -5 -7 -11t-9 -12v2q-2 -2 -14 -26q-29 -55 -58 -55q-29 -1 -41 38q-8 19 -14 105q0 4 -31 147l-8 33q-6 31 -10 48t-14 59t-35 119q-25 78 -27 140t-43 201l6 -8l-4 8q-12 7 -12 39l-17 -100l-28 -84l-17 -76q-2 -10 -55 -217l-10 -84l-21 -98v-39z
" />
    <glyph glyph-name="N" unicode="N" horiz-adv-x="1339" 
d="M158 0q-106 0 -107 53v10q6 25 25 35q63 24 87 44q23 20 45 60t39 112t24 105t11 55t13 54l4 21q0 6 4 17t12 34t15 41l-2 -2q2 6 5 13t3 12l-2 -5l12 74q4 47 18 83t19 60q4 24 14 54h-2l7 21q5 15 10 26l-2 -2l10 49q10 66 10 112t-6 56t-72 49q-33 23 -33 53v4l3 9
q12 51 51 51h4l51 -2q15 3 51 6l41 2l64 2l129 6h6q63 0 63 -49l-2 -10l-8 -25q-8 -18 -14 -49v-4q0 -37 69 -215l21 -43q20 -61 113 -244q53 -80 83 -123l3 -2q12 -16 22 -39t27 -30l39 -23q19 10 59 148l31 102l22 102l2 4v5q0 2 2 8t5 18q4 11 8 21t4 12l-2 -4q0 2 2 4
l4 55l2 25q6 108 14 147q-4 53 -74 101q-23 14 -22 41v10q0 9 20 29t31 20l113 -12h4l63 16h60q35 0 71 -6q33 -12 33 -39l-2 -6v-6q-2 -25 -29 -37l-43 -23q-57 -33 -71 -83t-17 -66q-3 -15 -15 -67t-24 -113t-20 -99l-8 -37q-8 -20 -31 -112l-31 -139q-29 -80 -36 -181
l-25 -110l-16 -86q-8 -40 -13 -88q-18 -76 -80 -76q-39 0 -39 24l-30 70q-8 14 -19 35v-2q-51 63 -56 77q-21 61 -40 88q-18 26 -22 34t-9 16t-8 12l-18 25l-80 143l-31 51h2q-45 72 -47 77t-9 16t-19 34q-11 23 -19 37q-8 15 -13 27t-11 26t-20 40l-52 104l-41 78l-31 -127
l-20 -93q-26 -113 -46 -183t-26 -96t-8 -33t-4 -18q-2 -12 -4 -18t-4 -20t-3 -28q-2 -14 -2 -17l-2 -6q0 -6 -8 -62l-4 -26q-8 -41 -12 -80v-11q0 -70 82 -84q41 -10 41 -49q0 -7 -2 -16q-6 -39 -113 -39h-19l-139 2q-33 0 -45 -2h-18z" />
    <glyph glyph-name="O" unicode="O" 
d="M518 768q0 -2 -2 -10t-3 -16t-3 -15l-12 -59l-33 -129q-4 -16 -4 -56t12 -155q0 -6 41 -62q14 -43 21 -53v2q34 -27 60 -53q27 -26 54 -39q46 -14 125 -17h17q97 0 166 53q13 9 25 16t52 30l-2 -2q12 6 55 57h3q4 6 37 42t110 142q14 25 31 76l8 27l27 127l30 170
q-2 8 -2 20l-2 23q-2 75 -31 153t-112 189l-45 16q-37 15 -109 19l-59 10q-31 -6 -68 -25l-86 -51q-45 -35 -112 -102q-6 -8 -66 -84l-37 -47l-26 -45q-12 -18 -37 -60q-12 -27 -23 -80v-12zM907 1393l201 12q97 0 151 -22t158 -117q13 -17 47 -53q33 -37 37 -41t19 -39
l30 -76q7 -19 18 -44t13 -31t2 -56q6 -33 12 -80l-20 -133q-12 -44 -21 -74l-14 -90q-4 -62 -100 -191l-43 -63l-105 -98q-43 -43 -143 -117q-186 -104 -406 -105q-131 0 -192 23v-2q-215 63 -291 301q-45 149 -45 260l2 47l19 111q2 1 10 57t65 154q18 41 85 119t122 147
q115 98 254 151q104 45 135 50z" />
    <glyph glyph-name="P" unicode="P" horiz-adv-x="985" 
d="M727 1237q-25 0 -57 -40t-34 -54q-3 -14 -6 -35t-7 -44q-5 -24 -7 -31t-12 -46l-12 -57l-12 -45q-12 -25 -19 -74v-49q0 -51 8 -64v2q5 -6 9 -6t8 2l69 11q51 4 66 6v-2q55 25 119 96q16 12 24 37l25 65q8 27 29 58v45q0 16 10 84v6q0 16 -10 35q-16 12 -43 45
q-26 33 -37 45q-4 2 -12 4t-13 4h-47l-37 2h-2zM305 1300v17q17 47 68 47l8 -2h4q20 -4 25 -4l71 8l94 -10q6 -2 15 -2l52 10h9q25 8 31 8l27 -2l16 2l55 -2l37 -2q33 0 44 -4t21 -6t17 -4q164 -12 231 -248q24 -98 5 -158l-7 -26q-27 -131 -151 -222h2q-94 -82 -152 -98
l-41 -10q-74 -14 -77 -14h-41l-68 -7l-51 2h-4q-20 0 -37 -65l-33 -119v-4l-2 -4q0 -25 -3 -47t-5 -39l-4 -21l-17 -63q-4 -25 -4 -33q0 -61 52 -100h-3q31 -20 31 -43v-8q-6 -31 -53 -31l-100 4l-70 2l-76 -6l-31 -2q-36 -4 -49 -4q-68 0 -67 45q7 39 32 51h-2l43 25
q36 20 95 168q2 6 6 15t4 11h-2q39 127 49 221q5 8 5 26t9 36l13 37l-2 -2l28 161q14 61 23 136l24 98l13 94l2 18q0 70 -74 115q-35 23 -35 55z" />
    <glyph glyph-name="Q" unicode="Q" horiz-adv-x="1484" 
d="M991 -6l2 -2h2q-2 2 -4 2zM684 143q2 0 57 -18l45 -14l17 -2h33q10 0 27 5t50 11t50 16q166 94 192 164q81 115 109 189t52 184q24 112 26 158q1 46 1 67q0 72 -43 160q-29 72 -96 147q-15 13 -33 23l-32 8q-2 -1 -30 11t-48 12h-57q-51 0 -60 -2h-4q-27 0 -135 -72
q-2 -2 -12 -8l6 6q-49 -40 -69 -56t-116 -124q-32 -58 -56 -100t-77 -185h2l-39 -152q-8 -41 -8 -69t8 -60q8 -34 10 -38q1 -4 13 -42q16 -72 84 -139q53 -37 94 -59h-4q17 -6 41 -21h2zM1073 -25q-23 1 -51 9t-33 6q-6 -2 -17 -5t-26 -8l2 3q-8 -5 -22 -5l-4 -2l-74 11
l-49 -11l-131 -10q-59 0 -174 68h2q-2 2 -16 7q-51 19 -105 79q-73 72 -92 129q-57 145 -67 179t-9 81v26l8 76q6 18 8 44q5 76 64 227q0 8 43 77q55 104 59 111q57 82 178 176q33 27 64 43l49 25q31 23 131 75q94 23 190 23l95 -10q102 0 111 -5q37 -21 145 -53
q14 -6 34 -26q13 -17 20 -25t12 -14t7 -8t41 -56q0 -6 4 -6l21 -28q14 -18 46 -70t38 -90l10 -53q27 -144 10 -211q-37 -164 -61 -219l-14 -35q-6 -23 -56 -94l-26 -33q-4 -9 -12 -21t-19 -26l-47 -60l-19 -20l-41 -35q-24 -14 -94 -72q18 2 90 47h-2q29 18 66 19h61l11 -2
h4q8 2 28 2q51 0 52 -53q0 -22 -8 -36t-7 -24q-18 -55 -18 -63q-33 -43 -115 -43h-18q-23 0 -37 2h-15l-6 2l-67 -6h-25q-14 2 -21 2t-49 -4l-37 -5l-18 -2h-2z" />
    <glyph glyph-name="R" unicode="R" horiz-adv-x="991" 
d="M598 967q0 -16 -6 -39l-6 -29q-8 -43 -19 -70v5l-4 -31l-2 -25v-22q0 -13 51 -13h66q20 0 61 23q119 66 150 149l20 52q6 31 6 69q-4 20 -14 66t-31 72q-20 41 -32 53q-28 18 -44 18h-30l-70 -12l-2 -2q-16 -10 -41 -66q-22 -36 -28 -55l-9 -66l-16 -73v-4zM1040 139v-8
q-2 -7 -5 -21q-7 -33 -111 -77q-105 -45 -138 -45t-57 35l-16 163v138l4 100l-2 47q-4 70 -8 86q-14 29 -68 68q-7 8 -41 8q-34 1 -52 -15t-22 -32l-14 -72q0 -4 -3 -10t-8 -30q-5 -23 -26 -89l-20 -63q-10 -78 -11 -170q2 -16 17 -25q74 -37 73 -76v-6q-6 -37 -45 -43
q-8 -2 -43 -2h-129q-49 8 -59 8t-13 1t-20 -5l2 2q-6 -2 -22 -6h-66q-51 0 -51 43q0 37 45 69t53 40q51 53 62 108l41 174q8 42 28 121q8 45 19 101q10 56 10 59l18 80q2 9 6 31t6 30q1 8 9 41l18 96l15 99q4 26 4 66t-1 58t-24 37q-31 35 -30 50v6q11 55 77 55h58
q37 0 61 2l21 2q16 0 51 -6l29 -2q12 -2 22 -2l86 8q89 0 117 -14q5 0 11 -1t34 -6t72 -20q84 -74 104 -126t22 -93l7 -33q4 -16 4 -45q0 -90 -76 -205q-10 -20 -74 -86q-6 -2 -8 -3l-26 -13q-80 -40 -87 -59q2 -2 8 -10t13 -16q6 -7 12 -15h-2q0 -3 6 -9q9 -29 13 -91
t9 -87t5 -61l-2 -56q-4 -33 -4 -57t4 -42t24 -20t31 -6q9 -4 19 -7q34 -11 34 -46z" />
    <glyph glyph-name="S" unicode="S" horiz-adv-x="1030" 
d="M223 461q31 0 37 -33l16 -113l9 -26q0 -10 12 -49l43 -43l27 -33q18 -25 51 -43q30 -27 42 -31t19 -8l60 8q69 4 97 14t53 34l28 28q29 22 45 42t39 48q39 59 39 125q0 123 -142 172l-53 29l2 -2l-125 34l-39 27q-47 31 -92 61v3q-2 2 -10 15t-31 44v-2q-55 82 -59 137
v10l6 39q4 20 7 47q8 72 58 148v-2q61 96 195 182l41 23l39 18q89 43 187 43t134 -3t119 -40q23 -4 62 -37q20 -33 24 -110v-62q0 -52 -6 -82l-2 -43q-6 -39 -40 -39t-52 25q-12 12 -23 74q-2 14 -30 49q-21 14 -26 19t-9 7l-39 39q-47 57 -53 66l2 -4q-13 14 -35 14t-66 -6
l-67 -8q-27 -8 -62 -41l-69 -68q-50 -59 -54 -137q0 -86 84 -137q16 -12 68 -23l21 -4q2 0 77 -22q10 -2 64 -37l-2 2q79 -38 108 -72q72 -80 84 -119l-2 2q14 -29 25 -70q10 -41 16 -57q-4 -72 -16 -131l-8 -45q-16 -86 -111 -174q-20 -15 -100 -77q-120 -93 -238 -93h-14
l-113 4h-51l-33 2l-63 17q-7 1 -28 5q-21 5 -44 8t-41 7q-96 33 -96 94v4l2 52q4 93 14 114l-2 -2q8 48 9 58t3 16q25 119 78 119z" />
    <glyph glyph-name="T" unicode="T" horiz-adv-x="1019" 
d="M1092 1119q0 24 -17 38q-15 8 -39 9t-35 8l3 -3l-60 13q-12 0 -26 -6t-37 -41q-31 -31 -31 -45l-10 -56l-4 -51l-7 -20l-6 -47l-6 -30q-4 -20 -9 -32t-15 -57l-37 -178l-13 -70q-2 -2 -2 2v-2l-2 -2q-10 -31 -32 -115l-13 -110l-24 -109q-2 -14 -2 -41q0 -63 59 -80
q8 -2 19 -24t12 -35v-2q-6 -41 -66 -41h-30q-61 0 -125 8h-2l-93 -10q-74 0 -82 8l-24 -4q-25 -4 -31 -4q-37 0 -37 33v6q6 29 39 51q36 16 71 35q34 18 48 47q29 43 49 137l21 92l30 162l33 139q2 10 16 63t17 76q0 29 18 109l6 35l27 112q2 10 2 41l-2 23q-2 20 0 23h-29
l-69 16q-80 0 -133 -64q-10 -25 -27 -53v2q-36 -71 -88 -71q-35 0 -35 34l37 174v2l12 132q10 29 56 28v-2q4 -2 65 -16t105 -4q8 0 47 6l188 12v-39q129 0 121 12q-4 8 -53 17l88 -12q37 -4 49 -5h12l94 11l91 6q4 0 40 12t76 12q39 0 39 -36v-13q-4 -6 -26 -51l-13 -20
q-63 -140 -106 -220q-25 -29 -56 -28q-41 0 -41 49q5 30 5 54z" />
    <glyph glyph-name="U" unicode="U" horiz-adv-x="1390" 
d="M1298 1061q0 16 7 90q0 10 -7 23l-28 28q-6 6 -31 49l-33 29q-31 25 -30 45v4q6 39 75 39l140 -12h6q12 4 55 4h88l53 2q51 0 51 -35t-75 -98l-25 -12q-34 -8 -71 -70q-15 -25 -23 -71t-11 -60t-5 -25l-35 -192l-15 -39l-53 -225v-5l-12 -75v-6q0 -43 -35 -109
q-14 -33 -22 -57t-16 -33q-7 -10 -9 -14l-10 -23q-35 -66 -80 -102q-117 -111 -199 -123q-6 0 -10 -2t-18 -4t-25 -5l-143 -10q-16 -2 -70 -2q-79 0 -274 76q-35 20 -59 60t-30 44q-41 72 -44 99t-3 63t13 88l2 19l14 53l10 68v40q0 8 4 21l23 117q0 2 2 6v4q27 122 57 182
l9 113v4l2 4q0 2 5 14t7 23l6 27q10 57 10 81q0 68 -35 83t-43 32q-6 6 -6 19v10q8 43 72 45l49 2h23q6 -2 14 -2t22 2h99l123 4l75 2q72 0 72 -49v-6q-2 -6 -4 -16q-1 -9 -19 -27t-69 -33v2q-76 -25 -109 -76v2q-26 -47 -53 -192l-6 -43l-2 -21q-6 -18 -6 -47
q-4 -12 -19 -55l-2 -16q-2 -3 -6 -17t-8 -25t-6 -20h2q-2 -8 -5 -14t-5 -13l2 3q-3 -13 -5 -49q-1 -35 -16 -95l-12 -63l-10 -37q-27 -93 -27 -129t2 -39l12 -29q25 -74 30 -81t40 -25h-4q4 -2 53 -39q8 -10 17 -10l94 14l96 -4q30 4 96 28q74 37 100 64t72 92l31 39v6
q4 8 6 14l-2 -2q14 57 23 82l80 293l6 45l22 121l10 41q-2 0 7 57q0 8 -9 48v14z" />
    <glyph glyph-name="V" unicode="V" horiz-adv-x="1175" 
d="M586 -29q-28 0 -43 29q-2 23 -5 77t-22 128l-20 270q0 23 -4 76v14q0 4 -43 203l34 4q-37 18 -39 53q-18 235 -94 398v2q-20 21 -42 43t-21 47v12q12 49 75 51l58 -6q80 -6 118 -6t107 6l33 -2q41 4 47 4q82 0 82 -45v-10q-1 -14 -73 -61t-75 -72l-4 -25q-12 -75 -12 -83
l-2 -17q0 -10 8 -60l10 -88l17 -59l6 -55q18 -94 23 -125l-3 -23q0 -33 -1 -52t8 -52l24 -115q8 -33 8 -37q2 4 5 11t33 56q30 48 57 102q26 55 41 85l49 90q8 16 57 78l25 47l47 70l32 57l29 45l19 51l20 37q8 16 12 28t21 48q-4 14 -41 51t-37 72v10q6 39 53 39l140 -12
l124 12q51 0 52 -47q0 -31 -25 -61q-8 -8 -43 -22t-57 -44q-10 -25 -70 -111l-63 -98l-62 -108q-37 -55 -67 -113t-91 -154l-32 -53q-39 -61 -58 -96q-31 -47 -63 -105l-105 -184q-85 -141 -107 -173t-50 -32z" />
    <glyph glyph-name="W" unicode="W" horiz-adv-x="1636" 
d="M1096 1182q0 -27 14 -90q6 -23 23 -23q4 0 16 6q0 2 10 17l2 6q25 41 47 108v11q0 16 -2 19t-22 8q-18 5 -23 18q-5 -9 -12 -13l-49 -28q-4 -12 -4 -39zM870 1376h7l137 -6h110q39 0 50 -31q23 35 59 35h31q12 -2 20 -2h51q31 0 54 2h51q75 0 65 -67q-6 -25 -25 -42
t-67 -44t-139 -158v2q-18 -29 -36 -69t-52 -93q-10 -20 -10 -45q6 -31 22 -256q14 -103 21 -125l-2 -35v-20q0 -49 -3 -49q4 1 40 63q51 88 110 211t91 165q31 42 71 122l49 104q8 25 19 45q11 21 18 39v2q0 18 -12 53t-27 78l-25 19q-8 16 -8 29v4q2 6 5 17q3 10 25 30
t38 20h4q117 -10 162 -10t51 2h47q72 0 72 -53q0 -2 -2 -6v-7q-2 -23 -29 -40l-55 -29q-35 -23 -68 -72t-53 -80h2q-23 -31 -114 -204t-135 -251t-75 -137v2q-23 -41 -29 -49h3q-123 -221 -187 -377q-31 -94 -84 -94q-33 -1 -40 13t-19 88l-19 137l-16 55l-4 43l-16 43
l-5 64q-10 53 -17 95t-9 48q-8 -12 -13 -19t-16 -26q-10 -20 -26 -49l-41 -66l-82 -168q-106 -174 -109 -184q-29 -66 -65 -66q-14 0 -36 28t-22 46l-6 51l-10 48l-12 120l-25 121l-6 68l-10 35l-11 104l-16 82l-14 123l-15 88l-6 65q-4 43 -12 109l-8 20q-6 25 -20 67
q-13 42 -19 62q-9 9 -51 37q-33 25 -33 62v14q12 51 71 51l175 -6q18 0 28 2l33 2q120 0 143 -8q31 -16 31 -44t-2 -46q-2 -19 -20 -31l-41 -35q-35 -38 -47 -106t-11 -92q0 -84 47 -260l6 -107l17 -115l2 -75l12 -84q14 0 58 86q4 6 24 41t39 63l16 31q61 111 70 127
q4 16 4 48q0 33 -24 109t-28 125q-9 143 -42 236q0 -2 -37 21h4q-23 8 -22 38q0 78 75 78z" />
    <glyph glyph-name="X" unicode="X" horiz-adv-x="1132" 
d="M328 1309v6q16 47 73 47h9l125 4q23 0 43 -2l45 -4l32 -4q37 -6 123 -10q31 0 31 -32t-4 -47t-23 -38q-39 -33 -55 -45q-29 -33 -29 -67t6 -45t8 -21q3 -9 10 -29t13 -41l4 -41q13 -44 22 -56q23 -29 64 13q4 4 12 11q7 6 13 14t14 14l101 102q13 20 53 60l45 45
q31 43 31 65q0 21 -6 26t-44 11q-33 6 -32 39l2 19q16 47 61 47l74 -2q4 2 12 2t28 5t64 5v-39q104 0 131 14q20 10 -79 19q-8 2 -17 2q59 0 82 -2q68 -4 68 -49v-7q-2 -6 -2 -8q-2 -20 -39 -43q-4 -4 -62 -22q-72 -14 -239 -217q-8 -10 -54 -60t-77 -84q-25 -20 -35 -30
t-45 -41t-37 -47t-2 -21v-12l28 -95l-2 3q16 -43 27 -142q8 -16 23 -49l34 -84l17 -49q14 -57 55 -98q4 -6 24 -29q76 -85 76 -117v-6q-10 -45 -49 -45h-4l-41 2l-28 -2h-105l-57 4q-8 0 -13 -2h-16l-100 14l-21 2q-61 4 -61 43l2 7v6q4 20 17 30t38 25q25 16 39 27h-4
q18 18 20 59v12q0 27 -10 52l-28 63l-2 6v6l-7 19q-2 45 -20 78l-31 67q-2 2 -2 4q-18 -10 -49 -45l-25 -22l-32 -35h2l-13 -16v2q-84 -102 -122 -143t-37 -80q-1 -39 27 -81t28 -63v-6q-6 -27 -35 -35h-80q-28 0 -76 10l-2 2h-2q-6 2 -16 2h-4q-8 0 -86 -8l-23 -2
q-10 -2 -37 -2q-51 0 -51 43q0 25 27 57q23 10 74 31q20 8 84 74q9 5 16 18l55 54q14 10 54 55q12 18 55 69l14 19q14 16 38 40t36 50q8 8 15 18t19 24q11 13 17 21v-2q62 62 70 121q0 4 -4 21l2 -2q0 2 -10 15t-13 22v-2q-8 12 -12 34l-12 76q-4 27 -25 64l-27 84l2 -2
q-12 25 -33 96q-20 71 -24 78q-17 14 -35 24q-16 25 -61 78q-6 18 -6 29z" />
    <glyph glyph-name="Y" unicode="Y" horiz-adv-x="1120" 
d="M571 383l31 104l14 107l2 4v4l9 66q1 2 -23 64t-47 130v-4q-20 45 -33 60q-18 32 -32 68t-29 77l-2 2q-33 80 -35 82l-33 39l-24 37l-23 24q-59 43 -59 66v8q6 16 24 35q47 0 152 12q19 0 57 -8l76 6v-37q18 35 51 33q2 -2 37 -2q72 0 72 -45v-6q-8 -25 -27 -39l-37 -35
q-18 -18 -20 -31v-4q0 -29 37 -113q14 -45 61 -104q6 -23 18 -53l25 -51q8 -35 4 -35q41 0 166 174q31 44 49 62t49 53q25 23 29 33t4 26q0 14 -6 28t-6 15q-2 2 -7 9t-15 14t-17 14l6 -2q-16 10 -16 28v7q2 6 2 8q10 47 82 47h20q47 0 55 -4h5l69 8q142 0 144 -57v-11
q-2 -25 -25 -39q-2 -2 -49 -25t-109 -79q-2 0 -14 -12q-11 -11 -21 -19t-18 -15t-61 -83l-203 -229q-33 -27 -50 -60t-32 -100l-27 -131q-14 -47 -18 -58q0 -25 -6 -65l-37 -150q-6 -27 -6 -41t8 -44t36 -59q28 -28 27 -52v-8q-10 -29 -34 -29h-5l-41 2q-8 -2 -28 -2h-15
l-94 2h-8q-53 -4 -57 -4h-6l-56 4l-28 -2h-45q-61 0 -62 37v4q4 29 29 39l47 20q25 14 63 62q45 45 50 61l8 45z" />
    <glyph glyph-name="Z" unicode="Z" horiz-adv-x="989" 
d="M788 0q-49 0 -73 -4h-21q-33 0 -55 2h-10q-41 2 -77 2t-110 -6h-30l-25 -2q-6 4 -43 6l-35 6q-18 8 -96 8l-37 -6q-10 -2 -33 -2q-4 -4 -18 -4q-53 0 -53 45t82 150q10 10 36 45t56 69q31 35 78 97l18 24l29 33l12 20q29 35 40 46t19 28v2q8 15 24 31t50 65
q29 33 123 195l57 84q4 0 15 12v-2q2 2 12 16t18 25v-2l43 51q96 113 111 164v14q0 15 -23 15l-28 2l-70 4h-47q-6 2 -18 2l-19 2q-81 0 -178 -43q-37 -23 -70 -79t-65 -56q-16 0 -29 12q-12 13 -12 25t6 20l12 31l-2 -2l8 55q4 4 8 15t10 33q7 22 7 26v4q2 4 2 18
q8 80 55 80q6 -2 27 -6t30 -7t16 -3l77 8q12 8 69 -3t83 -11t85 8l129 4q7 0 17 -2l59 -4h4q41 4 78 4h35q76 0 76 -51l-2 -15q-7 -35 -87 -131q-80 -95 -99 -127t-83 -126t-79 -119v2q-16 -27 -42 -59t-40 -56l-37 -47l-37 -62v2q-12 -25 -53 -75l-11 -19l-67 -71l-23 -29
l-18 -27v2l-80 -129q-35 -41 -35 -80v-8q16 -16 162 -16t199 39q4 6 26 28q14 18 38 36t36 57l57 51q47 0 47 -45q0 -12 -4 -25l2 2q-8 -26 -12 -43l-6 -35l-18 -49h2q0 -8 -27 -102q-10 -18 -29 -37l-61 4q-2 2 -6 2l-4 -2h-9z" />
    <glyph glyph-name="bracketleft" unicode="[" horiz-adv-x="573" 
d="M756 1415l35 2l6 2q57 0 57 -53v-6q-4 -53 -45 -53l-53 2v-2q-55 1 -83 -19q-29 -20 -55 -83t-38 -107q-4 -31 -6 -42t-6 -36q-3 -25 -5 -37l-31 -104l-18 -105l-16 -69q-2 -3 -2 -11t-8 -41t-13 -82l-22 -73q-3 -15 -15 -111q-30 -65 -30 -89t-4 -44t-5 -35l-12 -53
l-8 -127q0 -47 15 -59t20 -13h41q80 0 80 -51l-3 -6v-8q-6 -39 -45 -39h-8l-41 4l-43 -8q-12 0 -18 4l-43 6l-123 -6q-57 0 -76 31q-8 12 -8 45q1 33 27 115t39 126q6 79 18 111t12 35l2 4q0 4 2 15t6 54q5 43 9 62t16 57t12 43l29 152l8 94l27 80q6 18 24 135l11 55
q4 12 6 49l6 23q6 41 51 147q4 18 17 60q10 57 98 57v-37q2 10 16 22t35 11l37 2q25 -6 33 -6t43 8z" />
    <glyph glyph-name="backslash" unicode="\" horiz-adv-x="811" 
d="M371 1432q31 0 49 -18t26 -66q12 -30 16 -58t18 -63t15 -45t4 -34t5 -46l22 -84l4 -41q4 -11 16 -43q10 -33 28 -79q18 -45 27 -95t20 -74l6 -53q6 -12 16 -44q10 -31 18 -55q9 -24 9 -27t2 -12l6 -27q10 -42 13 -49q4 -7 5 -11l29 -107l10 -61l-2 2q23 -57 35 -78l6 -47
l10 -33q2 -6 8 -27l9 -34q10 -27 10 -33v-6q-6 -41 -55 -41t-64 23q-14 24 -20 69v6q-2 6 -2 10t-45 96l-4 43q-37 67 -37 146l-15 22l-16 48q-16 49 -16 88v6l-23 59q-6 16 -25 125l3 -2q-18 49 -50 154q-20 84 -44 150t-27 108q-4 44 -27 114q-12 61 -18 86l-19 90
q11 48 64 48z" />
    <glyph glyph-name="bracketright" unicode="]" horiz-adv-x="573" 
d="M12 -100q0 9 2 16q11 55 68 55q8 0 16 -2h11l28 2h4q3 0 11 2t15 3t15 4l-2 -3q32 12 62 72t36 85t10 75q5 50 36 131v4q12 23 18 92q4 10 8 49q26 91 38 174t18 107l16 94q35 88 35 106t4 32q4 16 6 27t4 19l14 74l-2 45l15 62v4q0 4 -4 53q-2 4 -18 14t-23 11h-33
q-82 0 -82 55v10q10 43 45 43h4l39 -4q27 8 51 8l2 2q17 -8 23 -8h12q12 -4 29 -4h12q49 6 88 6t59 -4q39 -23 39 -67t-9 -76q-8 -32 -34 -124t-41 -163l-10 -49l-8 -80q0 -14 -8 -50t-13 -44l-20 -80q-6 -31 -12 -72l-11 -76l-6 -22q-14 -81 -27 -114t-20 -68l-6 -23
l-8 -47l-6 -23l-8 -75l-27 -109q-4 -4 -10 -21t-27 -63q-10 -53 -20 -69q-20 -23 -62 -29l2 2q-6 -4 -18 -4l-15 -2q-14 0 -59 6l-27 2q-14 2 -28 2l-45 -10l-95 -4q-51 0 -51 41z" />
    <glyph glyph-name="asciicircum" unicode="^" horiz-adv-x="987" 
d="M1204 559h-112l-269 594l-526 -594h-248l754 848h33z" />
    <glyph glyph-name="underscore" unicode="_" horiz-adv-x="985" 
d="M-29 -92h1024l-28 -86h-1024z" />
    <glyph glyph-name="grave" unicode="`" horiz-adv-x="888" 
d="M591 899q19 -29 46 -59l37 -37q25 -25 24 -51v-9q-6 -33 -39 -32q-14 0 -63 24v-2l-90 29q-39 10 -56 22t-18 41q6 47 40 75t67 28t52 -29z" />
    <glyph glyph-name="a" unicode="a" horiz-adv-x="638" 
d="M270 173q0 -7 22 -27t60 -19q47 0 72 84l22 76q6 7 8 19t5 16v4l35 213v4q0 16 -13 53q-8 16 -22 27h-21q-31 -10 -39 -19v2l-12 -12q-29 -10 -47 -42t-33 -73l-31 -123q-12 -98 -4 -159v-11q-2 -6 -2 -13zM500 -12q-14 0 -41 10q-10 0 -43 33q-14 -8 -47 -19
q-57 -24 -138 -24t-137 69q-14 14 -14 45v33q2 33 8 49l-2 -2q2 10 10 31l-2 -2q8 29 10 33l-2 -2q23 76 68 231q67 190 137 223q23 16 72 31l-2 -2l26 12q37 17 85 17t83 -13q51 -20 86 -98q9 -16 9 -52t-1 -38t-12 -39l-53 -250l-6 -18l2 2q-2 -27 -6 -37q0 -55 20 -57
l41 -19q10 -10 11 -20v-9q-4 -12 -56 -65t-106 -53z" />
    <glyph glyph-name="b" unicode="b" horiz-adv-x="823" 
d="M401 410l-28 -177v-12q10 -59 47 -108q6 -3 14 -11l29 -2q35 -2 47 -4q61 2 117 76q37 57 54 135t17 121q0 113 -63 141q-18 8 -53 19l-41 4q-33 0 -41 6q-25 -2 -45 -25t-27 -55l-8 -47q-7 -40 -19 -61zM274 649v10q14 57 19 79q6 22 7 26t3 10t2 8l-2 -2l12 47
q16 80 27 199l4 70q-2 25 4 28h-18q0 8 -13 15q-35 18 -34 55v12q10 31 75 56q74 23 122 57t79 35q47 0 47 -43q0 -29 -12 -45q-39 -93 -47 -127l-17 -90q-21 -48 -30 -144q-9 -97 -20 -133t-11 -53q6 -1 42 21t48 24l27 2h65q66 0 135 -70q102 -106 103 -215q0 -22 -2 -32
l-19 -138q-23 -131 -163 -248q-102 -80 -250 -79q-39 0 -73 22t-40 29q-20 -16 -33 -23h2q-12 -12 -30 -12l-68 2q-18 0 -31 -2h-39q-61 0 -61 37v6q8 25 27 43q53 41 57 50t14 57l21 120q2 12 39 164q15 43 23 105q9 61 9 67z" />
    <glyph glyph-name="c" unicode="c" horiz-adv-x="653" 
d="M774 625q0 -18 -4 -31l2 2q-8 -32 -34 -54t-52 -22q-63 0 -117 86q-12 23 -25 27t-55 6h-20q-35 -6 -76 -53t-63 -154l-4 -33l-13 -51q0 -8 6 -16l9 -27l12 -57q23 -90 57 -116t43 -26h29q55 0 101 22t58 22q11 0 19 -10t8 -17v-2q-6 -16 -39 -43q-137 -90 -163 -90
q-125 0 -189 30q-14 4 -61 50t-76 141q0 70 6 168v22q25 121 133 228q58 57 116 89t140 34l68 2q131 0 172 -80q12 -29 12 -47z" />
    <glyph glyph-name="d" unicode="d" horiz-adv-x="792" 
d="M504 61q0 -16 4 -18zM541 573q-133 0 -203 -100q-27 -43 -43 -121t-16 -101q0 -24 22 -79q19 -43 81 -43t115 49q52 49 62 117l19 88v2l2 4q0 8 2 12l10 39l8 113q-16 20 -59 20zM934 1348q51 0 51 -43q0 -10 -2 -17v-4q-4 -19 -16 -41t-25 -70q-12 -47 -33 -108
q-6 -7 -11 -39l-7 -45q-15 -94 -31 -141l-139 -652v-4q-2 -10 -2 -20v-8l10 -29l6 -29q14 -29 15 -49v-6q-16 -47 -74 -47h-12q-10 0 -31 4h-51q-47 0 -64 16l-10 25q-6 -6 -37 -16q-29 -14 -57 -23l-37 -2l-45 -6q-31 0 -76 18t-57 29q-40 44 -80 162h2q-10 29 -10 61t6 62
q57 240 170 338q63 53 182 81l72 17h4q63 0 96 -51q2 0 2 -2q6 25 6 51l19 55l10 41q0 6 7 26t12 43q5 22 10 33l12 80l12 62q2 4 2 11t-12 28q-8 6 -31 20l2 -2q-16 8 -16 29l2 16q0 33 39 51l37 21q35 10 98 45v-2q47 31 82 31z" />
    <glyph glyph-name="e" unicode="e" horiz-adv-x="630" 
d="M472 549q82 0 83 7q2 6 2 28q-1 22 -27 40t-68 19q-42 0 -81 -37q-20 -16 -29 -45v-4q38 -8 120 -8zM641 449l-39 2l-8 2l-109 -7h-28l-105 9q-31 0 -59 -21q-10 -10 -12 -16t-10 -57t0 -75q7 -24 51 -63q36 -37 56 -44t56 -7t90 13t60 18l28 8q29 0 29 -29v-6
q-4 -23 -16 -37q0 -4 -7 -14q-24 -55 -68 -80q-7 -4 -13 -8v2q-84 -53 -195 -53q-22 0 -52 11t-31 11h-3q-8 4 -22 9q-48 18 -115 194q-6 47 -6 77t4 46q16 40 30 80q43 123 95 178q20 24 86 90q94 70 184 70q119 0 197 -113q40 -57 24 -109l2 2q-16 -84 -94 -83z" />
    <glyph glyph-name="f" unicode="f" horiz-adv-x="450" 
d="M201 700q-17 14 -17 27v8q0 16 27 43h2q4 4 8 4q5 6 23 12t30 9l25 12l2 2v2l21 103q2 4 34 82l19 40q78 193 194 277q66 43 119 43q106 0 107 -90q0 -113 -86 -113q-63 0 -84 68q-2 -2 -7 -2q-18 0 -32 -27l-25 -59q-37 -91 -52 -188t-15 -128q14 -6 38 -16
q68 -20 68 -60t-53 -51h-19q-49 0 -59 -22q-2 -8 -10 -30q-19 -51 -31 -107q-10 -56 -14 -68q-4 -13 -8 -35t-8 -42l-15 -60q-10 -41 -21 -84l-137 -539q-2 -8 -5 -17q-3 -10 -7 -24l-12 -43q-16 -45 -64 -104q-41 -59 -82 -88h2q-74 -55 -173 -55t-99 90q0 113 88 112
q59 0 84 -65q2 2 6 2q23 0 37 37l25 63q2 4 5 8t3 8l-2 -2l8 29q0 18 14 57l142 568q40 150 49 231q14 63 24 90q10 28 12 46t5 30v6l-9 10l-57 -2h-12q-2 2 -6 2z" />
    <glyph glyph-name="g" unicode="g" horiz-adv-x="757" 
d="M319 375q0 -4 11 -39q25 -90 63 -90q113 0 158 51q2 2 29 38q26 37 34 71t8 92t-20 86q0 2 -4 2t-4 2l-92 30q-38 0 -86 -32l-33 -33q-45 -47 -55 -84q-15 -81 -9 -92v-2zM141 -381q1 -104 143 -104t242 96q30 26 37 94q0 63 -88 123q-33 25 -53 25l-55 -7l-23 4l-35 7
q-8 -2 -61 -41l-21 -17q-86 -67 -86 -180zM158 350q0 54 26 140t84 151q82 82 160 98q30 5 52 17t78 12t85 -4q37 -18 74 -39h6l6 4q43 37 72 37t52 -25t17 -59q-6 -35 -22 -55l-23 -23q-8 -8 -24 -20q-4 -4 -10 -62l-7 -57l-10 -57q-14 -57 -26 -84q-31 -74 -127 -136
q-6 -4 -23 -12l2 2q-8 -4 -49 -28q-27 -10 -55 -13l-4 -2h-5q-56 -8 -61 -8l-18 -2h-19q-18 0 -42 11q-25 10 -33 16t-13 10q-6 4 -8 6l-2 4v-41q-25 0 -27 -12v-6q0 -16 47 -23l105 -14l102 2q12 -4 43 -27h-4q4 -3 9 -4q-3 2 -5 4q12 0 12 -8l-2 2q0 -2 2 -2
q106 -43 136 -149v-15q0 -41 -15 -100l-10 -29l-4 -29l-10 -32q-25 -80 -45 -113q-49 -70 -115 -102q-2 -10 -23 -11l7 2q-9 0 -23 -14q-119 -70 -213 -69q-184 0 -252 116q-31 53 -31 117l2 39q25 102 39 133q29 70 93 109q20 16 41 30q-20 68 -20 102q-1 102 26 132l37 45
q-23 31 -25 59l2 -2q-12 33 -12 88z" />
    <glyph glyph-name="h" unicode="h" horiz-adv-x="792" 
d="M406 33v-8q-10 -29 -42 -29t-90 6q-45 0 -69 2l-23 2q-47 -6 -67 -6q-55 0 -56 35v8q3 16 9 20t49 29l-2 -2q27 13 35 29q12 29 26 61t14 66l31 155l8 23l19 86l18 55q8 37 21 158l8 22q4 25 11 56t9 49l17 61l4 21l8 51q0 5 16 53q-4 31 -12 74l-26 10q-31 6 -31 37v14
q7 23 59 49t96 64q101 74 115 74t36 -18t21 -33v-2q-49 -135 -51 -166l-18 -88q0 -7 -4 -21t-6 -27t-7 -38l-16 -91q0 -7 -9 -22t-17 -50q-9 -34 -15 -54l25 16q22 14 90 14t121 -37t66 -65t18 -96q-1 -77 -9 -132t-8 -69q0 -13 -4 -23t-4 -12t-2 -4l-6 -25l-10 -63l-15 -64
q-10 -55 -12 -77v-7q-1 -6 21 -30t22 -43v-6q-6 -31 -59 -31l-121 16q-8 0 -13 -2l-59 -8q-37 0 -37 33v8q6 25 25 49q30 30 42 57t20 68q10 41 26 83t16 115q0 74 6 103l11 45q2 6 2 27q-1 20 -15 46q-25 44 -110 9q-52 -30 -62 -88l-14 -100l-14 -80q-12 -26 -23 -64
l-4 -80q0 -4 -4 -16h2q-21 -69 -23 -86l2 -25l19 -24q25 -31 25 -47z" />
    <glyph glyph-name="i" unicode="i" horiz-adv-x="395" 
d="M402 1008q40 0 70 -27t30 -66q-6 -51 -49 -90q-39 -41 -69 -41t-64 24t-33 52v6l2 19q1 58 37 91q36 32 76 32zM221 455q8 15 29 90v6q0 12 -37 45q-6 12 -6 27q0 43 53 61q20 10 72 41t76 31q39 0 38 -45v-17q0 -13 -8 -28l-12 -62l-6 -22q-4 -24 -12 -47q-4 -25 -8 -33
t-5 -14q-2 -6 -4 -13q-2 -6 -3 -11t-3 -7v-2q2 2 2 4l-2 -4q-4 -25 -6 -35l-4 -55l-31 -146l-2 -31v-24q0 -45 2 -49q20 -49 21 -68v-10q-8 -41 -82 -41l-41 2q-16 2 -45 2h-11l-67 -4q-33 6 -33 39q5 24 35 58t31 32v4l10 47l22 72l-2 -2l31 133q0 10 6 72l2 2v2z" />
    <glyph glyph-name="j" unicode="j" horiz-adv-x="417" 
d="M409 1012q49 0 72 -37t17 -74l2 2q-12 -49 -58 -83t-70 -34t-56 24t-31 36v41l2 35q2 10 22 39q19 29 35 40t65 11zM377 328v-9q-10 -29 -49 -208v-5q-4 -8 -6 -26t-3 -25l-71 -239q-2 -4 -5 -18q-4 -18 -27 -66q-22 -47 -118 -146q-44 -43 -76 -43t-32 37v10q4 24 30 60
t43 86l5 8q14 43 32 86l4 45l13 43l2 16q0 25 4 36t16 48l60 279l18 129q0 29 2 70v51q0 2 -13 17q-13 16 -13 32q0 58 45 78q25 8 41 14h-5l45 25q4 0 62 36q57 36 68 35q43 0 43 -43q-13 -67 -64 -133v-2q-2 -2 -2 2l-6 -80q-20 -49 -30 -121q-10 -73 -11 -75q-2 -2 -2 -4
z" />
    <glyph glyph-name="k" unicode="k" horiz-adv-x="806" 
d="M133 0h-43q-41 0 -41 37q6 16 18 28t54 37q18 12 29 39l28 82l17 41q10 31 26 109l6 45l11 33q0 7 2 15t6 28l4 26q2 29 18 80l15 51q2 15 6 38t6 36l24 111l13 49q12 37 20 101t8 84q0 22 -2 28t-4 10t-2 8q-43 23 -43 51v7q8 29 72 45q3 0 21 8t44 16q56 17 115 66
q23 23 47 22q33 0 33 -33q-6 -40 -36 -86q-30 -47 -36 -61q-27 -79 -32 -109t-11 -60t-10 -56l-8 -37q-25 -127 -33 -142q-8 -16 -6 -29q9 -58 -33 -149q-20 -55 -20 -71v-2q8 0 14 6l51 35h-2q37 22 39 22q37 31 45 39q63 39 107 84q14 33 39 68q23 23 41 22l51 -2
q12 0 24 2l33 2q90 0 90 -39v-8q-2 -23 -59 -49q-25 -16 -94 -55l-66 -35q-4 -4 -12 -8q-119 -59 -125 -93q2 -10 39 -63q14 -25 31 -86h-3q3 -6 18 -32q15 -27 23 -42q37 -94 44 -105t40 -40q27 -20 27 -43t-4 -35l2 2q-10 -43 -51 -43h-64l-49 -2h-39l-10 -2l2 -4
q-109 8 -109 43v2q5 21 25 43t23 22v2q-13 13 -19 95q0 8 -18 32l-4 13v6q-9 18 -9 24q0 -8 -22 19q-18 12 -25 24q-23 68 -37 68l-10 -41q-18 -59 -22 -70l-13 -86l-6 -22q-6 -6 -6 -14v-13q0 -29 20 -59t21 -47v-4q-6 -31 -38 -31t-64 8l-25 4q-20 -4 -53 -8h-27
q-16 -2 -47 -2z" />
    <glyph glyph-name="l" unicode="l" horiz-adv-x="405" 
d="M98 -2q-43 0 -43 35v4q6 23 19 35l43 39l20 24q33 43 41 101l31 100l12 80l12 67l5 31l34 119l4 57l17 74q4 20 8 36t6 29l19 72l2 4v6q2 33 6 39l-4 54v45q-12 18 -11 20l-34 23q-12 6 -13 26l2 25q8 37 91 74q25 10 51 34l47 29q66 33 72 39l12 6q35 0 35 -33l-2 -12
v-2q-12 -27 -15 -43l-10 -61q0 -4 -3 -10t-6 -13q-3 -8 -5 -12l-2 -17l2 2q-3 -8 -7 -20l-5 -15t-3 -7t-2 -7l2 2q-3 -10 -10 -47v-6l-18 -109l-52 -200q-2 -8 -5 -31q-3 -24 -10 -64t-13 -79l-25 -140q-8 -25 -18 -65v-47q-12 -113 -13 -115q7 -7 9 -24t8 -46l24 -24
q0 -10 3 -19l-3 -22q-10 -35 -49 -39h-207q-29 -2 -49 -2z" />
    <glyph glyph-name="m" unicode="m" horiz-adv-x="1275" 
d="M1110 561q0 80 -80 80q-37 0 -77 -23t-60 -53q-20 -60 -36 -93q-17 -34 -28 -71v-20q-6 -25 -6 -39q-23 -113 -22 -129l-8 -78q0 -14 65 -74q10 -10 10 -20v-8q-6 -33 -96 -33l-65 6l-17 2l-100 -8q-66 0 -66 39v6q4 23 47 100q48 103 53 145t11 79l10 20q6 25 9 36
l12 44q6 27 6 55t-10 58q-23 53 -78 53q-82 0 -135 -90q-15 -33 -15 -53l-8 -37l-31 -101h2l-6 -20l-8 -47l-18 -72q-2 -42 -3 -70q4 -12 15 -47q33 -46 33 -57v-6q-6 -31 -58 -31q-8 0 -55 6h-12q-20 0 -35 -2h-14q-20 0 -27 2h-12l-82 -6q-37 0 -37 31q6 36 18 45l51 41
q14 10 27 33l12 57q6 15 10 27t6 12q6 0 15 86l21 106q4 14 7 26t7 22l18 51v4q2 8 2 22t-8 21q-37 25 -37 47v6q8 23 21 31l63 33q47 29 56 32l-2 -2q50 33 75 33q39 0 39 -39v-10l-2 -6q6 0 16 6t21 10q10 7 80 17t102 10q98 0 142 -92q4 -4 4 -7l4 2q10 10 31 23
q16 16 106 59q41 15 54 21t61 6q133 0 207 -158v-22q0 -65 -16 -108q-16 -44 -24 -100t-8 -62t-3 -18q-3 -13 -8 -53t-23 -67v-18q0 -58 55 -101q12 -8 12 -22v-8q-6 -33 -88 -33t-119 8l-122 -6q-18 0 -27 16q-6 4 -6 16t4 23l-2 -2q4 14 34 46t38 43q9 11 18 38l-2 -2
q2 10 8 26t14 36l23 61l-2 -2l8 37l8 63l8 35q3 7 14 56q11 50 11 71z" />
    <glyph glyph-name="n" unicode="n" horiz-adv-x="774" 
d="M250 504q0 14 -4 22q-31 16 -64 47q-6 11 -6 21q0 29 47 55q82 39 107 51q86 56 102 56t31 -21l-2 -24q2 3 49 25t84 22t102 -19q70 -8 95 -71q4 -49 4 -80v-35l-2 -29l-9 -35l-10 -55q-2 -4 -2 -9t-5 -23t-7 -29l-15 -82q-8 -43 -8 -79q0 -83 27 -120q4 -10 14 -23
t15 -22q-8 -47 -70 -47h-27q-10 0 -47 4h-8l-55 -4h-17q-53 0 -77 2q-29 6 -29 37v10q0 14 43 53q8 8 24 39l21 37l16 88q0 6 12 39t31 123t19 116q0 96 -66 95q-47 0 -80 -27q-2 -4 -10 -15t-12 -19l-35 -82l-12 -33l2 2l-4 -27q-4 -4 -6 -10l-7 -25q-14 -47 -20 -61
q-3 -27 -5 -47t-3 -23l-19 -67v-39l-4 -35l5 -25q1 -10 1 -14l-2 4q0 -7 35 -35q10 -10 10 -22v-8q-6 -31 -55 -31q-8 0 -33 4l-55 6l-51 4h-4l-84 -14q-59 0 -60 41v10q6 25 60 55q8 4 49 62q12 20 55 194l14 60q0 15 15 55h-2q4 13 4 27z" />
    <glyph glyph-name="o" unicode="o" horiz-adv-x="821" 
d="M512 631q-27 0 -53 -10q-61 -45 -99 -97q-31 -37 -47 -120t-15 -95t6 -51t9 -72q6 -14 21 -20l41 -25q45 -33 49 -32q37 0 104 28q51 25 97 105q41 80 49 133q6 19 6 31t-2 16l-8 53q-8 67 -19 88q-30 68 -139 68zM451 -12q-117 0 -201 63q-57 39 -74 66q-61 76 -61 164
q0 27 7 52t21 103q16 66 33 86q94 135 236 187q163 60 278 34q2 -1 58 -27t77 -65l21 -35q35 -63 35 -139q0 -135 -121 -315q-43 -61 -129 -115v2l-64 -38q-14 -7 -20 -9l-2 -2q-53 -12 -94 -12z" />
    <glyph glyph-name="p" unicode="p" horiz-adv-x="786" 
d="M535 602q-63 0 -95 -45l-4 -22q-2 -6 -4 -18t-22 -68l-9 -54l-10 -28l-20 -111l-6 -41l-9 -37l9 -51q12 -25 77 -27h7q25 0 43 -2h2q31 0 69 37q115 111 115 303q0 164 -143 164zM244 -377q0 -37 28 -55q2 -4 20 -8t32 -15h-2q18 -8 18 -30v-13q-10 -39 -55 -39h-33
q-12 2 -23 2l-92 -8l-82 6q-8 0 -22 -2h-23q-57 0 -57 41v6q8 20 27 37q41 27 45 39q9 9 15 25q7 17 11 20q18 76 33 133l22 80v2q0 10 7 39q2 31 16 97l4 22l21 78l6 33q2 5 7 23t9 32l6 57l11 47l2 21q2 10 6 43l35 143l16 60q0 14 -8 22q-48 16 -47 51v9q8 33 118 88
q8 6 21 18q61 78 131 78q43 0 43 -39q0 -12 -2 -18t-2 -11q47 33 106 33t129 -27t94 -77t27 -158l2 -21l-6 -43q0 -2 -8 -41t-12 -67l-9 -51q-12 -68 -94 -156t-194 -131h4q-20 -10 -70 -14l-43 -4l-104 22q-4 -4 -23 -70l-8 -26l-6 -70l-43 -190q-4 -20 -4 -23z" />
    <glyph glyph-name="q" unicode="q" horiz-adv-x="794" 
d="M295 293l-14 -74l6 -12q12 -8 20 -33h-2q14 -35 60 -63q16 -8 45 -9q72 0 106 41q36 38 66 172q8 29 10 56l12 45l4 37q0 18 13 75v2q0 39 -37 56l-25 8q-18 -4 -55 -10l-51 -15q-35 -17 -87 -85t-57 -87l-6 -43l-8 -45v-16zM891 645v-8q-10 -25 -18 -35t-56 -35
q-6 -4 -29 -108q0 -79 -34 -158v-8q0 -25 -6 -70q-27 -84 -33 -112l-17 -74q-24 -57 -26 -93t-25 -143q-8 -23 -14 -57q-4 -4 -4 -12l-6 -86q-2 -6 -2 -20t-3 -25q0 -2 25 -39q14 -14 14 -37v-10q-10 -49 -65 -50h-100q-6 0 -19 -2h-104q-70 0 -70 41v4q13 32 16 35l52 43
l26 17q3 2 25 46t22 50l-2 2v6l2 17q0 44 39 120v4l2 60l6 33q0 41 5 61q-54 -18 -109 -18t-105 20t-100 98q-51 88 -51 166q0 25 4 40t4 18l6 24l2 25q0 54 4 69q18 90 93 170q127 142 252 158l43 -6l12 -2q2 0 17 -4t26 -6q20 -15 26 -18t9 -5l2 57q0 14 26 33
q58 39 101 -8q18 -18 39 -51l32 -31q66 -53 66 -86z" />
    <glyph glyph-name="r" unicode="r" horiz-adv-x="503" 
d="M336 144q0 -20 26 -40h-2q49 -29 50 -61v-10q-6 -39 -66 -39q-29 0 -104 6h-13l-63 -2q-84 0 -84 43v6q10 25 18 33l45 37q10 6 19 20q6 39 41 160l12 65q7 22 13 68t9 67t3 40t-19 30l2 -2l-18 8q-23 14 -23 41v11q2 23 39 45q2 2 10 5q9 3 21 10t46 25t50 28
q16 11 74 32l10 -49q33 18 37 22l41 15q51 12 63 12q104 0 105 -111q0 -76 -53 -116q-25 -19 -57 -19t-54 29h2q-12 10 -37 63q-27 -10 -49 -69q-25 -43 -41 -109l-18 -90q-5 -29 -13 -48q-8 -20 -13 -70t-7 -58t-2 -28z" />
    <glyph glyph-name="s" unicode="s" horiz-adv-x="587" 
d="M92 137q0 14 12 68l5 39q12 43 43 43q17 -1 22 -13q6 -12 16 -40t48 -65q38 -36 65 -36h45q45 8 75 40t30 73t-50 71l-49 27q-6 12 -40 36t-54 42t-35 29q-36 63 -22 120q33 154 192 193h11l65 4l47 2q12 0 49 -12l72 14h8q23 0 29 -31q0 -33 -12 -71t-13 -47l-6 -23h2
q-18 -68 -51 -68t-66 99q-18 57 -56 57t-61 -31t-25 -40t-3 -13v-4q0 -18 16 -45l62 -31l37 -26q39 -18 43 -23q51 -51 63 -79t12 -58q0 -28 -4 -70q-18 -70 -67 -133q-61 -88 -178 -121v2q-43 -16 -69 -16t-69 14l-34 23l2 -2q-2 0 -6 -4l-27 -27q-20 -8 -41 -8
q-51 0 -51 39q0 9 2 16l12 58l2 4v6l2 16v2z" />
    <glyph glyph-name="t" unicode="t" horiz-adv-x="462" 
d="M506 911q0 -20 -6 -27t-23 -42l2 2q-2 -25 -2 -74v-10l27 2q80 -11 80 -62l-2 -6v-8q-12 -41 -43 -55l-23 -4q-12 0 -44 -4q-42 -5 -42 -43l-6 -37l-21 -68l-34 -160q-14 -63 -15 -108v-39l80 10q8 0 18 -18t11 -35v-8q-6 -33 -29 -56q-39 -27 -51 -32q-26 -21 -46 -31
t-58 -10q-80 0 -113 57q-10 18 -10 39v10l22 103q4 53 4 59t9 28q21 51 30 119l8 52q4 10 4 20t3 25v22l12 31q16 57 16 65t-18 11q-72 8 -84 41l-2 22v10q10 48 57 50h8q13 -1 47 -7q15 0 21 21l14 55q0 2 8 33l-2 -2q7 29 73 64t77 34q43 0 43 -39z" />
    <glyph glyph-name="u" unicode="u" horiz-adv-x="735" 
d="M184 700v5q7 36 54 36q13 0 20 -2l45 -10q6 0 27 6l35 2l6 2q80 0 80 -61q0 -10 -19 -60l-14 -43l2 3l-66 -334q-2 -4 -2 -8l-16 -46q-4 -8 -4 -32t10 -36q10 -13 17 -13t49 13q42 14 49 22q8 8 45 53q23 37 24 47l13 84l20 69q8 61 11 85t30 106q8 14 8 25t-2 16l-35 92
q37 23 50 22l43 -8l86 2q31 0 36 -28v-21q0 -20 -2 -33l-26 -116l-17 -70l-20 -107q-2 -4 -2 -8l-6 -37q-2 -6 -2 -20l-27 -100h-2l39 -84q0 -16 -29 -35v2l-57 -35h2q-99 -74 -145 -74t-46 35v19q-5 0 -49 -27v2q-16 -12 -55 -12q-111 0 -166 143q-4 12 -4 49t22 122
q22 84 28 110q7 26 9 34l9 48l10 92q-4 30 -23 51q-43 43 -43 63z" />
    <glyph glyph-name="v" unicode="v" horiz-adv-x="632" 
d="M342 -14q-35 0 -49 32q-9 16 -19 112t-22 124q0 6 -12 86t-22 110t-14 48q-3 20 -8 49t-8 53t-26 55q-12 24 -12 41v11q12 43 40 43h3l79 -7l25 7l22 2q102 0 103 -50v-6q-12 -38 -25 -55q-12 -16 -12 -18l14 -82l9 -92q14 -74 22 -97l8 -20q27 43 29 47q61 86 80 151
q4 4 4 11q25 48 29 90l-9 59q6 35 43 41l80 14l56 3q59 0 59 -41l-2 -7v-8q-4 -30 -92 -102l4 2l-12 -17v3q-11 -14 -31 -44t-27 -38l-12 -35l-14 -21l-27 -51q-4 -6 -59 -113v3q-30 -59 -69 -125q-40 -66 -45 -73t-17 -37q-25 -59 -60 -58h-4z" />
    <glyph glyph-name="w" unicode="w" horiz-adv-x="952" 
d="M592 270q-2 0 -4 -2zM434 57q0 -10 -6 -10zM715 643q0 8 -3 11q-3 2 -7 8t-7 10l9 -29q3 -19 2 -25l6 19v6zM422 605q0 -9 4 -21l10 -64l2 -4v-16l-2 -43v-8q0 -32 29 -119q0 -15 4 -23q0 -16 -2 -18q4 4 27 28q57 72 67 107q0 14 -13 100t-20 90l-18 17q-23 12 -23 37
q-17 -18 -41 -36t-24 -27zM601 739q11 0 15 2q27 2 46 -32v36q20 0 40 -24q10 10 25 12l23 4q30 6 57 6q82 0 82 -41v-8q-16 -25 -43 -53q-78 -96 -84 -123l-14 -86l-7 -29q-2 -2 -2 -12t13 -47l-2 2q1 -5 10 -29q0 2 8 15q6 18 72 100t82 178q0 18 -10 43t-11 37v12
q14 48 93 48t109 -9t25 -59q-8 -30 -40 -64t-64 -88l-90 -157l-53 -80l-33 -55q-4 -8 -16 -28t-26 -51q-13 -30 -24 -42q-37 -66 -84 -111h2q-24 -24 -56 -24t-38 36q-4 36 -10 96t-18 103q0 47 -11 25l-4 -4q-2 -8 -12 -20t-105 -136l-12 -23q-33 -68 -65 -67q-43 0 -50 63
v2q-2 5 -2 7t-4 19t-16 81t-23 112l-24 127l-12 76h2q-4 12 -9 29l-8 29q0 2 -14 26q-10 10 -12 27q-8 18 -13 31l-26 30q-8 16 -8 25l2 18q12 53 84 54q14 0 30 -3h10q45 -4 56 -4h123q39 -10 45 -26q23 37 65 26h15q10 -2 21 -2z" />
    <glyph glyph-name="x" unicode="x" horiz-adv-x="659" 
d="M557 0l-63 2h-33q-88 0 -88 41v8q23 33 37 49t18 29v2q0 25 -22 81t-27 56q2 0 -4 -5t-25 -19h2l-22 -19q-74 -49 -82 -98v-4q0 -2 14 -72l-2 -14q-2 -37 -55 -37l-103 12q-2 0 -2 -2h-41q-43 0 -43 35v10q6 30 56 64q32 16 50 32q18 17 36 31t40 36l40 40q20 18 47 44
t41 54l2 17v2l-29 55l-27 78l2 -2q0 2 -10 16t-18 37q-10 21 -14 29t-7 16q-4 8 -7 16t-34 27q-25 18 -24 41v6q6 37 53 41l18 -2l29 2l33 -4l47 2l31 -2l51 2q51 0 51 -39q0 -18 -39 -76q0 -2 4 -8q19 -28 31 -69q0 -10 -2 -13l37 31l35 23l16 20q4 6 12 14q7 12 19 27
q-4 12 -4 37v12q10 41 55 41h6l49 -4l62 2q63 0 63 -39l-2 -4v-6q-6 -29 -33 -35l2 2l-39 -12q-10 -6 -38 -27l-97 -96q-2 -2 -16 -14t-20 -20t-20 -19q-13 -11 -22 -23t-12 -14l12 -59l11 -33l2 -19q31 -49 34 -65t29 -55l23 -39q45 -46 56 -62t11 -31v-10q-8 -35 -41 -49
q-25 0 -34 -2h-66z" />
    <glyph glyph-name="y" unicode="y" horiz-adv-x="673" 
d="M281 102v37l-5 39q0 51 -2 92q-22 74 -36 216q-6 66 -48 137q-2 2 -2 75l-38 2q6 43 57 45q49 7 67 7l31 -4l74 -7q27 -2 76 -6q25 -14 24 -39v-10q-2 -10 -47 -65q0 -2 -2 -7v-100q-2 -8 -6 -65v-11q0 -20 12 -51l17 -94q8 -1 20 21q11 22 19 34t16 31l41 70q7 7 59 100
l25 61q0 16 -21 78v27q8 39 60 39q20 0 26 -4h35l55 2q68 0 68 -43v-7q-9 -26 -59 -73l-11 -21q-49 -66 -69 -113q-24 -55 -98 -167l-19 -31v2l-33 -53h2l-55 -109l-33 -47q-29 -74 -125 -205l-45 -59q-41 -57 -53 -84l-84 -127v2q-113 -141 -174 -149l2 2q-12 -4 -43 -5
q-63 0 -63 52q6 48 36 67q22 18 82 35q31 10 133 170l68 107l21 43q45 82 45 163z" />
    <glyph glyph-name="z" unicode="z" horiz-adv-x="618" 
d="M412 731q14 0 86 -10h30l170 2q47 0 47 -41q0 -8 -3 -21t-40 -53q-39 -37 -43 -43l-61 -90l-35 -39l-37 -49q-9 -9 -42 -55t-48 -62v2l-16 -18q-16 -20 -30 -36t-41 -53q-26 -38 -38 -50v-2h31q10 0 49 6h62q45 0 94 48t65 48q33 0 33 -41v-24q0 -2 -2 -8t-5 -18
q-3 -10 -9 -28l-6 -26q-9 -44 -23 -56t-46 -12t-42 4l2 -2q-16 2 -43 2l-104 -6q-12 0 -99 6l2 35q-12 -37 -47 -39q-8 0 -14 -2q-17 4 -73 5t-66 7l2 -2q-23 10 -23 37v8q7 39 39 76t47 59t82 74l29 29q12 17 26 43l43 49l13 21q4 8 30 49q43 41 101 123l16 24l2 2h-2
q-47 19 -57 19q-54 0 -66 -2t-61 -23q-9 -6 -33 -30t-39 -23q-31 0 -31 47q0 139 66 139l98 -2l49 2h11z" />
    <glyph glyph-name="braceleft" unicode="{" horiz-adv-x="573" 
d="M795 1419q57 0 57 -51v-8q-2 -6 -2 -8q-10 -45 -43 -45l-55 2q0 -2 -2 -2q-53 1 -79 -19q-25 -20 -57 -92t-36 -94t-15 -113l-26 -100v4q-2 -4 -4 -15t-15 -61q-23 -68 -86 -145q-56 -51 -100 -64q8 0 28 -6q56 -12 66 -74t10 -98v-16l-6 -27l-8 -51l-14 -49
q-9 -18 -9 -70q-12 -49 -12 -86q-10 -70 -10 -94q0 -70 37 -70h41q80 0 80 -51l-3 -6v-8q-10 -39 -47 -39h-8l-41 4l-37 -8h-16q-126 0 -193 88q-34 53 -34 79t4 40h-2l32 110q2 28 14 64t16 52q3 16 4 18q1 3 2 9t3 13l-2 -2q29 144 0 215l-20 18q-2 2 -9 8t-8 31v16
q6 33 54 60h4q55 43 82 143l22 97q3 74 14 142t11 73l4 24q20 106 97 176t181 74q20 0 48 8h47q27 2 39 4h2z" />
    <glyph glyph-name="bar" unicode="|" horiz-adv-x="942" 
d="M692 1374h139l-344 -1704h-137z" />
    <glyph glyph-name="braceright" unicode="}" horiz-adv-x="573" 
d="M711 1252q0 -28 -4 -42l-31 -114l-6 -37q-2 -5 -7 -17q-35 -80 -42 -215v-10q0 -33 14 -72q15 -25 29 -37t14 -28t-2 -28q-4 -23 -57 -57q-106 -67 -127 -439v-4q-14 -130 -97 -203q-82 -72 -188 -76q-16 0 -47 -8l-49 -2q-16 0 -29 -4h-10q-57 0 -58 43v10q9 49 60 57
h39q40 4 61 5t39 32q49 57 49 76v8l12 45q2 6 5 13q2 6 3 12t9 30h-2l8 29l8 68l25 96q21 124 108 219q35 39 61 48t42 14q-8 0 -33 6q-56 12 -68 74t-12 81q0 18 6 35l-2 -2l14 76l15 55v6l16 133v15l10 100q0 41 -13 53t-23 13l-62 2l-18 -4q-41 0 -41 39l2 6v8
q6 45 57 49l41 4l43 6q97 -14 109 -16q59 -25 94 -74t35 -77z" />
    <glyph glyph-name="asciitilde" unicode="~" horiz-adv-x="1306" 
d="M1081 1104q-43 0 -159 36t-176 38q-60 0 -132 -50q-55 -45 -69 -57l-53 35q178 190 337 190q55 0 161 -34t157 -35q100 0 215 100l53 -33q-66 -82 -153 -131h2q-96 -59 -183 -59z" />
    <glyph glyph-name="exclamdown" unicode="&#xa1;" horiz-adv-x="403" 
d="M244 684q0 14 4 35q22 110 143 110q43 0 80 -71q4 -8 4 -24t-6 -36l2 2q-23 -109 -106 -108q-3 0 -49 20t-60 29q-12 29 -12 43zM227 350l21 62v4q2 25 3 36t15 26t39 16q47 0 53 -50l-20 -112l-16 -160q-23 -138 -23 -158v-12q0 -6 4 -59q0 -84 -18 -190t-25 -161v-4
q0 -42 -40 -114t-144 -72q-76 0 -76 109q0 113 90 366l14 68l43 121l-2 -3q20 66 35 99q0 6 1 9t4 15t5 19z" />
    <glyph glyph-name="cent" unicode="&#xa2;" horiz-adv-x="653" 
d="M543 958q-29 0 -72 -45t-51 -67t-20 -74t-13 -70l-8 -34v-2q0 -6 4 -23l-2 2q14 -39 22 -88q25 -90 29 -90t10 29l70 303q14 27 20 65l9 47q6 33 6 45v5q0 -3 -4 -3zM660 1237q55 0 55 -37q0 -8 -4 -12l-4 -23l-23 -71q0 -4 5 -14t22 -11q127 -37 127 -127q0 -39 -27 -73
t-61 -33q-80 0 -101 61l2 -2q-2 6 0 8q-10 -2 -12 -10l-25 -141q-8 -14 -16 -58l-27 -135q-18 -30 -39 -84q-4 -25 -4 -43t13 -18q55 0 93 21t52 21t24 -8q10 -10 9 -18v-6q-4 -12 -37 -41q-68 -51 -156 -90l-16 -4q7 4 -8 22l-6 -86q-6 -18 -12 -29t-7 -18l2 2l-8 -63
q-2 -13 -28 -29t-40 -16q-35 0 -41 32v11q0 6 5 43v32q8 40 18 50l2 22v33q0 8 -27 16q-98 43 -139 133q0 10 -19 49q-19 40 -14 95q4 55 9 127q25 125 126 221t158 113l86 20q25 8 31 115v16q7 37 62 37z" />
    <glyph glyph-name="sterling" unicode="&#xa3;" horiz-adv-x="964" 
d="M283 98q70 0 75 31q4 11 4 27t-20 53h2q-32 51 -76 51q-32 0 -52 -40q-10 -18 -30 -50l-2 -12q0 -10 2 -13q27 -47 97 -47zM928 971q-10 52 -10 61q0 10 -7 53v7q-2 2 -5 8t-9 15t-10 18l-2 2q-39 66 -88 92q-20 4 -51 22t-37 19q-59 0 -126 -47t-67 -125q0 -34 19 -64
q50 -110 96 -158q16 -10 28 -61l15 -25q4 -8 24 -36q12 -12 62 -13h4l27 2h81q43 0 43 -41q0 -10 -4 -22l2 2q-12 -59 -55 -59h-4l-23 2l-51 -2h-41q-18 -12 -18 -62v-10q0 -12 -2 -19l-19 -45l-16 -67l-14 -39l-4 -25l-15 -22v2q-41 -78 -41 -115q0 -2 4 -6q34 -8 56 -12
q82 -31 121 8q7 7 39 44t34 41q2 5 9 17t14 25l28 55q3 5 3 13t8 32q22 86 70 86t48 -48t-24 -99l-23 -56q-4 -6 -9 -20t-7 -18l-18 -48q-61 -139 -166 -198q-66 -39 -74 -43h2q-33 -20 -100 -21q-23 4 -64 19h4l-4 2h-6q-27 6 -39 9t-40 25t-44 21q-14 0 -22 -4l-35 -25
q-41 -35 -139 -34q-20 0 -52 16l-30 4q-2 2 -14 5t-25 20q-45 40 -45 126q0 87 77 161t150 73l65 -4q49 -8 93 -61v2q12 -12 40 -12t46 38q16 43 16 82q0 76 -57 164q-20 25 -21 29q-60 -6 -72 -6t-16 -3q-23 0 -47 7q-20 0 -33 4h-8l-2 -2l-43 -6q-39 0 -39 41q0 10 4 20
l-2 -2q8 65 86 65q25 0 72 -6q18 2 24 9v4q0 14 -18 50t-24 59q-5 23 -9 33t-6 20q-2 9 -4 14l-10 39l2 -2q-6 12 -6 25q0 14 12 68t45 107h-2q14 14 43 54l70 61q45 43 67 53q6 6 39 19l29 14q41 18 100 18t84 -8l100 -41l-2 2q123 -35 138 -49q6 -20 10 -74l-19 -112v-53
l-12 -50l-2 -10q0 -90 -57 -90q-31 0 -43 27q-4 4 -4 20t4 25z" />
    <glyph glyph-name="currency" unicode="&#xa4;" horiz-adv-x="894" 
d="M665 836q-39 0 -78 -16t-48 -27q-78 -82 -84 -101q-19 -27 -19 -51q0 -23 13 -68q23 -72 114 -71q15 0 67 24t66 39l31 33q31 33 41 59v7q0 45 8 84q-6 36 -39 62t-72 26zM938 762q0 -24 -8 -64q-20 -111 -76 -180q-6 -6 -6 -12t4 -10v2q25 -27 25 -56v-8q-6 -26 -43 -54
q-38 -28 -58 -28t-40 24t-29 25l-52 -26q-49 -25 -86 -25q-102 0 -172 43l-12 6q-10 -1 -51 -39q-40 -38 -64 -38t-30 6t-7 22v15l7 20v-4l2 2q0 2 -8 13q-8 10 -7 22q0 12 6 37q6 12 31 31t29 34v2q0 6 -11 31q-23 52 -1 141q1 28 29 70t30 51v4q0 4 -13 34t-14 44v8
q6 20 19 33l22 16q37 43 65 43q28 -1 44 -31t24 -30t21 6q104 43 199 43q23 0 94 -22v-2q11 -6 30 4l62 43q9 8 29 8t37 -24t18 -48q-5 -40 -49 -84q-4 -4 -6 -9t7 -35t9 -54z" />
    <glyph glyph-name="yen" unicode="&#xa5;" horiz-adv-x="995" 
d="M393 680l135 -10h4q35 0 41 24q2 8 2 24t-6 36q-11 6 -34 6h-50l-26 -4l-51 2l-31 -2h-4q-43 0 -43 43q0 8 2 20l-2 -2q12 63 55 64h4l27 -2l51 2l39 -2q8 2 10 6v4q2 5 2 17t-41 120q-47 106 -84 160l-26 37l-23 24q-39 31 -49 41t-10 29v8q6 12 26 31l82 6q33 2 61 4
t66 -6q29 6 58 6h14l55 -6h21q70 0 69 -45v-10q0 -18 -24 -37l-39 -35q-19 -14 -19 -44t31 -91l31 -78v-6q2 -6 12 -34t25 -79l49 49l80 105l26 24l35 51q24 29 35 48v14q0 20 -25 59q-14 15 -25 25t-11 27v10q10 47 83 47h19q39 0 59 -4h2l25 4q29 4 41 4q149 0 147 -57
v-11q-6 -20 -17 -30t-85 -49h2q-44 -25 -64 -45t-29 -27q-9 -9 -17 -15q-23 -20 -39 -43t-50 -65l-37 -43v2l-18 -31q-53 -68 -55 -69l24 2q27 -13 52 -15h10l47 13q41 0 41 -41q0 -10 -4 -23l2 2q-16 -72 -92 -71v40q-100 0 -131 -16q-20 -10 69 -18l-67 6q-33 0 -43 -19
q-17 -49 -23 -67q0 -4 24 -4t70 4h15l47 -2l28 2h7q39 0 38 -41q0 -34 -18 -51q-12 -29 -31 -29h-4l-51 4l-25 -4h-20l-68 4h-12l-8 2q-16 0 -25 -39v-14q-6 -24 -6 -60l-16 -55l-37 -160q-6 -27 -6 -41t8 -44t35 -57q27 -26 26 -54v-8q-6 -29 -30 -29h-4l-58 2
q-14 -2 -69 -2h-5l-43 2q-45 -4 -63 -4l-55 4l-25 -2h-47q-61 0 -61 37v4q6 23 24 39l49 20q18 8 68 64q39 39 42 49t4 10t1 2l-2 8l6 41l23 86q0 14 8 38l12 36q8 26 12 44q4 19 17 65v-4l8 22v2q-2 0 -66 -8h-10q-31 0 -43 2l-43 -4l-12 10l-37 -8q-39 0 -39 39q0 10 4 22
l-2 -2q12 68 88 68zM903 754h10l17 -2q-19 0 -27 2z" />
    <glyph glyph-name="brokenbar" unicode="&#xa6;" horiz-adv-x="942" 
d="M487 346h138l-138 -676h-137zM692 1374h139l-143 -708h-137z" />
    <glyph glyph-name="section" unicode="&#xa7;" horiz-adv-x="985" 
d="M432 614q0 -82 98 -100q14 -2 64 -24t54 -21q3 0 32 -11q70 -27 106 11q14 14 49 72t35 85t-34 62q0 6 -52 14l-51 29q-9 8 -31 12t-100 39q-37 8 -43 11q-23 -12 -61 -45q-6 -6 -33 -52q-19 -26 -29 -45q-4 -29 -4 -37zM98 42q0 48 31 112q53 108 137 108q59 0 94 -84
q10 -23 11 -55v-12q-7 -27 -35 -63t-31 -52v-10q0 -22 51 -35l113 -12l51 -7q14 2 62 26t51 30q4 6 17 22t18 23q33 29 37 39l12 57l12 43q2 6 2 10q0 29 -78 51q-27 6 -78 39h5l-160 56l-35 14l-61 31q-18 12 -37 33q-27 23 -49 63q-9 38 6 137l8 45q12 49 33 78l20 21
q7 6 65 57t62 61v2q0 10 -14 25h2q-72 78 -72 132t82 177v-2q31 53 82 98q49 29 74 46l78 49q65 39 110 24l57 -6q32 -2 93 -20q68 -14 98 -33h-2q39 -20 74 -107q12 -25 12 -73t-29 -88l-51 -58q-88 -70 -144 13q-30 43 -30 68t5 51t27 54t23 33q-9 6 -16 15q-23 16 -25 16
h-24l-58 2q-121 -12 -161 -59q-47 -49 -64 -123q-4 -20 -4 -27q0 -57 74 -71q19 -4 35 -8l27 -8q11 -3 14 -3q47 -35 106 -63q9 0 23 -6t45 -17l-2 2q51 -8 71 -20l-2 2q61 -39 72 -64v2q45 -83 45 -149t-59 -172q-25 -37 -34 -44t-26 -23t-43 -38t-27 -24v-6l25 -43
q20 -43 25 -82l2 -43l-2 -35q-29 -133 -144 -240l-43 -33h2q-32 -31 -65 -47t-107 -39v2q-27 -8 -73 -12q-34 -11 -58 -11t-80 17q-56 16 -66 20q-9 4 -42 13l-66 41q-35 23 -48 42t-34 73q-2 4 -2 52z" />
    <glyph glyph-name="dieresis" unicode="&#xa8;" horiz-adv-x="931" 
d="M446 786q19 78 117 78q23 0 51 -22q12 -12 13 -37l2 -27q0 -40 -43 -71q-18 -16 -43 -17q-92 0 -94 62q-2 12 -3 34zM734 682q-30 0 -54 25q-25 25 -18 55v26q10 35 45 58q20 16 60 16t71 -26t23 -60q-7 -35 -64 -71q-33 -23 -63 -23z" />
    <glyph glyph-name="copyright" unicode="&#xa9;" horiz-adv-x="1501" 
d="M1169 877q-2 4 -8 19t-10 22v2q-5 12 -89 72q-28 20 -99 22q-36 0 -119 -49l-19 -11h2q-4 -2 -24 -14q-24 -21 -62 -63v2q-45 -57 -49 -72l-6 -49q-14 -28 -14 -31l-17 -33l-4 -51l-14 -39v-29l-10 -38q0 -16 18 -70h-2q33 -100 156 -100h82l49 4q8 4 35 4q63 35 79 67
q10 14 26 30t17 22q20 43 52 43q39 0 39 -39q0 -10 -4 -23l2 2l-13 -65q-2 -6 -5 -12t-5 -15q-12 -57 -41 -74q-4 0 -32 -15t-66 -30l-29 -8q-61 -14 -82 -14h-82l-20 2l-39 -2h-2q-59 0 -156 78q-47 31 -74 69q-73 96 -73 199q0 45 12 102l4 27l6 22q43 129 105 181l30 30
l45 52q27 33 203 98q68 22 131 22q125 0 226 -63v2q19 -11 41 -21t22 -45t-6 -67l-8 -31q0 -4 -2 -14q-2 -9 -3 -15t-9 -27q-11 -28 -42 -28q-30 0 -43 62zM348 526q0 -50 7 -92t9 -65t7 -39l61 -66q29 -45 31 -47q26 -20 50 -32q23 -13 79 -52q41 -16 72 -20l143 -7
q122 0 176 35q44 22 105 47t85 51t44 42h-3q139 125 179 186q12 25 16 45l8 20q14 47 26 72q11 25 11 73q0 47 8 83t8 61v17q0 32 -4 66t-36 114q-4 4 -8 10t-7 10q-4 4 -8 25q-4 6 -55 65q-10 6 -39 46q-8 6 -25 26l-26 29q0 4 -93 22l-186 23q-35 0 -69 -14t-60 -22
q-26 -9 -74 -30q-37 -23 -145 -100q-18 -14 -86 -82q-83 -94 -109 -141l-16 -35l-23 -82q-29 -45 -32 -59q-6 -47 -17 -131l-4 -37v-15zM1071 1405q348 0 471 -244q8 -15 43 -113t41 -186l2 -43l-2 -49q0 -16 -2 -28l-6 -34q-6 -34 -9 -44q-3 -11 -3 -15l2 2q-2 -4 -2 -12
q0 -50 -72 -186q-27 -47 -51 -76q0 -5 -43 -57t-121 -134q-125 -100 -255 -146t-153 -52l-211 -13q-96 1 -156 23t-116 70q-4 4 -53 38q-6 6 -27 30q-22 24 -65 71l-15 29l-26 67l-45 90v13l-4 45l-9 77v4q2 12 4 29l13 101q0 7 4 15t10 29t10 33l-2 -2l17 88q12 76 71 152
l58 80q8 10 21 24t16 19l24 20l29 29l37 31q88 88 147 116q192 109 428 109z" />
    <glyph glyph-name="ordfeminine" unicode="&#xaa;" horiz-adv-x="555" 
d="M469 731l-10 17q0 -16 8 -17h2zM412 602q18 0 26 28t23 68l2 13q0 6 4 14q-20 -12 -59 -47l-37 -53q0 -7 14 -15t27 -8zM344 492q-111 0 -111 100q0 60 29 102q31 39 109 74q36 8 92 39q18 14 17 20t-11 27q-4 4 -14 4q-6 0 -4 2l-27 -22q-47 -29 -57 -29q-41 0 -41 41
q0 68 92 96l-2 -2q99 37 161 -12q36 -29 35 -76q0 -10 -4 -22h2q-4 -14 -20 -80l-25 -113l-2 -6q0 -12 58 -45q-25 -41 -60 -70q-35 -28 -56 -28t-63 28q-4 -4 -6 -4l-10 -6h2q-31 -18 -84 -18z" />
    <glyph glyph-name="guillemotleft" unicode="&#xab;" horiz-adv-x="641" 
d="M574 59q-40 0 -54 50l-51 69q-2 2 -82 119v-2q-25 27 -25 57t2 36q2 7 35 52l43 47q4 4 13 11q8 6 13 10t36 27l41 40q4 4 16 17t28 23q15 9 19 11t8 5l35 28q33 25 60 25h6q37 0 37 -35v-8q-45 -67 -56 -80l-106 -112q-57 -45 -64 -68v-4q0 -42 56 -140q10 -17 18 -42
v-5q20 -40 23 -77v-11q-11 -43 -51 -43zM526 721q37 0 37 -35v-4q0 -2 -22 -35l-15 -35q-8 -18 -36 -42t-35 -37q-8 -12 -27 -31l-14 -19l-29 -30l-33 -29q-30 -25 -30 -33t16 -35q18 -18 24 -63l9 -27l6 -26q55 -69 55 -119q0 -8 -4 -21h2q-12 -43 -55 -43q-8 0 -45 27
l-29 22q-16 23 -28 52t-35 59l-21 39q-24 20 -47 57q-39 25 -39 54q0 10 4 20h-2q6 27 70 76q41 41 86 76t102 86l33 24q66 50 80 64q14 8 22 8z" />
    <glyph glyph-name="logicalnot" unicode="&#xac;" horiz-adv-x="978" 
d="M723 0l94 432h-659l28 115h879l-121 -547h-221z" />
    <glyph glyph-name="sfthyphen" unicode="&#xad;" horiz-adv-x="370" 
d="M373 397l63 4q37 0 53 -28l7 -17v-4q-2 -8 -9 -14l-8 -16h2l-9 -22q-5 -12 -7 -19t-12 -17q-11 -10 -29 -10t-27 2l-21 2q-10 0 -16 4h-2q-12 0 -41 -4q-2 -4 -12 -4l-2 -2l-55 8l-35 -6l-109 -4q-39 0 -38 31v4l34 90q4 14 33 22l41 -2h33l24 -4l31 6l25 2l49 -2
q16 -2 31 -2z" />
    <glyph glyph-name="registered" unicode="&#xae;" horiz-adv-x="1525" 
d="M936 735q41 0 80 42t49 89v6l2 17v2q-2 6 -2 20v22q-10 6 -25 34v-2q-27 35 -38 37q-12 2 -32 -2t-25 -6t-19 -20t-19 -40l-4 -41l-8 -23l-4 -20q0 -16 -6 -37h2l-15 -55l-2 -23h66zM973 1104h6q23 0 133 -17q27 -2 82 -61q18 -23 35 -92q8 -19 8 -37t-4 -43
q-29 -123 -156 -190q19 -26 21 -54t12 -73v-66l-2 -27q0 -8 4 -32h2l21 -4q45 -2 45 -43v-13q-4 -29 -47 -49l-7 -4q-5 -1 -52 -23q-46 -22 -74 -22t-44 37q0 4 -6 40t-6 72v23l-2 43l2 59v41q0 25 -8 33q-31 37 -66 37q-14 0 -24 -23l-6 -36l-35 -115q-2 -15 -6 -51l-2 -23
v-16l34 -19q27 -14 27 -41v-8q-6 -35 -43 -41l-2 35q-6 -37 -41 -39l-41 2h-31l-36 6q-40 -8 -60 -8q-57 0 -57 43v10q2 14 22 35l37 23q27 27 30 35t10 40q12 58 36 138l8 22h-2q4 8 6 37t11 64l12 43q8 29 10 59l8 47q14 67 15 111l2 22q0 2 -2 4v4q-4 1 -8 5l-8 8
q-21 17 -21 35v10q6 21 16 33t55 12t62 2h20l66 -6q6 0 18 4h2q2 2 21 2zM1034 1241q-38 0 -112 -6l-54 -4q-30 0 -36 -2t-107 -53q-20 -15 -48 -34q-28 -20 -39 -28t-13 -8t-6 -4t-33 -26t-41 -32t-38 -46t-38 -53q-12 -16 -43 -71q-2 -6 -20 -56t-37 -122
q-11 -75 -11 -159v-25q0 -21 19 -59l6 -29l45 -64q10 -45 14 -51q29 -39 103 -104v2q41 -41 160 -94l22 -11l94 7l60 -5q37 0 119 27t137 57l6 7q189 139 215 176q40 80 110 200q17 35 17 54l2 26l4 23q6 25 16 155v29q0 45 -26 88l-4 13q0 1 -6 7q-5 6 -19 38
q-14 30 -42 46t-58 58q-42 45 -50 50t-11 7t-10 6t-43 26t-112 34l-49 8q-5 2 -43 2zM1034 1401q88 0 236 -51v2q119 -39 217 -127q8 -14 49 -60h-2q72 -82 90 -149t18 -187q2 -8 3 -49l2 -45q0 -18 -5 -51q-27 -121 -104 -258q-57 -92 -96 -143l-49 -41l-25 -25
q-186 -174 -299 -207q-29 -6 -77 -12t-77 -14t-90 -9l-57 -6l-66 8l-61 17l-4 2q-28 0 -98 14q-11 10 -43 26t-80 50l-25 29h2l-51 51q-12 6 -41 59q-35 35 -68 80q-23 39 -38 160l-9 72l37 225q10 68 90 186q119 184 346 342q164 111 375 111z" />
    <glyph glyph-name="macron" unicode="&#xaf;" horiz-adv-x="927" 
d="M610 666v-2q-23 0 -28 2h-15v26q-8 -27 -30 -28l-37 -5q-37 0 -37 27l2 6q0 14 12 39l6 23q6 34 49 34h19l10 -2h41q6 -2 13 -2t10 2l37 5q8 0 30 -5l31 -4q6 0 61 13l-2 -2q12 2 31 2t41 -27v-2q2 -6 2 -12v-6q-16 -33 -18 -39l-15 -29q-12 -16 -32 -16l-29 2
q-20 4 -23 4l-61 -6l-51 4l-6 -2l2 2q-4 -2 -13 -2z" />
    <glyph glyph-name="degree" unicode="&#xb0;" horiz-adv-x="876" 
d="M696 1192q-25 0 -73 -25q-68 -29 -86 -108q0 -10 9 -45t19 -47l19 -15q15 -22 24 -23q10 -1 17 -1v-31q14 35 41 37l39 2q100 65 100 151q0 33 -17 52q-67 53 -92 53zM653 797q-158 0 -211 82q-14 37 -16 47h2q-36 88 -25 116l-2 -2q16 73 37 103q12 27 56 69
q115 121 247 121q41 0 74 -22q51 -16 57 -29q55 -78 58 -158l2 -41q0 -39 -6 -57q-4 -35 -54 -104q-7 -14 -30 -43v-2q-58 -49 -112 -65t-77 -15z" />
    <glyph glyph-name="plusminus" unicode="&#xb1;" horiz-adv-x="903" 
d="M182 229q59 16 129 4h4l76 5q27 0 82 -9q10 2 51 2l54 -2q27 -2 69 -2h27q39 -6 53 -6h25q35 0 49 2h26q59 0 60 -37l-2 -8l-13 -35l2 2q-10 -47 -25 -61t-58 -14h-25q-33 -4 -72 -4h-24q-35 4 -58 4l-217 8q-12 0 -65 -4h-8l-91 2q-16 -2 -36 -2h-19q-63 0 -63 37
q0 2 2 8v6l12 37l6 33q12 33 51 36zM758 600h-10q-27 0 -52 4q-23 -2 -28 -45l-9 -59l-12 -62l-2 -47l-18 -47q-18 -47 -54 -47h-6l-24 2l-39 -6q-37 0 -37 43q0 17 4 45l18 70l11 71l18 41l4 19q0 10 -8 12l-51 -2l-51 6q-18 0 -37 -2l-99 -8h-10q-74 0 -63 68q12 68 51 83
q20 7 66 9t65 4h21q18 0 26 -2h4q29 -4 35 -5q74 0 80 29q0 31 18 94l6 21q0 21 3 37q0 132 88 135q78 0 84 -47q-4 -6 -7 -33l-8 -72l-18 -73q-10 -44 -10 -62q0 -29 26 -31l90 15l56 -6q6 0 71 6h27q45 0 45 -39q0 -27 -12 -51l2 2l-6 -27q-10 -39 -62 -41q-31 -6 -67 -6
h-13l-51 6h-12q-10 -2 -43 -2z" />
    <glyph glyph-name="twosuperior" unicode="&#xb2;" horiz-adv-x="575" 
d="M549 518l-53 2l-13 2q-14 0 -24 -2h-23l-100 -4q-20 0 -53 6l-64 -6h-6q-43 0 -43 44t113 157l84 84l20 22q66 66 94 88l37 41q78 96 94 172l2 21l-2 35q-4 8 -24 24t-27 17l-39 -11q-59 -2 -106 -36q-8 -4 -19 -5q-35 0 -35 35v10q10 28 70 88t141 60q37 0 78 -4
q45 -18 54 -23q0 -2 -3 -2q2 -2 7 -2q78 -47 79 -119v-8q0 -102 -67 -209l-70 -71l-12 -13l-23 -18q-16 -16 -38 -31l-17 -16h2l-86 -76v2l-39 -37l-30 -33l-5 -4v-6q1 -4 9 -4t16 2h49l45 -4h4q14 0 39 14q39 33 58 39q12 0 23 -17t11 -32v-8q-19 -52 -22 -60
q-2 -8 -14 -36q-23 -68 -72 -68z" />
    <glyph glyph-name="threesuperior" unicode="&#xb3;" horiz-adv-x="573" 
d="M188 676q0 108 84 108q33 0 64 -43q16 -21 16 -37t-4 -24l2 2l-16 -53q2 -2 21 -14t40 -7l41 10l27 27v-2l35 35l10 20q23 23 33 35q14 53 14 80v10l-20 29q-10 8 -22 25q-13 16 -21 24l-9 4l2 -2l-30 10q-37 14 -37 45v11q6 29 47 47q2 0 15 4t28 8q17 10 29 24
q13 14 22 23q39 61 39 94t-18 52q-27 23 -66 23q-40 0 -66 -15q-26 -14 -36 -15q-35 0 -35 33v6q2 6 2 9q14 51 84 81q53 25 88 25t92 -33q56 -27 82 -57v2q39 -49 39 -90q0 -12 -4 -25l2 2l-8 -30q-17 -90 -140 -166q87 -75 86 -164q0 -16 -4 -41q-23 -90 -28 -102
q-35 -74 -90 -103l-111 -45l-23 -10q-98 -10 -102 -10q-46 4 -100 65t-54 115z" />
    <glyph glyph-name="acute" unicode="&#xb4;" horiz-adv-x="909" 
d="M813 907q63 0 64 -51q0 -53 -58 -88q-37 -18 -61 -20l-33 -3q-18 -6 -41 -12l2 2l-14 -8q-20 -5 -40 -12q-19 -6 -32 -10q-6 -6 -14 -7q-33 0 -33 27v10q6 16 50 41t72 49q94 82 138 82z" />
    <glyph glyph-name="paragraph" unicode="&#xb6;" horiz-adv-x="1026" 
d="M481 -264h-67l-19 -2l-33 -2q-16 -2 -28 -4l-2 20v-20q-45 0 -45 34v9q4 25 43 45q96 55 121 190q8 43 43 213l12 66q14 57 22 80l15 38l-2 -2l16 119v37q2 8 2 13t-4 5h-4l-51 -2l-64 7h-12q-68 25 -115 57l-26 29q-8 6 -9 14l-12 29q-29 45 -29 107t11 118l6 27
q14 68 41 110l20 33l15 110q0 27 196 105l4 2q2 2 66 33q88 26 150 24t143 -4l98 6l107 -6q63 8 98 8q98 0 98 -59v-14q-2 -18 -39 -42t-49 -46h2q-29 -47 -76 -277q-10 -72 -30 -166l-13 -55q-12 -70 -43 -172q-2 -11 -6 -39t-12 -68l-14 -70q-8 -36 -15 -66l-39 -183
q-6 -23 -6 -66l-20 -96l-2 -26l10 -41h-2q6 -18 26 -58q16 -16 17 -45v-10q-10 -47 -43 -47h-2l-49 2q-8 -8 -42 -8t-42 2h-2q-93 10 -109 37q-10 14 -10 56q0 41 8 71t10 37t7 27t10 34q3 28 41 153q10 20 16 86q12 75 63 279l3 2q8 24 24 152l14 59q0 12 7 39l43 201l2 8
v16q2 14 12 107l6 30q2 8 5 35q6 54 14 60q-33 -2 -54 -99q-6 -16 -12 -38t-11 -40l-12 -45l2 2l-16 -86q0 -2 -2 -8v-6l-12 -45q-12 -43 -21 -76l-37 -159l-4 -37l-2 -25l-53 -231q-18 -115 -92 -355l-23 -118q-10 -51 -46 -85t-85 -34z" />
    <glyph glyph-name="periodcentered" unicode="&#xb7;" horiz-adv-x="342" 
d="M252 438q2 0 7 -2q-3 1 -7 2zM246 440v-34q51 0 49 14q0 2 -6 6h8l33 -8q28 -14 28 -46q-1 -79 -39 -102q-13 -12 -41 -23t-53 -11t-59 40q-14 18 -14 48t5 50q5 22 31 44q27 22 58 22z" />
    <glyph glyph-name="cedilla" unicode="&#xb8;" horiz-adv-x="886" 
d="M543 23q0 -5 -6 -29l14 -8q29 -14 35 -49v-3q4 -6 4 -20l-19 -41l2 2l-4 -25q-2 -20 -28 -43q-63 -45 -107 -45t-63 10q-18 10 -39 46h2q-12 16 -12 29t2 25t23 30q22 18 36 18t39 -33q0 -4 8 -18l29 -6l18 31q0 4 12 -3l-51 31q-14 10 -14 25v6l10 37q12 67 60 65
q49 0 49 -32z" />
    <glyph glyph-name="onesuperior" unicode="&#xb9;" horiz-adv-x="550" 
d="M352 520q-61 0 -61 45v8q4 25 51 82q6 41 13 59t11 32q3 13 5 20l10 39q20 77 20 92l2 21l5 12q17 89 32 153l9 27q2 41 8 78v10q0 10 -2 12t-15 12q-14 10 -24 18t-10 26v4q2 6 2 8q6 35 52 49t62 21h-2q47 23 80 22q43 0 43 -43q0 -24 -16 -72l-27 -139l-57 -217
l-23 -123q-10 -48 -14 -67l-2 -27q0 -29 -4 -41l20 -59v-4q-8 -20 -26 -38t-33 -18l-66 2h-6q-12 -4 -37 -4z" />
    <glyph glyph-name="ordmasculine" unicode="&#xba;" horiz-adv-x="567" 
d="M547 743q0 4 -6 46q-7 41 -23 57t-46 16q-65 0 -99 -55q-6 -8 -19 -47l-14 -62q0 -34 14 -69q10 -9 34 -21t28 -16l10 2q59 10 94 72q20 25 27 67v10zM424 494q-90 0 -158 55h2q-66 55 -65 123q0 12 4 33l6 26q14 72 25 88q53 66 79 80v-2q98 61 201 61t146 -65
q39 -39 40 -112t-79 -183q-37 -45 -133 -94l-5 -2q-53 -8 -63 -8z" />
    <glyph glyph-name="guillemotright" unicode="&#xbb;" horiz-adv-x="641" 
d="M258 719q41 0 53 -49q27 -37 51 -65t62 -93l25 -41q18 -37 18 -66t-41 -71q-4 -6 -37 -43q-2 -2 -63 -47q-49 -49 -66 -68q-22 -15 -43 -26q-62 -56 -101 -56q-38 0 -38 31v16q4 6 25 38t100 114l35 35q55 47 65 75q0 18 -12 54q-20 45 -39 73t-21 40q-2 14 -12 38
t-10 54v14q8 43 49 43zM399 657q0 64 56 64q20 0 49 -27l24 -20q8 -8 23 -40t41 -75l22 -41q20 -18 50 -50t34 -38q2 -6 2 -18q0 -10 -4 -23l2 2q-4 -20 -24 -41q-8 -4 -45 -35q-29 -29 -79 -63t-108 -98l-32 -25q-8 -6 -29 -20t-41 -33q-20 -18 -37 -19q-37 0 -37 31v8l2 6
q2 2 4 6t8 11q6 6 9 12l16 37q21 36 37 46q16 9 18 11l5 2l36 47l43 50l35 30q27 27 29 31t-10 22t-29 78l-16 56l-19 24q-35 53 -35 92z" />
    <glyph glyph-name="onequarter" unicode="&#xbc;" horiz-adv-x="1337" 
d="M1106 516q-29 -37 -47 -53q10 0 26 6l78 -8h6q4 4 31 84l-2 -2l14 65q-53 -37 -108 -92h2zM561 594v-4q-9 -20 -29 -38t-34 -20l-70 3l-47 -5q-66 0 -66 45v9q4 29 54 84q4 25 14 57t16 55l13 41q22 75 22 92l2 23q2 5 18 78t21 90l8 26q4 45 11 80v11q0 10 -2 12l-39 29
q-14 8 -15 28v4q2 6 2 9q6 35 56 50t85 29q34 14 66 15q45 0 45 -45q0 -30 -14 -72l-31 -143l-61 -222l-25 -124q-12 -53 -14 -68l-2 -29q-4 -29 -6 -41q22 -44 22 -59zM1352 412q-8 -55 -52 -82v-4l-51 -242q-18 -82 -75 -82l-25 -2q-51 0 -74 41l-6 6q16 37 35 111
q0 34 3 54t28 97l8 23v2q1 6 -19 5t-51 -1h-92l-57 2q-72 2 -72 51v10q8 27 102 113q4 4 12 10t13 11l102 86q8 6 25 22l20 16l31 29q3 4 21 20t32 31l31 25q14 14 33 31l22 22l13 10q27 35 59 35q43 0 43 -41q0 -10 -2 -16q-4 -35 -11 -49t-7 -27l2 -2l-45 -205v-2
q0 -12 -15 -65l-2 -4l19 -23l2 -6v-10zM1354 1401q55 0 55 -43v-10q-6 -18 -18 -35l-172 -219v2q-61 -90 -105 -140l-27 -36q-8 -8 -63 -79t-59 -78t-19 -22l-35 -34q-2 -2 -26 -39l-2 -2q-12 -20 -25 -39q-106 -137 -121 -170q-20 -33 -45 -58l-71 -65l-17 -25
q-16 -25 -39 -55q-25 -25 -61 -80q-32 -32 -80 -84q-57 -70 -96 -113q-16 -10 -37 -10q-70 0 -70 45v4q5 15 20 30t30 42q32 55 139 162l36 55l101 125l26 35q43 43 160 199v-2q14 27 53 65l33 49l68 76l49 74q23 25 50 57t35 40q7 7 18 25q64 108 108 148q29 47 74 100
q78 105 133 105z" />
    <glyph glyph-name="onehalf" unicode="&#xbd;" horiz-adv-x="1337" 
d="M561 594v-4q-8 -20 -27 -38t-36 -20l-70 3l-47 -5q-66 0 -66 45v9q2 25 54 84q4 31 16 62t14 50l13 41q22 75 22 92l2 23q2 5 18 78t21 90l8 26q4 45 11 80v11q0 10 -3 13q-3 2 -17 12t-19 16q-16 8 -17 28v4q2 6 2 9q6 35 74 55q33 10 51 16l2 2q48 21 80 21
q47 0 47 -45q0 -24 -16 -72l-31 -143l-61 -222l-25 -124q-12 -53 -14 -68l-2 -29q-4 -29 -6 -41q22 -44 22 -59zM1355 1401q56 0 56 -43v-10q-6 -20 -20 -35l-172 -219v2q-43 -68 -103 -140l-29 -36q-38 -51 -78 -100t-43 -56q-4 -6 -10 -12t-8 -11l-37 -34q-4 -4 -24 -39
l-2 -2q-11 -20 -67 -91t-76 -107t-48 -69l-73 -65l-54 -80q-25 -20 -63 -80q-32 -32 -80 -84q-27 -35 -96 -113q-16 -10 -37 -10q-70 0 -70 45v4q5 15 20 30t30 42q32 55 139 162l39 55l126 160q43 45 158 199v-2q24 36 53 65l35 49l66 76l51 74q60 72 76 90t104 149
q9 11 29 31q23 37 74 100q78 105 134 105zM1223 707l-15 2l-4 2l-37 -6q-62 -14 -98 -33q-8 -8 -27 -8q-35 0 -34 32v9q2 29 59 81q70 70 154 70q35 0 84 -4q31 -10 43 -18q6 -11 11 -11t7 -2l-2 2q74 -41 78 -116v-11q0 -42 -18 -116t-105 -156q-7 -8 -31 -26t-78 -66
l-86 -78q-12 -8 -23 -20t-27 -26l-38 -36h2l82 2l49 -6q33 0 61 26t40 28t26 -18q14 -19 15 -34v-4q-1 -12 -13 -34t-20 -46l-6 -20q-29 -66 -74 -66h-344q-49 0 -49 37q0 10 4 18l-2 -2q10 39 123 152l15 15q13 12 29 30t36 35l20 22q16 14 49 45t47 43q23 23 39 43l97 180
q2 4 2 9l-2 28l-2 19q-10 16 -39 35z" />
    <glyph glyph-name="threequarters" unicode="&#xbe;" horiz-adv-x="1337" 
d="M1108 516q-2 -2 -19 -22t-28 -31q8 0 24 6l80 -8h6q6 6 29 84l-2 -2l14 65q-14 -14 -42 -35q-27 -20 -64 -57h2zM1141 336q-2 2 -68 2h-90l-57 2q-74 4 -74 51v8q8 28 40 58t40 35v-3q27 27 45 43l22 21q12 12 44 37t65 53l49 45q5 4 33 32t59 48l25 27l24 22l13 10
q23 35 59 35q43 0 43 -41q0 -18 -6 -30l2 2q-2 -8 -10 -33l2 2l-8 -31v-4l-43 -205v-2q0 -31 -19 -69l21 -23v-6q2 -8 2 -10q-8 -55 -51 -82v-4l-54 -242q-16 -82 -73 -82l-27 -2q-51 0 -74 41l-4 4l35 107q0 44 6 60t21 89l4 27zM426 1237q-35 0 -35 33l2 6v8q9 49 75 79
t103 30t95 -33q66 -33 86 -60v3q39 -49 39 -93q0 -12 -5 -24l2 2l-8 -31q-16 -85 -143 -170q2 -4 6 -6q82 -74 82 -160q0 -16 -4 -41q-23 -90 -29 -104q-39 -76 -94 -105l-80 -32l-35 -13l-24 -10q-92 -12 -105 -12q-45 4 -102 68t-57 114q0 113 86 113q37 0 67 -45
q16 -16 16 -34t-4 -28l2 2l-16 -55q2 -2 24 -15t48 -5t35 10l10 12l16 16v-2l37 35l10 21l17 17q12 13 18 20q14 53 14 79v11l-28 36q-5 6 -17 20t-20 24l-8 4l2 -2q-8 2 -40 13t-32 42v10q10 31 49 49q42 10 64 25q20 20 35 39v-2q72 104 17 148q-25 20 -63 20t-67 -14
t-41 -13zM1355 1401q56 0 56 -43v-10q-6 -20 -20 -35l-172 -219q1 -2 -17 -24q-17 -22 -6 -11q-2 -2 -12 -20t-68 -86q-57 -67 -98 -121t-45 -58t-8 -11t-19 -22l-35 -34q-2 -2 -26 -39l-2 -2q-7 -14 -67 -94t-78 -110t-44 -63l-73 -65l-54 -80q-2 -2 -15 -16l-20 -20
t-14 -22q-13 -26 -94 -106q-27 -35 -96 -113q-16 -10 -37 -10q-70 0 -70 45v4q6 17 19 30q14 13 30 41q32 56 140 163l39 55l126 160q43 45 158 199v-2q25 37 53 65l35 49l66 76l51 74q60 72 76 90t104 149q8 11 29 31q23 37 74 100q78 105 134 105z" />
    <glyph glyph-name="questiondown" unicode="&#xbf;" horiz-adv-x="706" 
d="M569 823q18 0 64 -39q25 -23 25 -51q-3 -149 -109 -149q-12 0 -51 18q-48 13 -62 29q-10 16 -10 45l2 37q8 47 36 68q56 42 105 42zM25 -345q0 54 22 152q0 20 41 93l27 45l61 71h-2q23 25 70 84q18 10 51 47q55 68 76 99l24 33q57 99 66 114l10 39q12 53 53 53t41 -36
q-1 -36 -23 -104q-22 -67 -38 -95t-35 -67q-18 -37 -25 -49t-21 -38t-48 -86l-49 -84l-19 -28l-22 -41q-31 -51 -47 -95q-8 -45 -13 -110v-31q0 -121 97 -121q57 0 94 31t39 84q-31 40 -31 56q0 17 4 38q18 102 98 103q53 0 76 -56q4 -4 15 -31t4 -49q-12 -82 -80 -159
q-18 -18 -43 -41q-63 -50 -129 -68t-86 -18l-62 10l-45 6q-31 10 -65 53q-57 78 -71 110t-15 86z" />
    <glyph glyph-name="Agrave" unicode="&#xc0;" horiz-adv-x="1056" 
d="M600 719q0 -8 2 -10q2 -10 45 -23q43 -12 45 -12v2q18 -6 30 -6t13 12q23 119 13 186q-6 82 -15 88l-22 -30q-20 -27 -34 -44q-14 -16 -20 -24q-57 -104 -57 -139zM705 1671q36 35 69 35t62 -39l22 -33q14 -20 29 -41v2q10 -10 39 -47q28 -37 28 -48v-15l-2 -4
q-6 -39 -45 -39q-14 4 -23 9l-16 8t-15 6t-15 8l2 -3l-64 21l-37 14q-31 8 -55 23q-27 25 -27 55l2 6v8q10 39 46 74zM738 -6q-54 0 -54 35v8q4 23 45 47h-2q66 49 76 98v33l-19 139q-2 12 -6 123q-12 57 -61 58h-6q-91 26 -143 26t-87 -18q-18 -7 -48 -69t-64 -103t-52 -94
q-17 -53 -24 -80h2q-4 -14 -4 -31v-10q14 -25 51 -70q18 -29 18 -45q-6 -41 -71 -41h-221q-63 0 -64 41v4q2 4 3 15t22 28l45 31l57 76q12 16 39 43l43 86q8 10 61 102l13 18l209 369v-4q2 8 96 162h-2q6 10 23 37t26 43h-2q8 12 23 39t22 34q57 109 88 203q33 86 82 86
q23 0 39 -47h-2q8 -25 26 -192q3 -8 9 -26t14 -46q-4 -16 -4 -30t2 -23v-23q0 -47 22 -143l23 -142l4 -71l10 -111q4 -43 13 -113l16 -188q18 -115 41 -127q45 -35 45 -65v-13q-8 -39 -61 -49l-45 -2l-72 -2l-49 -2l-31 4q-25 4 -39 6q-21 -14 -75 -14z" />
    <glyph glyph-name="Aacute" unicode="&#xc1;" horiz-adv-x="1056" 
d="M722 670q10 0 13 12q24 126 14 198q-9 72 -16 76l-22 -30q-6 -13 -27 -35q-21 -23 -27 -33q-57 -104 -57 -139q0 -8 2 -10q2 -10 51 -25l39 -10v2q20 -6 30 -6zM780 1493q11 0 185 154v-2q53 55 100 55q70 0 70 -60q0 -47 -41 -89t-90 -46l-33 -4l4 2l-25 -8
q-38 -4 -80 -27h-2q-51 -23 -55 -22q-33 0 -33 33v14zM684 29v8q4 20 45 47h-2q66 49 76 98q2 10 2 40t-21 132q-2 12 -6 123q-12 57 -61 58h-6q-11 0 -62 18q-33 8 -81 8t-87 -18q-18 -7 -48 -69t-69 -110t-52 -109q-3 -11 -6 -18t-6 -17t-5 -15q-2 -6 -2 -8h2
q-4 -14 -4 -31v-10q14 -25 51 -70q20 -31 20 -45q-10 -41 -73 -41h-221q-63 0 -64 41v4q2 4 3 15t22 28l45 31l57 76q12 16 39 43l43 86q8 10 61 102l13 18l209 367q9 16 98 160h-2q8 14 49 80h-2q18 35 43 73q57 106 88 201q33 88 82 88q23 0 39 -47h-2q6 -20 29 -192
q12 -36 20 -72q-4 -16 -4 -30t2 -23v-23q0 -47 22 -143l25 -142l4 -71l8 -111q4 -43 13 -113l4 -43q18 -220 45 -266q0 -2 4 -2t39 -35q10 -14 10 -34v-13q-8 -41 -61 -49l-45 -2l-72 -2l-49 -2l-31 4l-37 6q-21 -14 -76 -14t-55 35z" />
    <glyph glyph-name="Acircumflex" unicode="&#xc2;" horiz-adv-x="1056" 
d="M600 719q0 -8 2 -10q2 -10 45 -23q43 -12 45 -12v2q18 -6 30 -6t13 12q23 119 13 186q-6 82 -15 88l-22 -30q-11 -11 -19 -23q-8 -13 -18 -25t-17 -20q-57 -104 -57 -139zM918 1724q28 0 40 -10t29 -45l25 -51l12 -27q25 -76 33 -100l-2 2q4 -8 4 -23v-10q-6 -33 -35 -33
t-106 78q-12 31 -19 47q-6 16 -4 17q-14 0 -39 -35q-25 -34 -46 -48q-22 -14 -40 -28t-32 -24t-36 -11q-29 0 -28 31v16l74 93l36 39h-2l19 24l39 39q12 18 30 43q20 16 48 16zM738 -6q-54 0 -54 35v8q4 23 45 47h-2q66 49 76 98v35l-19 137q-4 12 -6 121q-8 59 -61 60h-6
q-13 4 -51 16t-88 12t-91 -20q-16 -6 -49 -68q-27 -61 -62 -103t-53 -95q-17 -53 -24 -80h2q-4 -14 -4 -31v-10q14 -25 51 -70q18 -29 18 -45q-6 -41 -71 -41h-221q-63 0 -64 41v4q2 4 3 15t22 28l45 31l57 76q18 25 39 43l43 86q8 10 61 102l13 18l209 369v-4q2 6 96 162
h-2q6 10 23 37t26 43h-2q6 10 45 73q57 109 88 203q33 88 82 88q23 0 39 -49h-2q8 -25 26 -192q3 -8 9 -26t14 -46q-4 -16 -4 -30t2 -23v-23q0 -2 4 -63q2 -10 18 -80l23 -142l4 -71l10 -109q4 -41 13 -115l16 -188q18 -115 41 -127q45 -35 45 -65v-13q-8 -39 -61 -49
l-45 -2l-72 -2l-49 -2l-31 4q-25 4 -39 6q-21 -14 -75 -14z" />
    <glyph glyph-name="Atilde" unicode="&#xc3;" horiz-adv-x="1056" 
d="M722 670q10 0 13 12q24 126 14 198q-9 72 -16 76l-22 -30q-6 -13 -27 -35q-21 -23 -27 -33q-57 -104 -57 -141q0 -6 2 -8q2 -10 51 -25l39 -10v2q20 -6 30 -6zM768 1663q35 18 60 18t55 -14l24 -12l35 -13q53 -34 73 -34t93 45q31 0 31 -29v-10q-3 -16 -17 -28t-24 -24
q-10 -11 -19 -20h2q-66 -78 -118 -78t-71 10t-48 25l2 -2l-37 12q-51 27 -68 27t-37 -26t-34 -27q-35 0 -35 33v12q6 6 14 18t31 35l29 27q20 25 59 55zM684 29v8q4 20 45 47h-2q66 49 76 98q2 10 2 40q-1 30 -13 87t-14 166q-8 59 -61 60h-6q-3 0 -9 2t-21 6t-38 11t-73 7
t-87 -18q-20 -7 -50 -69q-29 -62 -55 -94t-34 -50t-18 -40t-14 -34q-3 -12 -6 -19t-6 -17t-5 -15q-2 -6 -2 -8h2q-4 -14 -4 -31v-10q14 -25 51 -70q20 -31 20 -45q-10 -41 -73 -41h-221q-63 0 -64 41v4q2 4 3 15t22 28l45 31l57 76q12 16 39 43l43 86q8 10 61 102l13 18
l209 367v-4q0 4 98 164h-2q8 14 49 80h-2q8 13 21 37t22 36q57 106 88 201q33 88 82 88q23 0 39 -47h-2q7 -20 19 -110t18 -110t12 -44q-2 -16 -2 -30t2 -23v-23q0 -56 20 -143l25 -142l4 -71l8 -111q4 -43 13 -113l4 -43q18 -220 45 -266q5 -3 13 -9q40 -26 40 -62v-13
q-6 -39 -59 -49l-47 -2l-70 -2l-51 -2l-31 4l-37 6q-21 -14 -76 -14t-55 35z" />
    <glyph glyph-name="Adieresis" unicode="&#xc4;" horiz-adv-x="1058" 
d="M602 717q0 -19 53 -33l21 -6t16 -4v2q23 -6 33 -6t10 12q24 126 14 198q-9 72 -14 76l-22 -30q-7 -12 -27 -35t-27 -33q-57 -100 -57 -141zM1075 1665h15q92 0 92 -84q0 -46 -25 -88q-10 -23 -47 -39t-61 -16q-78 0 -78 84v10q0 41 29 87q30 46 75 46zM686 1440
q-39 0 -68 30q-28 30 -28 73q0 44 53 91t82 47t62 -27q33 -28 31 -42t-1 -25l-2 -14v-31q-6 -16 -20 -43v2q-43 -61 -109 -61zM684 29v8q4 20 47 47h-2q61 47 74 98q2 10 2 37t-1 39t-7 41q-7 29 -11 48t-6 128v2q-12 57 -61 58h-6q-25 6 -59 16t-84 10t-87 -18
q-20 -6 -49 -70q-35 -63 -65 -102t-40 -71q-11 -32 -15 -44t-8 -19q-3 -7 -6 -17t-5 -15q-2 -6 -2 -8h2q-4 -14 -4 -31v-10q6 -10 51 -70q20 -31 20 -45q-10 -41 -73 -41h-221q-63 0 -64 41v4q2 4 3 15t22 28l45 31l57 76q12 16 39 43l43 86q8 10 61 102l13 18l211 367v-4
q2 10 96 164h-2q23 37 49 80h-2q20 35 56 97t73 164t86 101q23 0 39 -47h-2q8 -25 27 -192q2 -6 22 -72q-4 -16 -4 -30t2 -23v-23q0 -6 4 -63q4 -10 19 -80l22 -142l4 -71l10 -111q3 -43 9 -81t6 -64t13 -135t34 -142l2 -2q4 0 4 -2q47 -34 47 -67v-13q-10 -41 -61 -49
l-45 -2l-72 -2l-49 -2l-31 4q-25 4 -39 6q-21 -14 -76 -14t-55 35z" />
    <glyph glyph-name="Aring" unicode="&#xc5;" horiz-adv-x="1056" 
d="M891 1628q-9 0 -21 -12t-15 -20t-3 -15q0 -6 8 -31h23q33 2 43 45q2 2 2 4t-15 21q-12 8 -22 8zM722 670q12 0 13 12q22 123 13 186q-6 82 -15 88l-22 -30q-11 -11 -19 -23q-8 -13 -18 -25t-17 -20q-57 -104 -57 -139q0 -8 2 -10q2 -10 51 -25l39 -10v2q18 -6 30 -6z
M913 1735q16 0 53 -20t46 -32q18 -29 18 -61v-29q-6 -45 -35 -75q-53 -78 -143 -78q-104 0 -104 108q0 39 4 60q14 59 102 104q32 21 57 23h2zM738 -6q-54 0 -54 35v8q4 23 45 47h-2q66 49 76 98v35l-19 137q-4 12 -6 123q-8 57 -61 58h-6q-13 4 -51 16t-88 12t-91 -20
q-16 -6 -49 -68q-27 -61 -62 -103t-53 -95q-17 -53 -24 -80h2q-4 -14 -4 -31v-10q14 -25 51 -70q18 -29 18 -45q-6 -41 -71 -41h-221q-63 0 -64 41v4q2 4 3 15t22 28l45 31l57 76q18 25 39 43l43 86q8 10 61 102l13 18l209 369v-4q2 6 96 162h-2q35 62 49 80h-2q6 10 45 73
q55 104 88 198t82 93q23 0 39 -49h-2q8 -20 18 -110q9 -90 13 -98t8 -22q4 -15 10 -34q-4 -14 -4 -28t2 -25v-23q0 -2 4 -63q2 -10 18 -80l23 -142l4 -71l10 -109q4 -41 13 -115l16 -188q18 -115 41 -127q45 -34 45 -65v-13q-8 -39 -61 -49l-45 -2l-72 -2l-49 -2l-31 4
q-25 4 -39 6q-21 -14 -75 -14z" />
    <glyph glyph-name="AE" unicode="&#xc6;" horiz-adv-x="1611" 
d="M1059 1051l6 14v2q-89 -67 -123 -123v2q-48 -71 -71 -104t-62 -73t-47 -60l26 -4q16 -4 27 -7q53 0 64 -4v2l2 -2l63 -14q20 0 31 35l4 22q48 232 68 267q6 25 14 49zM295 0h-225q-66 0 -66 35v6q2 18 27 43q67 33 124 93q57 59 82 95t39 53t19 27q27 31 52 56t44 46
q18 21 29 33l65 82v-2q19 25 61 74t48 61l22 22q32 30 56 56l73 103q17 25 57 63t85 105l59 67v-2l35 47q41 53 45 76v2q0 10 -22 28t-23 40v6q12 57 76 57q27 0 39 -2h16v-37q6 17 39 29t63 12l35 2q23 2 71 2t99 -14l2 -2l176 12q45 0 71 -6t30 -6l4 -2l22 4q33 4 43 4
q55 0 56 -49v-4q0 -70 -17 -121q-10 -41 -14 -96q-2 -92 -53 -92q-25 10 -47 32q-10 12 -27 88l-31 62q-8 12 -39 24l2 -2l-26 4l-33 3l-6 2l-27 6q-47 18 -107 18t-73 -47l2 2q-2 -4 -5 -16t-5 -19l-10 -28l2 2l-39 -123l-19 -86q-2 -4 -6 -17l2 2q-3 -10 -10 -47l-6 -26
l-2 -29q0 -37 33 -37q23 0 79 32t84 64q31 27 52 27q33 0 39 -39q0 -14 -7 -55l-6 -37q-6 -49 -28 -111h2l-11 -34q-6 -18 -6 -46l-4 -20q2 0 2 -2v-4q-2 -4 -3 -11t-21 -39t-34 -32q-12 0 -28 4h-6l-18 35l-19 29l-6 45l-23 28q-8 18 -15 24t-40 5q-33 0 -37 -10
q-2 -7 -4 -21t-7 -38t-7 -36q-33 -59 -60 -145l-4 -37v-6l-12 -47q-8 -39 -24 -92v6l-5 -21q-6 -16 -8 -18v-8q0 -33 90 -37q57 -8 84 -8q27 6 47 10q56 11 66 23l49 36q43 23 54 34t65 106q22 39 60 39t38 -43q0 -6 -18 -88t-33 -123l2 2l-20 -72q-27 -57 -78 -57
q-14 0 -109 20q-29 -4 -133 -4h-31l-147 -4l-43 2h-182l-90 -4q-49 0 -50 35v6q10 37 45 55l-2 -2q25 12 47 19q44 41 54 63t20 53h-2l17 56l8 43q-6 -18 -2 0l12 61v2l6 47q4 38 4 60t-12 22h-90q-17 0 -59 20t-76 21q-34 0 -50 -18l-26 -29l-33 -49q-96 -108 -199 -271v3
l-2 -3h2l-2 -2q0 -15 -12 -59v-6q0 -14 21 -23q43 -25 43 -59v-10q-6 -35 -50 -35q-17 0 -38 6z" />
    <glyph glyph-name="Ccedilla" unicode="&#xc7;" horiz-adv-x="1259" 
d="M1305 369q-1 -22 -7 -32q-6 -9 -6 -22l2 2l-20 -81l-12 -56q-12 -66 -26 -83t-32 -25l-24 -13l-21 -10q-70 -35 -88 -41l-59 -16q-102 -29 -131 -29l-90 2h-9q-25 0 -26 -8l28 -14h2q8 -6 24 -34t15 -38v-6l-18 -43v-17q-6 -36 -41 -59h2q-61 -49 -113 -49t-73 11
q-20 11 -43 50q-12 14 -13 41v13q6 18 29 38t41 21q23 0 43 -59q4 -4 39 -5q24 0 24 35v2l-45 27h2q-18 6 -18 31v12q10 38 14 47q-53 16 -120 45q-147 86 -222 197q-31 45 -86 190q-18 61 -24 135v9q0 29 24 170q53 246 176 366l62 57l70 87q37 49 204 114q106 47 171 66
t137 18q186 0 339 -104q2 0 8 -3t9 -5q4 -1 22 -11t41 -20t23 -43v-8q-6 -45 -21 -127q-16 -49 -16 -60l-14 -67q-8 -31 -42 -31t-44 41q0 4 -2 10q-2 7 -5 17t-15 52t-15 50q-4 8 -23 24l-51 39l-56 46q-22 17 -36 30q-4 0 -14 2l-30 6q-36 8 -47 11q-11 2 -34 4l-27 4
q-27 0 -63 -21q-63 -16 -139 -73l-64 -33q-82 -71 -131 -147t-53 -99l-21 -92q-10 -25 -18 -41l4 4q-27 -49 -33 -68h2q-1 -23 -14 -102l-8 -27q0 -4 -10 -34v-29l-17 -72l-2 -12q0 -20 23 -90t39 -92q90 -123 223 -123h6l98 2l105 4l12 2q37 0 57 10q53 31 99 76
q40 55 68 85t40 58v-4q20 59 64 60q41 0 41 -45z" />
    <glyph glyph-name="Egrave" unicode="&#xc8;" horiz-adv-x="978" 
d="M742 1706q28 0 44 -14t25 -25q9 -13 23 -33t28 -41v2q37 -43 41 -47q25 -39 25 -49t-2 -14v-4q-6 -39 -45 -39q-13 4 -27 11t-43 20l2 -3l-100 35q-25 6 -56 23q-28 26 -21 67t43 76q35 35 63 35zM745 6q-29 -4 -131 -4h-30l-148 -4h-33q-8 0 -22 2h-166l-86 -4
q-29 0 -39 6t-10 29v8q6 33 43 53l-2 -2q29 14 47 21q41 35 52 63t20 51h-2l16 58q2 10 5 26t11 53l17 70q0 14 16 78q11 81 37 141l8 33l25 143l12 58l25 86q23 78 32 104l-2 60q0 66 -2 67q-18 40 -69 78q-14 8 -15 29l2 6v8q10 57 78 57h6l43 -2v-39q9 17 41 30
q33 13 62 13l37 2q20 2 66 2t102 -14l2 -2l69 8q29 0 49 2l54 2q41 0 69 -6t31 -6l2 -2q7 2 49 8h14q57 0 58 -49v-4l-14 -113q-8 -29 -17 -106l-4 -47q-12 -47 -49 -47q-18 7 -47 36q-10 10 -27 87l-10 26l-19 35q-8 14 -38 25l2 -2q-63 7 -93 19q-30 13 -96 13
q-65 0 -74 -30q-4 -9 -6 -17l2 2q-2 -4 -5 -16t-5 -19l-10 -28l2 2l-39 -123q-13 -80 -27 -135t-14 -70q0 -37 33 -37q23 0 75 30t89 66q25 29 49 29q31 0 37 -43q-2 -6 -6 -49l-5 -39q-4 -41 -28 -115h2l-10 -34q-2 -12 -7 -41v-2q0 -34 -32 -93q-10 -16 -33 -16t-45 37
l-19 31l-6 43l-22 30q-8 16 -14 22t-39 7q-32 0 -37 -10q-8 -33 -21 -88q-33 -80 -51 -146q-4 -4 -4 -14q-6 -12 -6 -33l-13 -51q-4 -18 -22 -92v6l-14 -47l2 -2q0 -35 84 -35l18 -2l49 -4l21 -2q25 6 45 9q54 8 65 22l49 41q10 6 22 12t17 11q6 5 13 7q23 33 65 107
q23 39 59 39t35 -43q-1 -16 -17 -96t-32 -115l2 2l-20 -74q-25 -57 -76 -57q-16 0 -107 20z" />
    <glyph glyph-name="Eacute" unicode="&#xc9;" horiz-adv-x="978" 
d="M1038 1700q70 0 70 -60q0 -47 -41 -89t-90 -46l-33 -4l4 2l-24 -6q-46 -12 -80 -29l-2 -2h-4l-52 -20q-33 0 -32 33v14q2 2 20 14t164 140v-2q53 55 100 55zM745 6q-29 -4 -131 -4h-30l-148 -4h-33q-8 0 -22 2h-166l-86 -4q-29 0 -39 6t-10 29v8q6 33 43 53l-2 -2
q29 14 47 21q41 35 52 63t20 51h-2l16 58q2 10 5 26t11 53l17 70q0 14 16 78q11 81 37 141l8 33l25 143l12 58l25 86q23 76 32 102l-2 62q0 66 -2 67q-18 40 -69 78q-14 8 -15 29l2 6v8q10 57 78 57h6l43 -2v-39q9 17 41 30q33 13 62 13l37 2q20 2 66 2t102 -14l2 -2l69 8
q29 0 49 2l54 2q41 0 69 -6t31 -6l2 -2q7 2 49 8h14q57 0 58 -49v-4l-14 -113q-8 -29 -17 -106l-4 -47q-12 -47 -49 -47q-18 7 -47 36q-10 10 -27 87l-10 24l-19 37q-8 14 -38 25l2 -2q-63 7 -93 19q-30 13 -96 13q-65 0 -74 -30q-4 -9 -6 -17l2 2q-2 -4 -5 -16t-5 -19
l-10 -28l2 2l-39 -123q-13 -80 -27 -135t-14 -70q0 -37 33 -37q23 0 75 30t83 62t55 31q31 0 37 -41q-2 -6 -6 -49l-5 -39q-4 -41 -28 -115h2l-10 -34q-2 -12 -7 -41v-2q0 -34 -32 -93q-10 -16 -33 -16t-45 37l-19 31l-6 43l-22 30q-8 16 -14 22t-39 7q-32 0 -37 -10
q-8 -33 -21 -88q-33 -80 -51 -146q-4 -4 -4 -14q-6 -12 -6 -33l-13 -51q-4 -18 -22 -92v6l-14 -47l2 -2q0 -35 84 -35l18 -2l49 -4l21 -2q25 6 45 9q54 8 65 22l49 41q10 6 20 11q19 10 32 19q23 33 65 107q23 39 59 39t35 -43q-1 -16 -17 -96t-32 -115l2 2l-20 -74
q-25 -57 -76 -57q-16 0 -107 20z" />
    <glyph glyph-name="Ecircumflex" unicode="&#xca;" horiz-adv-x="978" 
d="M899 1724q35 0 62 -55l22 -51l14 -27q33 -102 33 -121v-10q-2 -30 -33 -30t-106 75l-14 35q-5 14 -9 22t-2 7q-12 0 -38 -36q-26 -37 -46 -49t-51 -36t-55 -25q-31 0 -31 31v16q16 16 43 52l66 80l18 24l39 39q14 23 33 43q20 16 55 16zM745 6q-29 -4 -131 -4h-30
l-148 -4h-33q-8 0 -22 2h-166l-86 -4q-29 0 -39 6t-10 29v8q6 33 43 53l-2 -2q29 14 47 21q41 35 52 63t20 51h-2l16 58q2 10 5 26t11 53l17 70q0 14 16 78q11 81 37 141l8 33l25 143l12 58l25 86q23 78 32 104l-2 60q0 66 -2 67q-18 45 -71 80l2 -2q-14 8 -15 29l2 6v8
q10 57 78 57h6l43 -2v-37q7 15 41 28q33 13 62 13l37 2q20 2 66 2t102 -14l2 -2l69 8q29 0 49 2l54 2q41 0 69 -6t31 -6l2 -2q7 2 49 8h14q57 0 58 -49v-4l-14 -113q-8 -29 -17 -106l-4 -47q-12 -47 -49 -47q-18 7 -47 36q-10 10 -27 87l-10 26l-19 35q-8 14 -38 25l2 -2
q-63 7 -72 11q-57 24 -119 23q-63 0 -72 -32q-4 -9 -6 -17l2 2q-2 -8 -10 -33l-10 -30l2 2l-39 -123q-4 -26 -23 -111q-18 -85 -18 -94q0 -37 33 -37q23 0 75 30t89 66q25 29 49 29q31 0 37 -43q-2 -6 -6 -49l-5 -39q-4 -41 -28 -115h2l-10 -34q-2 -12 -7 -41v-2
q0 -34 -32 -93q-12 -16 -34 -16t-44 37l-19 31l-6 43l-22 30q-8 16 -14 22t-39 7q-32 0 -37 -10q-8 -33 -21 -88q-33 -80 -51 -146q-4 -4 -4 -14q-6 -12 -6 -33l-13 -51q-4 -18 -22 -92v6l-14 -47l2 -2q0 -31 84 -35l18 -2l49 -4l21 -2q25 6 45 9q54 8 65 22l49 41
q10 6 22 12t17 11q6 5 13 7q23 33 65 107q23 39 59 39t35 -43q-1 -16 -17 -96t-32 -115l2 2l-20 -74q-25 -57 -76 -57q-16 0 -107 20z" />
    <glyph glyph-name="Edieresis" unicode="&#xcb;" horiz-adv-x="978" 
d="M1047 1665h16q90 0 90 -84q0 -10 -6 -41t-17 -47q-10 -23 -48 -39t-60 -16q-78 0 -78 84v10q0 43 29 88t74 45zM659 1440q-39 0 -67 30t-29 75q0 46 53 91t82 45q29 1 62 -27t32 -42t-1 -24t-3 -15v-31q-6 -20 -22 -43v2q-39 -61 -107 -61zM745 6q-29 -4 -131 -4h-30
l-148 -4h-33q-8 0 -22 2h-166l-86 -4q-29 0 -39 6t-10 29v8q6 33 43 53l-2 -2q29 14 47 21q41 35 52 63t20 51h-2l16 58q2 10 5 26t11 53l17 70q0 14 16 78q6 43 19 87t18 54l8 33l25 143l12 58l25 86q23 76 32 102l-2 62q0 66 -2 67q-18 42 -69 78q-14 8 -15 29l2 6v6
q10 59 78 59h6l43 -2v-39q9 17 41 30q33 13 62 13l37 2q20 2 66 2t102 -14l2 -2l69 8q29 0 49 2l54 2q41 0 69 -6t31 -6l2 -2q7 2 49 8h14q57 0 58 -51v-4l-14 -111q-8 -29 -17 -106l-4 -47q-12 -47 -49 -47q-18 7 -47 36q-10 10 -27 87l-10 24l-19 37q-8 14 -38 25l2 -2
q-18 2 -60 6l-22 6q-59 20 -92 20q-80 0 -89 -30q-4 -9 -6 -17l2 2q-2 -4 -5 -16t-5 -19l-10 -28l2 2l-39 -123q-13 -80 -27 -135t-14 -72q0 -35 33 -35q23 0 75 30t84 62t54 31q31 0 37 -41q-2 -6 -6 -51l-5 -37q-4 -41 -28 -115h2l-10 -34q-2 -12 -7 -41v-2q0 -34 -32 -93
q-12 -18 -34 -18t-44 39l-19 31l-6 43l-22 30q-8 16 -14 22t-38 5q-31 0 -38 -8q-8 -33 -21 -88q-33 -80 -51 -146q-4 -4 -4 -16q-6 -6 -6 -31l-35 -139l-14 -45l2 -2q0 -33 84 -37h18l49 -4l21 -2q25 6 45 9q54 8 65 22l49 41q10 6 20 11q19 10 32 19q23 33 65 107
q23 39 59 39t35 -43q-1 -16 -17 -94t-32 -117l2 2l-20 -74q-25 -57 -76 -57q-16 0 -107 20z" />
    <glyph glyph-name="Igrave" unicode="&#xcc;" horiz-adv-x="534" 
d="M488 1706q26 0 55 -23q4 -6 61 -90v2q10 -14 39 -47q27 -37 27 -48t-2 -15v-4q-6 -39 -45 -39q-12 4 -27 12t-25 11t-16 8l2 -3l-61 21l-37 14q-33 10 -53 23q-25 25 -25 53q6 52 44 88q37 37 63 37zM643 1384q94 0 94 -61v-12q0 -16 -37 -43q-31 -18 -45 -45
q-35 -66 -75 -279q-6 -57 -29 -166l-10 -53q-31 -141 -39 -168q-17 -21 -17 -54q0 -32 -8 -73q-4 -4 -6 -20l-4 -21q-2 -8 -6 -63l-19 -103l-6 -26q12 -25 19 -72l26 -31q6 -16 6 -37v-10q-6 -47 -43 -47h-57q-27 -2 -47 -2t-47 2h-84q-33 0 -66 8q-29 16 -28 45v10
q6 18 18 31l55 41q20 25 29 58l16 49q10 32 13 32t7 40q3 40 7 53l-2 -2q2 9 9 39t19 66t16 62q3 26 6 46q3 18 7 47t7 41l14 59q2 8 6 41l41 201l2 4v4q2 8 6 52t6 65l19 102q4 12 4 30t-28 47q-28 30 -27 52v6q10 51 71 53l113 -6q59 8 94 8z" />
    <glyph glyph-name="Iacute" unicode="&#xcd;" horiz-adv-x="538" 
d="M504 1479v12q4 2 13 10t69 58t98 88v-2q53 55 100 55q68 0 68 -60q0 -49 -40 -90t-89 -45l-33 -4l4 2q-6 0 -22 -8q-63 -14 -80 -27l-57 -22q-31 0 -31 33zM649 1384q96 0 96 -61v-12q-2 -16 -38 -43q-27 -16 -45 -45q-40 -75 -66 -229t-39 -216l-12 -55
q-23 -111 -33 -141t-18 -82v-2q-2 -2 -4 -20t-9 -48q-4 -4 -6 -20l-4 -21q-2 -8 -6 -63l-19 -103l-6 -26q10 -20 21 -72l24 -31q8 -14 9 -37v-10q-10 -47 -45 -47h-60q-25 -2 -46 -2t-48 2h-84q-33 0 -66 8q-29 16 -28 45v10q6 16 16 31l57 41q20 25 29 58l10 30q9 29 13 40
t7 11t6 40t7 53l-2 -2q14 49 23 90q21 63 26 101q4 38 15 110l16 59q2 8 6 41l41 209q2 7 4 29t10 88l19 102q4 12 4 30t-28 47q-28 30 -27 50v8q10 51 71 53l113 -6q63 8 96 8z" />
    <glyph glyph-name="Icircumflex" unicode="&#xce;" horiz-adv-x="536" 
d="M636 1724q26 0 38 -10t31 -45l22 -51l14 -27q3 -8 7 -21t11 -37t13 -42l-2 2q4 -8 4 -23v-10q-6 -33 -34 -33t-103 78l-25 64q-12 0 -38 -36q-26 -35 -44 -47t-28 -21t-20 -15t-24 -16t-32 -11q-29 0 -29 31v16l74 93l33 36l16 27l39 39q4 4 14 19t17 24q20 16 46 16z
M420 1226q0 20 -25 42q-29 33 -28 55v8q10 49 71 51l111 -6q63 8 96 8q96 0 96 -59v-14q-2 -16 -39 -43q-31 -18 -45 -45q-35 -66 -75 -279q-6 -61 -29 -166l-10 -53q-25 -117 -35 -147t-19 -78l-2 -4v-7q-8 -53 -8 -59q-4 -4 -6 -20l-4 -21q-2 -8 -6 -63l-19 -103l-6 -26
q6 -14 19 -72l24 -31q8 -14 8 -37v-10q-10 -47 -43 -47h-59q-25 -2 -46 -2t-48 2h-82q-37 0 -66 8q-29 14 -28 45v10q2 16 16 31l55 41q25 29 29 58l10 30q18 51 19 51q2 0 2 2l4 50q4 27 8 41l-2 -2l6 24q4 17 8 33t16 54t20 91q7 53 14 99l16 61q4 10 6 39l39 201l2 4v4
q2 7 4 31t10 86l17 102q4 12 4 32z" />
    <glyph glyph-name="Idieresis" unicode="&#xcf;" horiz-adv-x="538" 
d="M756 1665q90 0 90 -84q0 -42 -23 -88q-8 -15 -48 -35t-60 -20q-76 0 -76 80q-2 6 -2 30q1 24 31 70q30 45 73 47h15zM504 1681q28 0 63 -34q27 -20 27 -48l-6 -30v-35q-6 -6 -10 -14q-38 -82 -115 -80q-37 0 -66 30t-29 76q0 45 54 90t82 45zM649 1384q96 0 96 -61v-14
q-2 -14 -38 -41q-29 -18 -45 -47q-37 -59 -76 -277q-6 -47 -29 -166l-12 -55q-23 -111 -39 -166q-8 -14 -12 -57v-2q-2 -2 -4 -20t-9 -48q-4 -4 -6 -20l-4 -21q-2 -12 -6 -63l-19 -103l-6 -26q12 -25 19 -72l26 -31q8 -14 9 -37v-10q-10 -47 -45 -47h-60q-25 -2 -46 -2
t-48 2h-84q-33 0 -66 8q-29 16 -28 45v10q6 16 16 31l57 41q23 31 29 58l27 79q0 2 3 2t6 40t7 53l-2 -2q14 49 23 90q23 69 26 106q2 37 15 105l16 59q2 8 6 41l39 203q4 5 6 31t10 92l19 102q2 12 2 30t-27 48q-27 29 -26 49v8q10 51 71 53l113 -6q63 8 96 8z" />
    <glyph glyph-name="Eth" unicode="&#xd0;" horiz-adv-x="1245" 
d="M672 604q-8 0 -37 4t-31 6q-49 0 -49 -10l-8 -69l-12 -29l-9 -25l2 2l-12 -49l-14 -51q-4 -43 -7 -55t-3 -27l-13 -51l-8 -27l2 2q-4 -25 -4 -42t25 -46q27 -23 45 -22l67 18l66 10l45 11q51 11 67 23t41 36l58 53q10 10 27 25t48 57q41 37 74 92q0 6 12 37t21 53l27 76
q4 23 18 66l20 57l5 59l8 52q18 86 13 99t-13 33q-7 20 -19 54q-12 36 -32 78q-22 29 -50 45t-32 20q-68 68 -144 68q-158 0 -186 -109q-8 -40 -43 -110q2 0 2 2q0 -12 -2 -14v-60l-4 -28q-2 -2 -8 -22l-35 -124v-10q0 -2 20 3t21 5h6q13 4 47 10q25 0 53 -30h-2
q10 -16 10 -33l3 -33l-31 -43q-20 -37 -45 -37zM776 1374q39 -10 256 -10q27 -4 131 -72l15 -8l22 -22q63 -45 107 -113q29 -32 63 -111q14 -94 14 -120v-13q-6 -82 -16 -127l-41 -198q-12 -57 -72 -174v2q-25 -45 -34 -60q-47 -63 -138 -166q-87 -79 -280 -141l2 2
q-94 -43 -168 -45l-102 -4l-31 -2l-15 -2q-6 0 -10 -2l-22 2q-4 0 -8 1q-3 1 -9 2t-15 4t-79 3h-223q-41 6 -41 43t29 61q16 8 59 33l-2 -2q55 35 68 113q44 126 48 149q3 24 6 44t5 38v15q3 14 11 40t12 44q3 18 6 28q-51 -6 -62 -6q-41 0 -41 53q0 52 29 85q29 32 43 32
h22l29 -2l12 -4v2l19 131q18 70 31 105t15 75q3 41 42 60h-37q0 43 -1 57t-15 39q-8 4 -15 12q-36 24 -37 53v15q12 51 111 51q45 0 67 -5t36 -6q13 -1 85 15z" />
    <glyph glyph-name="Ntilde" unicode="&#xd1;" horiz-adv-x="1339" 
d="M973 1499l2 -2l-37 12q-52 27 -68 27t-32 -18q-27 -35 -39 -35q-37 0 -37 33v12q6 6 11 13t34 40l29 27q27 29 61 55q35 18 58 18t57 -12l2 -2l24 -12l35 -13q53 -34 73 -34t93 45q31 0 31 -29v-10q0 -16 -14 -28t-22 -19q-7 -6 -24 -25h2q-66 -78 -121 -78t-118 35z
M158 0q-106 0 -107 53v10q6 25 25 35q72 32 92 48t37 51q27 43 50 150q23 106 28 122q4 48 47 174l-2 -2q2 6 5 14t3 13l-2 -4l12 73q4 47 31 117l10 45q0 4 10 35h-2q4 14 17 47l-2 -2l10 51q10 62 10 110t-6 58t-72 49q-33 23 -33 56v4l3 6q12 53 51 53h4l51 -2q15 3 51 6
l41 2l64 2l129 6h6q63 0 63 -51l-2 -10l-8 -23q-8 -20 -14 -51v-4q0 -41 69 -215l21 -45q27 -70 113 -244q53 -80 83 -123l3 -2q12 -16 22 -38t27 -31l39 -25q10 10 20 28t39 122l31 102l24 113q0 2 2 7t5 17l10 31l2 4l4 53l2 29q4 70 12 137v2q2 4 2 6q-4 53 -74 101
q-23 14 -22 41v10q0 11 20 31t31 20l113 -12h4l63 16h60q35 0 71 -6q33 -12 33 -41l-2 -12q-2 -20 -29 -37l-43 -23q-57 -33 -72 -88t-24 -104q-9 -23 -26 -111q-17 -89 -25 -127l-8 -36q-21 -84 -31 -113l-31 -139q-29 -84 -36 -183l-25 -110q-2 -6 -4 -18t-3 -19t-4 -25
t-5 -26l-7 -31q-2 -10 -6 -57q-18 -76 -80 -76q-39 0 -39 24l-30 70q-6 10 -19 35q-61 74 -86 149q-3 5 -12 18l-12 18t-12 21q-8 14 -13 21l-18 25l-80 143l-31 51h2q-43 70 -46 76q-3 7 -10 19q-6 12 -18 34t-20 38t-13 28t-11 26t-14 28q-7 15 -27 54q-21 40 -31 60
l-41 80q-4 -8 -6 -15l2 2l-27 -114l-20 -94q-34 -145 -50 -199t-22 -82q-6 -27 -8 -34t-4 -18t-6 -23t-5 -35q-2 -23 -4 -35t-8 -60l-4 -24q-6 -35 -12 -80v-11q0 -68 82 -86q41 -10 41 -49q0 -7 -2 -14q-6 -41 -113 -41h-19l-139 2q-33 0 -45 -2h-18z" />
    <glyph glyph-name="Ograve" unicode="&#xd2;" 
d="M966 1706q26 0 56 -20q23 -35 63 -91v2q4 -6 15 -18t28 -31q25 -39 25 -49t-2 -14v-4q-6 -39 -45 -39q-14 4 -24 9t-46 22l2 -3l-63 21l-39 16q-43 14 -55 21q-25 23 -25 55q6 49 45 86t65 37zM518 772q0 -2 -2 -10t-3 -16t-3 -15l-12 -61l-33 -127q-4 -20 -4 -60
t12 -153q0 -8 41 -62q12 -45 21 -53v2q11 -9 49 -45q39 -36 77 -50t77 -13q40 0 46 -3h7q97 0 166 53q26 18 37 24q12 5 22 13t18 11q17 12 53 55h3q4 6 31 34t116 150q16 31 31 76l35 154l30 172q-2 8 -2 20l-2 23q-5 77 -27 142t-81 149q-10 20 -35 53l-45 16
q-37 15 -109 19l-59 10q-31 -6 -68 -25l-86 -51q-64 -52 -96 -86t-82 -102l-37 -47l-26 -45q-12 -18 -37 -60q-12 -27 -23 -80v-12zM1124 1413q84 1 132 -21t82 -52t79 -68q8 -10 47 -52t56 -81l24 -60q0 -20 32 -84q7 -14 7 -65q4 -25 12 -80l-20 -133q-12 -51 -21 -74
l-14 -90q-4 -64 -100 -193l-43 -63l-105 -98q-39 -41 -143 -119q-186 -104 -406 -105q-131 0 -192 23v-2q-217 66 -291 303q-45 149 -45 262l2 45l19 113q2 1 10 57t65 154q18 39 105 147q23 23 31 33t71 88q115 98 254 152q104 47 124 49q144 14 228 14z" />
    <glyph glyph-name="Oacute" unicode="&#xd3;" 
d="M1010 1446q-31 0 -31 33v14q4 3 33 25t151 129v-2q56 55 103 55q70 0 69 -60q0 -49 -41 -89t-90 -44l-35 -4l-20 -6q-20 -4 -48 -15t-32 -13q-5 -3 -31 -13t-28 -10zM518 772q0 -2 -2 -10t-3 -16t-3 -15l-12 -61l-33 -127q-4 -20 -4 -60t12 -153q0 -8 41 -62
q12 -45 21 -53q10 -6 49 -43q39 -36 77 -50t77 -13q40 0 46 -3h7q97 0 166 53q26 18 37 24q12 5 22 13t18 11q17 12 53 55h3q4 6 31 34t116 150q16 31 31 76l35 154l30 172q-2 8 -2 20l-2 23q-4 143 -108 291q-10 20 -35 53q-2 2 -45 14q-35 17 -109 21l-59 10
q-33 -6 -68 -27l-86 -49q-64 -52 -96 -86t-82 -102l-37 -47l-26 -45q-12 -18 -37 -60q-12 -27 -23 -80v-12zM1124 1413q84 1 132 -21t82 -52t79 -68q8 -10 47 -52t56 -81l24 -62q2 -4 13 -36t19 -46q7 -14 7 -65q6 -33 12 -80l-20 -133q-12 -51 -21 -74l-14 -90
q-4 -64 -100 -193l-43 -63l-105 -98q-39 -41 -143 -119q-186 -104 -406 -105q-131 0 -192 23v-2q-217 66 -291 303q-45 149 -45 262l2 45l19 113q2 1 10 57t65 154q18 39 105 147q4 1 20 21t42 50t40 50q115 98 254 152q104 47 124 49q144 14 228 14z" />
    <glyph glyph-name="Ocircumflex" unicode="&#xd4;" 
d="M1122 1724q37 0 64 -55l22 -51l15 -27q27 -76 32 -100l-2 2q4 -8 4 -23v-10q-15 -79 -141 45l-14 35q-12 29 -10 29q-12 0 -41 -39t-107 -86q-27 -20 -45 -21q-31 0 -31 31v16q16 16 43 52l33 41l35 39l18 24l39 39q14 23 32 41t54 18zM518 772q0 -2 -2 -10t-3 -16
t-3 -15l-12 -61l-33 -127q-4 -20 -4 -60t12 -153q0 -8 41 -62q12 -45 21 -53v2q11 -9 49 -45q39 -36 77 -50t77 -13q40 0 46 -3h7q97 0 166 53q26 18 37 24q12 5 22 13t18 11q17 12 53 55h3q4 6 31 34t116 150q16 31 31 76l35 154l30 172q-2 8 -2 20l-2 23q-5 77 -27 142
t-81 149q-10 20 -35 53l-45 16q-31 15 -109 19l-59 10q-31 -6 -68 -25l-86 -51q-100 -82 -178 -188l-37 -47l-26 -45q-4 -6 -37 -60q-12 -28 -23 -80v-12zM1116 1413q91 -1 143 -23t109 -75q4 -3 28 -25t34 -32q8 -10 19 -21q11 -12 28 -34t22 -25q6 -4 21 -39l24 -60
q0 -8 15 -41t19 -45q5 -12 5 -63q4 -25 12 -80l-20 -133q-12 -51 -21 -74l-14 -90q-2 -31 -27 -76q-16 -39 -73 -117l-43 -63l-105 -98q-39 -41 -143 -119q-186 -104 -406 -105q-131 0 -192 23v-2q-217 66 -291 303q-45 149 -45 262l2 45l19 113q2 1 10 57t65 154
q18 39 105 147q22 22 102 121q104 92 234 146t147 55q126 14 217 14z" />
    <glyph glyph-name="Otilde" unicode="&#xd5;" 
d="M903 1608q73 73 120 73q26 0 54 -12l2 -2l60 -25q53 -34 75 -34t91 47q33 0 32 -31v-10q-2 -18 -28 -37q-18 -18 -33 -35h2q-68 -78 -117 -78t-65 9q-8 0 -22 9t-34 17l2 -2l-38 12q-46 27 -64 27t-35 -18q-25 -33 -41 -33q-35 0 -35 31v12q15 15 45 53zM518 772
q0 -2 -3 -17t-5 -26l-12 -59l-33 -127q-4 -20 -4 -60t12 -153q0 -8 41 -62q12 -45 21 -55v2q10 -6 49 -43q39 -36 77 -50t77 -13q40 0 46 -3h7q97 0 166 53q26 18 37 24q12 5 22 13t18 11q17 12 53 55h3q4 6 31 34t116 150q16 31 31 76l35 154l30 172q-2 8 -2 20l-2 23
q-4 145 -108 291q-18 36 -37 55q-2 0 -6 1t-10 2t-34 14q-29 13 -102 16l-59 10q-33 -6 -68 -27l-86 -49q-64 -52 -91 -81t-87 -107l-37 -47l-26 -45q-12 -18 -37 -60q-12 -27 -23 -80v-12zM1258 1390q46 -20 80 -50t79 -68q8 -10 46 -51t41 -49q3 -9 8 -18t8 -15l59 -150
q4 -8 4 -59q6 -33 12 -80l-20 -133q-14 -55 -21 -76l-14 -88q-4 -64 -100 -193l-43 -63l-105 -98q-39 -41 -143 -119q-186 -104 -406 -105q-131 0 -192 23v-2q-217 66 -291 303q-45 149 -45 260l2 47l19 113q2 1 10 57t65 154q19 41 69 100q50 60 62 74t36 44q26 30 40 50
q115 98 254 152q104 47 124 49q123 12 219 12q96 -1 143 -21z" />
    <glyph glyph-name="Odieresis" unicode="&#xd6;" 
d="M1274 1665h14q92 0 92 -84q0 -95 -73 -127q-37 -16 -60 -16q-78 0 -78 84v10q0 41 30 87t75 46zM883 1440q-39 0 -68 30t-29 56q0 67 48 104q59 51 87 51t70 -32q25 -25 24 -38t-1 -24l-2 -12v-33q-8 -27 -21 -43v2q-43 -61 -108 -61zM518 772q0 -2 -3 -17t-5 -26
l-12 -59l-33 -127q-4 -20 -4 -60t12 -153q0 -8 41 -62q12 -45 21 -55v2q10 -6 49 -43q39 -36 77 -50t77 -13q40 0 46 -3h7q97 0 166 53q26 18 37 24q12 5 22 13t18 11q17 12 53 55h3q4 6 31 34t116 150q16 31 31 76l35 154l30 172q-2 8 -2 20l-2 23q-4 145 -108 291
q-18 36 -37 55q-2 0 -6 1t-10 2t-34 14q-29 13 -102 16l-59 10q-33 -6 -68 -27l-86 -49q-64 -52 -91 -81t-87 -107l-37 -47l-26 -45q-12 -18 -37 -60q-12 -27 -23 -80v-12zM1258 1390q46 -20 80 -50t79 -68q8 -10 46 -51t41 -49q3 -9 8 -18t8 -15l59 -150q4 -8 4 -59
q6 -33 12 -80l-20 -133q-14 -55 -21 -76l-14 -88q-4 -64 -100 -193l-43 -63l-105 -98q-39 -41 -143 -119q-186 -104 -406 -105q-131 0 -192 23v-2q-217 66 -291 303q-45 149 -45 260l2 47l19 113q2 1 10 57t65 154q19 41 69 100q50 60 62 74t36 44q26 30 40 50
q115 98 254 152q104 47 124 49q123 12 219 12q96 -1 143 -21z" />
    <glyph glyph-name="multiply" unicode="&#xd7;" horiz-adv-x="894" 
d="M413 985q40 0 105 -84l19 -24q4 -4 24 -35q35 -63 68 -64q5 0 37 30t72 64t67 60q72 61 98 61q26 1 50 -29t24 -55v-6q-10 -25 -19 -33l-53 -43q-46 -45 -115 -99t-73 -75q0 -10 28 -45h-2q71 -71 119 -129v2q41 -43 41 -71v-7q-6 -31 -43 -30h-24l-19 -15q-8 -6 -51 -6
q-16 0 -94 99q-2 8 -15 20q-12 11 -20 21t-12 14t-13 22q-10 18 -22 19q-12 -1 -28 -17l-19 -18q-8 -6 -31 -29l-55 -45v2l-68 -63q-61 -41 -85 -41t-32 20l2 -6l-14 19q-37 27 -37 49v6q6 23 82 84l72 55l24 23q23 23 31 24q25 17 41 27t19 18v7l-29 36l-12 17l-17 30
q-10 10 -18 21l-54 51q-47 74 -47 94v7q2 18 30 42t68 25z" />
    <glyph glyph-name="Oslash" unicode="&#xd8;" 
d="M592 176q0 -20 35 -38t55 -23l23 -2l28 -2l35 -2q14 0 23 -3q80 0 141 37q20 16 102 64q18 6 53 53l3 2q4 6 31 34t116 150q14 25 31 76l8 27l8 51q4 26 12 49l7 29l30 170q-2 8 -2 20l-2 21q0 39 -35 153l-4 19l2 -2l-4 14q-4 0 -37 -39l-137 -180q-53 -70 -106 -131v2
l-66 -92l-35 -45q-6 -6 -20 -24t-56 -68l-16 -29q-2 -4 -11 -15q-9 -12 -15 -26t-44 -51l-14 -19l-49 -53q-14 -14 -29 -41q-5 -4 -31 -36t-28 -42v-4q-2 -2 -2 -4zM502 287q8 0 45 43l39 49l39 43l30 49l68 74q109 150 124 165t36 42v-2l78 110l49 53l34 50q46 63 62 80
t28 37t19 27l27 32q2 4 13 15t15 26v4q0 8 -10 33q-11 16 -36 25t-48 18q-23 8 -80 10l-61 10q-33 -6 -68 -27l-86 -51q-45 -35 -112 -102q-6 -6 -66 -84l-37 -49l-26 -43q-15 -22 -37 -60l-21 -69q-4 -25 -7 -39t-3 -27l-12 -59l-35 -133l-2 -25q0 -33 6 -98l4 -64
q0 -21 12 -42q11 -21 19 -21zM1108 1411q150 0 219 -51q10 -10 14 -10t23 32q18 32 28 41q8 8 16 18t17 19q25 37 43 49t52 13q59 0 59 -43v-11q-10 -37 -102 -137l-15 -24q0 -1 -2 -3t-6 -8q-4 -5 -8 -18l-4 -4q0 -25 49 -80q13 -23 19 -37q5 -14 10 -20l30 -76
q7 -19 18 -44t13 -31t2 -56l12 -80l-20 -135q-12 -44 -21 -74l-14 -92q-14 -70 -100 -189l-43 -65l-68 -66v2l-37 -32q-76 -80 -141 -117q-188 -106 -383 -106t-299 51q-12 0 -61 -68q-10 -8 -25 -29q-49 -68 -94 -67q-72 0 -72 41v4q0 18 59 80l35 47q49 55 51 67v4
q0 6 -4 11l-18 20q-78 129 -100 242q-25 113 -25 159t2 64l2 21l17 90q2 7 10 61t51 132t59 98l60 71q80 98 100 119q102 92 234 146t149 57q126 14 209 14z" />
    <glyph glyph-name="Ugrave" unicode="&#xd9;" horiz-adv-x="1390" 
d="M964 1706q28 0 54 -20q23 -35 63 -91v2l43 -49q25 -39 25 -49t-2 -14v-4q-6 -39 -45 -39q-14 4 -24 9t-15 8q-6 3 -15 6t-16 8l2 -3l-63 21l-39 16q-25 8 -55 21q-25 23 -25 55q6 49 45 86t67 37zM1298 950q0 4 9 54q0 8 -9 49v14q0 16 7 88q0 16 -7 25l-28 28
q-8 6 -31 52l-33 26q-31 25 -30 47v4q6 37 75 37l140 -12l6 2h10q14 2 45 2h88l53 2q51 0 51 -37t-75 -94l-25 -14q-34 -8 -71 -70q-14 -25 -24 -80t-15 -76l-35 -194l-15 -39l-53 -225v-4l-10 -72q0 -2 -2 -8v-4q-1 -40 -25 -91t-31 -72t-13 -28q-5 -8 -13 -24l-10 -21
q-35 -70 -80 -102q-119 -113 -199 -125q-6 0 -10 -2t-18 -4t-25 -5l-143 -10q-33 -4 -75 -4t-95 19q-121 35 -174 61q-35 18 -74 82q-12 18 -15 20q-41 76 -44 103t-3 63t13 86l2 19l14 55l10 68v39q0 6 4 22l23 117q0 2 2 6v4q29 127 57 184l9 111q0 9 6 24t8 23l6 27
q10 57 10 82q0 70 -33 84q-37 14 -45 30q-6 6 -6 21v10q8 41 72 43l49 2h23q6 -2 14 -2t22 2h99l123 4l75 2q72 0 72 -47v-6q-2 -6 -4 -17q-7 -36 -88 -59v2q-76 -29 -109 -76v3q-25 -42 -53 -195l-6 -45q0 -4 -2 -12v-7l-6 -49q-4 -12 -19 -55l-2 -16q-2 -3 -6 -17t-8 -25
t-6 -20h2q-2 -8 -5 -14t-5 -12l2 2q-3 -14 -5 -52q-1 -38 -16 -92l-12 -65l-10 -35q-27 -94 -27 -130t2 -40l12 -29q23 -68 29 -80t41 -28h-4l53 -37q8 -10 17 -10l94 14l96 -4q38 4 96 26q70 35 91 57t54 66q33 45 46 61t18 34l-2 -3q14 57 23 82l80 295l6 45l22 123l10 39
q-2 0 -2 4z" />
    <glyph glyph-name="Uacute" unicode="&#xda;" horiz-adv-x="1390" 
d="M1262 1700q70 0 69 -60q0 -47 -41 -88t-90 -45l-35 -4l-20 -6q-40 -7 -81 -29t-58 -22q-31 0 -31 33v14q12 8 24 20q41 31 160 134v-2q54 55 103 55zM1298 1067q0 16 7 88q0 12 -7 25l-28 28q-8 6 -31 52l-33 26q-31 25 -30 47v4q6 37 75 37l140 -12l6 2h10q14 2 45 2h88
l53 2q51 0 51 -37t-75 -94l-25 -14q-34 -8 -71 -70q-14 -25 -24 -80t-15 -76l-35 -194l-15 -39l-53 -225v-4l-10 -72q0 -2 -2 -8v-4q-1 -40 -25 -91t-33 -74t-12 -29q-4 -5 -12 -21l-10 -21q-35 -70 -80 -102q-119 -113 -199 -125q-6 0 -10 -2t-18 -4t-25 -5l-143 -10
q-33 -4 -75 -4t-95 19q-121 35 -174 61q-35 18 -74 82q-12 18 -15 20q-41 76 -44 103t-3 63t13 86l2 19l14 55l10 68v39q1 11 9 49q8 37 10 51t4 24t4 14q0 4 2 7v4q29 127 57 184l9 111q0 9 6 24t8 23l6 27q10 57 10 82q0 70 -33 82q-37 16 -45 32q-6 6 -6 21v10
q8 41 72 43l49 2h23q6 -2 14 -2t22 2h99l123 4l75 2q72 0 72 -47v-6q-2 -6 -4 -17q-7 -36 -88 -59v2q-77 -29 -101 -65q-37 -54 -61 -203l-6 -45l-2 -21q0 -4 -6 -47q-4 -12 -19 -55l-2 -16q-2 -3 -6 -17t-8 -25t-6 -20h2q-2 -8 -5 -14t-5 -12l2 2q-3 -14 -5 -52
q-1 -38 -16 -92l-12 -65l-10 -35q-27 -94 -27 -130t2 -40l12 -29q23 -68 29 -80t41 -28h-4l53 -37q8 -10 17 -10l94 14l98 -4q34 4 94 26q70 35 90 55t49 59q29 38 34 45t18 25t18 34l-2 -3q14 57 23 82l80 291l6 49l22 123l10 39q-2 0 -2 10t9 50q0 8 -9 47v14z" />
    <glyph glyph-name="Ucircumflex" unicode="&#xdb;" horiz-adv-x="1390" 
d="M1114 1724q28 0 40 -10t30 -45l22 -49l15 -29q29 -84 32 -100l-2 2q4 -8 4 -23v-10q-6 -30 -36 -30t-105 75l-14 35q-12 29 -10 29q-14 0 -38 -34q-24 -35 -46 -49q-24 -14 -42 -27t-34 -24q-15 -11 -33 -12q-31 0 -31 31v16q16 16 43 52l33 41l35 39l18 26l39 37
q14 14 31 45q21 14 49 14zM1251 1374l140 -10l61 2h88l53 2q51 0 51 -34t-75 -97l-25 -14q-74 -18 -102 -183q0 -7 -8 -43l-35 -194l-15 -39l-53 -225v-4l-12 -84q-1 -40 -25 -91t-31 -72t-13 -28q-5 -8 -13 -24l-10 -21q-35 -70 -80 -102q-119 -113 -199 -125q-6 0 -10 -2
t-18 -4t-25 -5l-143 -10q-33 -4 -75 -4t-95 19q-121 35 -174 61q-35 18 -74 82q-12 18 -15 20q-41 76 -44 103t-3 63t13 86l2 19l14 55l10 68v39l27 139q0 2 2 6v4q29 127 57 184l9 113v4l2 4q0 4 5 16t7 21l6 29q10 55 10 82q0 68 -36 84t-42 28q-6 6 -6 21v10q8 41 72 43
l49 2h23q6 -2 14 -2t22 2h99l123 4l75 2q72 0 72 -47v-6q-2 -7 -5 -19q-8 -34 -87 -57v2q-76 -29 -109 -76v3q-25 -42 -53 -195l-6 -45l-8 -68q-6 -18 -10 -32t-9 -23l-2 -16q-2 -3 -6 -17t-8 -25t-6 -20h2q-2 -8 -5 -14t-5 -12l2 2q-3 -14 -5 -52q-1 -38 -16 -92l-12 -65
l-10 -35q-27 -94 -27 -130t2 -40l12 -29q23 -68 29 -80t41 -28h-4l53 -37q8 -10 17 -10l94 14l96 -4q38 4 96 26q70 35 91 57t54 66q33 45 46 61t18 34l-2 -3q14 57 23 82l80 295l6 45l22 123l10 39q-2 0 -2 8t9 54q0 6 -9 45v14q0 16 7 90q0 12 -7 25l-28 26q-8 6 -31 52
l-33 26q-31 25 -30 47v4q6 37 75 37z" />
    <glyph glyph-name="Udieresis" unicode="&#xdc;" horiz-adv-x="1390" 
d="M1278 1667h16q92 0 92 -84q0 -48 -24 -88q-10 -23 -48 -40t-61 -17q-78 0 -77 84v10q0 43 28 89q29 46 74 46zM889 1440q-39 0 -69 30t-30 75q0 44 50 85q57 51 89 51q33 1 63 -27t29 -42t-1 -23l-2 -14v-33q-8 -23 -23 -41v2q-39 -63 -106 -63zM1298 1067q0 16 7 88
q0 12 -7 25l-28 28q-6 6 -31 49l-33 29q-31 25 -30 45v4q6 39 75 39l140 -12l6 2h10q14 2 45 2h88l53 2q51 0 51 -37t-75 -94l-25 -14q-34 -8 -71 -70q-15 -25 -23 -71t-11 -61t-5 -26l-35 -192l-15 -39l-53 -225v-4l-10 -72q0 -2 -2 -8v-4q-1 -40 -25 -91t-33 -74t-12 -29
q-4 -5 -12 -21l-10 -21q-35 -70 -80 -102q-119 -113 -199 -125q-6 0 -10 -2t-18 -4t-25 -5l-143 -10q-33 -4 -75 -4t-95 19q-121 35 -174 61q-35 18 -74 82q-12 18 -15 20q-41 76 -44 103t-3 63t13 86l2 19l14 55l10 68v39q1 11 9 49q8 37 10 51t4 24t4 14q0 4 2 7v4
q27 122 57 182l9 113q0 9 6 24t8 23l6 27q10 57 10 82q0 68 -35 83t-43 31q-6 6 -6 21v10q8 41 72 43l49 2h23q6 -2 14 -2t22 2h99l123 4l75 2q72 0 72 -47v-6q-2 -6 -4 -17q-3 -12 -21 -30t-67 -29q-76 -25 -109 -76v2q-28 -44 -53 -192l-6 -45l-2 -21q0 -6 -6 -47
q-4 -12 -19 -55q-5 -36 -22 -80h2q-2 -6 -5 -12t-5 -12l2 2q-3 -14 -5 -51q-1 -37 -16 -95l-12 -63l-10 -35q-27 -94 -27 -130t2 -40l12 -29q23 -68 29 -80t41 -28h-4l53 -37q8 -10 17 -10l94 14l96 -4q38 4 96 26q70 35 90 55t49 59q29 38 34 45t18 25t18 34l-2 -3
q14 57 23 82l80 293l6 47l22 121l10 41q-2 0 -2 5t9 55q0 8 -9 47v14z" />
    <glyph glyph-name="Yacute" unicode="&#xdd;" horiz-adv-x="1120" 
d="M1122 1700q70 0 70 -60q0 -47 -41 -89t-90 -46l-33 -4l4 2l-24 -8q-41 -7 -80 -27h-2q-51 -23 -56 -22q-33 0 -32 33v12q14 14 26 20q88 74 158 136v-2q55 55 100 55zM571 385l31 104l14 109l2 4v4l9 66q1 2 -21 60t-49 136v-4q-18 41 -33 58q-18 35 -37 85
q-52 137 -61 146l-80 100q-59 45 -59 68v6q6 18 24 37q47 0 152 12q19 0 57 -8l76 6v-39q18 37 51 35q2 -2 37 -2q72 0 72 -47v-4q-6 -23 -27 -41l-37 -35q-18 -14 -20 -29v-6q0 -27 37 -112q14 -43 61 -107q6 -20 18 -51l25 -51q7 -37 4 -37q43 0 166 176q27 40 47 60
t51 55q25 23 29 33t4 26t-10 36q-10 18 -16 24q-7 6 -13 12t-12 10l6 -2q-16 10 -16 29v6q2 6 2 8q10 47 82 47h20q47 0 55 -4h5l69 8q142 0 144 -57v-10q-2 -27 -25 -41q-6 -6 -76 -39q-19 -7 -135 -113q-8 -6 -61 -82l-203 -229q-33 -31 -50 -63t-32 -99l-27 -133
q-12 -43 -18 -55q0 -29 -6 -68l-37 -152q-6 -27 -6 -41t7 -42t36 -59q29 -30 28 -54v-8q-10 -29 -34 -29h-5l-41 2q-8 -2 -28 -2h-15l-94 2h-8q-53 -4 -57 -4h-6l-56 4l-28 -2h-45q-61 0 -62 37v6q4 27 29 37l47 20q33 23 63 62q47 49 50 61l8 47z" />
    <glyph glyph-name="Thorn" unicode="&#xde;" horiz-adv-x="980" 
d="M518 618q-14 -28 -14 -58t-2 -44v-18q0 -68 26 -68l68 12q51 4 68 7l-2 -3q35 10 58 35t41 43t36 39l34 82l7 14l18 46v4l2 39l4 30q2 20 6 51v5q0 25 -90 127q-6 6 -24 10l-45 -2l-37 2h-2q-27 0 -60 -41t-35 -66q-2 -2 -6 -30t-8 -42t-8 -35t-8 -34l-8 -49l-21 -58z
M428 1216q0 16 -25 46q-31 29 -30 53v8q10 49 73 51l113 -6q63 8 98 8q96 0 97 -59v-14q-2 -16 -36 -40t-46 -42q-43 -89 -43 -111l-2 -2v-2l14 2l16 -2l9 2l57 -2l35 -2q33 0 43 -3t41 -14q160 -12 227 -243q14 -53 14 -78v-10q-17 -211 -165 -322h2q-84 -76 -152 -96
l-39 -10q-74 -18 -82 -19l-41 2l-63 -6l-54 4h-2q-20 0 -28 -51v-4q-10 -58 -10 -70l12 -37q4 -25 26 -57q12 -25 13 -35v-8q-10 -47 -45 -47h-60q-27 -2 -48 -2t-48 2h-84q-35 0 -68 8q-29 14 -28 45v10q2 16 16 31l60 41q16 16 28 55l29 82l2 13q0 38 12 80l-2 -3
q6 31 26 93t22 82q2 19 2 37q1 18 7 46q5 28 7 42l16 61q2 6 6 39l41 199q4 15 6 39t11 85l16 103q4 12 4 28z" />
    <glyph glyph-name="germandbls" unicode="&#xdf;" horiz-adv-x="952" 
d="M-115 -618q-100 0 -100 90q0 111 86 110q63 0 86 -65q2 2 6 2q23 0 37 39l31 75q0 7 5 22t9 34t8 30l144 568q5 18 25 107q20 90 22 108q3 23 22 84t21 104l-11 10l-57 -2q-33 0 -33 35q0 41 72 64q37 12 68 51q18 90 90 213v-4q4 13 52 67t79 84q76 74 248 74
q84 0 138 -53t54 -129t-5 -120t-58 -103h2q-43 -49 -62 -66l-43 -27q-17 -14 -41 -30t-24 -39q0 -5 63 -47q63 -43 119 -107q63 -80 63 -149l-2 -29q-2 -10 -2 -21q0 -72 -61 -188q-48 -84 -135 -127q-23 -12 -53 -31l-29 -14l-119 -10q-10 -2 -27 -2q-67 0 -123 34t-56 94
t36 115v-2q41 59 90 60q86 0 86 -60q0 -4 -39 -127v-2q0 -10 51 -10q70 0 117 150q23 78 23 89t-2 25v37q0 14 4 35v18q0 45 -74 146q-29 20 -57 51q-13 18 -13 56t35 83h-2q43 45 49 62q84 86 84 176q0 121 -71 121q-47 0 -117 -82v2q-16 -25 -45 -158l-4 -49
q-11 -58 -27 -114t-24 -93l-7 -37q-4 -16 -157 -604q-47 -160 -68 -227q-80 -254 -205 -344q-72 -53 -172 -53z" />
    <glyph glyph-name="agrave" unicode="&#xe0;" horiz-adv-x="638" 
d="M270 173q0 -7 22 -27t60 -19q47 0 72 84l22 76q6 7 8 19t5 16v4l35 213v4q0 16 -13 53q-8 16 -22 27h-21q-31 -10 -39 -19v2l-12 -12q-29 -10 -47 -42t-33 -73l-31 -123q-12 -98 -4 -159v-11q-2 -6 -2 -13zM500 -12q-14 0 -41 10q-10 0 -43 33q-14 -8 -47 -19
q-57 -24 -138 -24t-137 69q-14 14 -14 45v33q2 33 8 49l-2 -2q2 10 10 31l-2 -2q8 29 10 33l-2 -2q23 76 68 231q67 190 137 223q23 16 72 31l-2 -2l26 12q37 17 85 17t83 -13q51 -20 86 -98q9 -16 9 -52t-1 -38t-12 -39l-53 -250l-6 -18l2 2q-2 -27 -6 -37q0 -55 20 -57
l41 -19q10 -10 11 -20v-9q-4 -12 -56 -65t-106 -53zM351 1030q36 32 71 33q35 0 54 -31q8 -10 22 -32t28 -39l41 -41q27 -27 27 -60v-8q-6 -37 -43 -37q-16 0 -68 27l2 -2l-98 32q-45 14 -57 25q-23 16 -23 47q0 4 2 8v9q6 37 42 69z" />
    <glyph glyph-name="aacute" unicode="&#xe1;" horiz-adv-x="645" 
d="M270 173q0 -7 22 -27t60 -19q47 0 72 84l22 76q6 7 8 19t5 16v4l35 213v4q0 16 -13 53q-8 16 -22 27h-21q-31 -10 -39 -19v2l-12 -12q-29 -10 -47 -42t-33 -73l-31 -123q-12 -98 -4 -159v-11q-2 -6 -2 -13zM500 -12q-14 0 -41 10q-10 0 -43 33q-14 -8 -47 -19
q-57 -24 -138 -24t-137 69q-14 14 -14 45v33q2 33 8 49l-2 -2q2 10 10 31l-2 -2q8 29 10 33l-2 -2q23 76 68 231q67 190 137 223q23 16 72 31l-2 -2l26 12q37 17 85 17t83 -13q51 -20 86 -98q9 -16 9 -52t-1 -38t-12 -39l-53 -250l-6 -18l2 2q-2 -27 -6 -37q0 -55 20 -57
l41 -19q10 -10 11 -20v-9q-4 -12 -56 -65t-106 -53zM428 836v10q6 20 57 53q10 3 49 35q38 32 88 71t83 39q68 0 67 -59q0 -61 -63 -100q-35 -18 -64 -23l-35 -4q-4 0 -43 -14l2 2l-16 -8l-90 -33q-35 0 -35 31z" />
    <glyph glyph-name="acircumflex" unicode="&#xe2;" horiz-adv-x="641" 
d="M270 173q0 -7 22 -27t60 -19q47 0 72 84l22 76q6 7 8 19t5 16v4l35 213v4q0 16 -13 53q-8 16 -22 27h-21q-31 -10 -39 -19v2l-12 -12q-29 -10 -47 -42t-33 -73l-31 -123q-12 -98 -4 -159v-11q-2 -6 -2 -13zM500 -12q-14 0 -41 10q-10 0 -43 33q-14 -8 -47 -19
q-57 -24 -138 -24t-137 69q-14 14 -14 45v33q2 33 8 49l-2 -2q2 10 10 31l-2 -2q8 29 10 33l-2 -2q23 76 68 231q67 190 137 223q23 16 72 31l-2 -2l26 12q37 17 85 17t83 -13q51 -20 86 -98q9 -16 9 -52t-1 -38t-12 -39l-53 -250l-6 -18l2 2q-2 -27 -6 -37q0 -55 20 -57
l41 -19q10 -10 11 -20v-9q-4 -12 -56 -65t-106 -53zM558 1081q26 0 52 -12q0 -4 17 -41l32 -65q2 -6 10 -25t13 -34q4 -15 6 -15l4 -27q6 -18 6 -20v-8q-6 -33 -34 -33t-103 69q-31 57 -26 62q-13 -2 -37 -36t-49 -46q-8 -2 -11 -4l-43 -31q-29 -20 -41 -20q-29 0 -28 32v13
q2 12 36 49l31 41l33 35l18 24l37 35q25 39 38 48t39 9z" />
    <glyph glyph-name="atilde" unicode="&#xe3;" horiz-adv-x="645" 
d="M270 173q0 -7 22 -27t60 -19q47 0 72 84l22 76q6 7 8 19t5 16v4l35 213v4q0 16 -13 53q-8 16 -22 27h-21q-31 -10 -39 -19v2l-12 -12q-29 -10 -47 -42t-33 -73l-31 -123q-12 -98 -4 -159v-11q-2 -6 -2 -13zM500 -12q-14 0 -41 10q-10 0 -43 33q-14 -8 -47 -19
q-57 -24 -138 -24t-137 69q-14 14 -14 45v33q2 33 8 49l-2 -2q2 10 10 31l-2 -2q8 29 10 33l-2 -2q23 76 68 231q67 190 137 223q23 16 72 31l-2 -2l26 12q37 17 85 17t83 -13q51 -20 86 -98q9 -16 9 -52t-1 -38t-12 -39l-53 -250l-6 -18l2 2q-2 -27 -6 -37q0 -55 20 -57
l41 -19q10 -10 11 -20v-9q-4 -12 -56 -65t-106 -53zM469 1016h6q20 0 68 -25l32 -10q23 -14 68 -39q29 0 94 41q35 0 35 -27q0 -2 -4 -14l-37 -45l-18 -18q-12 -14 -47 -50q-40 -23 -62 -23q-66 2 -121 38h2q-16 10 -30 13t-39 12t-32 9t-52 -36v2l-10 -13q-41 0 -41 31v10
q4 18 34 46l37 30q68 68 117 68z" />
    <glyph glyph-name="adieresis" unicode="&#xe4;" horiz-adv-x="643" 
d="M270 173q0 -7 22 -27t60 -19q47 0 72 84l22 76q6 7 8 19t5 16v4l35 213v4q0 16 -13 53q-8 16 -22 27h-21q-31 -10 -39 -19v2l-12 -12q-29 -10 -47 -42t-33 -73l-31 -123q-12 -98 -4 -159v-11q-2 -6 -2 -13zM500 -12q-14 0 -41 10q-10 0 -43 33q-14 -8 -47 -19
q-57 -24 -138 -24t-137 69q-14 14 -14 45v33q2 33 8 49l-2 -2q2 10 10 31l-2 -2q8 29 10 33l-2 -2q23 76 68 231q67 190 137 223q23 16 72 31l-2 -2l26 12q37 17 85 17t83 -13q51 -20 86 -98q9 -16 9 -52t-1 -38t-12 -39l-53 -250l-6 -18l2 2q-2 -27 -6 -37q0 -55 20 -57
l41 -19q10 -10 11 -20v-9q-4 -12 -56 -65t-106 -53zM424 1018q66 0 68 -103q0 -12 -3 -14q-10 -43 -43 -70q-16 -18 -43 -18q-92 0 -96 74q-2 10 -2 39q23 92 119 92zM526 930q21 86 111 86q39 0 68 -27t28 -63q0 -4 -4 -21l2 2q-6 -39 -63 -78q-35 -27 -54 -26
q-41 0 -68 31t-20 55v41z" />
    <glyph glyph-name="aring" unicode="&#xe5;" horiz-adv-x="641" 
d="M270 173q0 -7 22 -27t60 -19q47 0 72 84l22 76q6 7 8 19t5 16v4l35 213v4q0 16 -13 53q-8 16 -22 27h-21q-31 -10 -39 -19v2l-12 -12q-29 -10 -47 -42t-33 -73l-31 -123q-12 -98 -4 -159v-11q-2 -6 -2 -13zM500 -12q-14 0 -41 10q-10 0 -43 33q-14 -8 -47 -19
q-57 -24 -138 -24t-137 69q-14 14 -14 45v33q2 33 8 49l-2 -2q2 10 10 31l-2 -2q8 29 10 33l-2 -2q23 76 68 231q67 190 137 223q23 16 72 31l-2 -2l26 12q37 17 85 17t83 -13q51 -20 86 -98q9 -16 9 -52t-1 -38t-12 -39l-53 -250l-6 -18l2 2q-2 -27 -6 -37q0 -55 20 -57
l41 -19q10 -10 11 -20v-9q-4 -12 -56 -65t-106 -53zM545 977q-31 0 -39 -39q-2 -2 -2 -14t14 -21l21 2q10 0 24 14t15 21q2 6 4 8v2l-19 19h2q-8 8 -20 8zM563 1075h2q18 0 51 -16t46 -35q12 -12 16 -51l2 -29q-12 -59 -64 -101t-110 -42q-100 0 -100 102q0 31 4 51
q8 57 96 105q32 16 57 16z" />
    <glyph glyph-name="ae" unicode="&#xe6;" horiz-adv-x="1015" 
d="M834 643q-24 1 -62 -23q-37 -24 -43 -59v-4q43 -8 125 -8t84 7q2 8 2 24t-18 35t-41 23t-47 5zM279 178q0 -10 8 -22q35 -29 68 -29t55 14q70 45 75 66v2l-4 55q1 34 8 82t7 49q-18 -4 -52 -30q-4 0 -10 -7l-43 -30q-33 -16 -39 -23q-73 -66 -73 -127zM1026 449l-43 2
l-6 2l-111 -7h-28l-109 9q-29 0 -61 -21q-17 -17 -17 -41v-18q-6 -59 -6 -76v-8q2 -25 53 -68q49 -51 109 -51q102 0 170 37h2q8 2 18 2q29 0 29 -29v-6q-29 -79 -74 -117q-2 -2 -7 -4t-7 -4l-20 -12q-88 -53 -199 -53q-27 0 -68 14t-55 23q-18 16 -45 55q-6 18 -12 18
q-19 0 -109 -55t-184 -55t-150 71q-12 27 -14 95q17 85 45 131h-2q33 55 154 120q37 18 81 34t109 48q33 23 39 52v4q0 12 -12 55q-17 23 -23 27h-41q-19 -19 -37 -31q-61 -53 -98 -53q-47 0 -47 47q0 10 4 22l-2 -2q13 84 139 121l-2 -2l27 12q33 17 87 17q114 1 156 -78
l9 -14q8 0 28 14q96 76 198 76t177 -82q53 -61 53 -113q0 -109 -98 -108z" />
    <glyph glyph-name="ccedilla" unicode="&#xe7;" horiz-adv-x="653" 
d="M440 109h31q25 0 84 16l-2 -2l35 14l28 13l9 2q31 0 30 -27v-2q-4 -16 -34 -43l-21 -14l-2 -3q-6 -4 -23 -16l-30 -20q-23 -10 -41 -25q-16 -4 -49 -12t-35 -10v2q-2 0 -2 -2h2l22 -11q14 -14 27 -38q12 -24 12 -33v-4l-14 -39l-4 -31q-2 -23 -35 -49q-66 -49 -114 -49
t-67 11t-42 50q-12 14 -12 41v12q6 18 28 38q23 19 37 20q25 0 45 -56q4 -4 37 -4q25 0 25 33l-46 27h3q-16 8 -17 32v13q4 8 4 20l2 10q0 11 8 27q-68 12 -133 84l-10 18l4 -2q-19 16 -26 38q-8 22 -16 42t-11 29q0 69 6 174v20q25 125 132 233t231 120q8 4 85 4t95 -8v2
q98 -27 98 -119q0 -54 -31 -80q-31 -27 -57 -27q-63 0 -117 86q-12 23 -25 28t-55 5h-18q-33 -2 -82 -57q-35 -43 -59 -152l-4 -35l-15 -55q18 -33 29 -98q23 -90 57 -116t43 -25z" />
    <glyph glyph-name="egrave" unicode="&#xe8;" horiz-adv-x="630" 
d="M472 557q82 0 83 7q2 7 2 29q-1 22 -27 41t-66 19q-40 1 -73 -27t-39 -57v-4q38 -8 120 -8zM472 1063q26 0 52 -16q8 -6 22 -29t40 -57l41 -41q27 -29 26 -60v-8q-6 -37 -43 -37q-16 0 -67 27l2 -2l-99 32q-45 12 -63 26t-18 46q6 50 43 85q38 34 64 34zM430 174
q26 0 113 16q35 10 41 15l28 10q29 0 29 -29v-6q-4 -23 -16 -39q0 -6 -7 -14q-26 -59 -81 -90v2q-84 -53 -195 -53q-22 0 -52 11t-31 11h-3q-8 6 -22 10t-17 9q-37 29 -98 186q-6 47 -6 77t4 50q16 40 30 80q43 125 95 180q25 27 86 92q96 72 184 72q119 0 197 -115
q41 -60 24 -110l2 2q-16 -84 -94 -84q-18 0 -29 2h-18l-109 -4h-28q-14 0 -56 4l-49 2q-33 1 -51 -15t-20 -22t-10 -58t-1 -76q8 -24 52 -63q30 -37 56 -45t52 -8z" />
    <glyph glyph-name="eacute" unicode="&#xe9;" horiz-adv-x="634" 
d="M466 653q-42 0 -83 -39q-23 -18 -29 -45v-4q33 -10 118 -10t85 4q4 12 4 34t-26 41q-27 19 -69 19zM750 1044q68 0 67 -59q0 -57 -61 -100q-45 -20 -66 -23l-35 -4q-5 0 -43 -14l2 2q-15 -8 -92 -35q-6 -6 -14 -6q-35 0 -35 31v10q3 18 35 38t72 52q40 34 59 47
q70 61 111 61zM434 174q24 0 86 12t68 19l28 10q31 0 31 -31v-4q-8 -27 -18 -39q0 -6 -6 -14q-25 -58 -82 -90v2q-88 -53 -197 -53q-22 0 -52 11t-31 11h-3q-10 6 -22 10q-50 17 -115 195q-6 47 -6 77q0 50 35 130q45 127 88 174t94 98q96 72 182 72q119 0 201 -115
q39 -64 24 -110l2 2q-18 -86 -94 -86q-29 0 -41 4h-8l-109 -6h-28l-107 8q-31 0 -59 -21q-13 -12 -15 -30t-9 -57q-6 -39 2 -63q7 -24 51 -63q34 -39 60 -46t50 -7z" />
    <glyph glyph-name="ecircumflex" unicode="&#xea;" horiz-adv-x="630" 
d="M469 557q84 0 86 8t2 29q1 21 -25 40t-67 19q-41 1 -73 -27t-40 -55v-4q33 -10 117 -10zM664 801q-20 0 -97 69q-31 57 -26 62q-16 -2 -39 -35t-48 -45t-42 -29q-41 -29 -54 -28q-29 0 -28 32v13q4 12 39 49l30 41l33 35l19 24l36 35q25 41 39 49t40 8t50 -12
q0 -8 17 -41l22 -45l11 -20q2 -4 10 -27t16 -45v-2l2 -4l8 -43v-8q-4 -33 -38 -33zM641 457l-39 2l-8 2l-109 -6h-28l-105 8q-31 -1 -50 -17t-21 -22q-3 -6 -9 -47t-6 -59q0 -39 56 -91q30 -37 56 -45t54 -8t84 12q58 12 68 19l28 10q29 0 29 -29v-6q-4 -23 -16 -39
q0 -6 -7 -14q-26 -59 -81 -90v2q-84 -53 -195 -53q-22 0 -52 11t-31 11h-3q-8 6 -22 10t-17 9q-37 29 -98 186q-6 49 -6 77t4 50q16 40 30 80q45 131 95 180q8 10 86 92q96 72 184 72q119 0 197 -115q41 -58 24 -110l2 2q-16 -84 -94 -84z" />
    <glyph glyph-name="edieresis" unicode="&#xeb;" horiz-adv-x="632" 
d="M472 555q83 0 85 8t2 30q-1 22 -27 40t-67 18t-84 -37q-23 -23 -29 -45v-4q37 -10 120 -10zM446 813q-94 0 -98 74v39q6 40 37 66t68 26t67 -27q12 -12 12 -43l3 -33q0 -43 -46 -84q-16 -18 -43 -18zM680 1016q39 0 68 -27t28 -63q0 -8 -4 -21l2 2q-6 -33 -63 -78
q-39 -27 -54 -26q-43 0 -77 41q-12 12 -13 35l2 20v31q10 38 41 62t70 24zM512 762q121 0 199 -115q45 -62 26 -108l2 2q-18 -86 -94 -86q-27 0 -43 4h-6l-109 -6h-28l-107 8q-31 -1 -50 -15t-20 -24t-9 -59t1 -74q8 -25 48 -62q37 -39 53 -45q37 -8 59 -8t111 16
q35 10 41 15l28 10q31 0 31 -31v-4q-8 -27 -18 -39q0 -8 -6 -14q-25 -58 -82 -90v2q-88 -53 -195 -53q-20 0 -52 11t-33 11h-3q-8 6 -22 11t-17 8q-37 29 -98 186q-4 61 -4 84l2 41q0 10 33 82q45 129 94 178q12 16 86 94q94 70 182 70z" />
    <glyph glyph-name="igrave" unicode="&#xec;" horiz-adv-x="401" 
d="M290 1063q26 0 50 -19q12 -12 19 -23t21 -31t21 -32l37 -38q27 -29 27 -60v-8q-6 -37 -41 -37q-14 0 -68 27l2 -2l-94 32q-41 10 -59 24t-19 48q6 50 42 85q36 34 62 34zM254 561q0 1 -22 23t-21 45v6q8 29 18 35l97 49q14 2 30 10l24 12q9 4 13 7h2l27 10q31 0 31 -37
v-8q0 -16 -19 -62l-10 -57q-4 -12 -4 -23l-6 -26l2 4q-4 -29 -18 -82t-17 -83q-4 -30 -8 -42l2 2l-10 -43q-28 -145 -15 -192h-2q18 -51 19 -68v-4q-6 -39 -68 -39h-4l-55 2h-72q-23 -2 -43 -2q-41 0 -41 37v8q4 20 45 59v-2q29 29 29 45l-2 2v7l8 24q0 6 3 11t6 21t11 40
q8 25 11 45l8 43q10 55 14 90t21 80l14 43q0 2 2 6v4z" />
    <glyph glyph-name="iacute" unicode="&#xed;" horiz-adv-x="413" 
d="M309 836v10q6 20 58 53q19 5 49 33t36 34t12 9q5 4 9 8q78 61 109 61q68 0 67 -59q0 -59 -61 -100q-33 -20 -64 -23l-32 -4q-18 -4 -46 -14l-102 -39q-35 0 -35 31zM217 629v6q6 27 21 35l98 47q14 3 30 12q17 8 27 12t13 7h2q27 10 28 10q31 0 31 -37v-10l-29 -109v-8
q-4 -12 -4 -23l-6 -26l2 4q-6 -27 -20 -81t-18 -85q-5 -31 -9 -43l2 2l-4 -12v-7q0 -5 -18 -84t-3 -130h-2q20 -49 21 -68v-4q-6 -39 -70 -39h-6l-55 2h-74q-23 -2 -45 -2q-43 0 -43 37v8q8 27 47 59v-2q29 25 29 45l-2 2v7l8 24l4 8l12 50q11 28 17 59l10 43q2 12 9 63
t20 88l4 19l16 41l2 12q0 3 -22 25t-23 43z" />
    <glyph glyph-name="icircumflex" unicode="&#xee;" horiz-adv-x="409" 
d="M535 801q-18 0 -95 69q-31 57 -26 62q-16 -2 -37 -37q-29 -40 -58 -51q-5 -2 -39 -26t-44 -23q-27 0 -27 32v13q4 12 37 49l30 41l33 37v-2l17 24l36 35q25 41 38 49q14 8 40 8t49 -14q0 -6 17 -39l22 -45l9 -20q20 -49 23 -61t5 -17l10 -45v-6q-6 -33 -40 -33zM215 629
v6q6 29 18 37l43 18l58 29q10 4 22 9t25 10t20 10h2q25 10 29 10q31 0 31 -35v-10q-2 -20 -19 -62q-12 -48 -12 -57l-2 -23l-6 -26l2 4q-6 -27 -20 -81t-17 -80q-4 -26 -8 -46l2 2l-10 -43q-31 -137 -15 -192h-2q18 -51 19 -68v-4q-6 -39 -68 -39h-6l-55 2h-74
q-23 -2 -43 -2q-43 0 -43 37v8q4 23 47 59v-2l27 45v9l6 24q2 2 2 5t2 7t4 10t4 17q2 9 10 33t11 47l10 41q2 12 9 61t18 90l6 21l16 41l2 12q0 4 -10 10q-35 35 -35 56z" />
    <glyph glyph-name="idieresis" unicode="&#xef;" horiz-adv-x="411" 
d="M522 1020q43 0 62 -41q8 -16 8 -47t-37 -86q-33 -43 -55 -43q-45 0 -76 41q-8 14 -8 35l2 18v33q4 35 43 67q18 23 61 23zM342 1018q20 0 51 -27q12 -12 13 -45l2 -31q0 -49 -43 -84q-18 -18 -46 -18q-90 0 -94 74q-2 12 -2 39q19 92 119 92zM215 629v6q8 27 21 35l98 47
q10 4 28 12t26 11q9 3 13 5h2l29 11q33 0 33 -35v-10q-2 -12 -21 -62l-10 -57q-4 -8 -4 -21l-6 -28l2 4q-18 -77 -26 -105t-11 -59q-4 -31 -8 -43l2 2l-10 -41q-28 -146 -15 -192h-2q18 -51 19 -68v-4q-6 -39 -68 -39h-6l-55 2h-74q-23 -2 -43 -2q-43 0 -43 37v8q4 18 47 59
v-2q29 29 29 45l-2 2v7l6 24q4 7 9 26q5 18 11 34t13 57l10 41q6 28 11 73t18 78l4 21l16 41l2 12q0 2 -10 12q-35 31 -35 56z" />
    <glyph glyph-name="eth" unicode="&#xf0;" horiz-adv-x="821" 
d="M682 414q0 14 -2 26l-8 47q-12 75 -19 91q-30 69 -139 69q-27 0 -55 -14q-61 -39 -99 -96q-34 -42 -61 -207l12 -103q2 -10 2 -30q10 -18 19 -27l18 -10l29 -19v2q37 -18 47 -32q43 -1 99 27q57 28 107 125t50 151zM601 770q32 0 62 -7t39 -7q-2 0 -2 2v12l-4 57l-16 43
q-6 34 -37 131q-14 76 -29 76l-4 -2q-10 -10 -30 -20q-45 -31 -63 -31t-32 29q-39 39 -39 63v6q4 16 35 43v-2q12 16 33 23l-2 -2q29 10 31 20q-4 -4 -39 35l-41 35q-39 33 -39 53v4q6 37 42 37t68 -22q31 -22 44 -30q13 -7 43 -27q31 -21 41 -27q39 2 71 34q8 8 17 13
q61 20 71 20t32 -31t21 -55v-10q-2 -23 -34 -35h2l-31 -16q-63 -27 -66 -35q11 -17 29 -41t34 -57q54 -107 70 -208q15 -100 15 -146t-4 -87v-84q-5 -62 -17 -130t-72 -166t-108 -136q-135 -104 -240 -104t-191 58q-85 58 -130 159q-14 31 -14 67t5 56q5 22 5 27t3 20t7 37
l17 69q8 55 100 151t260 128q55 10 87 10z" />
    <glyph glyph-name="ntilde" unicode="&#xf1;" horiz-adv-x="778" 
d="M578 1016h6q20 0 67 -25l33 -10l70 -39q31 0 94 41q35 0 35 -27q1 -13 -17 -33q-18 -19 -24 -28l-19 -16q-29 -33 -49 -50q-41 -23 -82 -22t-100 35l-51 22q-43 14 -49 14t-54 -38v2l-10 -11q-41 0 -41 31v10q2 16 35 46l39 30q64 68 117 68zM199 14l-84 -14
q-57 0 -58 41v10q6 25 40 45q66 40 89 142q27 88 35 131l12 59q2 6 6 21t11 34h-2q4 15 4 29t-4 23q-20 8 -64 47q-6 10 -6 20q0 33 47 55q82 39 107 52q90 57 105 57t28 -23l-2 -22q8 6 35 16q59 31 98 31t104 -18q70 -12 95 -72q4 -53 4 -84v-33l-2 -29l-9 -36l-10 -58
q-6 -16 -14 -59l-14 -84q-15 -78 -5 -150v-2q8 -35 39 -75q0 -8 13 -21q-8 -47 -72 -47h-25q-12 0 -45 4h-12l-53 -4h-19q-53 0 -77 2q-29 6 -29 37v10q2 16 45 55q2 2 22 39l23 37l14 86q0 6 2 10q0 4 9 17q16 49 34 141t19 118q0 97 -68 95q-43 0 -80 -26q-12 -20 -22 -35
l-35 -84l-12 -33l2 2l-4 -27q-4 -2 -6 -12l-7 -22q-10 -39 -20 -64q-7 -64 -15 -90t-12 -57l-2 -31l-2 -37l2 -8q0 -6 4 -31l-4 6q0 -8 37 -35q10 -14 10 -24v-8q-6 -31 -55 -31q-6 0 -24 2l-36 4q-19 2 -28 4l-53 4h-4z" />
    <glyph glyph-name="ograve" unicode="&#xf2;" horiz-adv-x="821" 
d="M504 1063q26 0 53 -16q11 -11 33 -44q22 -32 31 -42l41 -41q27 -29 26 -60v-8q-6 -37 -43 -37q-16 0 -70 27l3 -2l-99 32q-45 12 -63 26t-19 46q6 52 43 86q38 33 64 33zM512 641q-20 0 -53 -12q-57 -39 -99 -97q-29 -35 -47 -120t-16 -98t7 -53t9 -73q8 -14 21 -20
l41 -25q45 -33 49 -32q37 0 104 28q51 25 97 105q43 88 49 137q6 19 6 31t-2 16l-8 55q-12 75 -19 88q-30 70 -139 70zM451 -12q-117 0 -187 53t-88 78q-61 76 -61 166q0 27 5 46t19 93t37 106q96 135 236 191l39 13q20 8 46 18t97 10q70 0 84 -5t36 -15t56 -26t55 -54
l21 -37q35 -63 35 -140q0 -139 -121 -321q-47 -66 -129 -117v2q-27 -19 -51 -31t-33 -16l-2 -2q-53 -12 -94 -12z" />
    <glyph glyph-name="oacute" unicode="&#xf3;" horiz-adv-x="821" 
d="M793 1044q70 0 69 -59q0 -59 -63 -100q-33 -18 -64 -23l-35 -4q-18 -4 -45 -14l2 2q-15 -7 -92 -35q-6 -6 -14 -6q-35 0 -35 31v10q2 18 57 53q16 5 49 33t39 34t21 17q74 61 111 61zM512 641q-20 0 -53 -12q-57 -39 -99 -97q-31 -39 -48 -122t-15 -96t7 -53t9 -73
q8 -14 21 -20l41 -25q45 -33 49 -32q37 0 104 28q51 25 97 105q43 88 49 137q6 15 6 29t-2 18l-8 55q-8 67 -19 88q-30 70 -139 70zM451 -12q-117 0 -187 53t-88 78q-61 76 -61 166q0 27 4 45q7 30 21 99t36 101q96 137 236 189q84 31 114 37t84 6t68 -4t70 -31t77 -68
l21 -34q35 -63 35 -140q0 -139 -121 -321q-47 -66 -129 -117v2q-27 -19 -51 -31t-33 -16l-2 -2q-53 -12 -94 -12z" />
    <glyph glyph-name="ocircumflex" unicode="&#xf4;" horiz-adv-x="821" 
d="M782 876q0 -16 9 -34v-8q-6 -33 -41 -33q-16 0 -97 69q-31 57 -26 62q-16 -2 -40 -35t-50 -49l2 2q-3 -2 -7 -2t-7 -3t-14 -10t-33 -24t-36 -16q-29 0 -28 32v13q8 14 39 49l30 41l33 35l19 24l38 35q25 41 39 49t40 8t53 -14q0 -10 14 -39l24 -45l9 -20q4 -10 16 -42
t14 -36v-9zM512 641q-20 0 -53 -12q-61 -41 -99 -97q-29 -35 -47 -120t-16 -98q11 -90 16 -124q8 -16 21 -22l41 -25q45 -33 49 -32q37 0 104 28q51 27 97 107q43 84 49 135q6 19 6 31t-2 16l-8 55q-13 78 -19 90q-30 68 -139 68zM451 -12q-117 0 -187 53t-88 78
q-61 76 -61 166q0 27 5 46t20 95t36 104q92 136 220 184q128 49 198 48q70 0 84 -5t36 -15t56 -26t55 -54l21 -35q35 -66 35 -142q0 -139 -121 -321q-47 -66 -129 -117v2q-27 -19 -51 -31t-33 -16l-2 -2q-53 -12 -94 -12z" />
    <glyph glyph-name="otilde" unicode="&#xf5;" horiz-adv-x="821" 
d="M367 862v10q2 16 34 46l39 32v-2q64 68 117 68h6q23 0 70 -25l33 -10l67 -39q31 0 92 41q37 0 37 -27q0 -14 -17 -32q-17 -19 -24 -27l-18 -18q-35 -39 -49 -50q-85 -48 -183 15q-18 9 -30 12l-21 8q-43 14 -49 15l-51 -37v2l-12 -13q-41 0 -41 31zM512 641
q-20 0 -53 -12q-61 -45 -95 -91t-51 -130q-16 -85 -14 -104q2 -20 14 -116q8 -14 21 -20l41 -25q45 -33 49 -32q37 0 104 28q51 25 97 105q43 84 49 137q6 15 6 29t-2 18l-8 55q-7 64 -19 88q-30 70 -139 70zM451 -12q-117 0 -201 63q-55 37 -74 68q-61 76 -61 164
q0 29 7 54t21 103q16 66 33 90q96 137 236 189q80 29 112 35t86 6t82 -10q103 -36 133 -91l21 -34q35 -63 35 -140q0 -141 -121 -321q-47 -66 -129 -117v2q-27 -19 -51 -31t-33 -16l-2 -2q-53 -12 -94 -12z" />
    <glyph glyph-name="odieresis" unicode="&#xf6;" horiz-adv-x="821" 
d="M489 813q-92 0 -96 74q-2 14 -2 39q17 92 121 92q23 0 53 -27q12 -12 13 -43l2 -33q0 -47 -45 -84q-18 -18 -46 -18zM725 1016q41 0 70 -27t28 -63q0 -8 -4 -21l2 2q-6 -35 -54 -70t-62 -34q-45 0 -80 41q-12 10 -13 35l2 20v31q10 39 48 67q22 19 63 19zM512 641
q-20 0 -53 -12q-61 -45 -95 -91t-51 -130q-16 -85 -14 -104q2 -20 14 -116q8 -14 21 -20l41 -25q45 -33 49 -32q37 0 104 28q51 25 97 105q43 84 49 137q6 15 6 29t-2 18l-8 55q-7 64 -19 88q-30 70 -139 70zM451 -12q-117 0 -201 63q-55 37 -74 68q-61 76 -61 164
q0 29 7 54t21 103q16 66 33 90q96 137 236 189q80 29 112 35t86 6t82 -10q103 -36 133 -91l21 -34q35 -63 35 -140q0 -141 -121 -321q-47 -66 -129 -117v2q-27 -19 -51 -31t-33 -16l-2 -2q-53 -12 -94 -12z" />
    <glyph glyph-name="divide" unicode="&#xf7;" horiz-adv-x="894" 
d="M649 1040v-36l17 18q3 14 73 -4q37 -18 37 -55t-6 -64t-33 -53v2q-5 -2 -43 -22t-66 -19q-28 0 -71 47h2q-18 22 -18 50t6 56q7 28 37 54t65 26zM432 376q0 78 43 118v-2q7 12 51 22t56 10q33 0 71 -49q15 -13 15 -41t-2 -37q-23 -106 -111 -106l-57 24q-29 10 -56 25
q-10 20 -10 36zM684 596q-29 0 -94 -6l-25 -2q-29 -2 -71 -2l-70 -4h-18q-39 2 -70 2h-35q-69 0 -72 39q0 20 7 45l2 28q8 43 67 43h19l79 -6q12 0 52 8l26 2q16 2 90 2t86 -2q57 8 82 9l76 -4h4l45 4l86 -4q39 -6 39 -33q0 -8 -4 -17l2 2l-10 -32l-4 -39q-6 -41 -74 -41
q-6 2 -47 6l-94 -6q-14 0 -17 4l-47 4h-10z" />
    <glyph glyph-name="oslash" unicode="&#xf8;" horiz-adv-x="823" 
d="M426 111q129 0 203 137q39 80 51 139l2 27q0 25 -7 53t-3 33q-12 0 -37 -43l-21 -31q-6 -6 -18 -22t-21 -25l-14 -19l-45 -45q-66 -84 -125 -151l-12 -21l16 -14q25 -18 31 -18zM508 637q-18 0 -49 -12v2q-115 -73 -137 -193q-23 -120 -23 -136t4 -23q4 -8 4 -37l12 20
l144 166l33 47q10 10 39 47t43 49q23 27 26 43v4q0 6 -16 13q-62 10 -80 10zM613 758q58 0 98 -15l-2 2q4 0 16 19q11 9 33 39q21 29 39 40t45 11q59 0 59 -41v-8q-10 -41 -80 -105q-10 -8 -12 -18q4 -8 22 -27l15 -32q41 -57 41 -134q0 -125 -109 -301q-31 -49 -86 -98
q-133 -102 -225 -102t-176 35q-6 0 -55 -46q-53 -59 -89 -59q-68 0 -67 41v12l55 62v-2l37 47q14 14 14 18t-22 45l-33 60h2q-20 31 -20 69t10 78l16 64q4 8 9 46t30 70q90 131 234 189q63 27 88 28q55 13 113 13z" />
    <glyph glyph-name="ugrave" unicode="&#xf9;" horiz-adv-x="735" 
d="M398 1032q36 32 71 33q35 0 67 -48t37 -56l41 -41q27 -27 27 -60v-8q-6 -37 -41 -37q-18 0 -70 29l2 -2l-98 30q-43 12 -61 26t-19 48v15q8 39 44 71zM184 711v4q7 37 54 37q13 0 20 -2l45 -11q6 2 27 6q23 0 35 5h6q80 0 80 -62q1 -12 -9 -36t-15 -42t-9 -26l2 2
l-66 -340q-2 -2 -2 -6l-16 -47q-4 -4 -4 -30t10 -39t17 -13t49 13q42 14 49 22q8 8 45 53q25 43 24 47l13 88q23 76 28 127t23 101t18 60t-2 15l-35 96q39 21 52 21t41 -9l86 3q31 0 36 -29v-21q0 -20 -2 -32l-43 -191l-20 -108q-2 -4 -2 -9l-6 -36q-2 -6 -2 -21l-27 -102
h-2l39 -84q0 -18 -29 -35v2l-57 -37h2q-99 -74 -145 -74t-46 35v21q-22 -11 -49 -29v2q-16 -12 -55 -12q-111 0 -166 145q-4 12 -4 52t22 125t28 111q7 26 9 34l9 47l10 92l-2 18q-2 8 -21 35q-43 43 -43 64z" />
    <glyph glyph-name="uacute" unicode="&#xfa;" horiz-adv-x="737" 
d="M748 1047q68 0 67 -60q0 -61 -51 -92t-74 -33l-35 -4q-18 -4 -45 -14l2 2l-16 -8q-20 -4 -74 -27q-6 -6 -16 -6q-35 0 -35 31v10q6 23 59 53q8 3 52 39t55 47q78 62 111 62zM184 711v4q7 37 56 37q11 0 18 -2l47 -11q18 6 27 6l39 5q82 0 82 -62q0 -14 -7 -26t-14 -40
t-12 -38l2 2l-68 -340q-2 -4 -2 -6l-14 -47q-4 -8 -4 -31t9 -37t18 -14t51 14t53 27q60 73 63 94l11 88q20 53 21 63q1 9 3 25t4 33l4 30q2 23 29 111q10 14 10 26t-2 15l-35 94q33 23 47 23t44 -9l88 3q31 0 36 -29v-21q0 -23 -2 -32l-43 -191l-20 -108q-2 -4 -2 -9l-6 -36
q-2 -6 -2 -21l-27 -102h-2l39 -84q0 -20 -31 -35l-55 -35h2q-99 -74 -145 -74t-45 35v21q-29 -14 -50 -29v2q-14 -12 -57 -12q-111 0 -166 145l-2 31q0 74 20 152q20 79 28 105q7 26 9 31t7 21q2 16 4 29l8 92q-3 31 -23 53q-43 41 -43 64z" />
    <glyph glyph-name="ucircumflex" unicode="&#xfb;" horiz-adv-x="735" 
d="M604 1083q26 0 53 -14q0 -4 15 -41l22 -45l11 -18q16 -43 21 -59t7 -21l10 -43v-8q-6 -31 -41 -31q-18 0 -96 67q-29 59 -26 62q-12 -2 -39 -35q-23 -33 -49 -47l2 2q-6 0 -42 -28t-53 -27q-29 0 -28 30v13q6 16 39 49l30 41l33 37l16 22l39 37q25 41 38 49q12 8 38 8z
M184 711v4q7 37 54 37h20l43 -11q12 2 29 7l35 2l6 2q80 0 80 -62q1 -14 -9 -38t-15 -42t-9 -26l2 2l-66 -338q-2 -4 -2 -8l-18 -56q-2 -8 -2 -28t10 -32q10 -13 17 -13t49 13q42 14 49 22q8 8 45 53q23 43 24 49l13 86q23 76 28 127t23 101t18 62t-2 15l-35 94q33 20 50 21
l24 -2q16 -4 19 -4l86 2q31 0 36 -31v-21q0 -20 -2 -32l-43 -191l-20 -108q-10 -35 -10 -64l-27 -104h-2l39 -84q0 -18 -29 -35v2l-57 -37h2q-99 -74 -145 -74t-46 35v21q-22 -11 -49 -29v2q-16 -12 -55 -12q-111 0 -166 145q-4 12 -4 52t22 125t28 111q7 26 9 34l9 47
l10 92q-3 31 -23 53q-43 43 -43 64z" />
    <glyph glyph-name="udieresis" unicode="&#xfc;" horiz-adv-x="735" 
d="M446 813q-94 0 -96 74q-2 14 -2 39q17 94 119 94q25 0 45 -20t20 -52l3 -30q0 -46 -46 -87q-16 -18 -43 -18zM678 1018q40 0 68 -28t28 -64q0 -8 -4 -19l2 2q-6 -35 -51 -70t-64 -34q-47 0 -79 39q-10 10 -11 35l2 20v31q6 36 38 62t71 26zM184 709v4q7 39 54 39
q13 0 20 -2l45 -11q6 2 27 6q23 0 35 5h6q80 0 80 -62q-1 -8 -11 -37t-12 -37t-5 -16t-5 -14l2 2l-66 -340q-2 -4 -2 -8l-16 -45q-4 -18 -4 -38t14 -34q6 -10 13 -10t47 11q40 12 49 22q10 10 47 55q25 43 24 47l13 88q23 79 29 131q4 53 22 99t18 58t-2 15l-35 94
q37 23 51 23t42 -9l86 3q31 0 36 -31v-19q0 -23 -2 -34l-43 -189l-20 -108q-2 -4 -2 -9l-6 -36q-2 -6 -2 -21l-27 -102h-2l39 -84q0 -18 -29 -37v2l-57 -35h2q-99 -74 -145 -74t-46 35v21q-22 -11 -49 -29v2q-16 -12 -55 -12q-111 0 -166 143q-4 16 -4 57t22 123
q22 81 28 107q7 26 9 35l9 47l10 94q-3 27 -23 53q-43 41 -43 62z" />
    <glyph glyph-name="yacute" unicode="&#xfd;" horiz-adv-x="673" 
d="M762 1059q70 0 69 -62q0 -61 -52 -92t-77 -33l-34 -4q-8 -2 -45 -14l2 2l-93 -35q-6 -6 -16 -6q-35 0 -35 31v10q6 23 60 55q21 7 108 86q78 62 113 62zM281 104v35l-5 41q0 51 -2 92q-8 25 -24 105q-6 47 -12 113t-48 137q-2 2 -2 75l-38 3q6 45 57 47q49 6 67 6l31 -4
h4q29 -2 63 -6t83 -9q25 -14 24 -39v-10q-2 -10 -47 -65q0 -2 -2 -7v-100q-4 -10 -6 -69v-9q0 -20 12 -51l17 -94q8 -1 20 21q11 22 19 34t16 31l41 70q53 92 59 102v-2q12 22 25 61q0 18 -21 80v27q8 39 60 39q18 0 25 -2h1l-2 2q0 -2 10 -2h27l55 2q68 0 68 -45v-6
q-7 -26 -59 -74l-11 -23q-45 -57 -67 -108q-23 -52 -53 -98t-32 -51t-13 -20l-21 -34v2l-33 -53h2l-55 -111l-33 -47q-31 -76 -125 -207l-45 -59q-37 -47 -53 -84l-84 -127v2q-113 -141 -174 -150l2 3q-12 -4 -43 -5q-63 0 -63 52q6 45 32 65t86 37q33 10 133 172l68 105
l21 45q45 82 45 165z" />
    <glyph glyph-name="thorn" unicode="&#xfe;" horiz-adv-x="786" 
d="M537 608q-51 0 -82 -30q-2 -2 -13 -19l-34 -108l2 2l-39 -195l-6 -41l-9 -39l11 -53q10 -18 75 -23h7q4 0 40 -4h5q31 0 71 39q111 111 111 303q0 168 -139 168zM600 776q65 0 143 -28t97 -86v-7q18 -55 22 -141l2 -20l-2 -21q-4 -8 -5 -20q-1 -11 -8 -49t-11 -66l-9 -51
q-12 -72 -92 -152q-66 -71 -129 -107t-84 -38l-90 -10l-98 20l-23 -41l-14 -53l-8 -68l-43 -192q-4 -20 -4 -40t24 -38q18 -8 45 -22t27 -35v-13q-10 -39 -55 -39h-31q-12 2 -31 2t-73 -8h-13l-82 6q-6 0 -18 -2h-25q-59 0 -59 41v6q8 22 38 44t34 30t12 22l16 27q0 2 2 8
t2 11l-2 -2q18 82 29 116l22 80l11 60q1 8 8 47l6 30l2 27l21 76l6 35l8 26q2 1 4 13t6 18l6 55l11 43q0 13 3 32t10 73t48 180h-2q8 29 29 86l-2 -2q6 21 6 57l16 82l12 39l27 133v2q0 29 -2 60l2 30l-2 17q-12 18 -10 20l-35 21q-14 10 -14 28l2 25q12 37 94 74
q20 10 53 37l49 26q70 41 72 41l14 6q35 0 35 -34l-2 -13v-2q-12 -29 -16 -41l-11 -63q0 -5 -5 -14t-5 -17l2 2l-35 -129l-16 -98q-21 -56 -24 -85t-6 -47t-5 -44q-10 -31 -11 -31t-1 -2q70 57 135 57z" />
    <glyph glyph-name="ydieresis" unicode="&#xff;" horiz-adv-x="673" 
d="M462 1032q38 0 70 -28q12 -12 13 -43l2 -33q0 -45 -45 -86q-18 -18 -45 -19q-96 0 -99 76q-2 12 -2 39q6 38 37 66t69 28zM693 1030q40 0 70 -28t30 -64q0 -8 -5 -20l3 2q-6 -33 -66 -80q-37 -25 -53 -25q-47 0 -80 39q-12 12 -12 37l2 18v33q10 40 40 64t71 24zM281 104
v35l-5 41q0 51 -2 92q-22 68 -36 216q-6 66 -48 139q-2 2 -2 75l-38 3q6 43 57 45q49 6 67 6l31 -4h4q5 0 51 -4t95 -9q25 -14 24 -39v-10q-2 -10 -47 -65q0 -2 -2 -7v-102q-4 -10 -6 -67v-9q0 -20 12 -51l17 -94q8 -1 20 21q11 22 19 34t16 31l41 70q53 87 63 107t21 56
q-6 29 -21 78v27q8 39 60 39q13 0 25 -4h1l-2 2q0 -2 10 -2h27l55 2q68 0 68 -43v-6q-7 -26 -59 -74l-11 -23q-45 -57 -67 -108q-27 -62 -100 -172l-19 -31v2l-33 -53h2l-55 -111l-33 -47q-31 -76 -125 -207l-45 -59q-37 -47 -53 -84l-84 -127v2q-113 -141 -174 -150l2 3
q-12 -4 -43 -5q-63 0 -63 52q6 45 32 65t86 37q33 10 133 172l68 105l21 45q45 82 45 165z" />
    <glyph glyph-name="Cacute" unicode="&#x106;" horiz-adv-x="1259" 
d="M1008 1446q-31 0 -31 33v14q12 8 24 20q41 31 160 134v-2q50 55 101 55q70 0 69 -60q0 -47 -41 -88t-90 -45l-33 -4l4 2l-24 -8q-40 -7 -81 -29t-58 -22zM1305 369q-1 -22 -7 -32q-6 -9 -6 -22l2 2l-20 -81l-12 -56q-12 -66 -26 -83t-32 -25l-20 -11q-8 -5 -46 -27
t-67 -26l-59 -16q-98 -29 -125 -29q-142 0 -166 4h-76t-105 36t-75 50l-41 37q-74 66 -111 115q-33 49 -69 146t-41 177v9q0 35 26 174q18 78 56 182q47 109 118 180q33 29 62 57l70 87q33 47 180 107t203 76t129 15q186 0 339 -104q2 0 8 -3t9 -5q4 -1 22 -11t41 -20
t23 -43v-8q-9 -81 -20 -121q-11 -39 -17 -70l-12 -57q-10 -37 -44 -37t-44 41q0 4 -2 10q-2 7 -5 17t-15 52t-15 50q-4 8 -23 24l-51 41q-7 -1 -21 13t-36 31t-31 25q-10 8 -49 16q-39 6 -48 8t-32 4l-27 4q-23 0 -63 -19q-66 -20 -139 -75l-64 -33q-168 -152 -184 -248
l-23 -94q-8 -17 -8 -19v-4q-31 -57 -37 -78h2q-2 -61 -12 -92v-2l-10 -30l2 2l-8 -29l-4 -12l-3 -31l-14 -68q-2 -4 -2 -20t23 -84q23 -70 39 -92q90 -123 223 -123h6l98 2l41 2l51 2q52 0 82 12q37 20 101 78h-2q48 61 72 87t36 54v-4q20 59 64 60q41 0 41 -45z" />
    <glyph glyph-name="cacute" unicode="&#x107;" horiz-adv-x="661" 
d="M872 1044q68 0 68 -59t-63 -100q-33 -18 -64 -23l-35 -4q-18 -4 -45 -14l2 2q-15 -7 -92 -35q-6 -6 -14 -6q-37 0 -37 31v10q6 18 59 53q16 4 78 59l31 25q73 61 112 61zM784 633q0 -18 -4 -29l2 2q-8 -30 -34 -54t-54 -24q-63 0 -116 86q-15 30 -33 31q-18 2 -49 4h-21
q-35 -6 -76 -54t-65 -157l-4 -35l-13 -51q0 -4 7 -14l8 -29l12 -59q23 -88 68 -123q23 -18 34 -18h29q51 0 115 24q33 19 44 19t20 -8t10 -19v-2q-6 -20 -39 -43q-143 -92 -166 -92q-125 0 -193 30q-101 65 -137 193q0 67 6 172v20q23 125 133 232q63 61 99 78q81 47 161 49
l68 2q131 0 176 -82q12 -31 12 -49z" />
    <glyph glyph-name="Ccaron" unicode="&#x10c;" horiz-adv-x="1259" 
d="M948 1718q26 0 107 -73l14 -35q12 -29 10 -29q10 0 29 22t22 25h-2q12 14 23 25l23 16q6 6 34 25h-2q94 62 94 2v-13q-14 -20 -43 -55l-83 -106l-44 -41q-16 -29 -32 -43q-35 -31 -97 -2q0 12 -14 41l-26 51l-13 28q-2 4 -5 14t-8 27q-5 16 -9 29l-11 55v9q7 28 33 28z
M1305 369q-1 -22 -7 -32q-6 -9 -6 -22l2 2l-20 -81l-12 -56q-12 -66 -26 -83t-32 -25l-20 -11q-8 -5 -46 -27t-67 -26l-59 -16q-98 -29 -125 -29q-142 0 -166 4h-76t-105 36t-75 50l-41 37q-74 66 -111 115q-33 49 -69 145t-41 178v9q0 35 26 174q18 78 56 182
q52 121 147 207q20 18 33 30l70 87q33 47 180 107t203 76t129 15q186 0 339 -104q2 0 8 -3t9 -5q4 -1 22 -11t33 -16q31 -12 31 -47v-8q-10 -69 -20 -114q-11 -46 -17 -77l-12 -57q-10 -37 -44 -37t-44 41q-2 11 -18 67t-19 63q-4 7 -23 23l-51 44q-6 6 -30 21t-62 50
q-4 3 -44 11t-49 10t-32 4l-27 4q-27 0 -63 -21q-63 -18 -139 -73l-64 -35q-168 -152 -184 -248l-23 -94q-8 -17 -8 -19v-4q-31 -51 -37 -78h2q-2 -61 -12 -92v-2l-10 -30l2 2l-8 -29l-4 -12l-3 -31l-14 -68q-2 -4 -2 -20t23 -84q23 -70 39 -92q90 -123 223 -123h6l98 2
l41 2l51 2q52 0 82 12q47 29 99 78q48 61 72 87t36 54v-4q18 59 64 60q41 0 41 -45z" />
    <glyph glyph-name="ccaron" unicode="&#x10d;" horiz-adv-x="659" 
d="M560 1075q28 0 104 -65q27 -63 24 -66q16 0 41 35l33 37q98 65 115 65q31 0 30 -30v-13l-18 -21q-6 -7 -23 -28l-84 -100l-41 -41l2 4q-8 -10 -17 -24t-15 -21q-18 -12 -43 -12t-54 12q0 4 -14 41l-22 39l-19 45l-29 82l-4 22v8q6 31 34 31zM782 635q0 -18 -4 -31l2 2
q-8 -30 -35 -54t-53 -24q-63 0 -117 88q-12 23 -25 27t-56 6h-17q-33 -2 -76 -49t-69 -162v-24q-2 -2 -2 -8l-13 -52q0 -6 7 -16q0 -6 3 -13t5 -16l12 -59q23 -90 57 -116t45 -25h29q55 0 101 21q46 22 57 22q10 0 19 -8t10 -19v-2q-6 -20 -39 -43q-143 -92 -166 -92
q-123 0 -191 30q-20 10 -66 56t-71 137q0 74 6 172v23q25 127 133 229q60 57 120 91t138 36l70 2q134 0 174 -80q12 -31 12 -49z" />
    <glyph glyph-name="dslash" unicode="&#x111;" horiz-adv-x="792" 
d="M504 61q0 -16 4 -18zM541 573q-133 0 -203 -100q-27 -43 -43 -121t-16 -101q0 -24 22 -79q19 -43 81 -43t115 49q52 49 62 117l19 88v2l2 4q0 8 2 12l10 39l8 113q-16 20 -59 20zM670 1034q8 2 43 -2q8 0 14 29q4 29 4 42t-8 30q0 6 -33 24h2q-16 8 -16 29l2 16
q0 33 39 51l37 21q35 10 98 45v-2q47 31 82 31q51 0 51 -43q1 -22 -17 -64q-18 -41 -32 -90l-12 -41l-19 -57l-4 -4h8q25 -1 47 -19t21 -41v-2q-10 -25 -16 -35q-27 -76 -54 -75l-35 6l-4 -17l-8 -26l-139 -654l-4 -20v-8l12 -31l6 -29q14 -29 15 -49v-6q-16 -47 -72 -47
l-16 2q-23 0 -33 2h-47q-47 0 -64 16l-10 25q-6 -6 -37 -16q-29 -14 -57 -23l-37 -2l-47 -6q-23 0 -70 16q-73 25 -103 96q-29 70 -38 97h2q-10 29 -10 61t6 62q57 240 170 338q63 53 182 81q11 1 23 5t24 7t14 5q78 0 111 -51q4 -4 4 -6q2 6 2 26l2 29l19 55l10 43l8 19
q0 6 2 8h-2l2 2v-2q139 25 -22 28h-70v-41q-39 0 -39 37v4q2 2 2 5v6q0 1 19 43v2q2 2 2 4v6q0 8 2 14q10 45 55 45q8 -4 27 -4h6zM688 887q0 2 1 6zM668 883q-16 -4 -31 -4zM668 883q4 0 10 1q-4 -1 -10 -1z" />
    <glyph glyph-name="Gbreve" unicode="&#x11e;" horiz-adv-x="1333" 
d="M1307 1655q0 -8 -4 -21l2 2q-8 -45 -60 -96l-71 -59q-67 -31 -89 -33l-18 2l-31 4q-12 4 -30 4q-57 35 -86 109l-7 112l52 -4q25 -14 34 -55h-2q6 -27 13 -29q37 -10 61 -10l195 102l10 3q31 0 31 -31zM215 595q0 42 6 73l4 24q2 6 6 20t7 19l-2 -2l16 62q53 209 276 426
q47 47 121 86l2 2q7 3 49 30t106 49t89 23h20q81 4 137 4q203 0 259 -27l67 -34l-2 2q41 -14 82 -37q45 -43 45 -76t-4 -45t-4 -16l2 2q-20 -90 -43 -168q-23 -96 -55 -97q-45 0 -68 144q-10 49 -15 53t-34 29q-4 12 -39 61q-79 78 -191 78t-206 -48t-134 -84t-98 -132
q-82 -150 -102 -225v-9q0 -27 -6 -51l-6 -29q0 -19 -15 -55l-16 -78l-20 -168q8 -27 10 -47q2 -21 12 -51q20 -121 147 -178q76 -33 120 -33t90 12q48 12 87 15q68 4 103 59q43 56 43 118t-47 66q-25 2 -37 3q-39 12 -39 38l2 13q4 25 37 41q45 0 108 14l43 4q39 0 129 -10
h19l49 6q47 0 47 -49v-6l-4 -13l2 3q-2 -22 -16 -33l-41 -39q-6 -6 -23 -76l-10 -47l-20 -80q-2 -3 -6 -25t-12 -42q-18 -54 -73 -56l-90 6q-2 0 -75 -18l-72 -6l-86 -10q-98 -12 -115 -13q-129 0 -162 13q-197 76 -272 235q-61 129 -74 299q-8 39 -8 81z" />
    <glyph glyph-name="gbreve" unicode="&#x11f;" horiz-adv-x="759" 
d="M698 834l-63 8q-2 0 -8 2h-6q-45 27 -72 78l-14 28l-3 119l37 -6q31 -8 43 -55q5 -20 13 -27q8 -2 27 -8t30 -6l192 102l11 2q31 0 30 -31q0 -8 -4 -20l2 2q-8 -37 -59 -98q-5 -2 -30 -24q-25 -21 -42 -34q-24 -10 -48 -21t-36 -11zM602 586q-74 37 -112 37t-74 -35
l-31 -33q-46 -48 -57 -84q-15 -81 -9 -92v-2q0 -4 11 -39q29 -90 65 -90q113 0 156 49q4 4 32 43t39 93t3 97q-8 42 -23 56zM141 -381q0 -106 145 -106t242 96q37 37 37 99t-88 120l-18 12q-17 13 -37 13l-55 -7l-58 11q-18 -8 -59 -43q-6 -2 -23 -17q-57 -43 -80 -127
q-6 -31 -6 -51zM391 127q-55 0 -100 45v-41q-23 0 -27 -10v-6q0 -18 47 -25l105 -14l104 2q8 -2 43 -27h-6q3 -2 12 -5q-1 0 -6 5q12 0 12 -8l-2 2q0 -2 2 -2q102 -43 136 -152v-14q0 -43 -17 -98l-10 -31l-2 -29l-10 -30q-20 -70 -45 -115q-53 -72 -117 -104
q-2 -10 -21 -11q-6 -3 -18 -10q-113 -72 -213 -72q-182 0 -252 119q-31 53 -31 117l2 39q25 100 39 135q29 70 93 109q20 16 41 30q-20 68 -20 102q-1 102 26 132l37 47q-20 27 -25 59l2 -2q-10 33 -10 87t14 114q35 115 93 175q57 60 95 80t66 24q28 6 51 17t81 11t83 -4
q49 -25 76 -41h6l4 6q47 37 75 37t48 -22t20 -54q-6 -43 -15 -54t-17 -18l-12 -12l-8 -8q-3 -4 -9 -9t-9 -8t-9 -59l-7 -59l-10 -57q-14 -57 -26 -84q-31 -74 -127 -136l-25 -12q-49 -33 -102 -41l-4 -2h-3l-61 -8h-37z" />
    <glyph glyph-name="Idot" unicode="&#x130;" horiz-adv-x="534" 
d="M611 1681q35 1 69 -25t35 -69q0 -12 -4 -24l2 2q-10 -37 -57 -80t-74 -43t-60 26t-32 49q1 24 4 35l2 29q6 20 20 41v-2q23 39 41 50q19 11 54 11zM643 1384q94 0 94 -61v-14q0 -14 -37 -41q-29 -18 -45 -47q-35 -61 -75 -277q-6 -57 -29 -166l-10 -55q-33 -143 -39 -166
q-8 -12 -15 -57v-2q-2 -2 -2 -14t-8 -54q-4 -4 -6 -20l-4 -21q-2 -12 -6 -63l-19 -103l-6 -26q12 -25 19 -72l26 -31q6 -16 6 -37v-10q-6 -47 -43 -47h-57q-27 -2 -47 -2t-47 2h-84q-33 0 -66 8q-29 16 -28 45v10q6 18 18 31l55 41q20 25 29 58l16 49q10 32 13 32t7 40
q3 40 7 53l-2 -2q2 9 9 39t19 66t16 62q3 26 6 44t7 46t7 44l14 59q2 8 6 41l41 201l2 2q0 2 1 7t5 50t6 66l19 102q4 12 4 30t-28 47q-28 30 -27 50v8q10 51 71 53l113 -6q59 8 94 8z" />
    <glyph glyph-name="dotlessi" unicode="&#x131;" horiz-adv-x="401" 
d="M125 -2q-41 0 -41 37v8q4 18 45 57v-2q20 20 27 39v2l2 4l-2 4v5l6 22q2 2 2 5t2 7t12 47q11 25 17 58l8 41q10 54 13 82t15 67l5 21l16 41v10q0 3 -20 23t-21 42v7q6 29 18 34l97 48q6 2 24 11t28 12q9 3 13 5h2q25 10 27 10q33 0 33 -34v-11q-3 -8 -17 -55
q-16 -54 -16 -82l-6 -26l2 4q-14 -70 -29 -113q-4 -20 -7 -49t-9 -43l2 2l-2 -12q0 -3 -9 -29q-18 -92 -18 -134t4 -57h-2q18 -45 19 -65v-4q-4 -39 -66 -39h-6l-53 2h-72q-23 -2 -43 -2z" />
    <glyph glyph-name="Lslash" unicode="&#x141;" horiz-adv-x="888" 
d="M213 475q-25 0 -33 19l-8 18q-14 20 -14 51v8q4 31 26 39l37 13h2l94 55q16 8 33 70q2 25 19 106l45 209l4 53q13 68 11 76q-3 8 -13 31l-13 32l-30 13q-8 4 -15 6q-16 12 -16 35v12q12 39 98 43l131 -4q18 4 113 6l55 2q59 0 60 -39v-6q-2 -6 -3 -17t-26 -26l-22 -10
l-41 -45l-15 -15q-55 -98 -86 -235q-6 -41 -9 -51t-5 -33l-17 -72q0 -12 -4 -16l36 18q24 12 36 19l-2 -2l49 30q35 20 45 21q43 0 43 -37v-31l2 -4v6l8 -35q-6 -33 -49 -47q-20 -6 -43 -20l2 2q-37 -18 -75 -43q-59 -29 -78 -45q-16 -33 -19 -51l-10 -60q-28 -83 -30 -110
q-3 -26 -5 -40t-5 -61q-2 -46 -18 -79t-16 -62q0 -45 58 -45q18 0 65 8q68 0 82 2l21 2h53q18 0 127 117l4 4q61 88 88 88q35 0 35 -35q0 -6 -4 -18h2l-25 -86l-10 -66v-8q0 -95 -66 -131q-33 -4 -77 -4h-52l-131 4v37q-2 -9 -17 -25t-28 -16h-16q-18 -2 -58 -2
q-80 0 -107 7t-93 1l-57 -2q-10 -2 -23 -4l-76 -12q-68 0 -67 43v6q10 27 30 47l19 14q18 12 33 23q55 49 71 110q25 59 41 140l8 37q0 21 4 32q4 12 8 26q3 14 7 30l4 22q-5 0 -31 -22t-51 -21z" />
    <glyph glyph-name="lslash" unicode="&#x142;" horiz-adv-x="405" 
d="M516 829q34 0 45 -86q0 -23 -18 -30l-88 -43q-25 -11 -33 -86l-4 -45l-21 -123l-20 -62l2 2q-8 -24 -8 -41l-4 -67q-2 -23 -7 -72l6 -22q5 -18 7 -26t3 -13q1 -4 1 -6l-2 6q0 -6 6 -13l16 -18q8 -16 9 -27l-3 -20q-10 -35 -51 -37h-207l-43 -2h-6q-41 0 -41 35v4
q6 23 19 35l41 37l20 26q35 45 37 51l4 43l23 64h-2l10 41l14 82q2 23 6 39t7 33l8 38q8 21 8 35v2q-37 -31 -55 -31t-35 29q-6 4 -10 33l-7 33l50 28l32 23q41 14 46 21t22 65q37 154 41 186l-4 58v28q0 33 -13 35l-32 21q-12 6 -13 26l2 23q4 37 91 76q25 10 51 34l125 74
q41 0 41 -33l-2 -16q-2 -4 -17 -41l-8 -61q0 -7 -7 -23q-8 -17 -14 -43t-9 -38t-6 -22q-3 -11 -3 -20l-20 -108q-29 -93 -29 -117q37 26 49 26z" />
    <glyph glyph-name="OE" unicode="&#x152;" horiz-adv-x="1742" 
d="M1198 1157q0 43 -27 82q-6 0 -18 5t-35 11l2 -2q-27 9 -84 11l-59 10q-29 -2 -89 -36t-88 -56q-82 -67 -155 -168l-37 -49l-26 -43v2l-21 -33q-2 -2 -5 -9t-13 -22q-25 -73 -25 -98q-10 -51 -18 -88l-31 -133q-4 -6 -4 -51t12 -162q0 -4 41 -64q16 -45 27 -55t39 -33
q47 -45 78 -56t116 -14h17q67 0 96 13q68 39 76 47t24 61q2 19 17 54l12 55q4 12 4 24l16 72l7 43l6 17l4 14v6l2 4q20 82 25 104t18 60q6 61 26 143l37 144q12 59 33 108v82zM1393 1378h32q7 2 51 2t76 -16l72 8q29 0 49 2l53 2q43 0 71 -6t32 -6l4 -2l22 4q29 4 41 4
q57 0 58 -49v-4q0 -8 -12 -100l-11 -29l2 2q-8 -39 -10 -88q-2 -96 -53 -96q-13 6 -47 32q-12 12 -29 88l-29 62q-10 13 -36 22q-29 2 -62 7q-6 4 -16 6l-2 2q-3 0 -33 10t-85 10t-69 -33q-4 -9 -6 -16l2 2q0 -4 -5 -14t-7 -19l-10 -30l2 2q-34 -110 -35 -120
q-2 -11 -21 -89l-24 -117q0 -37 33 -37q25 0 77 30t84 62t56 31q33 0 39 -43q0 -8 -2 -15t-7 -32l-4 -43l-26 -109l-11 -34q-4 -31 -5 -46t-4 -31q-4 -15 -24 -46t-32 -31t-29 4h-6l-18 35l-19 31l-6 43l-22 28q-8 16 -14 22t-38 7q-30 0 -41 -10q-8 -31 -20 -88
q-29 -66 -53 -144q-4 -2 -4 -16t-5 -31l-12 -51q-6 -27 -24 -92v6l-4 -21q-8 -18 -11 -24l2 -2q0 -33 86 -37l19 -2l49 -4l20 -2q27 6 66 14t47 19l49 38q43 25 53 33q4 8 26 41q23 33 43 68t56 35t37 -43q-1 -14 -17 -86t-34 -123h2q-4 -12 -11 -40t-11 -40
q-27 -47 -93 -47q-27 0 -96 18l-57 -6q-25 2 -86 2h-19l-71 -2q-27 -2 -74 -2h-33q-8 0 -20 2h-113q-80 0 -124 -12t-164 -12q-121 0 -183 22v-2q-223 66 -293 301q-45 136 -45 260v47l19 111q2 2 6 37q16 76 54 146t122 173q27 27 59 68q33 41 45 53q115 98 254 151
q104 45 137 50l203 12q92 1 130 -15t44 -16q45 4 103 4z" />
    <glyph glyph-name="oe" unicode="&#x153;" horiz-adv-x="1150" 
d="M984 643q-38 0 -76 -25t-44 -57v-4q42 -8 126 -8t85 7q2 7 2 30t-27 40q-28 17 -66 17zM432 109q78 1 140 111t61 188q0 14 -2 22l-4 45q-1 4 -7 41t-8 62q-19 55 -102 55q-27 0 -66 -31q-98 -76 -118 -164q-6 -23 -13 -80l-10 -36v-9q0 -25 8 -65l4 -51q4 -20 19 -27
l49 -31l6 -6l19 -8q23 -16 24 -16zM950 172q38 0 94 13t72 24h2q4 2 15 2q33 0 32 -31v-4q-10 -29 -18 -37q0 -4 -18 -37t-59 -57q-7 -4 -13 -8v2q-88 -53 -201 -53q-57 0 -129 39q-15 15 -33 39t-25 24t-91 -63q-55 -39 -144 -39q-197 0 -289 184q-29 57 -28 104v11
q4 55 16 95q12 41 12 58l11 41q10 43 102 135q57 58 161 96q103 38 179 38t94 -11l23 -14q45 -27 61 -53t21 -27q11 7 27 19t24 16h-2q96 74 192 74t170 -82q55 -59 56 -115q0 -106 -99 -106q-20 0 -30 2l-21 2l-108 -7h-31l-111 9q-29 0 -61 -21q-25 -25 -25 -127
q4 -38 48 -78q43 -39 61 -49q25 -8 63 -8z" />
    <glyph glyph-name="Scedilla" unicode="&#x15e;" horiz-adv-x="1030" 
d="M225 463q29 0 35 -33l16 -115l9 -24q0 -8 12 -51l43 -41l27 -35q18 -25 53 -43q28 -35 59 -39l60 8q69 4 96 12q36 18 57 39l25 25q25 20 48 50t36 42q39 59 39 125q0 121 -142 174l-53 27l2 -2l-125 36l-39 25q-59 37 -92 64v2q0 2 -6 10l-15 20q-9 12 -20 29v-2
q-55 82 -59 135v12l6 39q4 20 7 47t11 59t47 91v-2q63 96 195 182l41 23l39 18q89 43 187 43t134 -3t119 -40q25 -6 62 -39q20 -31 24 -108v-64q0 -59 -4 -72l2 5l-4 -15l-2 -43q-6 -39 -40 -39t-52 25q-12 12 -23 74q-2 6 -30 51q-27 18 -35 24l-39 41q-33 41 -53 66l2 -4
q-13 14 -35 14t-66 -6l-67 -10q-23 -8 -62 -39l-69 -70q-31 -33 -35 -49t-11 -43t-8 -43q0 -88 84 -139q16 -12 68 -23l21 -4q12 0 77 -20l64 -35q32 -15 69 -37l37 -39q68 -73 96 -143t27 -109v-6q-16 -139 -31 -178q-31 -88 -104 -158q-2 -2 -8 -6t-45 -40t-59 -45
q-21 -10 -50 -28l2 2q-87 -50 -157 -55q-20 -2 -58 -6v-2l27 -14l-2 2q5 0 21 -31q17 -31 18 -41v-4l-17 -45l-4 -27q-8 -31 -35 -49q-61 -49 -113 -49t-72 11q-18 12 -36 38t-18 53v13q4 18 26 38q23 20 39 21q27 0 47 -59q0 -4 39 -5q21 0 21 37q2 0 6 -2l-49 29h2
q-18 6 -19 31v8l13 45l2 4q0 2 2 4v4h-39l-33 2l-63 17q-7 1 -28 5q-21 5 -44 8t-41 7q-96 33 -96 94v4l2 52q0 10 12 114l10 56q0 12 2 18q25 119 80 119z" />
    <glyph glyph-name="scedilla" unicode="&#x15f;" horiz-adv-x="587" 
d="M647 782q23 0 29 -30q0 -31 -12 -71t-13 -50l-6 -25h2q-18 -66 -49 -65q-35 0 -68 98q-18 59 -55 59t-62 -32t-26 -53q-2 -21 14 -52q4 -10 54 -31l-2 2l14 -4l33 -26q32 -14 34 -14t31 -30q29 -28 41 -56t12 -60t-4 -70q-16 -72 -73 -146t-119 -92q-62 -19 -64 -22v-6
q-4 -16 -4 -20q20 -13 25 -13q8 -7 19 -33t12 -36v-2l-15 -45l2 2q-10 -43 -20 -56q-4 -14 -43 -41q-35 -29 -80 -28q-84 0 -121 59q-10 14 -10 41v12q2 18 24 38q23 19 41 20q27 0 45 -56q3 -4 29 -4q30 0 31 35l-45 27h2q-18 8 -19 31l17 59v-6q0 2 2 6v14q-8 0 -23 6
l-28 17h-4l-29 -29q-20 -8 -41 -8q-51 0 -51 39q0 9 2 16l16 84q2 7 5 27t7 45l7 39q6 43 41 43q18 0 34 -42t54 -78t63 -36h45q45 10 75 42t30 74t-50 73l-49 26q-8 16 -65 55q-41 37 -64 54q-27 47 -27 75t5 48q35 156 192 194h11l65 4l47 2q14 0 49 -14l72 16h8z" />
    <glyph glyph-name="Scaron" unicode="&#x160;" horiz-adv-x="1030" 
d="M724 1720q26 0 105 -75q36 -64 27 -64q8 0 27 22t24 27h-2l19 19l2 4l20 14q8 8 37 27h-2q94 62 94 2v-13q-16 -23 -43 -53l-84 -108l-41 -41q-20 -31 -30 -41q-39 -31 -99 -4q0 8 -16 41l-25 51l-12 28q-12 29 -23 70l-10 55v9q6 30 32 30zM223 463q31 0 37 -33l16 -115
l9 -24q0 -8 12 -51l43 -41l27 -35q20 -27 51 -41q30 -29 42 -33t19 -8l60 8q69 4 96 12q36 18 57 39l25 25q25 20 48 50t36 42q39 59 39 125q0 121 -142 174l-53 27l2 -2l-125 36l-39 27q-47 27 -92 62v2q-2 2 -10 15t-31 44v-2q-55 82 -59 137v12l6 37q9 74 18 106
q8 31 47 91v-2q66 100 195 182l41 25l39 16q89 43 187 43t134 -3t119 -40q25 -2 62 -37q23 -35 24 -110v-62q0 -59 -4 -71l2 4l-4 -15l-2 -45q-6 -37 -40 -37q-34 -1 -49 17t-26 82q0 4 -30 49q-21 14 -26 19t-9 7l-39 39q-18 28 -53 68l2 -4q-17 12 -37 12t-64 -6l-67 -8
q-27 -8 -62 -41l-69 -68q-50 -59 -54 -139q0 -84 84 -137q12 -9 52 -18t46 -11t42 -12t90 -45l-2 2q29 -14 57 -31q45 -33 51 -41q74 -86 84 -121l-2 2q6 -19 14 -35q7 -16 14 -46t13 -46q-4 -72 -16 -131l-8 -45q-14 -84 -111 -176q-6 -4 -17 -13q-11 -10 -36 -28t-49 -39
q-78 -59 -144 -75t-92 -17h-14l-113 6h-51l-33 2l-63 17q-7 1 -28 5q-21 5 -44 8t-41 7q-96 33 -96 94v4l2 52q4 90 14 116l-2 -2q6 30 8 48t4 26q25 119 78 119z" />
    <glyph glyph-name="scaron" unicode="&#x161;" horiz-adv-x="591" 
d="M385 1075q29 0 100 -67q27 -61 25 -64q18 0 41 35l33 37q24 16 62 40t50 25q31 0 31 -30v-13q-12 -14 -17 -21q-6 -7 -14 -15t-10 -13l-82 -100l-41 -41l2 4q-8 -10 -17 -25t-22 -24q-12 -8 -38 -8t-50 12q0 10 -16 39l-21 41l-20 45q-4 16 -27 82l-4 22v8q6 31 35 31z
M92 139q0 16 12 68l7 39q10 45 41 45q20 0 35 -43t53 -78t65 -35h45q45 8 75 40t30 75t-49 72l-50 28q-8 14 -52 46t-77 63q-27 43 -27 71t5 50q31 154 192 196h11l67 4l45 2q14 0 51 -14l70 16h8q23 0 29 -32q0 -33 -12 -72t-11 -49l-8 -23h2q-14 -68 -47 -67q-37 0 -67 98
q-23 59 -59 59t-64 -34q-22 -34 -24 -54q-4 -50 69 -80l-2 2l10 -2l41 -26l-2 2q37 -20 41 -25q55 -55 65 -88q23 -47 5 -118q-17 -71 -75 -149t-169 -112v2q-43 -16 -69 -16t-69 14l-34 23l2 -2q-4 0 -8 -4l-25 -27q-25 -8 -43 -8q-51 0 -51 39q0 9 2 16l12 60l2 4v6l2 14
v4z" />
    <glyph glyph-name="Ydieresis" unicode="&#x178;" horiz-adv-x="1120" 
d="M1130 1665h17q90 0 90 -84q0 -48 -23 -88q-8 -19 -47 -37t-61 -18q-78 0 -78 84v10q0 43 28 88t74 45zM743 1440q-39 0 -67 30t-29 56q0 67 53 111q54 44 84 44t66 -34q26 -20 26 -33t-4 -41v-31q-8 -20 -22 -43v2q-39 -61 -107 -61zM571 385l31 104l14 107q0 2 2 10
l9 66q1 2 -21 60t-49 136v-4q-23 45 -39 72t-32 70q-15 43 -36 94q-22 51 -24 53l-33 39l-24 37l-23 24q-59 45 -59 66v8q6 18 24 37q47 0 152 12q19 0 57 -8l76 6v-39q18 37 51 35q2 -2 37 -2q72 0 72 -47v-6q-8 -21 -27 -39l-37 -35q-18 -18 -20 -27v-8q0 -31 37 -112
q12 -41 61 -107q6 -20 18 -51l25 -51q7 -37 4 -37q43 0 166 176q27 40 47 60t51 55q25 23 29 33t4 26q0 14 -6 28t-6 15q-2 2 -7 9q-5 6 -9 10t-11 10q-6 6 -12 10l6 -2q-16 10 -15 24t1 17q10 49 82 49h20q47 0 55 -4h5l69 8q142 0 144 -59v-8q-2 -27 -25 -41
q-2 -2 -76 -41q-27 -7 -103 -83q-4 -4 -14 -12t-18 -15t-61 -83l-203 -229q-33 -31 -51 -66t-31 -98l-27 -131q-12 -43 -18 -55q0 -29 -6 -68l-37 -152q-6 -27 -6 -41t7 -42t36 -59q29 -30 28 -54v-8q-10 -29 -34 -29h-5l-41 2q-8 -2 -28 -2h-15l-94 2h-10q-53 -4 -55 -4h-6
l-56 4l-28 -2h-45q-61 0 -62 37v6q4 27 29 37l47 20q33 23 63 62q47 49 50 61l8 47z" />
    <glyph glyph-name="Zcaron" unicode="&#x17d;" horiz-adv-x="989" 
d="M735 1718q18 0 101 -73l14 -35q12 -29 10 -29q8 0 31 23q12 16 20 24h-2q12 14 23 25l20 14q6 6 37 25h-2q92 67 92 2v-11q-23 -33 -41 -55l-32 -43l-54 -65l-41 -39l-28 -43q-41 -25 -101 -4q0 14 -14 43l-27 49l-12 30q-2 4 -9 29t-13 39l-11 57v9q6 28 39 28zM788 0
q-49 0 -73 -4h-21q-33 0 -55 2h-10q-41 2 -77 2t-110 -6h-30l-25 -2q-6 4 -43 6l-35 6q-18 8 -96 8l-37 -6q-10 -2 -33 -2q-4 -4 -18 -4q-53 0 -53 45t82 152q10 10 36 45t56 69q31 35 78 97l47 59l26 37q14 16 25 31q12 10 20 26v2q6 12 29 37t49 60q25 34 119 194l57 84
q2 0 15 14v-2q2 2 12 16t18 25v-2l43 51q96 113 111 164v17q0 14 -23 14l-28 2l-70 4h-47q-6 2 -18 2l-19 2q-83 0 -178 -45q-39 -25 -71 -80t-64 -55q-16 0 -29 12q-12 13 -12 25t6 20l12 33l-2 -2l8 53l7 13q6 23 12 39t6 22v4q2 6 2 21q8 80 55 79q6 -2 27 -6t30 -7
t16 -3l77 8q12 8 69 -3t83 -11t85 8l129 4q7 0 17 -2l59 -4h4q41 4 78 4h35q76 0 76 -51l-2 -14q-6 -33 -97 -142q-70 -89 -94 -129t-70 -108t-87 -129v2q-16 -27 -42 -59t-40 -56l-37 -47l-37 -64v3q-10 -18 -53 -76l-11 -19q-22 -22 -37 -39q-15 -18 -30 -32l-23 -29
l-18 -27v2l-80 -131l-31 -55q-4 -20 -4 -25v-8q14 -14 137 -14q123 1 169 15t55 24q34 43 65 63q23 20 35 58l57 51q47 0 47 -45q0 -12 -4 -25l2 2q-8 -22 -12 -45l-6 -33l-18 -51h2q-3 -6 -11 -40t-16 -60q-10 -20 -29 -39l-61 4q-2 2 -6 2l-4 -2h-9z" />
    <glyph glyph-name="zcaron" unicode="&#x17e;" horiz-adv-x="618" 
d="M397 1075q29 0 103 -67l24 -64q14 0 41 35l8 8q6 10 25 29q25 16 61 40t52 25q31 0 30 -30v-13q-12 -14 -17 -21t-13 -15t-11 -13l-32 -41l-52 -59l-41 -41q-23 -33 -30 -41q-17 -12 -41 -12t-53 12q0 6 -15 39l-22 41l-19 45q-2 8 -6 18t-10 30t-12 34l-2 22v8
q3 31 32 31zM49 47v10q7 39 37 74t38 45l22 30q15 20 71 62l29 29q8 13 12 21t14 24l43 49q2 2 6 9q10 22 37 61q47 47 101 127l16 24l2 4h-2q-49 17 -57 17q-52 -1 -70 -3t-42 -15t-48 -37t-39 -23q-31 0 -31 47q0 141 66 141l98 -2l49 2h11q24 0 86 -10h30l170 2
q47 0 47 -41q0 -10 -4 -24t-42 -52t-40 -45l-61 -90l-35 -39l-37 -49q-6 -10 -15 -22l-27 -36q-31 -44 -48 -63v2l-16 -18q-16 -20 -32 -36t-54 -79q-14 -14 -23 -26v-2h31q10 0 49 6h62q45 0 98 53q49 45 61 45q33 0 33 -41v-26q0 -2 -2 -8t-5 -18q-3 -10 -9 -28l-6 -26
q-9 -46 -23 -58t-46 -12t-42 4l2 -2q-16 2 -43 2l-104 -6q-12 0 -99 6l2 35q-12 -37 -47 -39q-8 0 -14 -2q-17 4 -73 5t-66 7l2 -2q-23 12 -23 37z" />
    <glyph glyph-name="longs" unicode="&#x17f;" horiz-adv-x="450" 
d="M184 735v8q6 29 60 49t57 27l21 103q2 20 16 43l24 53q6 13 13 26l6 21l-2 -2q4 18 67 135q31 57 123 123q66 43 119 43q106 0 107 -90q0 -16 -4 -33q-16 -80 -82 -80q-27 0 -37 2q-29 6 -43 60q-4 4 -11 4q-25 0 -38 -39l-19 -47q-24 -62 -39 -111l-18 -102l-8 -56
q-12 -53 -31 -172q-10 -31 -33 -139l-8 -51l-21 -94q-25 -108 -200 -787q-76 -145 -146 -194q-74 -55 -173 -55t-99 90q0 14 4 34q18 78 84 78q37 0 51 -10h-2q16 -8 31 -49q4 -4 10 -4q23 0 37 37l31 77q200 788 213 881q2 8 6 20t10 36q6 22 12 40q12 66 13 80q-6 6 -9 10
l-61 -2q-31 8 -31 37z" />
    <glyph glyph-name="florin" unicode="&#x192;" horiz-adv-x="610" 
d="M518 819q0 -16 45 -19t45 -24h-2q4 -10 4 -43q-10 -35 -43 -37l-73 -4q-18 -4 -45 -53l-58 -135l2 2q-10 -31 -55 -142t-50 -129t-9 -30l-11 -35q-20 -41 -57 -111l-29 -53q-57 -96 -123 -143q-10 -8 -44 -30q-34 -21 -37 -23t-8 -6t-11 -7h2q-88 -51 -102 -51
q-39 0 -39 35q0 8 4 18q10 31 33 37l22 6q14 12 50 28t51 48l36 72q2 8 13 28l37 91q6 16 21 59t56 145l19 45q10 29 29 87l25 74q6 18 14 32q8 15 18 41q12 26 22 51t17 39l2 10q0 4 -8 6l-58 -2q-29 10 -28 31v12q12 55 86 64q29 2 38 8t15 23l49 135q4 4 9 14t8 15t18 34
q14 29 26 47l17 31l10 23q8 16 90 129q33 47 141 120q74 45 120 45t76 -23t30 -54q-15 -128 -107 -127q-29 0 -47 10q-20 9 -24 33q-4 25 -7 24q-25 0 -47 -41l-26 -47v2q-32 -65 -54 -92q-6 -18 -30 -82l-68 -203v-8z" />
    <glyph glyph-name="circumflex" unicode="&#x2c6;" horiz-adv-x="915" 
d="M688 967q26 0 47 -13q0 -2 15 -34l22 -41l10 -17q2 -6 12 -30t13 -35v-2l2 -4l10 -39v-7q-14 -70 -131 33q-31 51 -26 56q-16 -4 -36 -32t-48 -42l2 2q-11 0 -11 -6q-4 -2 -34 -24t-46 -21q-29 0 -28 28v11q6 14 37 45l30 36l33 33h-2l16 21l37 30q23 37 36 45q14 8 40 7
z" />
    <glyph glyph-name="caron" unicode="&#x2c7;" horiz-adv-x="915" 
d="M530 963q26 0 97 -60l24 -59q14 0 39 33l8 6q12 16 23 26q39 23 67 40t39 18q31 0 31 -27v-12q-12 -12 -22 -24t-17 -19l-80 -90l-37 -33q-26 -37 -36 -44t-34 -7t-50 12q0 2 -15 35l-20 35l-19 41q-12 37 -26 73l-4 21v6q6 29 32 29z" />
    <glyph glyph-name="breve" unicode="&#x2d8;" horiz-adv-x="917" 
d="M856 887q0 -8 -4 -19l2 2q-6 -35 -55 -84q-14 -8 -66 -49q-8 -2 -38 -14t-42 -12l-16 2q-13 0 -55 6q-47 25 -68 67v-2l-14 25l-2 102l34 -4q31 -12 40 -42t14 -29l53 -13l180 88l10 2q27 0 27 -26z" />
    <glyph glyph-name="dotaccent" unicode="&#x2d9;" horiz-adv-x="833" 
d="M586 680q-34 0 -65 25q-30 25 -13 69l-2 -2q6 33 55 66q29 22 55 22t48 -22q20 -22 20 -41l-2 -17l-2 -26q-5 -20 -37 -56q-23 -18 -57 -18z" />
    <glyph glyph-name="ring" unicode="&#x2da;" horiz-adv-x="882" 
d="M646 868q-22 0 -36 -34q-2 -4 -2 -14t13 -15h20q11 2 25 17t14 20l-2 -4q0 4 2 4v2q0 2 -16 18h2q-9 6 -20 6zM664 956h2q12 0 44 -15t45 -29t13 -46l2 -26q-10 -53 -57 -90t-103 -37q-94 0 -94 92q0 20 6 45q6 53 88 90q25 16 54 16z" />
    <glyph glyph-name="ogonek" unicode="&#x2db;" horiz-adv-x="890" 
d="M545 -111q0 -14 20 -36l2 -5l72 11l23 -17v-14q-18 -70 -140 -70q-42 0 -68 33t-26 61t2 39l-2 -2q12 47 70 95q96 76 176 75q25 0 24 -24v-4q-10 -23 -51 -31l-55 -37l-17 -8l-14 -27q-8 -16 -8 -22l-8 -12v-5z" />
    <glyph glyph-name="tilde" unicode="&#x2dc;" horiz-adv-x="944" 
d="M614 860h7q20 0 65 -22l33 -9l65 -32q29 0 93 34q33 0 32 -22q0 -16 -17 -30q-17 -15 -22 -21l-16 -15q-16 -16 -30 -28t-17 -15q-47 -18 -63 -18t-50 7q-32 7 -50 17t-28 12q-12 3 -25 8t-25 8q-10 3 -18 6t-18 3l-49 -32v2l-12 -11q-39 0 -39 27v8q4 16 35 39l35 25
q65 59 114 59z" />
    <glyph glyph-name="hungarumlaut" unicode="&#x2dd;" horiz-adv-x="950" 
d="M950 942q62 0 62 -53q0 -45 -51 -86q-20 -18 -56 -29l-33 -8q-4 -4 -16 -4q-43 -20 -50 -24t-83 -5v-35q-33 0 -33 27v12q46 46 71 66q-21 -15 -59 -29l-30 -8l4 4l-35 -16q-44 -15 -76 -35q-32 -21 -45 -21q-33 0 -33 27v10q0 14 56 53q2 2 90 86q63 68 119 68t57 -53
q0 -39 -29 -68q30 26 60 60q48 61 110 61z" />
    <glyph glyph-name="Omega" unicode="&#x3a9;" horiz-adv-x="1331" 
d="M1323 924q0 102 -55 200q-92 166 -305 166q-257 0 -435 -225t-178 -501t295 -447l-24 -117h-586l-27 276h78q6 -94 51 -117t150 -28l147 -4q-301 154 -301 463q0 74 14 139q63 291 301 474t536 183t448 -188q113 -141 112 -321q0 -252 -174 -465q-143 -178 -391 -285
l154 4q113 4 151 27q51 20 109 118h84l-150 -276h-586l25 121q129 63 137 69q154 88 258 232t142 315q20 85 20 187z" />
    <glyph glyph-name="mu" unicode="&#x3bc;" horiz-adv-x="743" 
d="M274 -23l5 -96v-10q-13 -51 -55 -94t-89 -43q-23 0 -45 33t-20 57v4l4 29q-4 16 -4 20v8q8 50 54 133t52 153q6 71 21 153l16 65q11 33 14 45l11 41q0 4 4 25l10 92q-3 31 -23 53v-2q-45 43 -45 66v4q6 37 54 37q12 0 47 -7t51 0q33 4 37 5q82 0 82 -62q0 -6 -2 -18
l-17 -41l-14 -43l2 2l-68 -340q-2 -4 -2 -8l-14 -45q-4 -8 -4 -33t9 -37t17 -12t50 12q41 13 55 27t38 50t25 44l13 88q20 57 24 100t37 162q10 16 10 28t-2 15l-34 94q35 21 50 21t42 -9l86 2q31 0 37 -28l2 -21q0 -36 -50 -225l-6 -49l-20 -86q-4 -10 -4 -39l-25 -94v-2
l37 -84v-2q0 -18 -29 -37v2l-57 -37q-113 -72 -166 -72l-20 56q-1 -1 -13 -7l-20 -10l-19 -10q-14 -12 -30 -12t-22 4h-1l-76 8v-23z" />
    <glyph glyph-name="pi" unicode="&#x3c0;" horiz-adv-x="991" 
d="M612 117q0 47 9 80l63 301q35 147 180 317h-280q0 -13 -5 -33t-34 -147q-49 -238 -148 -522q-51 -143 -141 -144q-76 0 -76 64q0 40 91 200t198 582q-47 -2 -84 -10q-98 -20 -244 -170l-45 57l187 187q82 80 211 79h845l-30 -143h-308q-92 -147 -112 -242l-66 -303
q-18 -92 -17 -124t38 -33q37 0 127 34l-15 -77l-237 -82h4q-14 -10 -33 -11q-78 0 -78 140z" />
    <glyph glyph-name="endash" unicode="&#x2013;" horiz-adv-x="897" 
d="M891 389q53 0 53 -29q0 -8 -4 -14l-14 -33q-18 -43 -23 -51q-18 -12 -39 -12h-39q-18 0 -26 4h-6l-41 -4l-27 8q-14 0 -41 -8v2q-12 -2 -113 -2q-74 8 -82 8h-6q-32 -8 -65 -8h-21l-26 2q-12 2 -25 2h-24q-10 2 -31 4h-29q-32 -8 -64 -8t-44 37l28 12q-19 17 -20 15l6 34
q2 14 22 30q21 15 34 15t55 -10l30 6l43 2q23 0 62 -8l55 2l45 -4q18 4 55 10l56 2h8q23 0 53 -16t35 -25v31l31 4l53 -6l45 6q16 2 41 2zM162 314v-1v1z" />
    <glyph glyph-name="emdash" unicode="&#x2014;" horiz-adv-x="1171" 
d="M1227 340q0 -10 -21 -43l-18 -35l-55 -4q-4 0 -29 -4l-17 2l-10 -2l-80 -6l-2 33q-76 0 -73 -13q1 -6 32 -12l-55 -2l-41 4l-18 -2l-60 2q-10 0 -20 -2l-142 10l-174 -18l-65 8l-6 -2h-23l-55 4q-8 -4 -47 -4q-29 -4 -41 -4q-55 0 -55 31q0 8 4 14l16 31q12 43 26 54
t35 11l72 -6h6q16 2 35 4l33 -6l63 8l37 -2l314 2q55 -8 84 -8t69 8q14 0 25 -2l26 -2l23 -2h31q36 -4 43 -4l63 8q29 0 49 -15t21 -30v-4z" />
    <glyph glyph-name="quoteleft" unicode="&#x2018;" horiz-adv-x="348" 
d="M545 1305q29 0 28 -29v-6q-2 -24 -19 -35q-16 -13 -34 -25t-37 -24h2q-14 -14 -22 -45v-8q0 -25 29 -41l20 -23l2 -16q-8 -71 -61 -107h-4l4 2q-2 0 -4 -2h-3q-29 -14 -75 -24q-43 2 -66 55q0 16 -6 37l-8 41q0 12 1 17t4 24t26 74q22 55 79 92q13 12 43 28q50 15 101 15
z" />
    <glyph glyph-name="quoteright" unicode="&#x2019;" horiz-adv-x="348" 
d="M291 924q-29 0 -29 24v8q8 20 14 30t43 36q6 2 27 16q12 4 20 26t7 28q0 20 -21 34q-33 31 -33 50v6q2 6 3 8q10 55 57 86h-2q12 10 72 27l-3 -3l23 7q45 -2 61 -54h-2q10 -39 11 -43l6 -41q0 -37 -26 -101q-31 -77 -89 -105q-2 -2 -27 -21q-49 -18 -112 -18z" />
    <glyph glyph-name="quotesinglbase" unicode="&#x201a;" horiz-adv-x="348" 
d="M317 84q0 -36 -2 -48q-1 -12 -23 -70q-22 -56 -83 -98t-146 -42q-23 0 -22 29v6q8 26 21 36q14 9 31 22t36 26h-4q12 12 22 43v8q0 18 -16 32t-29 27q-6 16 -6 27v10q12 61 50 82t94 33h6q45 -4 57 -51l-2 2q16 -38 16 -74z" />
    <glyph glyph-name="quotedblleft" unicode="&#x201c;" horiz-adv-x="643" 
d="M582 1305q31 0 30 -29v-6q-2 -18 -16 -29q-27 -22 -80 -55h2q-24 -22 -24 -50t30 -44l23 -23l2 -16q-8 -70 -66 -107h-8q-29 -14 -80 -24q-47 2 -67 55q0 10 -9 37l-10 41q0 4 2 13t5 29t18 54q35 78 94 111q12 10 45 28q54 15 109 15zM850 1305q29 0 29 -27v-8
q-13 -32 -25 -39q-12 -9 -30 -21t-36 -23t-26 -46q-2 -2 -2 -15q0 -12 12 -20t41 -33l6 -22l-2 -15q-6 -57 -61 -88q-13 -4 -90 -26q-49 2 -70 49l-6 24l2 -2q-2 6 -6 23l-6 39q0 22 6 51l16 39v2q33 80 94 115q8 8 45 28q54 15 109 15z" />
    <glyph glyph-name="quotedblright" unicode="&#x201d;" horiz-adv-x="643" 
d="M582 924q-31 0 -31 24v8q6 18 29 45q4 0 67 41q7 4 15 24t8 30q0 12 -23 30q-33 33 -33 56v8q12 57 62 88q6 4 88 29h8q49 -2 64 -54h-2q8 -20 16 -84v-10q0 -10 -4 -39l-19 -45q-27 -68 -90 -108l-4 -2q-2 0 -2 -2q-39 -39 -149 -39zM311 924q-31 0 -30 24v8q8 20 15 30
q8 10 32 26q24 14 43 26q12 4 19 26t7 34q1 14 -27 36t-28 42l2 6v8q10 55 62 86h-3q10 10 76 27l-2 -3q2 2 25 7q51 -4 63 -54h-2q10 -18 12 -43l7 -41q0 -34 -29 -105q-29 -70 -92 -101q-8 -8 -31 -21q-53 -18 -119 -18z" />
    <glyph glyph-name="quotedblbase" unicode="&#x201e;" horiz-adv-x="641" 
d="M401 -55q27 18 27 55q0 10 -20 31q-35 31 -35 55v6q16 59 63 88q18 9 88 27h6q45 -4 62 -51q26 -62 12 -136q-6 -11 -10 -20l-8 -20q-25 -66 -90 -109q-4 -2 -47 -29q-57 -14 -109 -14q-29 0 -29 27v8q2 16 27 43q4 0 6 2t12 7t22 13t28 17h-5zM238 201l22 6
q49 -2 66 -51q2 -5 2 -16t4 -27l8 -41q0 -25 -6 -56q-4 -4 -8 -16q-6 -6 -11 -20q-33 -74 -92 -109h2q-43 -43 -153 -43q-18 0 -24 5q-5 5 -5 22v4q9 43 40 59q32 16 38 20t15 11q9 6 20 39v8q0 20 -21 33h2q-31 25 -34 29t-3 16q0 10 4 20l-2 -2q14 55 62 86h-2q14 8 78 25
z" />
    <glyph glyph-name="dagger" unicode="&#x2020;" horiz-adv-x="761" 
d="M385 205q12 95 16 115t9 38l16 86l2 56l2 18v29q-2 2 -2 8l-10 37h2q-4 12 -4 38t20 64l43 88l17 58l20 55l2 16q0 32 -86 -16l-108 -14q-31 0 -51 21q-19 22 -19 42t2 27q22 127 141 127q43 0 107 -33q20 -8 24 -8q27 0 27 51q0 23 -6 66l2 28l-4 76q29 80 90 119
q29 20 51 20t46 -36t24 -60l-2 -29v-14q-2 -63 -23 -94l-35 -51q-20 -27 -24 -56v-8q0 -6 17 -6t42 4h2l2 2q4 0 5 2q2 2 12 8q10 7 22 17t53 10q32 -8 43 -8q39 -16 43 -21q29 -33 29 -54t-3 -37t-36 -54q-16 -12 -28 -25l-31 -4l-37 -8l-49 12l-37 2q-35 17 -45 19
t-25 -19q-20 -39 -20 -57t4 -31l8 -49l2 -6v-8l-2 -21l-2 -12q10 -41 10 -51v-8q-6 -6 -6 -17q-4 -10 -41 -92l-14 -27l-19 -47l-10 -51q-29 -90 -37 -135l-84 -373q-2 -33 -8 -71q-8 -68 -72 -68q-39 0 -45 43l9 41q2 8 2 22v5q0 4 2 21l4 34l8 57l20 55v37l9 35l6 45
l10 27z" />
    <glyph glyph-name="daggerdbl" unicode="&#x2021;" horiz-adv-x="763" 
d="M395 358q0 14 -8 86v15q0 59 19 80l30 36l6 23l21 43q-5 16 -21 16q-4 0 -61 -30l-59 -6l-43 -7q-31 0 -52 26q-20 26 -20 49t4 36l-2 -2q25 109 133 108q14 0 51 -14l-2 2l27 -4q47 -27 63 -27t19 11q0 18 4 45l16 61v2q0 18 -22 19q-4 0 -25 -11q27 -8 -12 -17
q-74 -17 -121 -17t-67 21q-19 22 -19 48v15q2 10 24 53t44 55h-3q33 25 70 25t55 -13v2q41 -10 62 -24q14 -6 26 -6t20 20q8 19 7 31q0 12 -4 25l-6 38l4 29q-6 37 -6 62v8q2 20 36 78t56 59l49 2l23 6q35 -8 45 -72l2 -22l-2 -27v-32q0 -57 -21 -80l-35 -49
q-26 -35 -26 -64q0 -6 17 -6t42 4h2q16 8 35 23q33 16 47 16h4l25 -2l35 4q10 -6 43 -39q18 -49 18 -65v-9q-2 -18 -27 -53q-27 -33 -43 -35l-63 -16l-53 16q-74 23 -83 23t-30 -43l-6 -64l-10 -24q0 -4 16 -4t39 6l39 26l45 9q14 6 22 6t22 -6q13 -6 15 -7l-4 2l27 -6
l18 -22l33 -29l-10 -33v-24q-2 -14 -33 -47q-14 -20 -41 -31l-22 -4l-37 -10l-54 16h-30l-4 2h-6q-18 6 -48 21q-10 -4 -18 -23v-8l18 -119q0 -28 -4 -48t-32 -77t-33 -70l-10 -32l-19 -84q0 -3 -4 -11t-9 -27t-20 -63l-10 -26l-29 -152q-2 -27 -12 -74q-12 -66 -57 -65
q-53 0 -53 55l4 47q6 31 10 64l4 59l12 56q4 12 4 16l31 227q2 15 5 25t3 24z" />
    <glyph glyph-name="bullet" unicode="&#x2022;" horiz-adv-x="1275" 
d="M848 952q108 0 175 -64t67 -163q0 -156 -136 -262q-96 -80 -206 -80t-177 61q-66 61 -65 162q0 156 133 262q101 84 209 84z" />
    <glyph glyph-name="ellipsis" unicode="&#x2026;" horiz-adv-x="1181" 
d="M597 -12q-91 0 -91 65q0 27 7 53t40 50h2q1 0 35 17t57 17q104 0 105 -67q0 -34 -15 -47l-84 -78q-12 -10 -56 -10zM1018 193q12 -1 46 -17t44 -18l18 -11q18 -14 18 -29t-8 -50q-21 -80 -145 -78q-31 0 -73 37q-14 14 -15 45v24q25 97 115 97zM201 -16q-29 0 -68 41
q-18 25 -18 41v8q36 127 155 127q51 0 72 -47v-7l-4 -49q-2 -37 -5 -46t-20 -27q-53 -41 -112 -41z" />
    <glyph glyph-name="perthousand" unicode="&#x2030;" horiz-adv-x="1679" 
d="M480 1188q-1 0 -1 -2t-4 -14t-8 -19q-4 -8 -12 -45l-19 -64q-2 -6 -6 -38l-10 -39l-23 -115q4 -12 6 -49q5 -47 55 -47t70 25t29 71l8 22l25 95q2 5 2 9t4 26l18 71l7 33l10 39l4 43q-5 49 -19 67t-53 19q-55 0 -82 -86q0 -2 -1 -2zM1065 588q-16 26 -53 26t-64 -16
q-18 -23 -33 -53l-20 -33l-16 -88l-9 -29l-18 -76v-12l-10 -74l-6 -73q-2 -6 -2 -22t11 -28q11 -13 27 -14l54 4q39 18 69 93q6 6 15 40l6 39l6 31l12 82l8 31l11 61l6 29v18q8 45 8 50t-2 10v4zM1362 172q0 -61 35 -74q16 -4 35 -4q63 0 84 86q8 20 12 33v2q0 4 4 13t10 34
l21 66q2 6 6 41l12 65l18 86v2q-2 8 -2 23l-2 22q-2 47 -52 47q-49 0 -71 -22t-34 -76l-8 -18l-3 -31l-14 -49l-8 -37l2 -2l-2 -12l-23 -70l-8 -39l-10 -33q-4 -12 -4 -35l2 -2v-16zM1262 1401q61 0 61 -45v-10q-2 -12 -16 -31l-177 -221q-38 -60 -74 -102t-54 -66t-70 -87
q-51 -64 -58 -73q-6 -10 -20 -25l-29 -30q-7 -17 -29 -41t-30 -43q-56 -77 -100 -143t-66 -85l-74 -63l-12 -25q-4 -7 -11 -15t-17 -24q-10 -14 -18 -20q-7 -6 -60 -78q-77 -77 -90 -96q-13 -18 -18 -24t-10 -14q-5 -7 -7 -10t-3 -5t-4 -5q-47 -53 -81 -53q-72 0 -72 45v4
q6 16 22 33q20 29 40 51t35 46q14 24 20 29t32 34l82 96l125 160q37 43 64 70q27 20 94 127q12 18 55 65l35 49l68 76l55 76q12 14 38 44t44 52q31 51 94 137q4 10 18 23l15 14q3 8 67 88t84 98t52 17zM604 1391q164 0 180 -174q2 -19 2 -85t-15 -105t-28 -81l-10 -31
l-16 -30q-19 -61 -71 -130q-90 -118 -200 -118q-59 0 -90 20q-96 57 -96 177v8l2 100l8 70q4 12 17 43l-2 -2l6 20l14 37l8 23l11 28q33 98 110 164q78 66 170 66zM1022 731q51 0 106 -33q28 -20 52 -82t24 -118v-19l2 -39l-2 -30l-4 -25q-4 -25 -7 -50t-9 -48t-8 -35
l-13 -59q-8 -27 -34 -70t-44 -57q-115 -86 -203 -86t-140 59t-52 151v23l8 94l4 15q0 29 6 44l29 99q20 33 31 65q41 121 166 183q37 18 88 18zM1561 731q51 0 88 -20q94 -57 94 -179v-98q-3 -13 -8 -78q-6 -18 -19 -43l2 2l-39 -110h2q-27 -86 -104 -158q-84 -67 -177 -67
t-167 90v-2q-31 35 -31 112l2 21l15 59q2 6 6 35l2 24q4 4 12 31q4 31 18 70l11 29l18 34q18 53 72 126t102 97q50 24 101 25z" />
    <glyph glyph-name="guilsinglleft" unicode="&#x2039;" horiz-adv-x="428" 
d="M514 721q35 0 35 -35v-4q0 -8 -23 -35l-12 -35q-8 -18 -35 -42t-37 -40l-22 -28l-45 -49l-29 -29q-25 -23 -31 -37q1 -7 15 -29t24 -65l17 -55q2 0 2 -6t16 -21q42 -68 29 -111h2q-12 -43 -51 -43q-18 0 -47 27l-25 22q-12 8 -33 66q-8 16 -28 47l-23 37q-20 23 -47 57
q-33 18 -33 39q-2 8 -2 31q1 23 15 37t17 16t8 5t12 9t14 9q31 39 65 59v-2q37 25 119 109l33 24q63 53 71 60q21 12 29 12z" />
    <glyph glyph-name="guilsinglright" unicode="&#x203a;" horiz-adv-x="428" 
d="M487 408q0 -29 -22 -56q-6 -4 -10 -8q-5 -4 -17 -11t-24 -21t-58 -51q-46 -36 -118 -107l-35 -25q-8 -6 -48 -38t-53 -34q-35 0 -34 31q0 2 2 8v6q10 18 18 29l16 37q6 12 56 59l37 47l18 21h-2l16 20l41 39l31 35q-2 5 -6 17t-8 22v-4q-23 41 -23 61l-18 56
q-13 18 -43 82q-4 37 -4 43v12q6 43 51 43q18 0 49 -29l20 -18q16 -16 35 -68l27 -47h-2l22 -37q14 -10 32 -34t20 -23q34 -28 34 -57z" />
    <glyph glyph-name="fraction" unicode="&#x2044;" horiz-adv-x="147" 
d="M765 1401q50 0 50 -43v-10q-6 -18 -18 -35l-174 -219v2q-55 -86 -85 -119t-157 -199q-16 -29 -31 -39l-33 -32q-14 -14 -55 -80q-94 -129 -116 -167t-35 -50l-82 -76l-15 -25q-16 -25 -38 -52t-36 -47q-15 -19 -28 -34q-4 -18 -80 -88q-31 -37 -96 -111q-14 -10 -37 -10
q-70 0 -70 45l2 8v9l15 14q6 6 49 68t127 139l35 55l82 101l53 71q4 7 21 25t32 35q27 18 92 125q20 27 56 65l32 49l68 76l43 63l90 105q2 6 12 18t90 136q12 12 80 98l68 88q39 41 89 41z" />
    <glyph glyph-name="franc" unicode="&#x20a3;" horiz-adv-x="1257" 
d="M1102 298q0 -3 -4 -11q0 -14 -8 -60l-7 -55q-2 -6 -2 -14q0 -33 29 -52h-2q51 -31 51 -63v-8q-10 -41 -67 -41q-29 0 -109 6h-10l-70 -2q-86 0 -86 43v8q6 18 21 33l45 37q12 8 17 19t20 74q16 64 24 93l12 66q2 8 15 71l8 56q4 32 4 48t-6 25l-19 13q-37 14 -36 45v10
q2 18 43 45q27 12 76 41t55 32t16 10t59 21l11 -51q25 12 43 25l37 12q51 14 67 14q111 0 111 -114q0 -72 -56 -119q-30 -20 -60 -20t-58 30h2q-8 6 -37 66q-27 -10 -51 -72q-29 -51 -43 -110l-19 -93q-4 -31 -10 -43t-6 -15zM334 1303v16q12 45 65 45h7l36 -2q35 8 68 8
t111 -14q51 0 114 14q86 6 122 6t126 -6l16 2q10 0 25 2h74q12 2 41 2q61 0 61 -43l-2 -14l-10 -47l-8 -49l-33 -152q-12 -55 -49 -55q-45 0 -82 102q0 2 -2 7l-6 15t-10 47q-6 36 -40 50l-16 6l-12 6q-4 4 -8 4l-76 -8q-10 0 -22 5t-42 5q-59 0 -102 -49q-18 -16 -29 -57
q-11 -40 -14 -45l-10 -51q0 -3 -2 -9t-6 -21t-9 -26q-12 -84 -14 -108q-11 -27 -14 -45q-4 -18 -8 -26t-3 -22q-1 -12 7 -16t49 -4t61 9t74 75q55 61 102 62q33 0 33 -40t-8 -80t-20 -68t-27 -109q-2 -131 -56 -131q-35 0 -41 26l-24 74h2q-10 27 -48 47t-69 21
q-55 0 -80 -97q-14 -55 -28 -94l2 2l-19 -80l-4 -37l-39 -180v-39q4 -12 4 -41q6 -6 27 -16v2q31 -18 31 -47v-8q-6 -31 -42 -31t-57 2l-45 2l-2 2q-4 0 -8 -2h-31l-71 6l-129 -6q-37 0 -37 37q4 23 63 67q88 100 105 189l37 172l16 86l8 49l35 164l6 41l27 72l10 71l16 51
l19 99q2 6 2 12l-2 29l-2 26v37l-10 17l-13 18q-10 16 -18 18l-27 17h2q-18 10 -18 31z" />
    <glyph glyph-name="trademark" unicode="&#x2122;" horiz-adv-x="1622" 
d="M1012 1346h14l49 2h6q8 0 25 -5h12v-34q4 13 26 27t62 14q45 0 45 -60l-6 -71q0 -63 41 -215q0 -16 4 -30t13 -65l4 -24l28 -76q3 4 9 11l17 21q22 26 60 91l13 16l16 29l37 51l82 139l26 41q44 88 95 131q23 6 86 7h14l18 -3l41 3q27 0 43 -29q6 -18 6 -23v-8
q-8 -23 -14 -24l-41 -15q-31 -25 -37 -39q-42 -104 -48 -209q-1 -16 -11 -55t-18 -78l-13 -49q0 -6 -3 -20t-9 -44t-14 -53l-4 -24q0 -12 2 -23l2 -22v-13l30 -20q14 -10 15 -27l-2 -6v-6q-10 -41 -47 -41h-7l-22 2l-55 2l-43 -4l-66 2q-10 0 -18 -2h-33q-51 0 -51 35v8
q8 23 52 49t53 37q9 10 16 43t26 90l6 25l12 39l11 63l8 58v12q-10 -8 -21 -19q-26 -54 -62 -99t-62 -109q-11 -11 -25 -31t-23 -29q-28 -55 -43 -73t-40 -55q-25 -38 -47 -38t-32 18t-14 76q-8 37 -12 50l-8 37q-25 61 -66 239q-4 66 -18 66q-4 0 -15 -43l-18 -74
q-6 -19 -8 -27t-5 -18t-6 -21l-6 -22l-4 -51l-10 -62l-6 -30q0 -20 5 -30t36 -34v2q29 -25 29 -47v-8q-6 -33 -65 -33t-107 4h-70q-57 2 -57 45v6q0 12 57 49q43 31 63 93q3 4 5 12t8 28t26 128l25 75q12 41 14 47l2 29l2 43q5 35 15 83t10 53l2 14v4q-2 4 -37 26l2 -2
q-18 10 -31 31q-8 -8 -12 -18t-20 -39t-23 -43q-37 -70 -71 -70t-39 27v32q1 19 -7 23t-21 5t-54 9q-11 0 -27 -19t-16 -24l-4 -26q0 -38 -12 -73q-12 -36 -21 -75v-6l-23 -100l-4 -23q-20 -59 -20 -74l-9 -63l-14 -68q-2 -4 -2 -10q0 -31 37 -45q23 -6 22 -35q0 -8 -4 -20
l2 2q-6 -33 -38 -33h-33l-58 2l-30 6l-19 -4l-39 -6q-16 0 -24 4h-10q-4 2 -7 2l-53 -6q-27 0 -26 29v14q6 25 40 41q35 12 57 35t34 84l12 49l16 94l19 80q7 23 22 84q4 35 13 80l16 63v33h-23q-25 12 -40 12t-46 -18q-8 -6 -41 -62q-26 -28 -58 -28t-32 31v8l21 100l4 64
q6 41 47 41v-39q143 0 139 12q-2 6 -37 10l41 6q83 0 115 8l31 -4l37 -4l36 -6l27 -2h12l60 6l127 19q33 0 41 -21q14 15 43 15z" />
    <glyph glyph-name="partialdiff" unicode="&#x2202;" horiz-adv-x="980" 
d="M684 844q-98 0 -172 -68q-131 -123 -174 -330q-16 -86 -16 -141q0 -248 192 -248q92 0 174 70v-2q131 119 176 332q16 86 17 141q0 246 -197 246zM1073 670q0 -111 -26 -228q-53 -197 -181 -319q-160 -147 -364 -148q-162 -1 -262 97t-101 260q0 61 15 121
q31 155 130 275t240 169q90 33 168 33q135 0 217 -88q-63 330 -354 504l49 67q469 -234 469 -743z" />
    <glyph glyph-name="increment" unicode="&#x2206;" horiz-adv-x="1325" 
d="M252 172q0 -31 80 -31h774l-227 1006l-576 -871q-51 -81 -51 -104zM1024 1399l332 -1399h-1360l926 1399h102z" />
    <glyph glyph-name="product" unicode="&#x220f;" horiz-adv-x="1333" 
d="M1552 1298q-53 0 -82 -8q-45 -19 -59 -104q0 -9 -8 -33l-297 -1403q-14 -58 -14 -84t2 -31q10 -23 88 -22h71l-18 -76h-555l18 76h58q78 0 106 29q18 25 39 116l299 1403q14 63 14 94l-2 19q-16 25 -94 24h-309q-67 0 -91 -11t-32 -33t-20 -76l-304 -1428
q-14 -62 -14 -86t2 -29q10 -23 86 -22h74l-18 -76h-553l18 76h57q70 0 92 17t52 128l299 1403q12 68 12 94l-2 19q-12 25 -90 24h-74l19 78h1308l-18 -78h-60z" />
    <glyph glyph-name="summation" unicode="&#x2211;" horiz-adv-x="1329" 
d="M1319 1087q0 162 -141 189q-39 8 -117 8h-432l241 -762l-641 -852h482q102 0 180 17q180 43 287 286h75l-163 -436h-1094l690 918l-297 921h1077l-77 -360h-74q4 37 4 71z" />
    <glyph glyph-name="minus" unicode="&#x2212;" horiz-adv-x="897" 
d="M221 504v4q2 4 2 6l10 29l5 30q10 35 71 35l43 -4q2 -2 8 -2l91 6q8 0 14 -4q25 -2 57 -2h62l67 4q27 2 63 2t74 4h37q105 0 133 -5t27 -32q0 -7 -2 -12l-6 -45q-10 -35 -70 -35l-24 2q-16 2 -49 2h-19l-61 -4l-23 -2q-18 -2 -93 -2t-83 2l-78 -8l-2 29q-5 -9 -21 -17
q-17 -8 -34 -8h-23l-53 -4q-73 4 -84 4q-39 6 -39 27z" />
    <glyph glyph-name="radical" unicode="&#x221a;" horiz-adv-x="1329" 
d="M1690 1686l-21 -95h-242l-706 -1591h-191l-20 719h-326l15 94h493l15 -604l657 1477h326z" />
    <glyph glyph-name="infinity" unicode="&#x221e;" horiz-adv-x="1325" 
d="M476 852q-85 0 -143 -53t-77 -137q-6 -25 -6 -48q0 -63 57 -104h-2q51 -31 141 -31t160 47q23 14 90 74l25 25q-40 99 -86 153q-74 74 -159 74zM1151 475q86 0 143 43q74 53 97 154q6 25 6 45q0 74 -64 110q-55 35 -145 35q-139 0 -266 -125l-23 -22q43 -106 88 -156
q78 -84 164 -84zM1493 752q0 -183 -156 -328q-125 -109 -273 -109t-235 111q-45 51 -69 113q-59 -72 -94 -101q-127 -108 -247 -108t-192 70t-71 180q0 179 151 323q119 109 262 109q188 0 291 -219q175 221 367 221q119 0 193 -73t73 -189z" />
    <glyph glyph-name="integral" unicode="&#x222b;" horiz-adv-x="995" 
d="M170 -526q-86 0 -154 48t-68 129t43 133q42 52 97 52t84 -30t29 -54t-4 -37l2 2q-1 -17 -19 -43t-19 -33t-1 -20q0 -31 28 -31q78 0 140 127q37 70 67 203l199 942q35 172 61 242q59 152 146 231q109 106 250 107q89 0 157 -47t68 -129t-43 -132t-111 -51q-102 0 -102 95
q0 38 37 94q6 9 6 28q0 27 -31 27q-80 0 -141 -133q-48 -102 -68 -213l-196 -932q-33 -147 -64 -233q-119 -342 -393 -342z" />
    <glyph glyph-name="approxequal" unicode="&#x2248;" horiz-adv-x="985" 
d="M760 416q-53 0 -131 26l-117 39q-41 15 -113 15t-123 -43q-25 -16 -88 -72l-57 37q197 209 356 209q63 0 175 -38t165 -38q111 0 226 106l59 -39q-72 -78 -143 -124q-115 -78 -209 -78zM551 922q72 0 181 -38t161 -38q102 -1 227 110l58 -38q-61 -74 -144 -130
q-121 -76 -209 -75q-51 0 -133 26l-114 37q-61 18 -127 19t-124 -58q-11 -10 -33 -27t-40 -34l-57 39q186 207 354 207z" />
    <glyph glyph-name="notequal" unicode="&#x2260;" horiz-adv-x="899" 
d="M680 848q19 0 55 34q37 34 39 38l17 14q37 39 55 39t55 -28t37 -50l-29 -45h41q55 0 56 -51q0 -28 -22 -64q-22 -37 -62 -37l-91 4q-14 0 -53 -8q-40 0 -73 -43q-12 -8 -27 -22l12 2h27q16 0 63 6q86 0 142 -8q47 -18 47 -39v-8l-17 -33v-29q-8 -39 -69 -39q-16 0 -33 2
h-66q-10 0 -55 -6h-24q-33 0 -48 -2l-47 -2q-16 0 -32 2h-31q-37 0 -125 -94q-50 -37 -66 -37t-45 35q-6 6 -47 33l33 53q-8 6 -14 6h-52q-27 14 -36 35l14 39l2 43q10 41 74 41q33 0 53 -4l98 4q8 -2 22 -2t40 20h-2q8 11 19 23t13 16l-59 -2l-25 2q-14 2 -26 2h-12
q-24 -4 -76 -4t-66 21q-10 37 -10 52t4 44q8 45 74 45q33 0 49 -4h2l98 4q43 -6 62 -6l92 8h45z" />
    <glyph glyph-name="lessequal" unicode="&#x2264;" horiz-adv-x="987" 
d="M102 106h859l-23 -106h-856zM1210 1278l-26 -127l-688 -395l518 -404l-49 -239l-738 577l6 33z" />
    <glyph glyph-name="greaterequal" unicode="&#x2265;" horiz-adv-x="983" 
d="M102 106h854l-22 -106h-854zM102 109l27 127l684 395l-514 405l49 238l731 -580l-6 -35z" />
    <glyph glyph-name="null" unicode="&#x2400;" horiz-adv-x="0" 
 />
    <glyph glyph-name="lozenge" unicode="&#x25ca;" horiz-adv-x="1314" 
d="M453 680l254 -500l473 506l-256 502zM973 1434l381 -752l-692 -743l-379 747z" />
    </font>
</defs>
</svg>
