<?xml version="1.0" standalone="no"?>
<!DOCTYPE svg PUBLIC "-//W3C//DTD SVG 1.1//EN" "http://www.w3.org/Graphics/SVG/1.1/DTD/svg11.dtd" >
<svg xmlns="http://www.w3.org/2000/svg">
<metadata>
Created by FontPrep 20130207 at Wed Feb  8 01:33:05 2017
 By Ricardo Lino
Copyright (c) Typographer Mediengestaltung, 2000. All rights reserved.
</metadata>
<defs>
<font id="a4333d2c39033b62a2ca94c4aa87624f" horiz-adv-x='1024' >
  <font-face 
    font-family="CaslonAntique-Italic"
    font-weight="400"
    font-style="italic"
    font-stretch="normal"
    units-per-em="2048"
    panose-1="2 0 5 3 0 0 0 0 0 0"
    ascent="1638"
    descent="-410"
    x-height="731"
    cap-height="1376"
    bbox="-382.085 -637 1958.36 1817"
    underline-thickness="86"
    underline-position="-223"
    slope="-11"
    unicode-range="U+0020-FFFD"
  />
<missing-glyph 
d="M256 129h512v1180h-512v-1180zM129 0v1436h768v-1436h-768z" />
    <glyph glyph-name=".notdef" unicode="&#xfffd;" 
d="M256 129h512v1180h-512v-1180zM129 0v1436h768v-1436h-768z" />
    <glyph glyph-name=".null" horiz-adv-x="0" 
 />
    <glyph glyph-name="nonmarkingreturn" horiz-adv-x="681" 
 />
    <glyph glyph-name="space" unicode=" " horiz-adv-x="665" 
 />
    <glyph glyph-name="exclam" unicode="!" horiz-adv-x="438" 
d="M233 188q7 0 53 -21t48 -28q16 -16 6 -57q-20 -94 -135 -94q-23 0 -60 39q-16 20 -8 65q22 96 96 96zM545 1405q63 0 63 -90q0 -118 -100 -373l-16 -72l-41 -122q-3 -12 -17 -48t-22 -57q-6 -6 -15 -43l-39 -151l-2 -11q-11 -23 -18 -51q-6 -70 -42 -70t-38 27
q-4 5 12 66l11 49q4 10 8 65t33 269q4 16 -7 75q-2 14 17 133t35 246q31 137 116 150q47 8 62 8z" />
    <glyph glyph-name="quotedbl" unicode="&#x22;" horiz-adv-x="688" 
d="M838 1413q39 0 59 -67q2 -2 -2 -37q7 -59 -49 -156q-20 -31 -35 -74q-51 -131 -78 -131q-14 0 -35 21q-14 8 -11 20q3 13 7 31t6 28t3 20q1 11 7 61t3 135q-4 16 37 90l20 35q21 24 68 24zM484 1399q34 0 59 -48t12 -71l-37 -82l-10 -31q-33 -51 -41 -77t-23 -86
q-23 -68 -49 -68q-39 0 -39 56t15 114q2 8 -8 47q-11 39 -3 79t23 62q8 29 20 45q47 60 81 60z" />
    <glyph glyph-name="numbersign" unicode="#" horiz-adv-x="1064" 
d="M778 809l-61 -4q-43 0 -78 -2q-25 -3 -46 -61t-30 -70q-6 -29 -26 -80q-6 -31 12 -33l26 -4l62 4q20 4 78 4q10 2 20 17l2 6q4 4 7 10q4 6 22 42t22 52q18 37 26 75t-11 40q-8 4 -25 4zM1204 946q29 0 39 -12t-5 -54t-48 -53l-35 -4l-51 -4q-10 0 -105 -4q-41 -6 -57 -31
q-3 -3 -17 -50q-13 -46 -40 -109l-11 -31q-2 -20 0 -31q8 -10 23 -8h18q23 0 84 4l35 4q55 0 49 -31q-14 -80 -39 -86q-38 -6 -124 -9t-113 -21q-31 -33 -37 -72l-8 -47l-27 -53q-12 -27 -30 -91t-58 -65q-10 4 -33 6l-24 -2q-20 0 -19 23l64 170q18 51 45 112q2 13 -14 21
t-31 8l-68 -2h-51q-33 -2 -45 -23q-8 -8 -25 -49l-32 -61q0 -10 -8 -35l-11 -27q-4 -12 -24 -77q-27 -64 -70 -64t-59 12q-10 16 11 76t31 78t42 106q8 29 4 54q-4 18 -23 14h-18q-31 0 -107 -8h-10q-59 0 -55 29l4 26q12 55 43 64q25 0 35 2l51 6l53 -2q67 -3 93 21t39 82
t34 93q28 70 -12 70h-11l-92 -4l-22 -2q-4 0 -8 -2h-5q-66 0 -59 24q16 72 30 83t58 14l51 4l109 4q61 10 76 86l10 51q0 2 3 8q3 7 8 19t16 38t29 86q18 58 57 58q6 0 32 -6l27 2q23 0 16 -23q-26 -78 -69 -192l-13 -31q-10 -23 -24 -59q-4 -11 11 -21t30 -10l69 4l78 4
q6 0 23 17q2 4 5 11t8 19t23 48q17 36 27 67l11 29q0 2 3 11q3 10 8 28t11 38q29 62 66 62t53 -10t14 -24t-29 -87q-27 -55 -61 -149q-14 -68 21 -68l124 6q4 2 33 2z" />
    <glyph glyph-name="dollar" unicode="$" horiz-adv-x="960" 
d="M778 366q0 58 -42 118t-83 75q-29 0 -39 -47q0 -36 -5 -48t-7 -18t-5 -14t-5 -14l-25 -115q-10 -33 -22 -90l-15 -86q0 -31 15 -25l43 19q18 10 67 31q43 31 83 94q40 62 40 120zM711 1229q0 43 -45 43q-10 -6 -97 -49q-12 -7 -45 -59t-41 -88q-7 -36 5 -68t17 -52
t13 -34l49 -37q16 -12 27 -19q33 0 55 97l4 51l6 20l7 39l41 133q4 16 4 23zM313 936q0 54 3 68q15 70 65 141q100 147 281 186l28 6q43 8 51 17l15 112q2 18 49 19q39 0 31 -25l-7 -22l-10 -37l-16 -41q-4 -20 43 -25q10 0 31 -4l98 -41l80 -20q6 -6 10 -16t-14 -99l-2 -29
l-13 -63l-4 -25q-8 -33 -16 -90q4 -47 -39 -47q-18 0 -21 37q0 4 -5 32t-7 42l-24 63q-10 70 -15 80q-8 8 -47 37l-51 39q-13 0 -27 -32t-18 -40l-12 -51l-9 -25l-12 -71q-6 -31 -18 -80l-21 -70q-8 -35 12 -60t72 -63l78 -28q8 -2 12 -11q4 -2 43 -82l27 -53l6 -37
q18 -107 8 -155q-10 -49 -62 -119t-68 -87t-25 -34l-33 -20q-102 -63 -179 -73q-77 -11 -87 -54q-4 -27 -2 -54l-3 -6q0 -2 -2 -6l-14 -45l-12 -72q-5 -23 -31 -23t-41 21q-4 8 4 43v35q0 2 3 8q3 7 8 21q4 14 10 28t6 48q6 33 -8 53q-16 6 -42 9q-26 4 -54 20t-150 55
q-51 14 -45 47q14 28 19 75q5 48 7 61t25 75l8 53l8 25q12 31 20 39t23 8l17 -4v-2l4 -23l6 -22l4 -62l14 -80l23 -45q5 -42 17 -66t47 -53t51 -29q22 1 55 77l12 59l21 61q0 44 35 162q18 94 4 133q0 4 -43 35l-23 25l-59 20q-31 31 -72 88q-20 70 -26 88t-5 70z" />
    <glyph glyph-name="percent" unicode="%" horiz-adv-x="1175" 
d="M1018 633q-68 0 -98 -39q-18 -23 -33 -80l-8 -18l-2 -27l-17 -53l-8 -43q2 -2 0 -11l-23 -73l-16 -74q-8 -37 -4 -49q3 -57 23 -84t71 -27q76 0 105 109q11 28 26 80l21 67q4 10 6 39l12 41l2 31l19 92l-4 51q-4 68 -72 68zM1038 711q49 0 76 -17q94 -57 88 -176
q-4 -57 -2 -65l-2 -35l-8 -66q-2 -2 -14 -43l-39 -112q-31 -93 -104 -155t-160 -62t-158 83q-15 19 -23 57t-2 62l12 62q0 4 41 162l9 26l20 39q18 55 64 117q51 76 102 100t100 23zM1272 1401q47 0 43 -33q-4 -16 -12 -25l-181 -227q-27 -39 -108 -141q-30 -35 -90 -111
t-68 -90q-8 -12 -14 -18l-35 -35q-11 -18 -73 -100t-96 -139q-33 -58 -58 -76l-76 -68l-17 -29q-3 -3 -17 -23t-28 -36q-16 -16 -61 -80q-71 -71 -99 -108q-28 -38 -36 -48q-41 -47 -69 -47q-29 0 -45 11t13 40q19 28 29 40t48 60t58 69q21 21 37 38l41 56l129 165
q41 47 70 72q29 26 69 92t81 105l34 51l70 78l47 65q43 49 92 111q87 132 131 180q3 4 13 18t60 79q50 66 77 87q16 17 41 17zM576 1313q-69 0 -99 -39q-14 -20 -31 -80l-8 -18l-20 -82q-8 -30 -8 -41l-2 -11l-23 -75l-4 -31l-10 -41q-13 -95 11 -128q25 -32 77 -32
q78 0 106 109q8 29 25 78l22 67q2 12 6 41l11 39l4 31l18 94l-4 49q-2 70 -71 70zM593 1391q52 0 79 -17q94 -63 86 -176q-4 -41 0 -65l-2 -35q-8 -16 -8 -68q-4 -16 -15 -41l-37 -112q-23 -66 -57 -103q-103 -119 -201 -119t-168 86q-16 20 -20 74l-4 45l16 62q4 8 6 55
q2 1 8 21t25 87l8 27l19 39q20 55 73 125t97 92t95 23z" />
    <glyph glyph-name="ampersand" unicode="&#x26;" horiz-adv-x="1161" 
d="M1292 854q17 0 13 -12q-2 -6 -66 -45l-45 -39l-51 -33q-37 -31 -51 -37l-62 -20q-10 -4 -14 -20t8 -32q68 -88 68 -130t-9 -76q-4 -91 -28 -162q-14 -36 -45 -64t-62 -69q-70 -92 -139 -107l-39 -8q-131 -37 -212 -37t-109 4q-2 4 -25 13q-82 31 -154 120q-6 12 -51 50
q-20 6 -41 61q-6 31 -20 141q-2 2 8 64l12 65q4 2 10 4t9 4q73 203 106 255q33 53 84 87l66 43q25 14 68 28t44 32q4 18 -17 77t-5 113q18 92 102 183q39 37 103 67t116 31q166 0 166 -123q0 -25 -6 -51q-23 -96 -80 -96q-23 0 -31 26q-7 32 9 72q-4 3 -1 27q6 46 -53 49
q-41 0 -93 -49t-52 -111l-14 -57q-2 -12 21 -70q22 -58 42 -72t80 -37q2 -2 2 -8q-4 -10 -18 -10l-97 4h-18q-49 0 -127 -61q-94 -51 -148 -234q-37 -70 -34 -92q-2 -10 4 -46t-19 -101q-6 -29 -8 -122t25 -122q37 -49 59 -60l131 -28q24 0 70 14t80 23q16 10 32 26t50 46
q36 28 53 51q61 76 67 120l2 27q12 90 12 126t-18 56q-18 18 -26 21q-16 -1 -42 -27t-54 -26q-27 0 -34 32q-20 96 58 164q4 2 12 8t20 14t46 32q32 22 56 32t102 21l84 24l57 12q11 3 31 13t26 12h4z" />
    <glyph glyph-name="quotesingle" unicode="'" horiz-adv-x="344" 
d="M481 1411q17 0 37 -28t19 -48l-5 -28q9 -51 -49 -154q-18 -35 -34 -74q-49 -131 -80 -131q-11 0 -25 14t-12 21l35 135q-1 2 -9 26t-4 38l2 28v84q4 20 37 68t88 49z" />
    <glyph glyph-name="parenleft" unicode="(" horiz-adv-x="600" 
d="M264 180q0 23 -18 121l-2 55q-6 33 -11 111q0 29 11 84q6 14 18 49q41 154 64 227q27 57 75 156l33 66q38 47 82 115t55 71q13 2 50 49l24 25l17 14q24 25 58 65t54 39q14 0 10 -16q-35 -50 -106 -139l-33 -58l-18 -26l-27 -51q-35 -68 -41 -99l-12 -55q-10 -37 -31 -82
l-12 -29q-10 -23 -39 -112l-12 -41q-2 -12 -7 -45l-6 -35q0 -37 -15 -81t-24 -130q-45 -215 -26 -313q4 -57 14 -115l19 -43q2 -2 18 -46t14 -52q-2 -18 -20 -19q-35 0 -90 158q-66 72 -66 182z" />
    <glyph glyph-name="parenright" unicode=")" horiz-adv-x="610" 
d="M470 1427q24 0 42 -65q8 -27 33 -66l22 -53q2 -5 12 -27q9 -22 15 -32t8 -43l10 -70q32 -66 27 -104l-4 -60l4 -129l-12 -69l-2 -47q-3 -3 -15 -39l-30 -97q-6 -14 -22 -68t-44 -102q-18 -41 -49 -86l-35 -53q-20 -37 -74 -111t-80 -94q-26 -22 -77 -78l-33 -30
q-58 -58 -72 -58t-14 2q2 10 33 40t172 253q23 41 28 70q8 8 49 129l11 29l33 125l28 92q0 12 3 38t5 47t17 58l22 72q0 10 6 71l2 27q6 53 7 88q6 25 11 39q7 20 -1 134q-9 113 -14 137q-4 24 -28 64t-22 48q4 18 28 18z" />
    <glyph glyph-name="asterisk" unicode="*" horiz-adv-x="753" 
d="M887 1251h2q33 0 14 -84q-6 -27 -35 -39q-14 -2 -45 -4l-55 -14l-31 2q-33 2 -43 -41q-2 -8 15 -35l22 -41l8 -24q19 -23 23 -35t0 -34t-32 -45q-28 -22 -46 -21q-25 0 -49 75l-10 27v25l-11 49q-2 14 -13 14t-31 -20t-27 -28q-7 -7 -11 -12q-4 -6 -8 -14t-13 -24
t-15 -28t-32 -24t-44 -12t-35 22q-16 22 -12 39t33 46l22 26l49 43q39 29 41 50q4 10 -14 16q-45 8 -109 35l-20 6q-27 8 -21 24l11 29q11 33 14 45q14 21 31 21t67 -25l15 -14l32 -10q39 -23 45 -23q24 0 15 41q16 49 18 52t-3 55t50 73q19 8 35 8t27 -24l2 -49v-4l-11 -31
l-18 -82q-10 -41 27 -41t100 45q12 4 41 4q30 10 35 10z" />
    <glyph glyph-name="plus" unicode="+" horiz-adv-x="944" 
d="M676 1085q66 0 69 -28q2 -16 -14 -92l-8 -58q0 -4 -15 -51t-6 -92q6 -16 29 -16l70 4l49 -4l82 8q77 0 69 -49q-12 -63 -40 -70l-109 -8q-4 2 -6 2h-66q-125 0 -137 -66q0 -51 -6 -90q-20 -49 -23 -82l-6 -51l-4 -27q-10 -35 -41 -34q-6 0 -33 6l-26 -2q-29 -4 -21 41
q1 40 17 90t18 76t6 33t8 25t10 36t-22 26q-27 8 -35 6l-61 -4h-68l-43 -8l-26 4l-23 4q-37 6 -28 31l6 31l2 41q6 26 57 26l82 -4l82 6l55 -12q45 0 47 31l13 57q18 51 18 60l4 37l6 28l8 76q14 63 60 63z" />
    <glyph glyph-name="comma" unicode="," horiz-adv-x="405" 
d="M57 -190q-12 0 -10 13t19 32q56 39 76 51t28 53t-29 70q-25 16 -29 23t1 26q12 55 57 82q10 5 90 28q37 -4 49 -43q0 -9 8 -45l11 -45q0 -14 -9 -49l-16 -41q-27 -70 -92 -112q-10 -8 -43 -27q-55 -16 -111 -16z" />
    <glyph glyph-name="hyphen" unicode="-" horiz-adv-x="405" 
d="M313 324q-6 0 -8 -2l-55 8l-39 -6l-33 4l-43 -6l-24 -3q-2 -2 -17 -2q-25 0 -22 25l37 109q2 8 20 12l41 -2h35l33 -4l55 10l88 -6l76 8q29 0 41 -25q6 -10 4 -16l-17 -33q-14 -53 -22 -63t-21 -10l-67 10q-27 0 -41 -4t-21 -4z" />
    <glyph glyph-name="period" unicode="." horiz-adv-x="409" 
d="M217 188q10 0 55 -22t47 -27q12 -16 5 -57q-20 -94 -134 -94q-20 0 -59 39q-20 20 -12 63q20 98 98 98z" />
    <glyph glyph-name="slash" unicode="/" horiz-adv-x="876" 
d="M1106 1430q20 0 30 -8t5 -24q-4 -17 -11 -24l-47 -65q-6 -8 -25 -36q-20 -28 -30 -43t-32 -44t-33 -47l-31 -64q-14 -14 -63 -81q-49 -66 -137 -186t-128 -184t-47 -67q-4 -8 -45 -57l-23 -47q-10 -23 -34 -52l-35 -41l-33 -28q-6 -6 -43 -78q-20 -31 -59 -70l-27 -49
q-80 -86 -92 -104l-39 -62q-23 -29 -61 -28t-39 24q16 20 32 44t37 50l27 35l29 49q47 51 65 78l37 60l82 110q71 120 125 176q45 51 47 58l33 55q12 16 82 118t141 183l20 37l62 88q43 88 51 96t41 49l51 78q14 14 25 31q45 70 92 70z" />
    <glyph glyph-name="zero" unicode="0" horiz-adv-x="944" 
d="M768 1331q-43 0 -94 -28q-4 -2 -11 -8t-20 -13q-66 -31 -100 -158l-17 -57l-16 -68l-18 -53l-7 -43q-30 -83 -41 -166l-4 -22q-2 -16 -37 -119l-12 -66l-14 -51q-16 -72 -19 -143l-2 -49v-54q-8 -109 50 -174q12 -12 69 -14l31 -2q88 0 158 147q10 18 30 107l21 55
l78 279l12 69l18 68l51 283v88q0 51 -14 129q-24 63 -92 63zM451 -41q-80 0 -152 72q-90 97 -103 161t-12 95v20q0 95 11 133t17 89t15 87q10 34 27 98t29 103l16 51l33 76q20 68 48 118t96 154q69 104 122 138q88 55 158 57l82 -4q69 -2 133 -104q78 -116 62 -244
q-5 -41 -7 -86t-4 -76l-6 -68q-10 -89 -16 -117t-29 -98l-49 -163l-23 -62q-25 -123 -133 -250q0 -4 -14 -18q-109 -125 -190 -143t-111 -19z" />
    <glyph glyph-name="one" unicode="1" horiz-adv-x="561" 
d="M651 1417q35 0 35 -33q0 -12 -2 -20l-8 -27l-70 -313l-102 -391l-23 -98l-8 -31l-18 -92l-6 -47l-17 -76l-6 -45q0 -21 -10 -66q4 -26 21 -68t15 -60t-26 -34q-25 -16 -35 -16l-88 4q-70 -4 -108 -4t-51 10q-28 22 14 80q0 2 7 10t23 28l32 40q16 18 18 39l41 178l20 66
q10 39 25 96l8 37q0 20 5 46t8 42t21 74t48 196l10 53q20 173 17 191t-13 35q-29 19 -51 36t-21 37q10 35 97 62q5 2 31 11t79 29t88 21z" />
    <glyph glyph-name="two" unicode="2" horiz-adv-x="862" 
d="M299 -4q-14 0 -92 4l-113 -4q-45 -4 -37 43q5 29 49 88t68 83t62 60q14 16 143 150l180 182q55 55 72 76q193 238 189 402q-1 42 -7 75q-4 10 -20 25q-76 63 -117 63q-2 0 -64 -16q-100 -12 -182 -70q-2 -2 -12 -2q-64 0 67 139q100 106 211 106q112 0 136 -4
q24 -6 48 -22t63 -40q41 -24 65 -58q24 -35 24 -87t-8 -85l-16 -62l-9 -49q-10 -51 -58 -135t-150 -172q-6 -6 -74 -66t-191 -171q-96 -96 -172 -175q-8 -12 -28 -41q-4 -20 41 -24l22 -4l68 4q39 4 61 0l80 -8q70 0 115 39l41 43q4 6 18 6q39 0 29 -37q-4 -6 -35 -86
l-14 -41q0 -2 -19 -51q-27 -76 -74 -76l-114 4q-33 0 -47 -2h-35l-113 -4h-51z" />
    <glyph glyph-name="three" unicode="3" horiz-adv-x="890" 
d="M205 375q43 0 67 -49q27 -43 17 -90q0 -2 -3 -10t-8 -28q-4 -20 -8 -32t0 -23l13 -16q59 -72 98 -72q72 0 149 47q45 32 70 64l25 29q18 20 32 36q37 59 66 162l8 29q4 16 1 30t-30 72q-18 59 -30 82q-39 63 -140 92q-36 10 -30 42t123 71q47 10 111 102q64 93 74 137
t7 74q-6 20 -14 58q-29 98 -139 98t-150 -26q-39 -26 -53 -25q-25 0 -19 31q12 63 117 112q76 37 120 37q43 1 117 -35t103 -57q51 -43 64 -63t28 -66l13 -37q5 -31 -2 -51q-6 -19 -13 -47q-25 -127 -184 -242q-57 -41 -60 -61q-4 -16 25 -43q70 -63 96 -132l15 -36
q0 -3 4 -13t8 -36q5 -26 -7 -84t-16 -70t-9 -36t-44 -114q-47 -80 -99 -110t-110 -51l-30 -17l-62 -14q-45 -25 -117 -27l-69 -4q-63 -4 -133 78q-29 37 -84 121q-16 43 -2 108q20 105 94 105z" />
    <glyph glyph-name="four" unicode="4" horiz-adv-x="862" 
d="M436 717l64 8l114 -14q34 0 42 15q8 16 15 36t19 57t25 76l18 92q0 2 2 12t6 33q3 22 9 50t0 27q-25 -4 -93 -62l-75 -66q-23 -18 -45 -43l-37 -41q-37 -47 -64 -76l-63 -69q-4 -2 -17 -15q-6 -6 25 -14t47 -8zM549 592h-248q-25 0 -43 2h-35q-98 -4 -86 51q4 25 41 60
l78 63q10 14 76 80l26 24q33 33 146 125l123 119q68 62 89 84t54 47l102 105q31 31 50 47q25 10 26 10q41 0 29 -61l-4 -21q-2 -10 -21 -80l-80 -377q-2 -10 -2 -24l-24 -94q-6 -31 -2 -41l26 -29q7 -21 -7 -55q-15 -33 -31 -47t-39 -37l-9 -51l-28 -117l-8 -49l-33 -150
q-22 -172 -94 -172q-38 0 -84 23l-41 20q43 109 51 149t6 91l6 26q8 41 39 156l10 41q0 4 7 32t-10 39t-56 11z" />
    <glyph glyph-name="five" unicode="5" horiz-adv-x="862" 
d="M807 1395h8q15 0 107 8l57 4q53 0 47 -31q-2 -18 -45 -53l-37 -37q-37 -39 -78 -50t-127 -26q-66 -20 -108 -19t-53 -20q-6 -8 -19 -53q-17 -30 -27 -62t-2 -34l31 -14q21 -12 45 -18t82 -38q58 -31 129 -108q27 -45 31 -56l18 -65l19 -41l10 -49v-35q2 -53 0 -55
q-25 -166 -59 -232t-112 -166q-80 -100 -181 -151q-57 -33 -148 -33q-8 0 -16 2h-23q-27 0 -63 10q-59 23 -70 29q-63 41 -78 72q-33 63 -33 137t48 121q28 24 59 24q61 0 62 -69q1 -19 -15 -65t-16 -72q0 -66 65 -95q28 -11 82 -19q54 -7 144 50q27 16 34 25q4 0 37 39
l29 32l23 33q33 47 49 123l4 14q0 11 4 17l6 37q8 40 8 106t-45 140t-119 104q-169 29 -193 45q-22 16 -20 38t50 140q16 86 65 215q-1 2 19 89t53 103q16 6 47 7h29q39 -2 137 4h30q10 -2 19 -2z" />
    <glyph glyph-name="six" unicode="6" horiz-adv-x="956" 
d="M592 735q-174 0 -230 -241q-11 -44 -26 -119q-8 -43 37 -180q27 -74 65 -100q38 -25 102 -25q62 0 119 32q94 53 127 217q23 113 28 135t-2 68q-21 135 -81 174q-59 39 -139 39zM1022 1438q35 0 31 -25q-5 -10 -17 -20t-102 -52q-40 -20 -136 -102q-96 -83 -130 -131
t-54 -75q-22 -27 -38 -49l-29 -38q-82 -100 -82 -145q0 -14 14 -15q4 0 20 4t117 12q101 9 137 9t55 -7t67 -43q47 -35 55 -55t28 -65q16 -70 39 -156q-6 -47 -12 -81t-43 -144q-90 -164 -225 -235q-111 -53 -231 -53t-149 14q-28 14 -86 84t-65 90q-39 104 -39 130t11 109
l16 103q6 41 49 176q74 189 129 252l43 51q41 59 78 96q195 203 399 297q128 64 150 64z" />
    <glyph glyph-name="seven" unicode="7" horiz-adv-x="808" 
d="M739 1366q89 0 142 -4l41 4q26 -2 66 -2t53 -8q27 -17 -9 -62l-102 -141l-62 -104q-16 -27 -143 -240q-20 -47 -104 -184l-84 -131l-91 -154l-84 -152q-16 -23 -61 -106q-31 -70 -51 -78q-8 -4 -51 -4q-51 -12 -88 -12q-72 0 -66 28q6 18 59 88l72 97q80 100 217 309
q6 8 43 57t66 88l24 35q6 8 36 53t59 84q61 98 143 222l47 79q2 2 6 11q4 23 -24 26l-29 4q-39 7 -66 7h-47l-49 2q-4 0 -123 -4q-61 -2 -135 -80q-16 -16 -39 -17q-27 1 -21 23t42 104q38 82 53 129q35 98 78 99h7q9 0 17 -10t9 -15q2 -4 6 -10q4 -5 8 -15t168 -14z" />
    <glyph glyph-name="eight" unicode="8" horiz-adv-x="946" 
d="M805 1311q-92 0 -168 -56q-86 -59 -100 -141q-9 -33 -9 -57t22 -66t53 -72q30 -30 36 -37q6 -6 15 -16t16 -18q14 -6 42 -6t37 6t15 8l24 16q4 2 10 8t11 9q125 90 154 221q14 66 -28 120q-43 54 -61 68t-69 13zM449 55q75 0 109 8t60 35q119 106 144 215q15 92 6 119
q-8 28 -43 82q-16 31 -45 61q-105 59 -139 62q-63 -14 -81 -19t-42 -30l-37 -35q-33 -33 -64 -70q-44 -100 -57 -126q-12 -27 -18 -62t14 -96q25 -59 59 -93q59 -51 134 -51zM850 1415q27 0 39 -6l31 -14q53 -27 63 -37q70 -87 70 -217q-5 -57 -11 -81t-34 -99
q-28 -76 -76 -105q-25 -12 -51 -27q-53 -39 -55 -48t28 -39q31 -30 51 -56q2 -12 25 -70l8 -24l6 -29q10 -51 10 -61l-22 -125q-35 -170 -193 -316q-47 -43 -88 -57q-119 -41 -176 -41h-45q-113 -1 -175 57q-61 58 -81 126t-18 92q16 188 82 288q23 34 83 82q61 48 85 62
t28 37q4 22 -44 121t20 331q23 37 77 92l41 41q47 47 121 72q123 51 201 51z" />
    <glyph glyph-name="nine" unicode="9" horiz-adv-x="944" 
d="M709 1298q-41 0 -107 -41q-104 -63 -148 -265t7 -279q51 -76 129 -76t127 9q49 10 91 50t54 92l15 74q0 4 8 30l18 60q16 84 -45 258q-45 88 -149 88zM209 -45q-29 0 -23 27q4 20 46 38t87 48l74 49l29 22q113 84 219 219l57 72l13 19q37 59 44 94t-12 35q-7 -2 -35 -21
t-104 -18h-20l-52 2q-33 2 -102 6q-50 20 -110 109t-68 221q-2 20 18 116q43 205 250 344q55 37 125 53t84 17l41 -2l68 4l77 -33l50 -41q84 -72 112 -143q6 -16 8 -98t-7 -130t-17 -126q2 -51 -68 -226l-71 -127l-23 -34q-14 -23 -51 -76l-82 -82q-116 -121 -244 -206
q-32 -21 -256 -118q-43 -14 -57 -14z" />
    <glyph glyph-name="colon" unicode=":" horiz-adv-x="409" 
d="M219 188q8 0 53 -21t47 -28q16 -16 7 -57q-20 -94 -136 -94q-20 0 -50 31t-19 71q22 98 98 98zM324 686q12 0 56 -22t46 -25q14 -14 5 -59q-20 -99 -136 -99q-25 0 -55 45q-23 23 -13 64q23 96 97 96z" />
    <glyph glyph-name="semicolon" unicode=";" horiz-adv-x="405" 
d="M57 -190q-12 0 -10 13t19 32q56 39 76 51t28 53t-29 70q-25 16 -29 23t1 26q12 55 57 82q10 5 90 28q37 -4 49 -43q0 -9 8 -45l11 -45q0 -14 -9 -49l-16 -41q-27 -70 -92 -112q-10 -8 -43 -27q-55 -16 -111 -16zM330 700q10 0 55 -22t47 -25q14 -16 4 -57
q-20 -100 -137 -100q-19 0 -47 34t-19 74q23 96 97 96z" />
    <glyph glyph-name="less" unicode="&#x3c;" 
d="M1202 1253l-16 -75l-729 -418l549 -428l-43 -203l-727 567l4 13z" />
    <glyph glyph-name="equal" unicode="=" horiz-adv-x="944" 
d="M270 629q38 0 66 -4l102 4q43 -6 66 -6l207 8q14 0 77 6h15l112 -4q35 0 39 -2q25 -6 17 -33l-6 -31l-2 -28q-6 -27 -52 -27l-106 4q-18 0 -57 -8h-25l-131 -4q-33 0 -37 2h-14q-63 -8 -91 -6t-53 2h-24l-6 -2l-50 -2l-86 6q-14 2 -19 6t-1 12l10 37l4 41q7 29 45 29z
M330 860q-14 0 55 -6l102 6q43 -6 63 -6t107 4l103 4q16 0 78 6h14l72 -4h41q35 0 39 -2q25 -6 16 -33l-6 -28l-2 -31q-6 -27 -51 -27q-8 0 -103 5q-23 0 -61 -9h-25l-133 -4q-39 0 -49 2q-63 -8 -90 -6t-54 2h-30q-12 -4 -49 -4l-86 4q-27 2 -21 23l10 35l4 40q7 29 56 29z
" />
    <glyph glyph-name="greater" unicode="&#x3e;" 
d="M115 129l16 78l731 418l-551 428l43 200l727 -565l-2 -12z" />
    <glyph glyph-name="question" unicode="?" horiz-adv-x="751" 
d="M362 186q27 0 103 -39q14 -20 5 -66q-10 -47 -30 -61t-54 -24t-46 -10q-37 0 -57 40t-13 76q16 84 92 84zM578 1404q53 10 72 11q19 0 41 -5t37 -7t35 -4q21 -1 61 -57t66 -108t-11 -222q-6 -33 -43 -90l-29 -45l-64 -68q-49 -72 -125 -139q-8 -13 -37 -48
q-28 -35 -44 -57l-29 -37q-14 -23 -70 -118q-8 -20 -24 -74q-10 -10 -27 -10q-27 0 -20 32q2 14 25 84t49 120q27 50 47 88t77 134l53 90l21 29l23 43q18 33 55 103l6 45q7 65 2 104q-4 145 -123 145q-135 0 -158 -110q-2 -15 -1 -25t28 -55q6 -12 -1 -54q-8 -43 -36 -59
t-49 -16q-41 0 -61 45q-2 5 -12 25t-7 45q18 86 80 153q59 59 99 80q41 22 94 32z" />
    <glyph glyph-name="at" unicode="@" horiz-adv-x="1423" 
d="M977 883q-137 0 -227 -99q-29 -33 -41 -59l-52 -135q-35 -154 90 -154q149 0 231 218q14 36 21 46l19 43l12 48l14 43q9 49 -67 49zM907 348q-31 0 -33 12l-6 29q-4 4 -7 4t-39 -15t-101 -28l-43 -8q-18 0 -54 14t-54 39t-31 85q-12 60 0 121q11 61 81 183t181 181
q43 21 117 39t83 18q45 0 68 -41l10 -20l31 20l61 -4l50 -4q10 -3 4 -27t-68 -188l-57 -148q-31 -84 -47 -116q-12 -59 26 -60q51 0 125 62q154 123 166 202l10 54q14 78 15 96q-4 86 -15 190q0 49 -84 158q-18 29 -43 61q-12 11 -60 25t-118 18l-71 11q-47 -5 -110 -30
q-63 -26 -120 -50q-90 -59 -150 -109t-151 -166q-4 -12 -31 -59l-20 -37l-60 -153l-16 -127q-10 -60 -7 -70t9 -109l4 -71q2 -6 2 -17q4 -8 56 -71q20 -43 30 -58l54 -39q25 -14 61 -45q37 -18 70 -24l59 -4l68 -4q72 0 122 10q12 4 218 94l53 37q135 94 166 100t55 19
q12 0 10 -15q-12 -51 -147 -153q-119 -86 -250 -137q-72 -25 -129 -35q-2 -4 -100 -8t-144 -4q-109 -1 -203 87q-6 10 -51 43q-12 16 -36 44t-58 88l-22 61q-20 51 -37 90q0 47 -9 115l-2 22q0 13 9 52l12 86q18 86 61 206q23 57 82 144l47 67l62 64l37 33q47 47 137 116
q186 111 403 111t328 -111q86 -86 98 -106q27 -53 39 -90q39 -135 39 -142q10 -41 -8 -126q-57 -268 -277 -384q-109 -57 -221 -90l-30 -8l-58 2q-10 -2 -41 -2z" />
    <glyph glyph-name="A" unicode="A" horiz-adv-x="1095" 
d="M739 979q-4 0 -12 -4l-27 -35q-18 -24 -57 -72q-70 -121 -59 -166q6 -27 71 -43q15 -2 35 -8t39 -6q27 0 33 29q24 117 14 211t-37 94zM746 -6q-26 0 -32 4q-7 4 -4 17t35 34q72 49 86 113q9 50 -7 123q-15 73 -17 186q-12 76 -84 76q-37 6 -67 17t-86 11t-93 -18
q-31 -7 -63 -73t-63 -107q-32 -41 -60 -114q-27 -73 -31 -95t3 -37t39 -57t32 -49q-6 -25 -55 -25h-230q-27 0 -37 6t-7 22t18 25l45 31q12 6 57 76l21 23q10 11 20 23t51 93q16 20 78 127l217 375q9 26 93 160q85 135 118 193t74 177q27 76 65 76q10 -1 18 -25t29 -202
q6 -25 21 -74q-2 -25 0 -57l4 -91q6 -20 18 -79l25 -144l4 -71l10 -113q1 -20 13 -138t23 -201t42 -114q8 -5 35 -30q10 -10 6 -29q-6 -29 -47 -35l-117 -4l-51 -2l-72 10q-3 0 -27 -7t-50 -7z" />
    <glyph glyph-name="B" unicode="B" horiz-adv-x="1067" 
d="M608 1059q0 -45 -10 -85t-23 -102t31 -96q20 -18 68 -18t88 26l59 35q16 12 74 41q74 68 94 172q4 18 7 72t-22 76q-25 24 -39 46t-30 42l-63 4l-78 14q-35 0 -92 -51q-24 -29 -32 -62q-9 -32 -13 -45l-19 -55v-14zM657 682h-82q-35 -4 -59 -70q-12 -20 -18 -57l-21 -96
l-14 -35q-4 -12 -4 -43l-29 -125q-13 -51 -29 -88q-10 -53 60 -86q33 -16 41 -14l41 4q20 2 75 6q35 14 84 51q76 53 115 125q8 20 16 49q7 29 13 47l22 101q12 59 0 81q-70 150 -211 150zM1190 1059q0 -111 -57 -180q-25 -31 -89 -84q-72 -66 -78 -73t-12 -20
q-4 -24 16 -36t62 -76l19 -51q29 -84 14 -142l-6 -26q-2 -9 -6 -23t-4 -20q-25 -129 -164 -238q-154 -96 -230 -94q-23 -2 -80 -2h-96l-149 2l-105 4h-28q-53 -4 -64 -4q-37 0 -31 27q4 16 13 22l75 68q65 98 113 338l98 450l5 25q2 23 6 43l26 82q4 10 12 61t3 100l-4 39
q-6 16 -39 58q-16 13 -12 33t22 24q2 2 82 6l71 8l187 -14h139l29 -2q41 -4 145 -80q59 -31 78 -57q39 -57 39 -168z" />
    <glyph glyph-name="C" unicode="C" horiz-adv-x="1300" 
d="M1283 383q30 0 20 -47q-1 -2 -13 -45t-16 -66l-12 -57q-12 -58 -24 -74t-24 -22l-22 -11q-108 -54 -111 -53l-63 -16q-102 -29 -123 -29q-142 0 -170 4h-78q-45 0 -103 35t-71 47l-41 37q-80 72 -116 121t-80 184q-20 53 -27 131q-2 34 25 158t57 205q47 109 103 162
t81 77l72 88q35 44 181 104t204 76q59 16 127 15q190 0 346 -107q2 0 18 -8t54 -24q23 -10 19 -42t-23 -126q-12 -41 -17 -62l-12 -57q-6 -23 -24 -23t-23 20q-3 20 -19 72t-25 72t-28 31l-53 43q-6 4 -37 30t-57 46q-12 4 -86 17t-94 13q-19 0 -56 -18q-78 -23 -151 -78
q-55 -29 -70 -39q-176 -162 -199 -266l-20 -90q0 -5 -22 -52t-26 -55q-3 -8 -1 -13t-13 -93l-14 -53l-4 -10l-2 -31l-14 -70q-6 -36 17 -110t48 -107q102 -139 252 -135l102 2l95 4q58 0 96 18t106 82q36 47 66 81t49 67q16 47 46 47z" />
    <glyph glyph-name="D" unicode="D" horiz-adv-x="1284" 
d="M872 1274q-178 0 -213 -127q-6 -27 -38 -107q-2 0 -3 -2q0 -2 -2 -4v-76l-4 -22q-35 -119 -51 -192t-26 -95l-9 -94q-4 -10 -11 -36t-11 -38l-12 -49l-17 -53q-6 -83 -26 -158q-9 -8 -9 -44q0 -35 27 -67t68 -32q10 0 77 18l64 10l49 11q39 10 59 19t62 48l59 56
q19 18 29 27t57 65q27 23 74 96q6 25 31 92l30 80q9 41 24 83t15 46l4 55l11 56q8 41 16 92q0 14 -29 84q-23 68 -45 112q-20 27 -63 57t-51 36q-68 53 -136 53zM776 1374q39 -10 266 -10q18 -3 140 -78l22 -24q63 -43 105 -109q31 -35 63 -109q16 -102 12 -156t-14 -104
l-43 -204q-12 -55 -72 -172q-15 -37 -43 -74t-129 -152q-51 -46 -115 -76t-167 -63q-94 -43 -164 -45l-137 -6q-23 0 -31 -3t-35 4q-28 7 -98 7h-227q-31 4 -23 39q2 18 20 33q29 14 60 30q63 43 80 136q14 41 43 137q6 33 16 94v14l29 109q0 4 4 26t6 39l21 103
q27 158 29 174t18 60t18 55t4 47l6 53q0 51 -2 69t-22 48q-4 2 -16 12l-23 18q-12 8 -4 38t92 30q39 0 102 -14q8 0 95 18z" />
    <glyph glyph-name="E" unicode="E" horiz-adv-x="1015" 
d="M1151 1368q43 0 39 -35q0 -10 -12 -104q-10 -33 -14 -79t-9 -83q-8 -33 -27 -33l-36 29q-6 6 -23 80q-14 31 -33 69q-24 35 -114 39q-2 1 -45 15t-78 14q-98 0 -111 -51q0 -3 -14 -45l-15 -47q-18 -49 -34 -107q-3 -27 -23 -110t-20 -107q0 -57 53 -57q33 0 90 34t87 63
q30 30 44 30t18 -23q-2 -8 -6 -49l-4 -39q-2 -35 -28 -113l-11 -36q0 -4 -6 -43v-7q-4 -8 -4 -30q-5 -17 -19 -39t-24 -23q-12 0 -29 29l-16 29l-6 45l-29 34q-8 20 -18 28t-52 9q-42 0 -57 -18q-2 -2 -24 -100q-47 -100 -53 -132l-7 -44q-2 -11 -4 -19l-12 -53
q-6 -27 -25 -92l-10 -35q-16 -66 107 -72l84 -8h6q9 0 61 13t66 24l47 37q49 29 61 41q33 47 70 110q16 29 42 29t15 -43q-27 -139 -47 -189l-22 -79q-18 -39 -58 -39q-8 0 -108 20q-45 -6 -68 -6l-102 2l-152 -4l-70 2h-159l-90 -4q-18 0 -26 4q-7 4 -2 25t81 51
q47 44 55 64t25 65l18 59q2 10 7 38t10 44l16 74q4 29 6 41l6 20q25 107 37 147q12 41 14 48l27 147l12 58l25 88q12 49 35 108l-2 64q0 72 -8 86q-18 39 -76 82q-8 4 -4 20q8 47 67 43l45 -2q32 4 107 4l102 4q45 0 74 -8t37 -8l73 8l105 4q52 0 108 -14q4 2 50 8h14z" />
    <glyph glyph-name="F" unicode="F" horiz-adv-x="960" 
d="M430 1223q0 3 -18 31t-27 32l-35 21q-10 3 -3 31t50 26l41 -2q39 8 68 8t108 -14q57 0 127 14q88 6 124 6t126 -6l21 2q10 0 24 2h78q12 2 39 2t36 -9t5 -26l-12 -49q0 -4 -3 -20t-5 -29l-33 -158q-8 -39 -31 -38q-35 0 -61 75q-1 10 -9 41t-15 59t-50 50l-25 10
q-4 4 -16 10l-86 -10q-4 0 -15 5t-47 5q-96 0 -136 -81q-9 -19 -19 -48t-17 -43l-10 -53q0 -3 -8 -28t-12 -46l-15 -108q-38 -105 -10 -118q19 -9 67 -9t72 10q25 14 82 84q49 55 90 55q25 0 -4 -135q-28 -85 -41 -145q-2 -119 -34 -119q-20 0 -23 14l-25 76q-12 32 -56 58
t-83 26q-76 0 -102 -117q-12 -49 -29 -94l-18 -84l-4 -35l-41 -186v-49q2 -12 6 -41q2 -10 32 -28t25 -38q-2 -14 -31 -14l-96 6q-4 0 -10 -2h-29l-74 6l-135 -6q-18 0 -18 14q4 16 59 58q94 102 115 204l98 486l8 49l25 68l12 67l17 55l18 109q2 2 -2 70v43z" />
    <glyph glyph-name="G" unicode="G" horiz-adv-x="1376" 
d="M1064 1403q208 0 259 -25l70 -35q35 -10 84 -36q43 -39 30 -97q-31 -132 -51 -202t-33 -70q-31 0 -49 129q-10 49 -18 61q-4 2 -37 31q-18 49 -66 86q-79 66 -197 66t-243 -66q-71 -37 -117 -79t-119 -170q-73 -130 -90 -203q4 -25 -6 -60l-6 -31q0 -4 -5 -22t-9 -33
l-21 -92l-20 -61q0 -101 9 -136t15 -71q27 -133 166 -199q80 -35 130 -35q50 1 96 13q48 12 90 14q74 2 121 69t47 143t-66 79q-27 2 -41 2q-23 6 -17 25t21 28l158 20q14 0 125 -12h22l52 6q36 0 24 -41q-4 -20 -10 -24l-43 -39q-12 -12 -29 -88l-10 -49l-20 -80
q-20 -87 -38 -99t-36 -12l-92 6q-16 0 -86 -18l-70 -6l-88 -10q-100 -12 -117 -13q-127 0 -158 10q-197 74 -270 232q-49 99 -61 195t-20 142t2 104q11 58 18 71l16 63q51 205 279 426q53 53 118 84q12 6 50 32t108 48t90 25q101 4 159 4z" />
    <glyph glyph-name="H" unicode="H" horiz-adv-x="1460" 
d="M138 0q-80 0 -72 35q4 25 66 37t91 57q14 18 33 80q39 179 44 218t11 60t16 57q9 36 21 77q23 137 42 184t29 106q9 58 19 88l15 68l10 59l10 45q4 29 4 43q0 70 -65 93q-31 8 -27 36q6 29 61 29h19q10 -2 31 -2h61q18 -2 45 -2h60l92 2q22 0 32 -6t8 -20t-16 -23
l-47 -33q-61 -41 -90 -168q-2 -10 -3 -36t-11 -60l-6 -33q-9 -52 -50 -162q-12 -63 74 -84q27 -6 127 -6h74q92 0 123 9l110 -15q37 -5 93 19t63 59l4 39q2 6 2 16l6 19l19 88l26 96q4 51 12 75q27 83 1 132q-2 8 -31 19t-24 36t46 25h45q14 0 29 2h29l31 -4q2 -2 10 -2
l51 4q41 6 51 6q92 0 88 -23q-4 -6 -80 -67q-43 -37 -69 -160q0 -6 -3 -24t-5 -36q-3 -18 -9 -38t-24 -148l-13 -41q-20 -100 -45 -166q0 -29 -12 -88l-76 -340q-25 -111 9 -155q52 -44 47 -62q-2 -18 -24 -18t-66 4h-197l-70 -2q-28 0 -24 16q4 8 8 11l70 55q35 24 64 136
q11 42 22 79l6 24q-4 41 0 43l20 95q4 8 9 26q28 100 14 131q-14 27 -115 31q-20 0 -35 2h-18l-101 -4l-51 4h-22l-37 -4h-23l-116 12q-113 0 -144 -75l-14 -70l-12 -51q0 -6 -5 -28t-16 -83l-4 -22q0 -2 -5 -12t-15 -50q-6 -49 -7 -51q15 -101 15 -102l19 -24q9 -11 33 -40
t19 -33q-2 -14 -22 -14h-184l-64 6l-55 -4q-29 -2 -65 -2z" />
    <glyph glyph-name="I" unicode="I" horiz-adv-x="569" 
d="M203 0q-33 0 -68 10q-16 10 -13 26t11 23l64 45q23 28 29 50t12 34q27 80 29 116q3 36 8 56t23 80q18 59 26 90l16 121l18 66q2 8 7 41l43 209q4 21 5 39t11 90l20 110q10 47 -24 81t-31 50q6 35 55 37l121 -6q66 8 106 8t59 -12t15 -39q-4 -12 -30 -31q-43 -27 -56 -53
q-37 -68 -81 -291q-10 -66 -31 -170l-12 -55q-21 -104 -35 -145t-20 -87t-15 -71q-8 -25 -14 -103l-21 -106l-6 -35q10 -27 22 -80l25 -30q12 -20 8 -35q-6 -33 -26 -33h-64q-27 -2 -51 -2h-2l-43 2h-90z" />
    <glyph glyph-name="J" unicode="J" horiz-adv-x="587" 
d="M557 1364h14q96 12 103 12q49 0 41 -45q-4 -8 -37 -35q-5 -3 -23 -53l-65 -285q-22 -59 -29 -112l-22 -121q-7 -14 -25 -113l-29 -137l-20 -84l-27 -141q-10 -39 -32 -164l-15 -86l-6 -23q-30 -150 -82 -223l-24 -39q-33 -61 -62 -99t-35 -38l-80 -63l-73 -62l-17 -4
q-51 0 15 82q2 2 8 13q6 10 15 24t18 31q44 50 79 208l31 138l23 55l12 49q2 6 53 178q27 191 51 303q2 23 17 97l20 86l6 39l29 106v33q4 49 33 186l4 25q2 10 8 22v68q0 49 -5 57t-38 31q-29 25 -22 49q2 19 9 25t105 18q51 -8 74 -8z" />
    <glyph glyph-name="K" unicode="K" horiz-adv-x="1236" 
d="M1168 6q-38 0 -103 8h-10q-20 -2 -109 -6l-45 -2q-53 0 -47 31q2 10 12 20l52 39l-44 84q-49 63 -83 123l-37 33q-45 57 -79 98t-46 57q-12 15 -21 25l-24 12l-6 4q-34 34 -41 33q-27 0 -37 -41l-15 -84q-12 -23 -34 -108q-2 -10 -2 -56l-11 -71l-2 -43q-2 -39 0 -51
q2 -13 18 -25t38 -30t18 -33q-3 -29 -55 -19h-52q-10 2 -24 2l-41 -2h-19q-47 0 -141 -4h-47q-27 0 -22 23q2 20 59 39t82 143q4 18 18 104q4 14 27 94l67 355q6 47 9 55l32 131l9 41q10 53 22 199q10 51 8 59t-59 60q-14 15 -9 39t46 24h14l86 -4l70 4h26l19 2h22
q17 -4 59 -5q87 -2 77 -40q-3 -15 -11 -23t-88 -43q-35 -16 -71 -124q-12 -35 -13 -39l-12 -80q-8 -23 -25 -70l-6 -24q-2 -8 2 -56q-4 -31 0 -61q6 -8 27 -8q23 0 64 29l21 15q50 35 114 91q92 59 237 178q96 84 109 135q6 25 -2 31l-31 33q-14 13 -9 39t40 26l190 -18
l72 4q78 0 72 -31q-6 -23 -130 -94l-81 -64q-135 -85 -154 -100q-20 -16 -46 -39t-99 -74l-84 -59q-51 -35 -140 -109q-39 -40 3 -97q26 -36 83 -129q57 -94 103 -146t108 -133l70 -93q7 -7 76 -100q32 -36 28 -60t-42 -24z" />
    <glyph glyph-name="L" unicode="L" horiz-adv-x="929" 
d="M424 156q0 -66 78 -66q27 0 73 8q70 0 84 2l23 2h53q19 0 77 54t95 108t59 54t11 -29l-25 -88l-10 -72l-10 -59q-6 -51 -45 -66q-29 -4 -78 -4h-51l-137 4l-46 -4h-20q-23 -2 -51 -2l-158 10l-119 -4l-104 -16q-83 0 -19 67q104 65 134 164q25 68 47 176l18 90
q1 10 17 88t30 114t19 56q6 61 18 113l45 215l6 51q2 8 15 78q-12 24 -19 45l-14 35l-2 2q-4 2 -9 5t-19 9q-33 14 -32 37q6 25 39 27l47 4l138 -4q37 2 112 6l58 2q24 0 34 -7t8 -23t-18 -21l-28 -14l-33 -35q-25 -23 -31 -31q-82 -139 -125 -438l-63 -285q-2 -12 -27 -88
q-8 -50 -12 -100t-5 -61l-26 -79q-2 -10 -2 -30z" />
    <glyph glyph-name="M" unicode="M" horiz-adv-x="1583" 
d="M1595 1374q49 0 86 -4h7l63 2q17 4 31 -16t10 -31q-4 -20 -18 -22l-41 -17q-39 -16 -78 -76q-14 -16 -44 -126t-55 -244l-12 -82q-27 -113 -41 -180l-51 -254q-24 -68 -19 -147t17 -87l45 -31q8 -10 6 -30q-8 -33 -35 -31l-43 2h-352q-39 0 -37 18q4 16 64 56t87 62
q26 22 42 65q2 29 43 172l16 65q29 89 31 127l12 74q4 92 30 175q25 83 31 111t-10 27q-12 0 -28 -24l-13 -23q-23 -43 -65 -102l-33 -35q-12 -12 -61 -102q-49 -72 -74 -111q-82 -166 -90 -176q-8 -11 -20 -29t-32 -43t-69 -121l-49 -73l-10 -15t-22 -35t-28 -43
q-12 -12 -23 -12t-19 22t-10 67q-4 46 -20 125t-44 214q-12 45 -38 127q-26 83 -28 149t-26 140t-27 76q-8 45 -19 45q-20 0 -24 -25l-16 -98l-29 -90l-19 -78q-6 -47 -55 -221l-10 -90l-19 -95q-10 -41 0 -126q4 -28 54 -76t47 -67q-2 -19 -55 -19l-84 4q-208 0 -234 9
t-20 34q2 8 2 10q0 9 59 37q90 43 133 192q12 80 70 295l61 232q12 47 15 141q2 10 15 82t24 128q12 56 -1 83q-2 10 -73 57q-31 24 -25 52t26 29t42 3h53l23 -2l49 -2q10 -2 24 -2l140 10q33 0 36 -28l-4 -60q-14 -82 -11 -180t62 -313q2 -31 12 -91t15 -110q1 -2 27 -72
t27 -91q1 -22 16 -21q18 0 88 75q23 27 117 177l104 170l135 247l49 78q2 6 97 170q15 27 43 35t77 8z" />
    <glyph glyph-name="N" unicode="N" horiz-adv-x="1374" 
d="M141 0q-96 0 -88 41q4 14 23 25q57 25 85 45q27 20 51 63t45 138q21 96 29 134t17 74l4 21q5 25 19 67t16 47l6 37l8 41q4 47 18 83t22 75q7 39 24 88l10 51q12 60 12 116t-12 74t-78 56q-28 16 -20 50t35 32l53 -2q8 2 53 6l107 4l131 6q29 2 44 -12t-1 -45
q-10 -29 -18 -61t75 -232l14 -33q23 -68 123 -264q30 -49 66 -99t48 -74t32 -36l47 -27q23 0 41 38t45 130l30 107l23 108q10 41 15 54t5 16l7 55l2 29q2 43 14 152q-4 61 -84 118q-20 14 -17 26t14 28q11 14 17 14l117 -12q56 16 70 16h61q53 0 70 -4q23 -10 19 -28
t-21 -27l-45 -23q-66 -35 -80 -88l-20 -80t-31 -121q-14 -96 -31 -166l-10 -49q-8 -29 -31 -104l-33 -154q-29 -80 -37 -174l-24 -114q-3 -12 -13 -64t-11 -66q-1 -13 -5 -49q-14 -63 -61 -63q-20 0 -21 6l-33 82q-4 4 -20 35q-45 53 -64 98t-43 82q-24 38 -34 55l-17 19
l-24 47l-88 155q-65 105 -101 181l-33 73q-20 37 -59 115l-51 102q-23 0 -35 -36l-49 -215q-35 -154 -55 -227t-25 -96q-6 -23 -10 -36l-8 -63q-8 -61 -11 -74l-4 -27q-6 -33 -12 -86q-6 -98 100 -118q31 -6 23 -43q-4 -23 -94 -23h-21l-141 2q-39 0 -51 -2h-15z" />
    <glyph glyph-name="O" unicode="O" horiz-adv-x="1517" 
d="M733 72l60 -4q88 0 155 43l107 61q23 16 61 61l2 5q55 55 154 188q18 33 33 82l38 172q5 10 13 64t16 104l-4 43q-4 82 -33 168q-18 47 -78 135q-12 23 -40 61q-6 8 -64 27q-35 16 -104 18l-64 11q-39 -2 -84 -29l-88 -51q-49 -39 -121 -111q-8 -8 -69 -88l-39 -51
l-27 -43q-8 -12 -39 -64q-12 -25 -18 -60t-11 -53q-4 -17 -6 -30l-12 -61l-33 -131q-10 -45 8 -224q0 -10 46 -73q16 -43 24 -56l49 -41q51 -45 76 -57q33 -10 92 -16zM1152 1405q64 1 114 -19t82 -52q34 -32 77 -66q10 -12 44 -50t41 -48t16 -33l24 -62q28 -70 34 -81
t5 -66q14 -83 10 -102t-6 -29l-12 -82q0 -10 -20 -74l-17 -92q-4 -31 -21 -68t-77 -121l-45 -65l-105 -98q-37 -37 -141 -115q-193 -106 -410 -107q-131 0 -192 21q-213 63 -285 295q-54 181 -45 305l19 111q2 2 6 41q30 142 176 321q2 2 12 14t37 43t51 60q118 100 238 150
t140 54t102 9q84 6 148 6z" />
    <glyph glyph-name="P" unicode="P" horiz-adv-x="1021" 
d="M952 1022q0 12 11 84q4 27 -17 57q-61 74 -84 97q-19 10 -37 12h-49l-37 2q-39 2 -88 -60q-29 -35 -32 -53l-13 -78q-2 -9 -9 -37t-11 -47l-13 -57l-14 -49q-10 -18 -18 -74v-33q-7 -125 51 -110l70 10q57 4 71 6q59 23 131 103q20 16 31 47l27 65q14 37 30 64v51z
M1145 1022q0 -43 -8 -61l-7 -29q-27 -131 -149 -215q-96 -84 -147 -96l-43 -11q-43 -12 -78 -16h-43l-70 -6l-51 2q-29 4 -43 -31q-8 -8 -19 -51l-34 -121q-7 -81 -15 -119l-18 -67q-4 -25 -4 -37q0 -74 61 -121q27 -15 24 -31t-36 -16l-105 4l-71 2l-82 -6l-31 -2l-22 -2
q-88 -9 -76 33q4 16 20 24l45 27q37 20 78 114q70 170 88 317q6 50 15 73l12 36l31 166q14 68 22 138q7 38 17 76t22 131t-86 153q-31 18 -25 49q11 35 50 35q27 -6 39 -6l71 8l101 -10q6 -2 14 -2l96 18l29 -2l18 2l56 -2l73 -4q2 -2 47 -12q158 -12 222 -240
q12 -49 12 -92z" />
    <glyph glyph-name="Q" unicode="Q" horiz-adv-x="1527" 
d="M1071 1298h-59q-55 0 -64 -2q-45 6 -233 -137q-25 -18 -119 -129q-12 -23 -43 -74q-43 -84 -96 -227l-41 -158q-18 -78 8 -170q0 -6 12 -39q23 -90 99 -169q73 -53 141 -84l61 -21l45 -14l21 -2h37q10 0 25 4t55 12t61 21q172 100 205 174q92 135 123 223q71 202 71 366
q2 10 2 35q0 82 -42 171t-107 161q-20 20 -43 29l-33 8q-15 4 -37 13t-49 9zM967 1407q49 0 141 -10q70 0 100 -2q111 -39 156 -54q22 -7 53 -54q13 -15 17 -19t43 -60l20 -30q69 -88 84 -156l10 -55q27 -127 11 -209q-33 -154 -62 -221l-16 -39q0 -16 -54 -88l-20 -27
q-16 -25 -39 -55l-65 -82l-19 -15l-20 -18l-17 -8q-96 -78 -96 -84q-2 -19 23 -19t108 54q20 14 53 14h60l14 -2h10q8 2 25 2q43 0 31 -57q-7 -21 -20 -57t-13 -40q-29 -35 -109 -30q-24 -6 -63 4l-72 -6h-24q-14 2 -27 2l-105 -11q-31 1 -53 9t-31 8l-61 -17q-6 0 -10 -2
l-80 11l-55 -11l-52 -4l-77 -8q-42 0 -203 86q-51 33 -105 89t-69 104q-55 143 -68 186q-12 43 -8 98l8 78q2 14 5 39t11 63q7 38 58 179q0 6 43 69q47 96 59 113q57 82 178 176q39 33 62 43l55 27q35 23 131 73q95 23 144 23z" />
    <glyph glyph-name="R" unicode="R" horiz-adv-x="1030" 
d="M616 725h68q29 0 74 25q129 72 164 163l22 58q6 35 6 78q-23 124 -49 149q-29 53 -39 62q-31 25 -69 24q-2 0 -47 -6t-58 -12q-24 -16 -82 -142l-8 -63l-18 -78q2 -12 -7 -45l-6 -29q-8 -47 -14 -60t-6 -18l-4 -51q-2 -41 7 -48t66 -7zM123 0q-41 0 -31 37q2 16 43 47
t49 37q40 41 52 63t20 60l41 178q14 59 31 125q16 106 30 164l19 82q4 23 11 59t9 49l21 98l14 103q4 25 4 69t-2 76q-2 12 -30 38t-25 38q10 41 59 41h60q16 0 58 2t81 -4l53 -4l90 8q99 0 226 -37q88 -76 106 -123t21 -92l8 -35q25 -96 -72 -239q-18 -29 -68 -80
q-22 -13 -78 -42q-56 -30 -63 -61q8 -8 45 -59q4 -12 7 -76q2 -64 10 -93q8 -30 8 -67l-2 -53q-17 -129 30 -145q13 0 21 -2t15 -3q8 -1 12 -3t10 -4t9 -4t7 -7q4 -4 4 -8t3 -9q3 -4 -2 -20t-19 -28t-104 -50t-114 -38q-25 0 -42 22l-19 160q2 10 2 66v77l4 103l-2 49
q-2 67 -16 101t-61 65q-27 20 -67 20q-39 0 -65 -20t-30 -43l-15 -76q-2 -5 -15 -50q-13 -46 -23 -79l-21 -68q-12 -74 -12 -184q6 -27 31 -39q70 -37 63 -63q-4 -25 -31 -28t-65 -1h-107l-63 8l-8 2q-4 0 -52 -10h-63z" />
    <glyph glyph-name="S" unicode="S" horiz-adv-x="1071" 
d="M211 432q16 0 18 -14l17 -117l8 -25q0 -8 18 -63l43 -43l29 -35q20 -27 59 -49q25 -25 41 -31t35 -12l64 8q74 5 98 13q23 8 77 54t63 57t46 56q45 66 45 140q0 139 -153 194l-62 31l-133 39l-32 20q-57 37 -86 58q-29 39 -46 63q-53 78 -57 135l6 39q4 20 7 43t6 33
q2 10 6 34t45 83q63 96 196 178l47 29l33 14q91 41 189 41t132 -2t126 -41q20 -2 51 -31q16 -27 20 -100q2 -125 -2 -129l-4 -19l-2 -43q-3 -20 -25 -20t-32 12t-21 74q-6 20 -32 53l-43 35l-21 20l-16 17q-25 31 -56 67q-21 18 -47 18t-84 -7t-80 -15q-20 -8 -55 -41
l-74 -69q-46 -58 -55 -109q-27 -129 92 -205q25 -16 76 -26l21 -4q61 -16 74 -20t67 -38q74 -33 106 -69q74 -80 82 -113q4 -12 16 -53t23 -70q-4 -66 -16 -131l-8 -47q-12 -76 -109 -166q-144 -129 -266 -162q-55 -12 -84 -10l-117 6h-53l-33 2l-65 17q-10 2 -52 9t-75 13
q-78 25 -74 78l2 53q3 75 22 160l5 29q20 104 59 104z" />
    <glyph glyph-name="T" unicode="T" horiz-adv-x="1058" 
d="M651 160q0 -80 78 -103q4 -2 11 -19q20 -47 -42 -46h-32q-61 0 -127 8h-4l-97 -10l-84 8l-57 -8q-22 0 -18 16q2 18 32 39q59 27 72 35q75 38 111 203l53 262l22 100l11 43q10 35 30 125l4 23q0 27 19 106l35 154q2 10 2 47l-2 24q-2 39 -15 41h-35q-18 0 -38 8t-35 9
q-96 0 -154 -76q-4 -6 -45 -82q-23 -35 -57 -35q-20 0 -15 29l39 168q0 6 -2 8l13 127q5 13 23 9q17 -3 65 -15t106 -12l72 10l190 14l160 -24q45 -6 70 -5l96 11q8 0 40 3t54 5l57 14q41 10 55 10t22 -6q7 -6 5 -20q-10 -20 -26 -47l-13 -21q-43 -98 -108 -221
q-18 -23 -41 -22q-27 0 -20 53t-19 86q-16 14 -72 16l-79 17q-18 1 -36 -7t-48 -51q-35 -35 -35 -53l-11 -59l-4 -50l-6 -24l-6 -41q-15 -51 -33 -129l-39 -182l-12 -68q-10 -10 -39 -127l-12 -109l-25 -116q-4 -29 -4 -43z" />
    <glyph glyph-name="U" unicode="U" horiz-adv-x="1431" 
d="M322 571q0 4 5 29l9 45q41 206 74 262l8 119l14 43l6 29q10 57 11 88q0 82 -46 102q-31 14 -37 22t-4 19q6 25 56 29l49 2h22q7 -2 17 -2t24 2h99l127 4l78 2q29 0 42 -9q30 -21 -12 -63q-4 -4 -72 -26t-108 -78q-27 -44 -59 -207l-7 -45q0 -37 -26 -125l-4 -25
q-5 -26 -18 -61t-14 -71q-1 -37 -15 -95l-13 -63l-10 -37q-39 -139 -22 -189q33 -94 41 -109q9 -15 33 -29t52 -38t44 -24l96 14l100 -4q35 4 109 31q77 39 99 61t70 88t53 81t11 38t13 47l81 301l7 51l24 123l12 47q0 4 -2 6q7 62 2 87q-6 26 2 118q0 23 -8 37l-35 33
q-5 6 -28 51l-37 31q-29 23 -25 33q2 20 58 20l143 -12l64 4h90l55 2q18 0 26 -6t5 -21q-2 -23 -64 -69l-26 -15q-8 -2 -25 -10q-20 -12 -57 -70q-18 -31 -43 -165l-37 -193l-15 -45l-55 -231q-9 -71 -12 -104t-26 -81q-23 -49 -25 -58t-18 -38q-16 -28 -36 -67t-63 -76
q-121 -111 -197 -123q-37 -8 -55 -11l-180 -14q-74 0 -171 29t-133 48t-77 85q-5 11 -28 44q-47 71 -15 216l2 14l14 58l13 69v45z" />
    <glyph glyph-name="V" unicode="V" horiz-adv-x="1216" 
d="M585 -29q-17 0 -24 13q-2 28 -5 84t-21 131l-5 45l-18 227q0 20 -2 61t-47 242l-4 57q-16 230 -99 418q-12 13 -23 25t-27 28t-13 37q10 37 57 39l58 -6q74 -8 123 -8t112 8l37 -4q34 6 58 6q56 0 51 -33q-2 -12 -45 -38q-104 -66 -107 -99l-4 -26q-4 -25 -8 -60l-6 -43
q2 -23 8 -67l10 -93l16 -63l7 -55q20 -94 24 -125l-4 -76q0 -23 8 -57l15 -70l10 -51q16 -59 22 -60q14 0 54 68q21 42 51 86q27 59 61 125l51 94q8 16 58 80l28 51l48 68l32 59l31 49l16 45l23 45q8 24 37 82q4 18 -41 64t-40 72q5 27 36 26l143 -14l129 12q41 0 31 -41
q-3 -19 -15 -31t-45 -23t-63 -50q-10 -23 -72 -115l-69 -102l-62 -109q-31 -45 -75 -125t-87 -151l-34 -56q-11 -18 -29 -47t-47 -76t-51 -84l-109 -188q-66 -117 -102 -172q-25 -29 -42 -29z" />
    <glyph glyph-name="W" unicode="W" horiz-adv-x="1677" 
d="M731 342q27 0 72 92q16 25 88 146q45 84 72 137q14 55 -33 211q-12 39 -16 89q-10 145 -46 245q-2 6 -45 32q-12 6 -6 39q10 47 62 43l137 -8h117q39 0 31 -41t-17 -43l-49 -29q-12 -9 -18 -33t16 -122q10 -41 45 -41q12 0 30 12q4 4 15 23l2 8q20 35 51 119q4 25 -8 45
q-2 8 -37 18q-12 2 -8 23q12 66 57 65h27q12 -2 26 -2h52q35 0 57 2h49q55 0 47 -43q-7 -33 -84 -78q-50 -32 -149 -166q-12 -18 -51 -104q-8 -14 -41 -61q-12 -23 -13 -62q6 -29 23 -262q2 -8 22 -127l-2 -33q-2 -94 19 -94q30 0 129 211l41 82q6 12 24 50l33 66t51 74
q16 23 58 107l51 108l39 93q4 23 -25 92q-2 14 -16 59l-27 21q-4 8 -1 25q2 18 18 32t28 12q106 -12 160 -12t61 2h49q59 0 50 -43q-2 -14 -17 -25l-59 -32q-39 -23 -78 -83t-59 -93q-20 -34 -37 -58q-23 -49 -152 -293q-138 -233 -303 -571q-23 -51 -49 -115
q-27 -82 -68 -82q-18 -1 -24 11t-17 75l-10 70l-8 74l-18 59l-5 39l-16 43l-4 68l-33 180q-14 0 -45 -45q-4 -9 -20 -36t-25 -42l-41 -68l-80 -166q-109 -176 -116 -198q-20 -55 -48 -56q-10 0 -25 23t-13 35l-7 53l-10 51l-14 123l-25 127l-6 70l-10 37l-10 102l-17 86
l-16 125l-14 92l-7 66q-4 41 -12 110l-8 25q-12 47 -45 139q-6 6 -46 36t-34 64q10 37 51 37l178 -8q25 0 35 2l31 4q127 0 137 -8q27 -12 19 -47t-15 -41l-43 -39q-43 -39 -56 -126t-6 -157t44 -210l8 -105l16 -117l2 -80l13 -86q6 -18 20 -18z" />
    <glyph glyph-name="X" unicode="X" horiz-adv-x="1165" 
d="M45 2q-41 0 -31 37q2 11 16 25t72 34q23 8 64 50t47 49l55 53q14 12 60 61q44 62 123 148q8 10 23 33q14 22 20 28t30 34t45 51q21 24 28 60t2 50q-5 13 -17 33t-17 40l-12 80q-2 27 -27 68l-26 86q-16 40 -32 100t-30 84q-18 12 -37 27q-20 27 -61 78q-4 16 -2 22
q10 31 63 29l127 4q23 0 43 -2l47 -4l33 -4q41 -6 129 -10q18 0 10 -35t-20 -51l-55 -46q-45 -45 -35 -114q0 -2 4 -16l12 -44q8 -29 19 -59l4 -35q17 -56 31 -72t38 -16t44 20q22 20 61 61q39 40 70 71l26 26q16 20 54 60t54 58q15 20 25 56t-12 60q-10 6 -51 12
q-23 4 -17 33q10 35 43 35l84 -2q2 0 30 6t71 6l33 -4q61 0 87 -2q53 -4 46 -41q-2 -18 -29 -31q-2 -2 -47 -18q-94 -20 -270 -232q-142 -167 -201 -209q-55 -51 -57 -73t-1 -43l27 -97q12 -29 27 -139q0 -2 24 -57l35 -84l14 -39q18 -76 56 -113t65 -76q45 -55 41 -69
q-6 -35 -35 -31l-43 2l-28 -2h-105l-59 4q-8 0 -14 -2h-19l-121 16q-51 4 -43 33q2 12 19 29q25 16 67 43q23 21 27 69t-12 82l-27 62l-8 33q-2 41 -23 84l-34 75q-7 35 -84 -43l-25 -22l-47 -53q-78 -98 -118 -138q-89 -90 -19 -192q50 -72 6 -82h-78l-98 14l-9 -2
q-8 0 -32 -2t-54 -4l-26 -2q-10 -2 -33 -2z" />
    <glyph glyph-name="Y" unicode="Y" horiz-adv-x="1161" 
d="M598 0q-39 0 -55 -4h-8l-60 4l-26 -2h-48q-45 0 -43 18t19 25l49 20q31 16 72 70q63 65 63 119l31 121q13 60 33 108l14 111q8 49 10 78q-3 18 -23 66t-51 140q-55 93 -63 120q-8 26 -39 100t-37 80l-33 38l-28 41l-25 27q-45 35 -53 45t12 31q27 2 82 6l70 6q16 0 57 -8
l78 6l45 -4q2 -2 54 -2t46 -33q-4 -12 -20 -27l-39 -34q-25 -24 -29 -48t41 -124q18 -51 64 -113q6 -16 20 -51l21 -45q14 -57 26 -58q59 0 189 189q28 40 48 60l52 52q57 59 29 123q1 5 -15 23t-28 28t-8 25q6 33 65 33h21q14 0 39 -2l22 -2l72 8q31 0 83 -8t46 -37
q-4 -17 -16 -27t-59 -32q-48 -22 -161 -125q-16 -14 -67 -88l-201 -226q-44 -39 -64 -75t-34 -109l-29 -133q-14 -49 -18 -58q0 -25 -7 -67l-39 -158q-22 -91 43 -164q29 -29 26 -45t-19 -14l-45 2q-23 -4 -43 -2l-97 2h-12z" />
    <glyph glyph-name="Z" unicode="Z" 
d="M973 1366q49 0 76 -6h8q43 4 78 4h36q66 0 56 -43q-6 -33 -86 -129q-81 -96 -91 -112q-131 -205 -264 -386l-41 -51l-38 -63q-8 -14 -64 -93q-20 -25 -70 -73l-41 -58l-79 -127l-17 -18q-18 -29 -24 -59t4 -43q24 -23 152 -23t206 25q31 8 45 22q19 29 45 49q25 21 28 24
t6 7t5 6t6 7t6 12q2 8 4 10q1 2 3 10q11 45 45 45q33 0 24 -45q-2 -12 -12 -45l-8 -43l-15 -41q-14 -49 -30 -109q-6 -12 -15 -20l-53 4q-2 2 -26 -1t-48 -3q-22 0 -38 -1t-31 -3t-71 1t-92 3t-114 -6h-35l-22 -2q-10 4 -41 6l-39 6q-18 8 -100 8l-92 -12q-43 0 -33 35
q8 53 130 196q34 41 52 64q18 18 74 90l18 25l29 34l14 21q6 6 37 47q32 40 52 64t48 65q37 47 129 203l52 76l98 112q103 119 115 169t-17 61l-51 4l-74 4h-49q-12 4 -39 4q-94 0 -194 -47q-43 -23 -88 -105q-32 -53 -59 -23q-7 9 -3 17l15 39l8 51q8 24 19 54t7 34
q2 6 6 36q6 46 33 46l80 -16l96 12q12 0 58 -9t77 -9q32 0 91 8z" />
    <glyph glyph-name="bracketleft" unicode="[" horiz-adv-x="606" 
d="M687 1401q11 0 46 8l45 2l43 4q41 0 39 -39q-4 -35 -26 -35l-58 2q-4 0 -6 -2q-61 -1 -93 -23t-64 -92t-44 -126l-14 -101l-33 -114l-20 -107l-17 -71q-19 -88 -24 -134l-25 -79q-8 -68 -14 -113q-28 -64 -32 -107q-5 -43 -9 -65l-12 -55q1 -44 -9 -114t18 -92t38 -22h45
q72 0 61 -43q-6 -29 -35 -24l-47 4l-47 -8q-5 0 -19 5t-42 5l-129 -6q-51 0 -61 22t-3 74q11 41 31 100t33 107q2 43 12 90l2 4q5 20 13 42l8 26q10 74 14 112q10 44 22 76t11 39l30 160q1 69 23 137t41 176l10 57q4 16 6 47l6 27q12 51 35 103t35 102q12 49 86 49l55 -4
l35 2q29 -6 40 -6z" />
    <glyph glyph-name="backslash" unicode="\" horiz-adv-x="876" 
d="M372 1430q34 0 46 -12t23 -48t19 -68t29 -90q6 -27 15 -106l24 -88l4 -37q51 -116 69 -199q17 -82 28 -102l8 -55q6 -16 47 -123q2 -14 27 -111l32 -110l11 -60q18 -53 34 -78l9 -49l10 -35q8 -29 20 -65q30 -55 -39 -53q-10 0 -17 3t-12 5t-10 9t-11 15t-7 26l-6 32
q0 6 -49 104l-4 49q-27 46 -33 92t-8 56l-21 28l-14 41q-18 49 -16 99q-25 50 -52 186q-24 62 -48 152t-64 200q-10 31 -17 101q-12 43 -26 88q-41 170 -41 172q6 31 40 31z" />
    <glyph glyph-name="bracketright" unicode="]" horiz-adv-x="606" 
d="M66 -70q6 0 26 -4l35 4q35 4 51 9q39 14 66 63q55 107 55 150q11 92 33 151q22 61 26 99t14 72q28 107 56 290l18 96q33 90 36 113t16 74l14 77l-2 45l16 64q2 8 -4 63q-6 18 -39 37q-10 8 -26 8h-33q-76 0 -68 43q6 29 31 27l47 -4q43 11 71 5q27 -7 48 -7h14q53 6 91 6
t59 -4q35 -16 21 -86t-42 -168t-43 -162l-10 -51l-10 -86q0 -10 -7 -45t-14 -43l-22 -86q-4 -18 -12 -76l-11 -74l-39 -143q-2 -10 -8 -32t-8 -31l-8 -27l-6 -45l-9 -31l-10 -71l-24 -109q-27 -63 -41 -92q-10 -55 -23 -69t-76 -21l-125 10l-51 -10l-92 -4q-41 -1 -31 37
t50 38z" />
    <glyph glyph-name="asciicircum" unicode="^" 
d="M1198 586h-76l-282 641l-564 -641h-198l743 848h13z" />
    <glyph glyph-name="underscore" unicode="_" 
d="M-35 -176h1022l-18 -86h-1022z" />
    <glyph glyph-name="grave" unicode="`" 
d="M592 1063q22 0 43 -14l31 -41q16 -23 32 -45l43 -43q27 -26 24 -50t-26 -24q-12 0 -65 26l-105 33q-29 8 -42 15q-34 16 -28 51q7 35 39 63t54 29z" />
    <glyph glyph-name="a" unicode="a" horiz-adv-x="684" 
d="M356 92q66 0 97 105l39 122l36 224q4 25 -14 67t-41 45h-27q-30 -4 -67 -37l-66 -133q-24 -53 -63 -295q-10 -42 22 -70t84 -28zM514 -12q-12 0 -39 10q-25 24 -40 32q-6 -5 -85 -24t-110 -18q-92 0 -144 63q-12 16 -10 47v21q0 20 2 28v7l10 32q6 16 39 134t41 143
q71 200 141 233q20 14 72 29l29 12q43 16 57 17q72 0 113 -16t74 -89q16 -35 4 -86q0 -16 -9 -37l-59 -264q-8 -42 -9 -62t13 -48t31 -33l29 -13q4 -4 2 -12t-53 -57t-99 -49z" />
    <glyph glyph-name="b" unicode="b" horiz-adv-x="864" 
d="M733 409q0 144 -71 173q-16 10 -66 24l-47 4q-39 4 -41 6q-35 0 -63 -28t-35 -70l-11 -49q-3 -13 -13 -51q-11 -38 -14 -56q-4 -18 -14 -73t-5 -101t55 -108q23 -16 26 -17l29 -2l47 -4q82 0 136 80q87 128 87 272zM666 748q61 0 127 -66q102 -102 102 -207q0 -20 -2 -31
l-21 -139q-23 -129 -163 -244q-100 -78 -250 -77q-29 0 -72 26t-39 29q-6 -3 -34 -21t-38 -18l-71 2q-23 0 -35 -2h-37q-86 0 -16 58q47 38 56 57t17 59l23 125q3 23 27 109t27 101q3 16 17 102t29 148q16 63 19 68q16 79 22 153t11 130q-2 51 -17 47q0 2 -28 16t-21 44
q6 20 81 47t142 75q20 14 47 15q35 0 27 -39q0 -9 -24 -59t-35 -99l-19 -96q-10 -27 -26 -123q-19 -119 -32 -179q-14 -60 3 -63q20 0 60 24t52 25l25 3h66z" />
    <glyph glyph-name="c" unicode="c" horiz-adv-x="694" 
d="M479 72q61 0 111 22t60 22q9 0 5 -10t-30 -28q-139 -90 -164 -90q-127 0 -170 20t-87 63t-69 134q0 62 6 190q27 127 146 239t236 116q116 4 145 -2q78 -12 104 -68q29 -69 -19 -112q-22 -19 -44 -19q-55 0 -105 80q-4 8 -8 13t-7 9t-8 7q-5 2 -9 6t-11 5q-8 1 -11 2
t-14 1l-35 2h-22q-43 -4 -92 -58t-78 -178q0 -6 -4 -35l-12 -53q0 -2 2 -9t5 -19t10 -42t12 -44q24 -100 68 -134t63 -30h26z" />
    <glyph glyph-name="d" unicode="d" horiz-adv-x="829" 
d="M545 590q-152 0 -228 -111q-31 -43 -63 -192q-12 -57 22 -137q25 -58 101 -58t135 55t74 132l18 96l17 51l4 59q6 68 6 70q-25 35 -86 35zM956 1348q43 0 33 -37q-6 -22 -30 -84q-23 -63 -42 -117t-38 -190q-10 -41 -19 -72l-147 -670q-4 -31 -2 -41l12 -28l8 -37
q14 -33 12 -47q-10 -29 -57 -29l-45 4h-53q-41 0 -49 8l-13 35q0 2 -6 2t-51 -21t-59 -22l-37 -2l-47 -6q-25 0 -68 15t-74 47t-52 110t-9 145q53 238 170 336q61 51 182 80l74 16q57 0 86 -43q16 -23 18 -22q27 0 27 78l31 102q2 8 12 43t16 60l13 83l14 64q6 23 -10 51
q0 4 -43 31q-8 4 -4 26t25 33q21 12 40 23q37 10 109 47q41 29 73 29z" />
    <glyph glyph-name="e" unicode="e" horiz-adv-x="671" 
d="M476 678q-54 0 -95 -35t-45 -61t10 -33q35 -12 186 -12q53 0 60 30q10 47 -26 79t-90 32zM633 182q14 0 10 -15t-14 -28q-19 -51 -56 -80q-10 -10 -32 -22q-82 -51 -197 -51q-25 0 -74 16q-43 18 -47 23q-35 27 -96 180q-10 91 -3 115q60 203 130 270q18 23 88 92
q94 70 182 70q119 0 195 -111q35 -49 24 -96q-16 -72 -79 -72l-52 4l-114 -6h-31l-113 8q-41 0 -66 -19q-24 -18 -30 -38t-11 -70t1 -74t52 -70t75 -57t65 -11t96 12q60 14 77 22t20 8z" />
    <glyph glyph-name="f" unicode="f" horiz-adv-x="468" 
d="M193 729q0 25 58 43t62 41l21 102q4 8 53 123q78 190 197 273q59 41 112 41q90 0 90 -72q0 -94 -69 -94q-49 0 -62 33q-9 33 -35 33t-49 -38q1 -4 -33 -84t-50 -178q-16 -96 -15 -131q0 -13 55 -33t56 -45q0 -25 -39 -30q-72 0 -87 -19q-8 -9 -27 -71t-30 -95
q-4 -26 -12 -66t-9 -48t-44 -172l-143 -551q-4 -14 -23 -84q-14 -37 -64 -103q-45 -66 -79 -86q-70 -51 -160 -51t-90 72q0 94 69 94q49 0 62 -33q8 -33 33 -32q37 0 57 51q4 14 35 82q2 8 9 38t13 50l148 579q34 119 45 191t36 148l-1 -9q13 60 14 89v5q-10 16 -27 23
l-63 -2q-14 0 -14 16zM284 607l13 80q0 -22 -13 -80z" />
    <glyph glyph-name="g" unicode="g" horiz-adv-x="792" 
d="M504 637q-47 0 -103 -37l-4 -6q-82 -82 -96 -127q-14 -74 -8 -100q-4 -6 12 -48q33 -106 86 -106q127 0 178 57q6 6 36 48q63 88 42 229q-4 33 -31 53q-99 37 -112 37zM367 -158q-11 0 -66 11q-32 -8 -96 -64q-72 -53 -92 -143q-39 -186 159 -187q158 0 273 105
q29 29 41 86q23 90 -97 170l-18 12q-22 16 -51 16zM283 135q-41 0 -46 -27q-5 -28 11 -40t55 -17l109 -14l106 2q8 -2 43 -27q113 -41 139 -147q4 -35 -16 -107l-10 -32l-4 -25l-11 -35q-20 -74 -43 -110q-45 -68 -124 -107q-23 -10 -31 -16q-119 -70 -211 -70
q-180 0 -246 111q-41 76 -27 145q23 95 43 147t78 89q57 37 60 49q-23 80 -23 140t23 87l49 57q-25 33 -31 68q-25 78 6 193q35 115 91 173q55 58 93 76t68 24t52 18q24 10 78 10t83 -5q33 -16 53 -28t37 -12l31 20q30 23 52 23t38 -22q38 -53 -29 -109q-16 -13 -26 -21
t-17 -76l-6 -55l-12 -62q-12 -53 -25 -81q-31 -72 -125 -129q-6 -6 -79 -46q-16 -5 -74 -12q-58 -6 -59 -6h-19l-58 2q-30 0 -42 4h-4z" />
    <glyph glyph-name="h" unicode="h" horiz-adv-x="835" 
d="M352 -4q-25 0 -82 6q-45 0 -71 2l-27 2q-53 -6 -82 -6t-27 16q1 10 7 14t40 22t42 34t14 35q35 66 35 108q4 12 12 68l20 94l9 21l18 82l21 63l4 21q10 49 18 147l8 23q0 2 23 102l16 63l12 74q4 16 19 60q-4 49 -16 90l-41 16q-18 2 -17 27q7 18 59 44t122 80t83 54
q11 0 27 -12t14 -23q-51 -143 -55 -166l-18 -92q-3 -17 -9 -45t-10 -43l-16 -92q0 -2 -3 -8q-3 -7 -6 -15t-11 -32t-25 -80q-6 -27 12 -27q6 1 38 19q31 18 95 18t115 -35t63 -59t17 -91q0 -47 -11 -133l-8 -69l-16 -64l-12 -65l-15 -66q-10 -56 -12 -80q-1 -24 23 -51
t22 -40t-43 -13l-127 16q-12 0 -16 -2l-62 -8q-18 0 -16 17t26 45t48 71q12 37 21 76t18 65t15 56q6 28 9 93q2 65 5 78t6 29t8 40t-17 67q-23 43 -65 43t-80 -21q-63 -33 -76 -106l-14 -100l-17 -84q-20 -53 -22 -72t-6 -80l-21 -76q-15 -46 21 -92q53 -53 -13 -53z" />
    <glyph glyph-name="i" unicode="i" horiz-adv-x="434" 
d="M424 1008q40 0 66 -27q55 -56 -27 -129q-37 -37 -63 -37t-66 29q-23 8 -19 37l4 43q6 36 36 60t69 24zM428 745q31 0 21 -43q0 -4 -10 -29t-13 -59l-51 -196l-4 -53l-33 -156l-4 -31q-4 -72 12 -104t12 -51q-6 -27 -67 -27l-94 4h-15l-69 -4q-49 9 34 88q23 23 19 27
l14 61l21 59l32 144q0 12 9 69l2 5q3 15 10 34l8 23q2 10 9 32t-3 37q-18 18 -39 37q-12 39 43 62q30 10 84 40t72 31z" />
    <glyph glyph-name="j" unicode="j" horiz-adv-x="450" 
d="M420 999q45 0 64 -28q48 -71 -50 -140q-34 -23 -54 -23t-46 20q-26 18 -29 32q2 6 2 31l2 33q3 8 21 32t32 34q14 9 58 9zM238 541q0 10 -27 43q-6 6 0 32t29 35q2 0 8 3t16 6t23 8l55 30q8 2 64 35t59 33q29 0 19 -44t-60 -108l-4 -8l-8 -80q-23 -51 -41 -188l-6 -33
q-60 -200 -60 -262l-76 -248q-4 -10 -26 -69q-25 -49 -131 -156q-45 -39 -68 -39q-18 0 -14 23q4 22 30 58t41 77l13 22q14 45 35 90l4 41l14 47q4 45 6 51t17 54l65 291l21 129q0 29 2 75v52z" />
    <glyph glyph-name="k" unicode="k" horiz-adv-x="843" 
d="M119 0h-45q-23 0 -23 14q4 12 12 18t56 38q23 16 35 49l30 82l17 43q16 39 30 116l7 39l10 39q0 5 8 45l6 29q4 20 19 80l14 53q0 8 14 78l25 115l12 49q10 35 26 132t-10 128q-43 20 -38 39q4 14 36 22t46 14q16 6 71 28q55 21 89 51t50 30q16 -1 12 -25t-46 -84
q-43 -60 -66 -190q0 -8 -18 -94l-9 -39q0 -3 -17 -81t-23 -132t-31 -110t-25 -82q1 -26 17 -25q16 0 32 12l39 29q26 10 54 29q29 25 43 39q66 39 120 94q10 27 39 67q16 16 27 17l53 -2l60 4q80 0 73 -25q-4 -16 -49 -37l-98 -57l-70 -35q-148 -80 -155 -119q-2 -14 45 -82
q8 -12 28 -81q8 -23 45 -84q31 -76 41 -96t49 -56q29 -23 19 -57q-6 -31 -37 -29h-63l-93 -2l-61 -2q-23 2 -32 7t-6 16t27 35t24 27t-9 23q-8 20 -12 82q0 10 -21 37q0 34 -45 74q-10 8 -20 25q-31 76 -56 75q-18 0 -29 -49t-26 -80l-12 -88q0 -4 -10 -37q-8 -45 17 -84
t23 -50t-32 -11l-78 12l-59 -8h-29q-16 -2 -47 -2z" />
    <glyph glyph-name="l" unicode="l" horiz-adv-x="436" 
d="M89 -2q-56 0 -15 41l45 41l24 26q25 32 33 50t17 59l32 104l13 87l14 67q4 29 4 31l41 141q2 23 2 41l16 78q0 5 8 34q8 28 23 90q14 62 14 73l-6 55q4 31 0 53q-10 25 -16 29l-41 24q-4 2 -2 29q8 29 86 63q20 10 55 37l53 29q72 37 80 45q19 0 13 -26t-15 -42l-10 -63
q0 -6 -10 -29l-17 -55l-16 -72l-18 -106l-56 -211q-4 -33 -30 -180l-29 -154q-16 -49 -19 -57v-51q-8 -111 -12 -127t21 -74l22 -25q2 -8 0 -26q-6 -23 -35 -27h-221q-31 -2 -48 -2z" />
    <glyph glyph-name="m" unicode="m" horiz-adv-x="1318" 
d="M1217 -2q-73 0 -113 8l-131 -6q-10 0 -13 7q-9 20 29 65q47 46 59 78t25 75l23 66l8 39q2 20 10 65l8 37q8 41 19 76q32 168 -97 168q-43 0 -89 -27t-68 -63q-23 -53 -30 -71q-7 -19 -18 -44t-22 -63l-8 -64q-23 -120 -23 -146t-7 -61t73 -106q6 -4 4 -13q-4 -18 -78 -18
l-45 4l-35 4h-6l-102 -8q-53 0 -47 25q2 14 44 98t54 135q0 18 7 61t14 61t14 41q6 23 16 73t-14 112t-96 62q-96 0 -158 -105q-16 -37 -23 -80t-32 -125l-7 -22l-8 -51l-18 -74q-2 -49 -2 -67t14 -66q37 -53 35 -58q-3 -16 -25 -16t-69 6h-15q-25 0 -38 -2h-13q-16 0 -24 2
h-17l-84 -6q-24 0 -18 20t12 23l51 43q20 14 37 47l13 60q2 8 13 43t15 67l25 139q0 4 3 10t6 19q3 11 7 23t8 23t6 19t3 9q8 45 -25 73t-10 46l67 34q2 2 101 60q14 6 22 6q20 0 21 -20q-2 -45 4 -46q108 54 239 54q92 0 131 -88q13 -18 19 -18t41 28q35 29 99 56
q64 26 71 30q6 4 55 4q123 0 193 -150q3 -62 -12 -111q-15 -51 -24 -105t-15 -84t-7 -45q-2 -15 -24 -101q-14 -70 61 -141q8 -6 6 -15q-2 -18 -75 -18z" />
    <glyph glyph-name="n" unicode="n" horiz-adv-x="817" 
d="M451 700q116 58 153 58t105 -19q66 -10 84 -57q6 -61 4 -117l-2 -26l-9 -39l-10 -62q-12 -45 -16 -61l-15 -86q-8 -47 -8 -82t3 -69t23 -65q19 -30 23 -38t7 -10q-6 -27 -52 -27h-26q-12 0 -53 4h-7q-16 -4 -57 -4h-18q-49 0 -76 2q-20 2 -18 20t26 36q22 20 45 61l25 41
l16 96q0 2 10 26t21 70q41 199 33 236q-16 86 -89 86q-55 0 -100 -35q-4 -8 -24 -39l-29 -45l-14 -59l-9 -23l-4 -22q-4 -4 -6 -17l-6 -24q-8 -35 -23 -66q-6 -59 -10 -84q-14 -43 -14 -57l-4 -47l-4 -37q0 -3 3 -19t5 -28q14 -23 30 -35q16 -13 14 -25q-4 -12 -26 -12
t-102 10l-55 4q-14 2 -46 -6t-52 -8q-44 0 -38 29q2 16 52 45q15 10 43 50q47 68 77 234l15 62q2 8 14 58t-6 75q-20 12 -66 45q-4 12 0 16q4 16 45 36t107 50q82 56 92 56t14 -6l-4 -45q4 -4 9 -5z" />
    <glyph glyph-name="o" unicode="o" horiz-adv-x="864" 
d="M518 666q-35 0 -67 -17q-66 -45 -109 -104q-33 -41 -49 -121l-21 -105l7 -55q6 -49 10 -90q14 -27 33 -39l47 -26q47 -35 57 -35q52 0 116 30t110 115t58 139t5 70l-10 57q-2 18 -21 97q-37 84 -166 84zM455 -12q-115 0 -185 51t-88 76q-61 78 -61 159q0 25 7 54
q8 29 22 97t32 93q94 137 238 191q103 39 181 40q79 1 93 -3t66 -29q52 -24 71 -62l21 -37q35 -63 35 -135q0 -139 -123 -321q-45 -61 -131 -115q-82 -47 -84 -47q-55 -12 -94 -12z" />
    <glyph glyph-name="p" unicode="p" horiz-adv-x="821" 
d="M709 423q0 198 -170 198q-78 0 -111 -52l-41 -123l-8 -51l-10 -35l-23 -114l-6 -41l-8 -41l10 -64q18 -35 100 -37l7 -2l43 -2q39 -2 90 45q127 121 127 319zM-10 -555q-23 0 -33 7q-24 17 17 45q40 28 46 38t33 57q16 74 35 136l23 84v8q0 6 10 60q10 53 14 75l4 22
l21 80l6 37q10 23 18 58l6 53l11 51q0 4 3 26t5 37l37 150l16 53q8 40 -26 56q-35 16 -30 40q5 25 116 76q63 57 65 60q41 35 80 34q31 0 22 -32q-2 -12 -18 -38t-16 -28v-4q18 4 60 35t102 31t127 -25t90 -73t26 -150q4 -26 -3 -58q-7 -30 -12 -58t-11 -58l-9 -54
q-11 -64 -79 -136t-148 -120q-23 -10 -48 -21t-77 -15l-41 -4l-113 22q-16 -4 -40 -86l-9 -27l-8 -71l-45 -199q-16 -66 35 -100q4 0 55 -27q10 -4 5 -24t-36 -21h-30q-14 2 -27 2l-96 -8l-86 6q-10 0 -25 -2h-22z" />
    <glyph glyph-name="q" unicode="q" horiz-adv-x="837" 
d="M270 285l-16 -80q2 -13 12 -23t17 -28q16 -45 71 -78q23 -12 58 -13q84 0 127 50q45 45 73 188q8 33 11 51l14 49l4 43q6 37 11 86t-48 68q-15 10 -31 12t-67 -10t-62 -18q-35 -16 -79 -74q-78 -94 -80 -117l-6 -43l-9 -45v-18zM133 256q0 22 17 80q0 78 6 96
q18 88 90 166q131 144 252 156l45 -6q43 -8 49 -11q65 -42 65 -12l2 66q1 10 21 21t40 11t35 -16t44 -55l39 -35q66 -55 60 -75t-13 -30q-8 -10 -58 -32q-20 -10 -34 -118t-39 -169v-12q-4 -12 -4 -52l-7 -26q-18 -51 -30 -105l-19 -78q-18 -47 -20 -72q-7 -70 -53 -243
l-7 -90l-4 -47q0 -10 22 -38t19 -46q-6 -35 -49 -35h-104q-8 0 -23 -2h-106q-58 0 -52 31q4 12 7 14l26 19l27 24l31 19q8 2 32 55t23 63q-2 10 8 54q9 44 21 64t14 30l2 61l6 37q0 32 5 60t-9 28q-41 -10 -59 -16q-19 -6 -71 -6t-100 18t-98 100t-49 154z" />
    <glyph glyph-name="r" unicode="r" horiz-adv-x="538" 
d="M592 770q92 0 92 -96q0 -68 -49 -107q-23 -16 -47 -16t-37 16q-14 16 -45 80q-4 4 -6 4q-41 0 -80 -86q-31 -60 -45 -121l-21 -94q-2 -27 -11 -49t-17 -82q-2 -43 -7 -55q-12 -59 36 -90t42 -56q-6 -24 -42 -24t-117 6h-15l-69 -2q-74 0 -68 29q4 16 10 20l49 39
q18 14 27 35q16 66 45 168l12 67q2 6 23 133q10 74 -10 95l-17 10l-16 8q-18 8 -14 30t34 36q9 7 50 26q41 20 73 40t62 30l12 -53q55 25 68 34l36 13q47 12 62 12z" />
    <glyph glyph-name="s" unicode="s" horiz-adv-x="628" 
d="M141 260q6 0 17 -22q14 -52 62 -96t83 -44h53q55 10 91 49t36 95t-63 90l-47 26q-7 12 -57 48t-76 59q-35 53 -23 113q31 147 197 188l71 2l47 2q16 0 54 -14l80 16q6 2 9 -2t4 -20t-5 -40t-17 -69l-8 -25q-14 -55 -31 -55q-24 0 -50 82t-80 82t-87 -45q-27 -34 -31 -62
t17 -60q20 -32 84 -50l35 -23q27 -12 41 -22q49 -49 65 -88t3 -103t-72 -145q-59 -80 -176 -113q-43 -14 -70 -14t-57 10l-37 25q-2 2 -12 2t-21 -10l-25 -27q-12 -4 -32 -4q-41 0 -33 33l14 65l4 27q-2 6 13 69l6 35q10 35 24 35z" />
    <glyph glyph-name="t" unicode="t" horiz-adv-x="505" 
d="M279 737q29 0 43 37q2 8 22 90q6 25 72 56t69 30q33 0 25 -32l-4 -13q-16 -27 -23 -43q-4 -76 -2 -112l49 4l15 -2q59 -10 51 -52q-10 -34 -26 -40t-83 -13q-45 -6 -55 -47q-7 -54 -15 -76q-10 -27 -41 -152q-30 -125 -30 -182q0 -56 25 -57l86 12q4 0 7 -16
q8 -45 -30 -76q-12 -8 -45 -24q-33 -27 -51 -34t-53 -7q-76 0 -105 49q-14 23 -10 37l25 108q3 61 7 73q5 13 12 31t13 30q6 14 15 81l12 62l4 41v22l10 27q14 41 19 61q8 39 -35 45q-68 7 -74 25t-4 27q10 34 45 36l6 -2l37 -2q4 -2 17 -2z" />
    <glyph glyph-name="u" unicode="u" horiz-adv-x="784" 
d="M496 -31q-18 0 -19 17l2 45q4 6 -6 6q-35 -13 -61 -31t-68 -18q-106 0 -156 129q-12 33 9 132t33 139t16 58t5 24t3 17q2 12 8 60q6 49 2 73t-36 54q-32 31 -31 45q1 20 25 20t28 -2l51 -10q73 10 93 10t35 -14q15 -13 12 -29t-33 -102l-72 -354l-14 -43q-7 -7 -7 -21
q-10 -49 17 -82q12 -18 30 -18t64 16q45 16 61 32t43 53q27 38 31 58l12 89q20 53 26 110t40 160q18 31 6 57l-31 80q20 12 27 12l45 -8l92 2q30 0 17 -61l-27 -123l-18 -74l-23 -115q-6 -35 -8 -45t-2 -18l-29 -104q-6 -14 13 -47t26 -50q0 -6 -20 -18l-60 -37
q-102 -74 -151 -74z" />
    <glyph glyph-name="v" unicode="v" horiz-adv-x="671" 
d="M334 -14q-18 0 -26 22q-9 22 -18 117q-9 96 -22 127q0 8 -14 89t-26 113t-18 88q-7 56 -12 82t-30 58q-19 36 1 59q7 8 15 7l84 -7q36 6 51 11q49 0 71 -10t19 -22q-3 -13 -22 -46t-18 -39l14 -88l8 -98q16 -76 27 -107l18 -45q8 0 65 84t85 164q42 81 26 112
q-6 43 -6 48q4 20 31 24l86 14l53 2q69 0 15 -73q-14 -14 -64 -56l-14 -16q-18 -23 -62 -90l-12 -31l-16 -26l-23 -45q-25 -42 -59 -106t-97 -175q-33 -49 -52 -91t-35 -48q-5 -2 -23 -2z" />
    <glyph glyph-name="w" unicode="w" horiz-adv-x="991" 
d="M717 608q20 0 26 31t-6 45q-20 18 -18 25q4 18 22 22l23 4q35 6 55 6q72 0 66 -26q-6 -12 -41 -47q-84 -106 -90 -140l-17 -90l-6 -28q-8 -14 10 -74q23 -55 27 -55q10 10 31 43q7 16 73 99t86 183q6 32 -9 64q-37 78 61 78q84 0 108 -8t17 -34q-6 -26 -39 -62t-68 -95
l-92 -164l-57 -86l-35 -59q-93 -187 -152 -240q-18 -20 -38 -20t-23 28q-4 28 -10 96t-19 111q0 66 -18 66q-17 -11 -89 -110q-73 -99 -91 -139t-42 -40q-25 0 -30 47q0 12 -6 34q-6 23 -14 70t-25 131l-27 136l-12 79q-4 11 -15 60q-6 11 -17 31t-23 61l-33 37q-4 8 -2 29
q8 39 67 38l101 -6h123q18 -4 26 -10t6 -17t-67 -65q-18 -8 -13 -49l13 -74q2 -6 -1 -58t31 -144q4 -12 6 -35t17 -23q16 0 61 60t56 96q2 12 -12 112t-29 111l-21 16q-18 16 -12 46q10 37 49 36l47 -4q16 0 21 2l43 4q8 0 18 -7t8 -13l-12 -29l10 -41q8 -45 23 -45z" />
    <glyph glyph-name="x" unicode="x" horiz-adv-x="692" 
d="M43 10q-16 0 -24 6q-17 15 20 52q4 2 11 7t37 25q29 20 51 38t138 130q60 60 64 84t2 33l-29 55l-26 82q-4 12 -31 58l-33 69q-2 10 -37 31q-23 16 -18 31q2 20 35 24l20 -2l31 2l33 -4l47 2l35 -2l55 2q60 -1 12 -63q-16 -22 -19 -32q-3 -11 14 -42t22 -45q2 -37 11 -37
t17 4l39 35l39 27l23 26q2 2 14 18t20 25q0 16 -4 58q6 29 43 26l52 -4l65 2q25 0 36 -6t8 -21t-17 -20l-43 -14q-20 -10 -47 -31l-103 -102q-8 -6 -22 -20t-60 -58q-16 -20 -18 -25l12 -74l12 -32l5 -27q27 -47 31 -61t36 -68l27 -45q57 -55 61 -67t0 -30q-4 -20 -24 -28
q-25 0 -37 -2h-64l-55 4q-6 0 -12 -2h-35q-78 0 -72 27q4 6 39 51q18 18 22 39t-26 93q-29 72 -49 71q-6 0 -41 -29l-31 -27q-109 -72 -79 -161q11 -33 7 -46q-2 -20 -38 -20l-107 12q-10 0 -12 -2h-33z" />
    <glyph glyph-name="y" unicode="y" horiz-adv-x="702" 
d="M451 262q25 0 49 49q2 5 6 11t10 18t12 20l43 76q67 98 88 168q4 16 -20 92v17q6 25 41 24l63 -4l58 2q56 1 50 -31q-3 -16 -56 -63l-17 -27q-44 -57 -70 -115t-54 -97l-99 -158l-55 -111l-35 -51q-33 -80 -131 -209l-47 -61q-37 -51 -66 -105q-61 -94 -76 -110
q-113 -137 -170 -146q-6 -2 -38 -2q-51 0 -43 45q6 25 28 41q14 14 78 31q45 12 152 186l69 111l23 45q33 63 41 99t8 79v39l-4 41q0 51 -2 94q-6 6 -27 111q-6 47 -13 121t-65 166q-19 35 -26 42q6 35 108 35l109 -12q47 -4 76 -6q29 -17 -15 -63q-24 -24 -26 -36v-108
q-17 -85 6 -133q18 -115 37 -115z" />
    <glyph glyph-name="z" unicode="z" horiz-adv-x="655" 
d="M396 657q-38 0 -52 -2t-68 -26q-16 -9 -36 -31t-29 -23q-12 0 -12 29q0 127 49 127l104 -2l54 2q16 2 42 -2t64 -8h27l180 2q35 0 26 -35q-2 -16 -36 -51q-45 -41 -47 -49l-66 -94l-37 -41l-121 -158q-10 -13 -44 -51q-33 -37 -72 -99q-29 -31 -33 -45q-4 -23 53 -22
q6 0 53 6h64q55 0 109 51t61 51q20 0 12 -45q0 -4 -6 -22t-10 -33l-7 -29q-8 -37 -18 -46t-45 -9l-78 4l-106 -6q-35 2 -103 6h-2q-10 -2 -16 -2l-35 -2q-6 0 -12 -2q-14 4 -75 5t-62 3q-16 8 -15 27q11 39 35 67t44 56q20 26 91 84l35 34q23 46 55 78l19 19q4 7 18 31
t27 42q49 46 79 92t54 80q5 19 -29 23q-45 16 -83 16z" />
    <glyph glyph-name="braceleft" unicode="{" horiz-adv-x="606" 
d="M461 -74q72 0 61 -43q-6 -29 -35 -24l-47 4l-43 -8h-12q-127 0 -186 82q-43 61 -31 104l33 115q8 40 19 76q12 36 16 56t6 25q29 147 2 217q-2 12 -35 48q-12 8 -7 30t46 49q70 45 100 162l25 101q2 45 9 92t21 151q21 102 97 169t178 71q29 0 55 8h45l43 4q45 0 37 -45
q-6 -29 -24 -29l-58 2q-2 0 -6 -2q-61 -1 -91 -23t-66 -96t-44 -117q-8 -44 -14 -99l-29 -109q-12 -53 -20 -86q-23 -59 -84 -127q-35 -35 -53 -43q-66 -19 -69 -31t11 -18t45 -14q46 -8 58 -76t8 -92l-8 -29l-8 -47l-17 -58q-2 -4 -3 -20t-5 -47q-12 -53 -13 -81t-6 -62
q-18 -139 56 -140h43z" />
    <glyph glyph-name="bar" unicode="|" 
d="M750 1366h106l-362 -1704h-107z" />
    <glyph glyph-name="braceright" unicode="}" horiz-adv-x="606" 
d="M487 1001q0 5 2 15q1 10 3 21t9 46t4 53t7 64q14 100 -18 127q-23 16 -37 16l-68 3l-20 -5q-25 0 -19 31t43 33l43 4l43 6l115 -16q53 -23 90 -73t23 -99l-33 -117l-6 -41q0 -2 -8 -23q-38 -102 -44 -217q-4 -81 54 -139q10 -10 6 -30t-14 -26q-10 -7 -35 -24
q-125 -76 -148 -471q2 -2 -4 -33q-23 -104 -97 -168t-179 -69q-27 0 -58 -8l-45 -2l-35 -2l-6 -2q-43 0 -41 30q10 37 47 43h37l58 4q39 2 59 35q70 82 64 99l12 47q2 8 6 26t8 29l8 31l11 67l24 105q31 131 109 213q35 35 51 41q68 23 70 37q2 8 -12 14t-46 12
q-45 8 -59 77t-4 91l16 78l14 55v12z" />
    <glyph glyph-name="asciitilde" unicode="~" horiz-adv-x="1366" 
d="M762 1374q-100 0 -215 -119l-25 19q168 199 324 199q55 0 166 -41t166 -41q110 -1 227 110l25 -16q-61 -80 -142 -131q-96 -66 -178 -66q-41 0 -161 43t-187 43z" />
    <glyph glyph-name="exclamdown" unicode="&#xa1;" horiz-adv-x="438" 
d="M403 813q35 0 70 -61q6 -16 -2 -47q-23 -96 -96 -97q-2 0 -39 16t-64 31q-12 23 -4 60q22 98 135 98zM61 -614q-61 0 -61 90q0 33 10 94q25 117 88 278l15 72l45 119q14 51 39 102l51 197l20 59v9q0 61 43 61q33 0 37 -29l-22 -112l-19 -166q-6 -39 -22 -162l4 -78
q1 -70 -13 -150l-34 -210q2 -33 -43 -115q-35 -59 -138 -59z" />
    <glyph glyph-name="cent" unicode="&#xa2;" horiz-adv-x="694" 
d="M548 991q-32 0 -81 -51t-65 -94q-32 -87 -31 -135l-9 -37q-2 -6 8 -38t17 -85q31 -109 49 -109q25 0 35 47l74 314q14 29 20 67l10 50q10 47 7 57q-2 14 -34 14zM672 1239q54 0 45 -22l-6 -25l-11 -39l-14 -37q-2 -2 10 -31q6 -14 29 -18q125 -33 125 -113q0 -34 -22 -62
t-52 -28q-72 0 -86 49q-8 20 -16 21q-29 0 -35 -27l-27 -147q-8 -18 -18 -58l-27 -135q-14 -27 -43 -92q-10 -53 6 -71t25 -17q68 1 108 23t52 22q27 0 -23 -39q-68 -49 -157 -90l-23 -4l-20 -6l-7 -74l-2 -10q0 -2 -5 -15t-9 -24l-10 -66q-1 -8 -21 -19t-34 -11t-18 12
t3 55v35q0 2 3 8t7 16t11 23l2 27q2 47 -2 54t-45 18q-98 45 -139 143q-5 12 -11 25q-6 14 -10 30t-1 74t5 119q29 129 131 224t156 107l92 21q33 8 47 139v13q7 22 37 22z" />
    <glyph glyph-name="sterling" unicode="&#xa3;" horiz-adv-x="1003" 
d="M262 268q-31 0 -42 -10t-38 -53q-28 -43 -30 -59t6 -27q35 -59 120 -59t97 59q8 37 -18 79t-45 56t-50 14zM301 649q-10 -10 -53 -10q-27 0 -19 37q8 51 70 51q31 0 78 -8q41 10 43 31q4 18 -14 55t-50 133l-10 41q-6 19 6 79t45 109q20 40 99 101l2 2q4 8 12 12
q53 49 70 55q4 4 34 15l31 14q37 18 96 18t78 -8l105 -41q125 -35 133 -43q4 -10 6 -61l-19 -113v-55l-12 -53q0 -85 -41 -84q-25 0 -26 20q-2 2 2 35q-2 12 -11 51q-2 25 -8 72q-2 10 -31 56t-51 66t-44 30t-54 29t-51 20q-65 -1 -133 -47t-81 -101t-1 -88q0 -2 3 -7t6 -12
q56 -131 114 -188q14 -10 22 -51l15 -27q23 -35 30 -45q20 -20 78 -20l4 2l31 2l49 -2l31 2q32 4 24 -42t-39 -42l-22 2l-55 -2h-43q-41 -12 -39 -94q0 -8 -2 -13l-21 -49l-16 -71l-15 -37l-6 -23l-12 -20q-63 -130 -31 -152q25 -6 74 -16q34 -12 68 -12t63 26q20 14 78 82
q4 4 31 57l26 54q2 1 18 63t52 62q23 0 26 -23q10 -25 -9 -71t-33 -79q-14 -34 -19 -47l-20 -49q-57 -137 -164 -192q-55 -39 -74 -45q-33 -18 -90 -19q-18 4 -66 19q-39 8 -52 13t-41 25t-48 21q-20 0 -33 -6l-37 -29q-39 -31 -129 -30q-23 4 -39 10t-57 12q-7 2 -27 23
t-30 69q-23 102 80 201q66 61 133 61l63 -6q49 -10 84 -53q18 -20 60 -20t62 48q22 47 22 115t-64 162q-29 41 -35 41l-88 -8l-10 -2z" />
    <glyph glyph-name="currency" unicode="&#xa4;" horiz-adv-x="944" 
d="M680 885q-50 -1 -94 -21t-54 -30q-82 -84 -88 -105q-20 -33 -24 -57t12 -90q27 -92 141 -93q16 -1 75 27t81 47l31 35q39 37 49 74q-4 20 10 98q-6 51 -47 83t-92 32zM952 1034q14 0 27 -22q12 -22 7 -46q-4 -22 -24 -42t-32 -37q-2 -8 11 -50q13 -43 -7 -137t-70 -159
q-21 -27 1 -52q22 -23 18 -45t-36 -47t-46 -25t-35 28q-21 26 -35 26q-13 0 -65 -28t-86 -27q-98 0 -170 43q-16 10 -28 10t-58 -42q-45 -42 -68 -42q-14 0 -10 18l6 23q2 16 0 18l-10 15q-4 4 4 43q4 5 32 27t31 39q5 17 -15 56t1 132q5 33 33 75t30 56t-14 49t-14 45
t12 20l25 21q37 39 53 39t36 -33t36 -33t32 8q102 43 201 43l111 -26q10 0 30 10l70 47q2 2 16 2z" />
    <glyph glyph-name="yen" unicode="&#xa5;" horiz-adv-x="1036" 
d="M573 0l-106 -4l-59 4l-25 -2h-47q-45 0 -43 17t14 26l51 20q23 14 74 70q51 47 53 74q2 6 0 8l7 37l24 92q0 8 16 64t35 124l8 25q4 23 -22 23q-4 -2 -66 -9h-12q-27 0 -39 2l-43 -4l-16 13l-45 -11q-25 0 -15 37q10 53 72 53l139 -10q57 -2 68 41q6 30 1 54t-9 28
q-16 10 -51 10h-50q-12 -4 -32 -4l-52 2l-32 -2q-35 -4 -26 44t40 44l27 -2l53 2l47 -2q20 6 26 32t-40 139q-47 113 -92 177l-31 41l-25 27q-59 44 -54 55q5 12 15 21l80 6l70 6q18 0 59 -8q35 6 60 6h16l57 -6h21q59 0 53 -33q-2 -14 -18 -27l-41 -34q-18 -16 -26 -48
t38 -124q10 -23 24 -70t27 -72q27 -74 31 -73q8 6 69 67l76 101l33 28l39 55q33 45 37 56q8 33 -4 55q-12 21 -18 33t-33 33q-8 8 -7 20q6 33 68 33h18q32 0 54 -4h10l70 8q32 0 84 -8t47 -37q-3 -13 -13 -23t-66 -38t-104 -74l-53 -49q-12 -10 -70 -88l-38 -46l-21 -30
q-72 -90 -74 -92q0 -6 6 -13l50 2q28 -14 57 -14l59 12q29 0 21 -39q-12 -57 -76 -57l-35 4l-16 2l-84 6q-45 0 -62 -28q-20 -48 -24 -68t11 -28t41 -9q26 0 79 4l51 -2l31 2q30 4 22 -35q-2 -14 -14 -28q-11 -26 -16 -21l-56 4l-28 -4h-19q-20 0 -26 2l-66 4q-33 0 -45 -55
q0 -6 -2 -19t-3 -27t-3 -28l-17 -59l-38 -166q-23 -96 45 -164q25 -25 22 -47q-4 -16 -16 -12l-60 2q-2 -2 -73 -2z" />
    <glyph glyph-name="brokenbar" unicode="&#xa6;" 
d="M526 313h107l-139 -651h-107zM750 1366h106l-145 -684h-107z" />
    <glyph glyph-name="section" unicode="&#xa7;" 
d="M410 608q0 -100 116 -123q8 -1 64 -23t68 -24t32 -12q22 -10 55 -10t68 30q18 18 45 66q43 66 45 78q12 59 -37 106q-10 12 -65 25q-21 9 -39 21t-48 18t-100 43l-49 10q-16 0 -80 -51q-8 -4 -37 -50q-38 -60 -38 -104zM256 227q51 0 80 -73q12 -31 8 -62q-4 -14 -34 -56
t-34 -64t14 -39t58 -25l117 -12l53 -7q29 1 76 27t54 34t42 50q39 37 43 49l10 53l15 48q2 6 2 16q0 49 -96 74q-23 6 -76 36l-156 54l-33 14l-26 14q-39 16 -48 22t-34 32q-25 18 -45 57q-8 29 8 129l8 45q10 55 39 79q6 5 16 15q10 11 70 63t64 68t-21 43q-68 72 -68 123
t80 168q31 47 84 94q35 20 74 45l62 39q80 41 118 33l62 -6q29 -2 94 -21q74 -14 94 -28q34 -20 60 -80t15 -108t-23 -62t-50 -53q-28 -27 -62 -27t-59 38t-25 62t5 52q3 10 27 40t27 42q3 10 -25 32t-39 23h-25l-59 2q-135 -13 -187 -71t-69 -134q-23 -104 88 -125
q43 -10 76 -18q33 -25 114 -64l68 -22q57 -8 67 -17q57 -35 66 -55q45 -83 45 -147t-57 -160q-20 -33 -37 -45q-20 -20 -92 -78q-5 -3 -9 -15t-2 -20l35 -57q10 -20 17 -66q2 -49 0 -73q-27 -131 -142 -234l-43 -33q-41 -35 -67 -48q-75 -38 -176 -46q-37 -12 -67 -12
t-175 47q-12 10 -58 38t-57 44q-12 16 -26 55q-23 70 24 167t123 97z" />
    <glyph glyph-name="dieresis" unicode="&#xa8;" 
d="M825 1016q37 0 62 -27q53 -57 -43 -131q-33 -23 -43 -22q-39 0 -70 34q-8 8 -4 43v29q5 30 33 52t65 22zM598 1018q16 0 43 -23q6 -6 7 -54t-38 -81q-14 -14 -35 -14q-80 0 -81 57q-2 14 -2 35q16 80 106 80z" />
    <glyph glyph-name="copyright" unicode="&#xa9;" horiz-adv-x="1544" 
d="M1153 512q23 0 14 -37l-12 -63l-10 -33q-12 -51 -39 -66q-63 -29 -78 -34l-41 -13q-59 -16 -78 -16h-84l-20 2l-41 -2q-53 -2 -152 76q-48 37 -86 87q-79 103 -45 275l6 27l7 20q41 127 98 176l16 16q12 11 21 19l45 53q27 33 198 95q63 22 129 22q123 0 222 -61
q23 -13 43 -21t6 -94q-2 -6 -12 -54t-29 -48q-18 0 -29 49q-11 23 -15 34q-3 11 -5 15q-46 46 -92 76t-121 30q-8 0 -44 -10q-37 -10 -65 -28t-54 -32q-26 -13 -81 -77q-47 -61 -53 -82l-10 -57l-29 -58l-4 -57l-15 -39v-24l-10 -39q-4 -16 19 -84q39 -119 178 -119h65l74 4
q10 2 39 6q70 39 92 80q9 10 25 26t20 27q14 33 37 33zM1495 672q0 48 8 86q32 152 -47 301q-8 14 -13 26t-124 144l-27 26q-6 8 -108 33l-191 23q-31 -1 -53 -9t-80 -30t-84 -32q-25 -11 -155 -105q-31 -25 -91 -86q-59 -63 -77 -89t-39 -63l-19 -37l-24 -88
q-31 -47 -33 -55t-21 -176q-3 -52 9 -129q12 -76 14 -97q2 -8 66 -73q30 -50 34 -54t26 -17t40 -26q37 -20 72 -45q55 -23 81 -24l148 -8q76 0 116 9t85 34q48 21 108 47t86 54t62 58t94 92t70 86q14 24 24 60l26 72q16 42 17 92zM1081 1405q344 0 465 -240q75 -173 86 -301
q2 -41 0 -92l-16 -102q0 -9 -12 -64q-12 -56 -52 -126t-63 -101q-104 -127 -166 -191q-129 -102 -270 -157q-94 -33 -140 -43l-213 -13q-94 1 -153 21t-113 67q-6 6 -57 43q-22 22 -88 97l-19 35l-24 61q-20 45 -43 90l-13 137q0 4 9 52l8 81q0 1 3 11t8 27t11 36l17 94
q8 61 69 146l60 82q14 18 37 41l51 49l39 33q76 76 149 116q201 111 430 111z" />
    <glyph glyph-name="ordfeminine" unicode="&#xaa;" horiz-adv-x="614" 
d="M508 793q-8 11 -68 -41q-112 -95 -45 -127q25 -10 41 -11q39 0 53 56q6 25 23 78q8 39 -4 45zM488 934q-20 0 -21 -2l-27 -23q-47 -29 -55 -28q-33 0 -23 34q10 51 87 72q36 16 81 17q45 0 80 -32t24 -77t-22 -92l-26 -125q-10 -31 53 -66q-14 -22 -50 -50t-55 -27
t-37 14q-18 14 -24 18q-2 -2 -31 -14q-31 -18 -82 -18q-102 0 -102 88q0 61 29 100q31 37 108 72q35 6 111 45q25 20 26 32q0 12 -14 43q-10 19 -30 19z" />
    <glyph glyph-name="guillemotleft" unicode="&#xab;" horiz-adv-x="681" 
d="M541 725q20 0 18 -20q1 -2 -7 -11t-13 -16l-17 -41q-4 -10 -59 -59q-20 -27 -41 -52l-47 -51l-35 -31q-37 -33 -39 -48q-1 -16 17 -40t28 -71l8 -27l8 -33q6 -5 35 -47t21 -86q-8 -31 -39 -31q-6 0 -37 25l-29 23q-10 10 -22 42t-39 72l-25 43q-23 16 -53 60
q-27 18 -33 30t0 29q6 27 66 70q37 37 103 88t98 84l36 26q37 27 78 62q17 10 19 10zM590 63q-23 0 -35 39q-8 8 -55 72q-20 35 -92 133q-27 33 -19 82q4 17 76 94l65 49q16 16 34 36t28 26l10 10t47 29l37 31q30 24 54 23t22 -21q-27 -35 -49 -72q-19 -18 -37 -38t-41 -44
l-37 -39q-70 -57 -74 -79t11 -62q9 -39 35 -86t29 -60t15 -46q28 -77 -24 -77z" />
    <glyph glyph-name="logicalnot" unicode="&#xac;" 
d="M762 0l98 465h-688l18 82h877l-117 -547h-188z" />
    <glyph glyph-name="sfthyphen" unicode="&#xad;" horiz-adv-x="405" 
d="M313 324q-6 0 -8 -2l-55 8l-39 -6l-33 4l-43 -6l-24 -3q-2 -2 -17 -2q-25 0 -22 25l37 109q2 8 20 12l41 -2h35l33 -4l55 10l88 -6l76 8q29 0 41 -25q6 -10 4 -16l-17 -33q-14 -53 -22 -63t-21 -10l-67 10q-27 0 -41 -4t-21 -4z" />
    <glyph glyph-name="registered" unicode="&#xae;" horiz-adv-x="1568" 
d="M897 715h45q49 0 95 46t57 99l4 33q-4 27 -2 41t-6 20q-8 2 -33 38t-42 38t-51 -4t-34 -14q-35 -45 -39 -70l-4 -37l-8 -26l-5 -21q0 -23 -4 -37l-14 -55q0 -16 -2 -28q-4 -24 43 -23zM985 1094q20 0 135 -17q25 -2 72 -57q14 -14 31 -84q14 -31 4 -74
q-29 -128 -170 -194q29 -27 33 -86q0 -8 10 -54v-63q-8 -75 20 -82l25 -4q33 -2 26 -35q-3 -25 -47 -41q-10 -5 -51 -23t-61 -18t-24 12q-23 65 -17 144l-2 45l2 59v31q2 39 -13 57q-31 47 -84 47q-27 0 -40 -30q-2 -2 -13 -45l-22 -78l-13 -39q-11 -100 -2 -115
q14 -8 38 -20t20 -32q-2 -20 -27 -24l-43 -4l-41 2h-26q-41 6 -43 7l-62 -9q-47 0 -39 29q2 10 14 23l37 22q37 41 41 47q3 21 21 87t23 88t11 40t15 92l14 50l23 129q10 51 11 89t-1 44q0 6 -20 22t-16 32t16 20t48 6t54 4h18q40 0 58 -4q33 -6 53 4h4zM1141 1266l-72 10
q-70 0 -143 -6l-54 -4q-36 0 -44 -2t-70 -35q-103 -56 -240 -164q-10 -10 -55 -76q-61 -97 -69 -113t-31 -92t-27 -102t-6 -102q-2 -77 4 -95q7 -18 12 -43l8 -34l45 -66q10 -49 19 -57q23 -31 106 -109q33 -29 115 -71t90 -42l94 9l60 -6q35 0 192 49q65 17 235 159
q68 56 82 74t71 126t59 117t6 54l4 23q8 41 18 166q2 57 -3 75t-25 49l-4 15q-6 10 -26 49t-48 54t-68 64q-78 95 -235 126zM1042 1401q82 0 218 -45t229 -127q9 -14 65 -77t74 -130t21 -193l4 -94q0 -18 -6 -47q-27 -132 -93 -242t-106 -159q-6 -4 -76 -70
q-188 -176 -303 -209q-16 -4 -58 -8t-56 -8q-61 -16 -130 -17l-55 -6l-61 8l-66 17q-2 0 -13 2t-38 6t-51 8q-4 4 -47 31q-29 12 -70 39q-12 20 -36 42t-38 36t-43 63q-41 43 -67 80q-27 47 -39 160l-8 69l8 50l4 34l24 148q8 59 88 182q119 186 353 346q161 111 372 111z
" />
    <glyph glyph-name="macron" unicode="&#xaf;" 
d="M567 987h17q8 -2 14 -2h23l36 -4l52 8l69 -10q12 0 84 16q23 0 39 -22q4 -11 2 -17t-31 -79q-8 -12 -20 -13l-57 8q-37 0 -49 -4t-17 -4l-59 6l-25 -6l-39 4l-37 -4l-41 -4q-23 0 -16 23q0 8 14 45l6 30q6 29 35 29z" />
    <glyph glyph-name="degree" unicode="&#xb0;" horiz-adv-x="944" 
d="M729 1282q-33 0 -88 -27q-84 -41 -104 -133q-4 -12 11 -58t25 -58l23 -19q23 -20 31 -24l24 -5l47 7q47 2 56 10q92 59 108 131t-18 113q-2 -1 -42 31t-73 32zM682 858q-158 0 -205 72q-6 14 -19 53q-12 39 -22 63t0 74t33 80q18 33 55 70q119 125 254 125q31 0 70 -23
q45 -14 63 -37q47 -67 51 -143t-7 -115q-10 -39 -85 -139q-50 -44 -110 -62t-78 -18z" />
    <glyph glyph-name="plusminus" unicode="&#xb1;" horiz-adv-x="944" 
d="M766 188q58 0 78 5q25 -1 34 -7t5 -20l-11 -31q-8 -41 -22 -53t-57 -10l-88 -4h-23q-37 4 -64 4l-225 10q-25 0 -71 -6h-7l-96 4l-55 -4q-27 0 -37 6t-6 20l12 41l6 37q6 16 35 21q2 2 78 6l57 -4l80 4q27 0 86 -8q12 2 53 2l127 -4h25q35 -8 59 -9h27zM829 627h-16
q-12 -2 -41 -2h-12l-49 4q-45 0 -54 -64l-22 -129l-2 -41l-17 -51q-12 -39 -41 -35l-28 2l-43 -6q-27 0 -12 64l20 73l10 78l17 37q16 49 -17 61l-57 -2q-66 8 -96 5l-27 -3l-76 -6q-33 -2 -47 10t-10 33q14 66 43 76q14 4 63 6t68 4h20l68 -6q94 0 104 47q0 8 7 47l4 21
l16 55q0 158 74 158q63 0 65 -27q-4 -6 -6 -32l-8 -70q-10 -32 -23 -98t5 -88q8 -14 36 -15l95 15l57 -7q10 0 78 7h26q33 0 25 -33q0 -10 -10 -35l-6 -27q-4 -25 -47 -26q-33 -6 -68 -6l-45 4q-6 2 -21 2z" />
    <glyph glyph-name="twosuperior" unicode="&#xb2;" horiz-adv-x="614" 
d="M403 1227q-18 -1 -14 21q5 22 63 80t138 58q39 0 84 -4q24 -8 53 -26q68 -39 72 -105q4 -111 -64 -211l-86 -88l-20 -16q-8 -6 -64 -53l-92 -80l-76 -74q-4 -6 -8 -14q-6 -35 27 -35q16 0 24 2h45l50 -4q29 -2 65 26t43 29q8 0 13 -14t-6 -45t-16 -45t-11 -29
q-20 -57 -58 -57l-69 4q-20 0 -31 -2h-21l-106 -4q-14 0 -55 6l-72 -6q-18 -2 -26 7q-7 9 -3 27q7 42 203 230l23 22q6 6 96 93l45 45q86 109 104 190q4 16 0 66q-3 15 -35 39t-45 20l-43 -10q-61 -6 -112 -39q-8 -4 -15 -4z" />
    <glyph glyph-name="threesuperior" unicode="&#xb3;" horiz-adv-x="614" 
d="M270 780q26 0 48 -30t16 -50l-17 -55q-8 -13 25 -33t47 -20l66 16l75 72l13 20q23 23 35 37q18 63 16 107q-2 8 -31 45t-47 55q-10 0 -43 10q-31 8 -26 32t32 36q62 15 80 34t35 38q84 118 22 175q-34 31 -84 31t-81 -18q-25 -10 -31 -10q-20 0 -14 24q10 43 71 69t91 26
t90 -30t81 -56q47 -53 35 -99l-8 -32q-16 -80 -125 -154q-25 -16 -26 -22t16 -23q78 -72 78 -152q0 -11 -10 -63q-25 -131 -109 -174l-80 -33l-39 -14l-20 -9q-94 -12 -103 -12q-41 2 -94 62t-53 106q-1 94 69 94z" />
    <glyph glyph-name="acute" unicode="&#xb4;" 
d="M895 1044q51 0 51 -40q0 -53 -55 -86q-33 -20 -60 -23l-36 -4q-66 -16 -110 -35q-44 -20 -46 -20q-20 0 -16 18q3 12 33 30t120 88q90 72 119 72z" />
    <glyph glyph-name="paragraph" unicode="&#xb6;" horiz-adv-x="1064" 
d="M979 1251q-51 0 -82 -131q-4 -12 -12 -44q-7 -32 -11 -43t-11 -53t-21 -93t-27 -105l-39 -166l-4 -36l-2 -23l-55 -238q-8 -61 -90 -346l-7 -16l-22 -123q-10 -47 -42 -76t-75 -28h-69l-54 -4l-32 -5q-14 1 -22 5t-4 17q3 13 34 30q106 61 137 209q8 45 43 219l14 65
q6 39 21 80l14 41l19 121v39q2 10 2 20q-4 25 -31 23l-51 -2l-66 6h-14q-53 18 -107 55q-8 7 -14 15t-14 16l-15 37q-48 78 -16 215l6 29q16 68 39 106l25 39l14 119q0 16 186 86q3 0 27 12t43 20q96 29 180 29l127 -4l100 6l113 -6q66 8 106 8q82 0 74 -51q-2 -14 -36 -36
t-50 -48q-31 -55 -82 -291q-10 -66 -30 -170l-13 -55q-19 -104 -33 -145q-14 -42 -19 -70t-9 -50q-11 -60 -37 -172l-37 -175q-6 -23 -6 -68l-20 -100l-4 -35l12 -43q2 -10 28 -66q16 -17 14 -37q-5 -38 -26 -34l-57 2q-8 -8 -39 -8t-39 2h-4q-12 4 -49 7t-47 19
q-20 43 11 159q9 34 12 49q4 15 28 95t38 166t64 277l8 32l17 121l18 66q0 8 6 41l43 209q4 22 14 101t23 146q-2 37 -14 37z" />
    <glyph glyph-name="periodcentered" unicode="&#xb7;" horiz-adv-x="409" 
d="M274 487h5q8 -8 41 -14q32 -6 47 -10q31 -17 19 -71t-36 -73q-12 -12 -44 -24t-54 -12q-24 0 -52 34t-18 80t36 68t56 22z" />
    <glyph glyph-name="cedilla" unicode="&#xb8;" horiz-adv-x="1021" 
d="M419 -133q9 0 25 -23q14 -29 19 -30q31 -10 45 -11q31 0 41 35q6 33 -4 39l-49 31q-10 4 -7 14l11 41q10 39 19 49t29 10t30 -6t6 -16l-9 -39l31 -16q20 -11 26 -33t7 -27l-18 -43l-7 -28q0 -18 -24 -37q-66 -47 -108 -47t-62 9q-18 9 -36 35q-31 47 8 80q18 13 27 13z
" />
    <glyph glyph-name="onesuperior" unicode="&#xb9;" horiz-adv-x="614" 
d="M422 549l-49 -4q-53 0 -47 33q2 20 55 79q2 8 33 121l12 39q12 43 20 86l5 33q2 8 41 174l8 29q4 47 8 78t-2 45q-14 8 -47 34q-6 2 -4 21q4 23 65 41q8 2 55 19t74 18q33 0 25 -39q0 -11 -15 -56l-30 -145l-64 -229l-26 -129q0 -8 -15 -72l-2 -29q-2 -18 -6 -47
q2 -2 13 -29q11 -28 9 -38t-18 -22t-26 -13z" />
    <glyph glyph-name="ordmasculine" unicode="&#xba;" horiz-adv-x="614" 
d="M490 938q-42 0 -56 -8q-45 -28 -63 -54t-29 -65l-14 -68q0 -40 18 -92q12 -12 45 -28t33 -19l18 2q74 8 119 88q20 33 31 82q2 14 -6 68t-31 74t-65 20zM438 537q-90 -1 -162 61t-53 143l6 29q14 72 27 92q49 61 78 78q98 61 202 61t144 -63q6 -8 33 -53q35 -90 -74 -242
q-31 -39 -137 -96q-47 -10 -64 -10z" />
    <glyph glyph-name="guillemotright" unicode="&#xbb;" horiz-adv-x="681" 
d="M465 725q8 0 39 -25l26 -22q10 -10 31 -62q12 -16 31 -53l26 -45q25 -18 54 -57q29 -23 30 -31q6 -8 1 -28t-17 -33q-10 -6 -49 -37q-29 -31 -81 -68t-118 -104l-35 -27q-81 -69 -100 -72q-23 0 -16 21q12 16 18 27l19 41q10 30 61 59l84 102l35 31q39 31 41 49l-23 49
q-16 39 -22 62l-19 57l-22 33q-41 61 -31 102q6 31 37 31zM256 723q27 0 35 -39q2 -6 55 -72q4 -6 94 -143q23 -35 15 -72q-9 -27 -76 -94q-8 -8 -66 -49q-49 -49 -69 -72q-14 -10 -47 -28q-58 -51 -99 -54q-20 0 -14 23q29 43 47 67t80 86l37 37q68 57 74 84t-14 75t-38 75
t-24 57q-2 2 -14 34t-8 58q5 26 32 27z" />
    <glyph glyph-name="onequarter" unicode="&#xbc;" horiz-adv-x="1382" 
d="M1032 442q16 -8 38 -8t38 8l74 -10q22 0 24 5t33 98l18 81q4 23 7 37q-105 -78 -148 -121q-59 -67 -84 -90zM1138 4q-7 0 -14 5t-10 14q-2 8 -4 10q8 18 33 102q0 37 4 59l27 105q2 6 8 20q2 31 -49 31h-5q-10 -2 -38 -2h-95l-57 2q-63 2 -57 37q6 30 256 238l20 16
l31 31q25 20 55 51l33 27q16 16 35 32l39 37q20 27 45 27q33 0 22 -35q-1 -8 -16 -70l-47 -221q3 -26 -10 -54t-7 -34l19 -20q8 -8 -2 -31q-9 -23 -17 -29t-14 -11t-12 -9t-6 -13l-54 -249q-14 -68 -57 -68q-20 -4 -34 -1t-22 3zM274 -33q-48 0 -43 33q1 4 9 12q26 28 50 68
q23 40 130 145l39 56l131 165q43 43 164 203q16 27 55 66l35 51l69 78l45 65q53 61 95 111q45 68 98 145q10 12 33 35q14 25 73 100q76 101 120 101t40 -31q-4 -18 -14 -27l-180 -227q-45 -70 -79 -108t-52 -63q-18 -24 -66 -84t-62 -79q-14 -20 -20 -26l-37 -35
q-8 -8 -27 -40q-18 -33 -72 -103t-78 -109t-48 -63l-76 -68l-18 -29q-16 -25 -39 -55q-27 -25 -66 -84q-31 -31 -82 -86q-61 -74 -96 -111q-9 -6 -31 -6zM422 549l-49 -4q-53 0 -47 33q2 20 55 79q2 8 33 121l12 39q12 43 20 86l5 33q2 8 41 174l8 29q4 47 8 78t-2 45
q-14 8 -47 34q-6 2 -4 21q4 23 65 41q8 2 55 19t74 18q33 0 25 -39q0 -11 -15 -56l-30 -145l-64 -229l-26 -129q0 -8 -15 -72l-2 -29q-2 -18 -6 -47q2 -2 13 -29q11 -28 9 -38t-18 -22t-26 -13z" />
    <glyph glyph-name="onehalf" unicode="&#xbd;" horiz-adv-x="1382" 
d="M1219 0h-357q-38 0 -28 33t114 137l111 111q122 114 141 137q88 106 105 192q2 4 -2 64q-2 20 -52 51q-25 10 -26 8l-43 -8q-74 -15 -94 -29t-31 -14q-19 0 -17 19t62 79t139 60q37 0 86 -4q25 -8 51 -27q68 -39 72 -102q4 -43 -18 -117q-20 -82 -103 -160
q-80 -66 -112 -94l-91 -80q-6 -6 -50 -46t-62 -71q6 -2 16 -2l23 -2l82 2l53 -6q30 0 66 27q36 26 42 28t14 -16t-4 -40q-12 -21 -30 -75q-23 -55 -57 -55zM274 -33q-48 0 -43 33q1 4 9 12q26 28 50 68q23 40 130 145l39 56l131 165q43 43 164 203q16 27 55 66l35 51l69 78
l45 65q53 61 95 111q45 68 98 145q10 12 33 35q14 25 73 100q76 101 120 101t40 -31q-4 -18 -14 -27l-180 -227q-45 -70 -79 -108t-52 -63q-18 -24 -66 -84t-62 -79q-14 -20 -20 -26l-37 -35q-8 -8 -27 -40q-18 -33 -72 -103t-78 -109t-48 -63l-76 -68l-18 -29
q-16 -25 -39 -55q-27 -25 -66 -84q-31 -31 -82 -86q-61 -74 -96 -111q-9 -6 -31 -6zM422 549l-49 -4q-53 0 -47 33q2 20 55 79q2 8 33 121l12 39q12 43 20 86l5 33q2 8 41 174l8 29q4 47 8 78t-2 45q-14 8 -47 34q-6 2 -4 21q4 23 65 41q8 2 55 19t74 18q33 0 25 -39
q0 -11 -15 -56l-30 -145l-64 -229l-26 -129q0 -8 -15 -72l-2 -29q-2 -18 -6 -47q2 -2 13 -29q11 -28 9 -38t-18 -22t-26 -13z" />
    <glyph glyph-name="threequarters" unicode="&#xbe;" horiz-adv-x="1382" 
d="M1032 442q16 -8 38 -8t38 8l74 -10q22 0 24 5t33 98l18 81q4 23 7 37q-105 -78 -148 -121q-59 -67 -84 -90zM1138 4q-7 0 -14 5t-10 14q-2 8 -4 10q6 16 33 102q0 37 6 62t22 88l5 24l6 10q2 31 -49 31h-5q-10 -2 -38 -2h-95l-57 2q-63 2 -57 37q6 23 41 51q31 31 82 74
l20 20q63 50 113 93l20 16l31 31q14 10 46 40t42 38t18 16t17 16l39 37q20 27 45 27q33 0 22 -35q0 -10 -10 -43l-6 -27l-47 -221q3 -26 -10 -54t-7 -34l19 -20q8 -8 -2 -31q-9 -23 -17 -29t-14 -11t-12 -9t-6 -13l-54 -249q-14 -68 -57 -68q-20 -4 -34 -1t-22 3zM274 -33
q-48 0 -43 33q1 4 9 12q26 28 50 68q23 40 130 145l39 56l131 165q43 43 164 203q16 27 55 66l35 51l69 78l45 65q53 61 95 111q45 68 98 145q10 12 33 35q14 25 73 100q76 101 120 101t40 -31q-4 -18 -14 -27l-180 -227q-8 -10 -27 -40t-61 -79t-105 -129q-64 -80 -72 -94
q-8 -12 -14 -18l-37 -35q-8 -8 -27 -40t-79 -113q-60 -82 -77 -110t-42 -52l-76 -68l-18 -29q-2 -4 -8 -12t-21 -30t-36 -43t-40 -54l-8 -10l-31 -31q-20 -19 -62 -69t-77 -87q-9 -6 -31 -6zM270 780q26 0 48 -30t16 -50l-17 -55q-8 -13 25 -33t47 -20l66 16l75 72l13 20
q23 23 35 37q18 63 16 107q-2 8 -31 45t-47 55q-10 0 -43 10q-31 8 -26 32t32 36q62 15 80 34t35 38q84 118 22 175q-34 31 -84 31t-81 -18q-25 -10 -31 -10q-20 0 -14 24q10 43 71 69t91 26t90 -30t81 -56q47 -53 35 -99l-8 -32q-16 -80 -125 -154q-25 -16 -26 -22t16 -23
q78 -72 78 -152q0 -11 -10 -63q-25 -131 -109 -174l-80 -33l-39 -14l-20 -9q-94 -12 -103 -12q-41 2 -94 62t-53 106q-1 94 69 94z" />
    <glyph glyph-name="questiondown" unicode="&#xbf;" horiz-adv-x="751" 
d="M587 807q15 0 48 -31t20 -92q-18 -84 -92 -84q-8 0 -54 17t-51 25t-5 26q0 78 39 102q16 14 48 26t47 11zM539 459q29 0 21 -31t-40 -133q-13 -32 -78 -156l-28 -49q-31 -49 -54 -90l-96 -158q-16 -31 -53 -100q-8 -49 -12 -121v-31q0 -145 123 -145q72 0 116 38t45 103
q-10 16 -22 38t-6 52q18 88 86 88q47 0 71 -63q14 -29 9 -51q-18 -104 -123 -193q-57 -51 -129 -67q-71 -16 -91 -16t-42 8q-66 8 -78 12t-56 60t-67 104t14 221q2 23 43 88l29 47l61 68q29 33 78 90q42 33 131 147l29 37q57 100 64 114t18 50q8 39 37 39z" />
    <glyph glyph-name="Agrave" unicode="&#xc0;" horiz-adv-x="1095" 
d="M774 1706q22 0 45 -16q29 -43 64 -91q29 -33 49 -57t14 -45q-2 -20 -26 -20q-11 3 -64 28l-78 25l-24 10q-31 10 -54 21q-23 18 -16 51q8 34 38 64t52 30zM739 979q-4 0 -12 -4l-27 -35q-18 -24 -57 -72q-70 -121 -59 -166q6 -27 71 -43q15 -2 35 -8t39 -6q27 0 33 29
q24 117 14 211t-37 94zM746 -6q-26 0 -32 4q-7 4 -4 17t35 34q72 49 86 113q9 50 -7 123q-15 73 -17 186q-12 76 -84 76q-37 6 -67 17t-86 11t-93 -18q-31 -7 -63 -73t-63 -107q-32 -41 -60 -114q-27 -73 -31 -95t3 -37t39 -57t32 -49q-6 -25 -55 -25h-230q-27 0 -37 6
t-7 22t18 25l45 31q12 6 57 76l21 23q10 11 20 23t51 93q16 20 78 127l217 375q9 26 93 160q85 135 118 193t74 177q27 76 65 76q10 -1 18 -25t29 -202q6 -25 21 -74q-2 -25 0 -57l4 -91q6 -20 18 -79l25 -144l4 -71l10 -113q1 -20 13 -138t23 -201t42 -114q8 -5 35 -30
q10 -10 6 -29q-6 -29 -47 -35l-117 -4l-51 -2l-72 10q-3 0 -27 -7t-50 -7z" />
    <glyph glyph-name="Aacute" unicode="&#xc1;" horiz-adv-x="1095" 
d="M1088 1700q46 0 47 -41q0 -43 -36 -78t-81 -39l-35 -4q-2 0 -32 -9t-50 -18q-11 -3 -43 -17t-37 -13q-16 0 -12 16q125 100 184 152q49 51 95 51zM739 979q-4 0 -12 -4l-27 -35q-18 -24 -57 -72q-70 -121 -59 -166q6 -27 71 -43q15 -2 35 -8t39 -6q27 0 33 29
q24 117 14 211t-37 94zM746 -6q-26 0 -32 4q-7 4 -4 17t35 34q72 49 86 113q9 50 -7 123q-15 73 -17 186q-12 76 -84 76q-37 6 -67 17t-86 11t-93 -18q-31 -7 -63 -73t-63 -107q-32 -41 -60 -114q-27 -73 -31 -95t3 -37t39 -57t32 -49q-6 -25 -55 -25h-230q-27 0 -37 6
t-7 22t18 25l45 31q12 6 57 76l21 23q10 11 20 23t51 93q16 20 78 127l217 375q9 26 93 160q85 135 118 193t74 177q27 76 65 76q10 -1 18 -25t29 -202q6 -25 21 -74q-2 -25 0 -57l4 -91q6 -20 18 -79l25 -144l4 -71l10 -113q1 -20 13 -138t23 -201t42 -114q8 -5 35 -30
q10 -10 6 -29q-6 -29 -47 -35l-117 -4l-51 -2l-72 10q-3 0 -27 -7t-50 -7z" />
    <glyph glyph-name="Acircumflex" unicode="&#xc2;" horiz-adv-x="1095" 
d="M932 1724q22 0 32 -8t21 -37l39 -80q8 -18 22 -65t10 -59q-4 -13 -20 -13t-88 70q-31 74 -41 74q-25 0 -52 -39t-63 -61t-54 -36q-18 -13 -29 -14q-12 0 -11 21q12 12 39 47l35 43l35 39l18 26l41 39q12 18 31 43q13 10 35 10zM739 979q-4 0 -12 -4l-27 -35
q-18 -24 -57 -72q-70 -121 -59 -166q6 -27 71 -43q15 -2 35 -8t39 -6q27 0 33 29q24 117 14 211t-37 94zM746 -6q-26 0 -32 4q-7 4 -4 17t35 34q72 49 86 113q9 50 -7 123q-15 73 -17 186q-12 76 -84 76q-37 6 -67 17t-86 11t-93 -18q-31 -7 -63 -73t-63 -107
q-32 -41 -60 -114q-27 -73 -31 -95t3 -37t39 -57t32 -49q-6 -25 -55 -25h-230q-27 0 -37 6t-7 22t18 25l45 31q12 6 57 76l21 23q10 11 20 23t51 93q16 20 78 127l217 375q9 26 93 160q85 135 118 193t74 177q27 76 65 76q10 -1 18 -25t29 -202q6 -25 21 -74q-2 -25 0 -57
l4 -91q6 -20 18 -79l25 -144l4 -71l10 -113q1 -20 13 -138t23 -201t42 -114q8 -5 35 -30q10 -10 6 -29q-6 -29 -47 -35l-117 -4l-51 -2l-72 10q-3 0 -27 -7t-50 -7z" />
    <glyph glyph-name="Atilde" unicode="&#xc3;" horiz-adv-x="1095" 
d="M840 1681q20 0 25 -3t21 -10t25 -11l31 -12q63 -39 90 -39t98 47q12 -1 10 -15t-22 -28q-18 -18 -35 -37q-63 -74 -109 -74t-70 13q-23 13 -42 22l-39 12q-51 27 -75 27t-50 -27q-20 -27 -24 -26q-20 0 -17 16q6 5 17 20q12 15 24 29l29 27q33 33 57 51q36 18 56 18z
M739 979q-4 0 -12 -4l-27 -35q-18 -24 -57 -72q-70 -121 -59 -166q6 -27 71 -43q15 -2 35 -8t39 -6q27 0 33 29q24 117 14 211t-37 94zM746 -6q-26 0 -32 4q-7 4 -4 17t35 34q72 49 86 113q9 50 -7 123q-15 73 -17 186q-12 76 -84 76q-37 6 -67 17t-86 11t-93 -18
q-31 -7 -63 -73t-63 -107q-32 -41 -60 -114q-27 -73 -31 -95t3 -37t39 -57t32 -49q-6 -25 -55 -25h-230q-27 0 -37 6t-7 22t18 25l45 31q12 6 57 76l21 23q10 11 20 23t51 93q16 20 78 127l217 375q9 26 93 160q85 135 118 193t74 177q27 76 65 76q10 -1 18 -25t29 -202
q6 -25 21 -74q-2 -25 0 -57l4 -91q6 -20 18 -79l25 -144l4 -71l10 -113q1 -20 13 -138t23 -201t42 -114q8 -5 35 -30q10 -10 6 -29q-6 -29 -47 -35l-117 -4l-51 -2l-72 10q-3 0 -27 -7t-50 -7z" />
    <glyph glyph-name="Adieresis" unicode="&#xc4;" horiz-adv-x="1095" 
d="M1065 1473q-59 0 -59 65q-6 33 19 80q26 47 67 47q109 10 86 -98q-6 -25 -16 -44t-43 -35q-34 -16 -54 -15zM702 1475q-46 1 -72 31t-18 65q6 35 52 73t68 37q22 0 48 -23t27 -36l-4 -31v-32q-4 -10 -19 -31q-35 -53 -82 -53zM739 979q-4 0 -12 -4l-27 -35
q-18 -24 -57 -72q-70 -121 -59 -166q6 -27 71 -43q15 -2 35 -8t39 -6q27 0 33 29q24 117 14 211t-37 94zM746 -6q-26 0 -32 4q-7 4 -4 17t35 34q72 49 86 113q9 50 -7 123q-15 73 -17 186q-12 76 -84 76q-37 6 -67 17t-86 11t-93 -18q-31 -7 -63 -73t-63 -107
q-32 -41 -60 -114q-27 -73 -31 -95t3 -37t39 -57t32 -49q-6 -25 -55 -25h-230q-27 0 -37 6t-7 22t18 25l45 31q12 6 57 76l21 23q10 11 20 23t51 93q16 20 78 127l217 375q9 26 93 160q85 135 118 193t74 177q27 76 65 76q10 -1 18 -25t29 -202q6 -25 21 -74q-2 -25 0 -57
l4 -91q6 -20 18 -79l25 -144l4 -71l10 -113q1 -20 13 -138t23 -201t42 -114q8 -5 35 -30q10 -10 6 -29q-6 -29 -47 -35l-117 -4l-51 -2l-72 10q-3 0 -27 -7t-50 -7z" />
    <glyph glyph-name="Aring" unicode="&#xc5;" horiz-adv-x="1095" 
d="M904 1667q-16 0 -36 -19q-20 -18 -24 -36t5 -40t19 -26h29q51 6 64 62q6 27 -17 43t-40 16zM1028 1640v-26q-6 -37 -33 -70q-51 -70 -133 -69q-88 0 -88 90q0 25 6 55q10 47 94 94q38 19 52 20q14 2 47 -16t44 -34t11 -44zM739 979q-4 0 -12 -4l-27 -35q-18 -24 -57 -72
q-70 -121 -59 -166q6 -27 71 -43q15 -2 35 -8t39 -6q27 0 33 29q24 117 14 211t-37 94zM746 -6q-26 0 -32 4q-7 4 -4 17t35 34q72 49 86 113q9 50 -7 123q-15 73 -17 186q-12 76 -84 76q-37 6 -67 17t-86 11t-93 -18q-31 -7 -63 -73t-63 -107q-32 -41 -60 -114
q-27 -73 -31 -95t3 -37t39 -57t32 -49q-6 -25 -55 -25h-230q-27 0 -37 6t-7 22t18 25l45 31q12 6 57 76l21 23q10 11 20 23t51 93q16 20 78 127l217 375q9 26 93 160q85 135 118 193t74 177q27 76 65 76q10 -1 18 -25t29 -202q6 -25 21 -74q-2 -25 0 -57l4 -91q6 -20 18 -79
l25 -144l4 -71l10 -113q1 -20 13 -138t23 -201t42 -114q8 -5 35 -30q10 -10 6 -29q-6 -29 -47 -35l-117 -4l-51 -2l-72 10q-3 0 -27 -7t-50 -7z" />
    <glyph glyph-name="AE" unicode="&#xc6;" horiz-adv-x="1648" 
d="M1076 1102q-15 0 -81 -60q-51 -52 -71 -82t-84 -122q-20 -25 -58 -63q-66 -66 -37 -83q2 -2 64 -14q61 0 65 -2l66 -17q45 0 57 52l4 24q37 202 68 273q0 6 10 36l11 31q1 27 -14 27zM281 0h-230q-51 0 -47 16t19 33q10 6 52 31t130 123q12 13 58 79q45 66 73 92t90 95
l39 51l27 31q25 35 112 139q49 49 78 80l76 107q16 25 53 61t82 98l70 80l36 49q43 59 49 83t-22 47q-27 22 -22 34q8 43 57 43q23 0 35 -2h20l207 8q45 0 73 -8t38 -8l127 10q15 2 59 2t100 -14l66 8q41 0 37 -35q-1 -14 -7 -61t-13 -72t-11 -95q-4 -71 -31 -71l-37 29
q-6 6 -22 80q-14 31 -33 69q-14 20 -53 33l-29 4l-33 2q-8 1 -44 15t-78 14q-92 0 -111 -51q0 -3 -14 -45l-50 -156q-8 -35 -18 -90l-25 -123q0 -59 56 -59q31 0 88 34t87 63q30 30 45 30q15 1 17 -15t-4 -57l-6 -39q-10 -61 -29 -113l-10 -36q-10 -60 -10 -70q8 -8 -13 -39
q-20 -32 -30 -33l-16 4l-29 54l-6 45l-29 34q-10 20 -20 28q-9 8 -53 9q-44 0 -54 -18l-11 -48q-5 -28 -11 -52q-55 -107 -66 -197l-12 -51q-6 -27 -25 -92l-10 -35q-9 -35 19 -52t89 -20q57 -8 77 -8t72 13t66 24l48 37q55 29 64 41t67 110q16 29 43 29q18 0 18 -23
q0 -3 -16 -81t-35 -128l-23 -79q-18 -39 -57 -39q-9 0 -109 20q-47 -6 -67 -6l-102 2l-150 -4l-72 2h-159l-93 -4q-16 0 -23 4t-2 25t81 51q45 44 55 64t25 65l18 57l6 41q19 66 19 121q14 106 -29 106h-92q-12 0 -52 22t-85 22t-66 -25l-14 -14l-41 -56q-37 -43 -112 -147
t-101 -148q0 -4 -3 -13t-6 -25t-9 -38q-6 -24 33 -44q38 -20 32 -50q-4 -18 -29 -18l-39 6z" />
    <glyph glyph-name="Ccedilla" unicode="&#xc7;" horiz-adv-x="1300" 
d="M1283 383q30 0 20 -47q-1 -2 -13 -45t-16 -66l-12 -57q-12 -58 -24 -74t-24 -22l-30 -15q-8 -1 -54 -25t-49 -24l-63 -16q-104 -29 -129 -29l-94 2q-49 2 -56 -28q-2 -14 9 -19l36 -18q6 -2 18 -26t9 -30l-18 -43l-2 -16l-3 -12q-2 -20 -28 -37q-59 -47 -104 -47t-65 10
q-19 10 -38 43q-14 16 -10 43q4 13 21 27q18 14 30 14t27 -45q6 -19 49 -19t53 35q6 33 -4 39l-51 29q-10 6 -7 17q19 69 17 75q-57 14 -133 45q-152 90 -226 197q-37 51 -86 190q-18 55 -24 133q-2 31 27 176q53 250 174 365l65 61l72 88q35 46 171 102t204 74t137 19
q190 0 346 -107q2 0 18 -8t54 -24q23 -10 19 -42t-23 -130q-14 -43 -17 -54l-12 -63q-6 -21 -24 -21t-23 20q-3 20 -19 72t-25 72t-28 31l-53 43q-6 4 -37 30t-57 46q-12 4 -86 17t-94 13q-19 0 -56 -18q-78 -23 -151 -78q-55 -29 -70 -39q-89 -77 -141 -157t-58 -107
l-20 -94q0 -4 -27 -57t-20 -62q-10 -98 -33 -155v-29l-16 -76q-6 -32 17 -106t48 -107q102 -139 252 -135l102 2q67 0 91 3t48 4q64 3 158 97q36 47 66 81t49 67q16 47 46 47z" />
    <glyph glyph-name="Egrave" unicode="&#xc8;" horiz-adv-x="1015" 
d="M748 1706q22 0 45 -16q29 -43 63 -91q30 -33 50 -57t14 -45q-2 -20 -27 -20l-8 2q-7 4 -23 11t-33 15l-77 25l-25 10q-31 10 -53 21q-23 18 -17 51q8 34 39 64q30 30 52 30zM1151 1368q43 0 39 -35q0 -10 -12 -104q-10 -33 -14 -79t-9 -83q-8 -33 -27 -33l-36 29
q-6 6 -23 80q-14 31 -33 69q-24 35 -114 39q-2 1 -45 15t-78 14q-98 0 -111 -51q0 -3 -14 -45l-15 -47q-18 -49 -34 -107q-3 -27 -23 -110t-20 -107q0 -57 53 -57q33 0 90 34t87 63q30 30 44 30t18 -23q-2 -8 -6 -49l-4 -39q-2 -35 -28 -113l-11 -36q0 -4 -6 -43v-7
q-4 -8 -4 -30q-5 -17 -19 -39t-24 -23q-12 0 -29 29l-16 29l-6 45l-29 34q-8 20 -18 28t-52 9q-42 0 -57 -18q-2 -2 -24 -100q-47 -100 -53 -132l-7 -44q-2 -11 -4 -19l-12 -53q-6 -27 -25 -92l-10 -35q-16 -66 107 -72l84 -8h6q9 0 61 13t66 24l47 37q49 29 61 41
q33 47 70 110q16 29 42 29t15 -43q-27 -139 -47 -189l-22 -79q-18 -39 -58 -39q-8 0 -108 20q-45 -6 -68 -6l-102 2l-152 -4l-70 2h-159l-90 -4q-18 0 -26 4q-7 4 -2 25t81 51q47 44 55 64t25 65l18 59q2 10 7 38t10 44l16 74q4 29 6 41l6 20q25 107 37 147q12 41 14 48
l27 147l12 58l25 88q12 49 35 108l-2 64q0 72 -8 86q-18 39 -76 82q-8 4 -4 20q8 47 67 43l45 -2q32 4 107 4l102 4q45 0 74 -8t37 -8l73 8l105 4q52 0 108 -14q4 2 50 8h14z" />
    <glyph glyph-name="Eacute" unicode="&#xc9;" horiz-adv-x="1015" 
d="M1062 1700q46 0 46 -42t-36 -77t-81 -39l-35 -4q-19 0 -82 -27q-12 -3 -44 -17t-35 -13q-16 0 -13 16q125 100 185 152q49 51 95 51zM1151 1368q43 0 39 -35q0 -10 -12 -104q-10 -33 -14 -79t-9 -83q-8 -33 -27 -33l-36 29q-6 6 -23 80q-14 31 -33 69q-24 35 -114 39
q-2 1 -45 15t-78 14q-98 0 -111 -51q0 -3 -14 -45l-15 -47q-18 -49 -34 -107q-3 -27 -23 -110t-20 -107q0 -57 53 -57q33 0 90 34t87 63q30 30 44 30t18 -23q-2 -8 -6 -49l-4 -39q-2 -35 -28 -113l-11 -36q0 -4 -6 -43v-7q-4 -8 -4 -30q-5 -17 -19 -39t-24 -23q-12 0 -29 29
l-16 29l-6 45l-29 34q-8 20 -18 28t-52 9q-42 0 -57 -18q-2 -2 -24 -100q-47 -100 -53 -132l-7 -44q-2 -11 -4 -19l-12 -53q-6 -27 -25 -92l-10 -35q-16 -66 107 -72l84 -8h6q9 0 61 13t66 24l47 37q49 29 61 41q33 47 70 110q16 29 42 29t15 -43q-27 -139 -47 -189l-22 -79
q-18 -39 -58 -39q-8 0 -108 20q-45 -6 -68 -6l-102 2l-152 -4l-70 2h-159l-90 -4q-18 0 -26 4q-7 4 -2 25t81 51q47 44 55 64t25 65l18 59q2 10 7 38t10 44l16 74q4 29 6 41l6 20q25 107 37 147q12 41 14 48l27 147l12 58l25 88q12 49 35 108l-2 64q0 72 -8 86
q-18 39 -76 82q-8 4 -4 20q8 47 67 43l45 -2q32 4 107 4l102 4q45 0 74 -8t37 -8l73 8l105 4q52 0 108 -14q4 2 50 8h14z" />
    <glyph glyph-name="Ecircumflex" unicode="&#xca;" horiz-adv-x="1015" 
d="M904 1724q22 0 30 -8q10 -8 22 -37l39 -80q7 -18 21 -65t11 -59q-3 -13 -19 -13t-88 70q-31 74 -41 74q-25 0 -60 -47q-20 -31 -56 -53q-35 -22 -53 -36q-18 -13 -30 -14q-12 0 -10 21q12 12 39 47l34 43l35 39l19 26l41 39q12 18 30 43q14 10 36 10zM1151 1368
q43 0 39 -35q0 -10 -12 -104q-10 -33 -14 -79t-9 -83q-8 -33 -27 -33l-36 29q-6 6 -23 80q-14 31 -33 69q-24 35 -114 39q-2 1 -45 15t-78 14q-98 0 -111 -51q0 -3 -14 -45l-15 -47q-18 -49 -34 -107q-3 -27 -23 -110t-20 -107q0 -57 53 -57q33 0 90 34t87 63q30 30 44 30
t18 -23q-2 -8 -6 -49l-4 -39q-2 -35 -28 -113l-11 -36q0 -4 -6 -43v-7q-4 -8 -4 -30q-5 -17 -19 -39t-24 -23q-12 0 -29 29l-16 29l-6 45l-29 34q-8 20 -18 28t-52 9q-42 0 -57 -18q-2 -2 -24 -100q-47 -100 -53 -132l-7 -44q-2 -11 -4 -19l-12 -53q-6 -27 -25 -92l-10 -35
q-16 -66 107 -72l84 -8h6q9 0 61 13t66 24l47 37q49 29 61 41q33 47 70 110q16 29 42 29t15 -43q-27 -139 -47 -189l-22 -79q-18 -39 -58 -39q-8 0 -108 20q-45 -6 -68 -6l-102 2l-152 -4l-70 2h-159l-90 -4q-18 0 -26 4q-7 4 -2 25t81 51q47 44 55 64t25 65l18 59
q2 10 7 38t10 44l16 74q4 29 6 41l6 20q25 107 37 147q12 41 14 48l27 147l12 58l25 88q12 49 35 108l-2 64q0 72 -8 86q-18 39 -76 82q-8 4 -4 20q8 47 67 43l45 -2q32 4 107 4l102 4q45 0 74 -8t37 -8l73 8l105 4q52 0 108 -14q4 2 50 8h14z" />
    <glyph glyph-name="Edieresis" unicode="&#xcb;" horiz-adv-x="1015" 
d="M1038 1473q-59 0 -59 65q-6 33 19 80q26 47 67 47q106 10 86 -98q-6 -25 -15 -44t-43 -35t-55 -15zM707 1681q23 0 48 -23q25 -24 24 -32t-1 -18t-2 -17v-32q-2 -10 -18 -31q-35 -53 -82 -53q-47 1 -73 31t-17 65q6 35 52 73t69 37zM1151 1368q43 0 39 -35
q0 -10 -12 -104q-10 -33 -14 -79t-9 -83q-8 -33 -27 -33l-36 29q-6 6 -23 80q-14 31 -33 69q-24 35 -114 39q-2 1 -45 15t-78 14q-98 0 -111 -51q0 -3 -14 -45l-15 -47q-18 -49 -34 -107q-3 -27 -23 -110t-20 -107q0 -57 53 -57q33 0 90 34t87 63q30 30 44 30t18 -23
q-2 -8 -6 -49l-4 -39q-2 -35 -28 -113l-11 -36q0 -4 -6 -43v-7q-4 -8 -4 -30q-5 -17 -19 -39t-24 -23q-12 0 -29 29l-16 29l-6 45l-29 34q-8 20 -18 28t-52 9q-42 0 -57 -18q-2 -2 -24 -100q-47 -100 -53 -132l-7 -44q-2 -11 -4 -19l-12 -53q-6 -27 -25 -92l-10 -35
q-16 -66 107 -72l84 -8h6q9 0 61 13t66 24l47 37q49 29 61 41q33 47 70 110q16 29 42 29t15 -43q-27 -139 -47 -189l-22 -79q-18 -39 -58 -39q-8 0 -108 20q-45 -6 -68 -6l-102 2l-152 -4l-70 2h-159l-90 -4q-18 0 -26 4q-7 4 -2 25t81 51q47 44 55 64t25 65l18 59
q2 10 7 38t10 44l16 74q4 29 6 41l6 20q25 107 37 147q12 41 14 48l27 147l12 58l25 88q12 49 35 108l-2 64q0 72 -8 86q-18 39 -76 82q-8 4 -4 20q8 47 67 43l45 -2q32 4 107 4l102 4q45 0 74 -8t37 -8l73 8l105 4q52 0 108 -14q4 2 50 8h14z" />
    <glyph glyph-name="Igrave" unicode="&#xcc;" horiz-adv-x="569" 
d="M498 1706q22 0 45 -16q29 -43 63 -91q30 -33 50 -57t14 -45q-2 -20 -27 -20l-8 2q-7 4 -23 11t-32 15l-78 25l-25 10q-31 10 -53 21q-23 18 -16 51q8 34 38 64t52 30zM203 0q-33 0 -68 10q-16 10 -13 26t11 23l64 45q23 28 29 50t12 34q27 80 29 116q3 36 8 56t23 80
q18 59 26 90l16 121l18 66q2 8 7 41l43 209q4 21 5 39t11 90l20 110q10 47 -24 81t-31 50q6 35 55 37l121 -6q66 8 106 8t59 -12t15 -39q-4 -12 -30 -31q-43 -27 -56 -53q-37 -68 -81 -291q-10 -66 -31 -170l-12 -55q-21 -104 -35 -145t-20 -87t-15 -71q-8 -25 -14 -103
l-21 -106l-6 -35q10 -27 22 -80l25 -30q12 -20 8 -35q-6 -33 -26 -33h-64q-27 -2 -51 -2h-2l-43 2h-90z" />
    <glyph glyph-name="Iacute" unicode="&#xcd;" horiz-adv-x="569" 
d="M812 1700q46 0 46 -42t-36 -77t-81 -39l-34 -4q-2 0 -32 -9t-50 -18q-12 -3 -44 -17t-36 -13q-16 0 -13 16q125 100 185 152q49 51 95 51zM203 0q-33 0 -68 10q-16 10 -13 26t11 23l64 45q23 28 29 50t12 34q27 80 29 116q3 36 8 56t23 80q18 59 26 90l16 121l18 66
q2 8 7 41l43 209q4 21 5 39t11 90l20 110q10 47 -24 81t-31 50q6 35 55 37l121 -6q66 8 106 8t59 -12t15 -39q-4 -12 -30 -31q-43 -27 -56 -53q-37 -68 -81 -291q-10 -66 -31 -170l-12 -55q-21 -104 -35 -145t-20 -87t-15 -71q-8 -25 -14 -103l-21 -106l-6 -35
q10 -27 22 -80l25 -30q12 -20 8 -35q-6 -33 -26 -33h-64q-27 -2 -51 -2h-2l-43 2h-90z" />
    <glyph glyph-name="Icircumflex" unicode="&#xce;" horiz-adv-x="569" 
d="M656 1724q22 0 31 -8t22 -37l24 -51l15 -29q35 -106 32 -121q-4 -16 -20 -16t-88 70q-31 74 -41 74q-25 0 -54 -39t-63 -61t-52 -36q-18 -13 -30 -14q-12 0 -10 21q12 12 39 47l69 82l19 26l41 39q12 18 31 43q13 10 35 10zM203 0q-33 0 -68 10q-16 10 -13 26t11 23
l64 45q23 28 29 50t12 34q27 80 29 116q3 36 8 56t23 80q18 59 26 90l16 121l18 66q2 8 7 41l43 209q4 21 5 39t11 90l20 110q10 47 -24 81t-31 50q6 35 55 37l121 -6q66 8 106 8t59 -12t15 -39q-4 -12 -30 -31q-43 -27 -56 -53q-37 -68 -81 -291q-10 -66 -31 -170l-12 -55
q-21 -104 -35 -145t-20 -87t-15 -71q-8 -25 -14 -103l-21 -106l-6 -35q10 -27 22 -80l25 -30q12 -20 8 -35q-6 -33 -26 -33h-64q-27 -2 -51 -2h-2l-43 2h-90z" />
    <glyph glyph-name="Idieresis" unicode="&#xcf;" horiz-adv-x="569" 
d="M735 1473q-61 0 -61 65q-8 29 19 77q28 48 69 50q106 10 86 -98q-6 -25 -16 -43t-46 -34q-38 -16 -51 -17zM510 1681q22 0 48 -23t28 -36l-6 -31v-32q-3 -8 -8 -15q-5 -8 -9 -16q-35 -53 -82 -53t-72 30q-55 65 33 139q46 38 68 37zM203 0q-33 0 -68 10q-16 10 -13 26
t11 23l64 45q23 28 29 50t12 34q27 80 29 116q3 36 8 56t23 80q18 59 26 90l16 121l18 66q2 8 7 41l43 209q4 21 5 39t11 90l20 110q10 47 -24 81t-31 50q6 35 55 37l121 -6q66 8 106 8t59 -12t15 -39q-4 -12 -30 -31q-43 -27 -56 -53q-37 -68 -81 -291q-10 -66 -31 -170
l-12 -55q-21 -104 -35 -145t-20 -87t-15 -71q-8 -25 -14 -103l-21 -106l-6 -35q10 -27 22 -80l25 -30q12 -20 8 -35q-6 -33 -26 -33h-64q-27 -2 -51 -2h-2l-43 2h-90z" />
    <glyph glyph-name="Eth" unicode="&#xd0;" horiz-adv-x="1284" 
d="M872 1274q-178 0 -213 -127q-6 -27 -38 -107q-2 0 -3 -2q0 -2 -2 -4v-76l-4 -26q-9 -9 -43 -152q-8 -39 21 -39q6 0 51 11l45 10q14 0 37 -25q4 -4 4 -22l2 -25l-29 -41q-14 -27 -28 -26l-68 10q-18 0 -45 -9t-29 -20l-8 -63l-10 -35l-8 -25l-12 -49l-15 -51
q-2 -16 -10 -88q-2 -6 -18 -72l-3 -6q-16 -68 23 -103q39 -34 57 -34t86 18l64 10l49 11q39 10 59 19t62 48l59 56q20 20 35 30q25 31 51 62q27 23 74 96q6 25 31 92l30 80q9 41 24 83t15 46l4 55l11 56q8 41 16 92q0 14 -29 84q-23 68 -45 112q-20 27 -63 57t-51 36
q-68 53 -136 53zM776 1374q39 -10 266 -10q18 -3 140 -78l22 -24q63 -43 105 -109q31 -35 63 -109q16 -102 12 -156t-14 -104l-43 -204q-12 -55 -72 -172q-15 -37 -43 -74t-129 -152q-51 -46 -115 -76t-167 -63q-94 -43 -164 -45l-137 -6q-23 0 -31 -3t-35 4q-28 7 -98 7
h-227q-31 4 -23 39q2 18 20 33q29 14 60 30q63 43 80 136q14 41 43 137l16 94v14q2 11 6 21t23 98q5 23 -15 25l-26 -4q-37 -4 -43 -5q-33 0 -17 74q1 14 21 38t31 22h18l25 -2l18 -5q23 4 26 34q15 148 35 203q21 56 24 66t5 48l2 34q0 7 2 17v2q0 51 -2 69t-22 48
q-4 2 -16 12l-23 18q-8 10 -6 31q10 37 92 37q41 0 104 -14q8 0 95 18z" />
    <glyph glyph-name="Ntilde" unicode="&#xd1;" horiz-adv-x="1374" 
d="M964 1681q22 0 39 -9q18 -9 33 -15l31 -12q63 -39 90 -39t98 47q11 -1 9 -15t-21 -28q-18 -18 -35 -37q-66 -74 -106 -74t-52 4q-13 4 -31 15q-19 10 -32 16l-39 12q-52 27 -76 27t-49 -27q-20 -27 -24 -26q-20 0 -17 16l20 24q9 11 21 25l29 27q33 33 57 51q33 18 55 18
zM141 0q-96 0 -88 41q4 14 23 25q57 25 85 45q27 20 51 63t45 138q21 96 29 134t17 74l4 21q5 25 19 67t16 47l6 37l8 41q4 47 18 83t22 75q7 39 24 88l10 51q12 60 12 116t-12 74t-78 56q-28 16 -20 50t35 32l53 -2q8 2 53 6l107 4l131 6q29 2 44 -12t-1 -45
q-10 -29 -18 -61t75 -232l14 -33q23 -68 123 -264q30 -49 66 -99t48 -74t32 -36l47 -27q23 0 41 38t45 130l30 107l23 108q10 41 15 54t5 16l7 55l2 29q2 43 14 152q-4 61 -84 118q-20 14 -17 26t14 28q11 14 17 14l117 -12q56 16 70 16h61q53 0 70 -4q23 -10 19 -28
t-21 -27l-45 -23q-66 -35 -80 -88l-20 -80t-31 -121q-14 -96 -31 -166l-10 -49q-8 -29 -31 -104l-33 -154q-29 -80 -37 -174l-24 -114q-3 -12 -13 -64t-11 -66q-1 -13 -5 -49q-14 -63 -61 -63q-20 0 -21 6l-33 82q-4 4 -20 35q-45 53 -64 98t-43 82q-24 38 -34 55l-17 19
l-24 47l-88 155q-65 105 -101 181l-33 73q-20 37 -59 115l-51 102q-23 0 -35 -36l-49 -215q-35 -154 -55 -227t-25 -96q-6 -23 -10 -36l-8 -63q-8 -61 -11 -74l-4 -27q-6 -33 -12 -86q-6 -98 100 -118q31 -6 23 -43q-4 -23 -94 -23h-21l-141 2q-39 0 -51 -2h-15z" />
    <glyph glyph-name="Ograve" unicode="&#xd2;" horiz-adv-x="1517" 
d="M974 1706q22 0 44 -16q29 -43 63 -91q29 -33 49 -57t15 -45q-2 -20 -27 -20l-8 2q-6 4 -22 11t-33 15l-78 25l-25 10q-31 10 -53 21q-23 18 -16 51q9 34 39 64t52 30zM733 72l60 -4q88 0 155 43l107 61q23 16 61 61l2 5q55 55 154 188q18 33 33 82l38 172q5 10 13 64
t16 104l-4 43q-4 82 -33 168q-18 47 -78 135q-12 23 -40 61q-6 8 -64 27q-35 16 -104 18l-64 11q-39 -2 -84 -29l-88 -51q-49 -39 -121 -111q-8 -8 -69 -88l-39 -51l-27 -43q-8 -12 -39 -64q-12 -25 -18 -60t-11 -53q-4 -17 -6 -30l-12 -61l-33 -131q-10 -45 8 -224
q0 -10 46 -73q16 -43 24 -56l49 -41q51 -45 76 -57q33 -10 92 -16zM1152 1405q64 1 114 -19t82 -52q34 -32 77 -66q10 -12 44 -50t41 -48t16 -33l24 -62q28 -70 34 -81t5 -66q14 -83 10 -102t-6 -29l-12 -82q0 -10 -20 -74l-17 -92q-4 -31 -21 -68t-77 -121l-45 -65
l-105 -98q-37 -37 -141 -115q-193 -106 -410 -107q-131 0 -192 21q-213 63 -285 295q-54 181 -45 305l19 111q2 2 6 41q30 142 176 321q2 2 12 14t37 43t51 60q118 100 238 150t140 54t102 9q84 6 148 6z" />
    <glyph glyph-name="Oacute" unicode="&#xd3;" horiz-adv-x="1517" 
d="M1287 1700q46 0 46 -42t-36 -77t-80 -39l-35 -4q-2 0 -32 -9t-50 -18q-12 -3 -44 -17t-36 -13q-16 0 -12 16q125 100 184 152q49 51 95 51zM733 72l60 -4q88 0 155 43l107 61q23 16 61 61l2 5q55 55 154 188q18 33 33 82l38 172q5 10 13 64t16 104l-4 43q-4 82 -33 168
q-18 47 -78 135q-12 23 -40 61q-6 8 -64 27q-35 16 -104 18l-64 11q-39 -2 -84 -29l-88 -51q-49 -39 -121 -111q-8 -8 -69 -88l-39 -51l-27 -43q-8 -12 -39 -64q-12 -25 -18 -60t-11 -53q-4 -17 -6 -30l-12 -61l-33 -131q-10 -45 8 -224q0 -10 46 -73q16 -43 24 -56l49 -41
q51 -45 76 -57q33 -10 92 -16zM1152 1405q64 1 114 -19t82 -52q34 -32 77 -66q10 -12 44 -50t41 -48t16 -33l24 -62q28 -70 34 -81t5 -66q14 -83 10 -102t-6 -29l-12 -82q0 -10 -20 -74l-17 -92q-4 -31 -21 -68t-77 -121l-45 -65l-105 -98q-37 -37 -141 -115
q-193 -106 -410 -107q-131 0 -192 21q-213 63 -285 295q-54 181 -45 305l19 111q2 2 6 41q30 142 176 321q2 2 12 14t37 43t51 60q118 100 238 150t140 54t102 9q84 6 148 6z" />
    <glyph glyph-name="Ocircumflex" unicode="&#xd4;" horiz-adv-x="1517" 
d="M1130 1724q22 0 30 -8q9 -8 22 -37l24 -51l15 -29q8 -18 21 -65t10 -59q-3 -13 -19 -13t-88 70q-31 74 -41 74q-25 0 -60 -47q-20 -31 -56 -53t-54 -36q-18 -13 -29 -14q-12 0 -10 21q12 12 39 47l35 43l35 39l18 26l41 39q12 18 31 43q14 10 36 10zM733 72l60 -4
q88 0 155 43l107 61q23 16 61 61l2 5q55 55 154 188q18 33 33 82l38 172q5 10 13 64t16 104l-4 43q-4 82 -33 168q-18 47 -78 135q-12 23 -40 61q-6 8 -64 27q-35 16 -104 18l-64 11q-39 -2 -84 -29l-88 -51q-49 -39 -121 -111q-8 -8 -69 -88l-39 -51l-27 -43
q-8 -12 -39 -64q-12 -25 -18 -60t-11 -53q-4 -17 -6 -30l-12 -61l-33 -131q-10 -45 8 -224q0 -10 46 -73q16 -43 24 -56l49 -41q51 -45 76 -57q33 -10 92 -16zM1152 1405q64 1 114 -19t82 -52q34 -32 77 -66q10 -12 44 -50t41 -48t16 -33l24 -62q28 -70 34 -81t5 -66
q14 -83 10 -102t-6 -29l-12 -82q0 -10 -20 -74l-17 -92q-4 -31 -21 -68t-77 -121l-45 -65l-105 -98q-37 -37 -141 -115q-193 -106 -410 -107q-131 0 -192 21q-213 63 -285 295q-54 181 -45 305l19 111q2 2 6 41q30 142 176 321q2 2 12 14t37 43t51 60q118 100 238 150
t140 54t102 9q84 6 148 6z" />
    <glyph glyph-name="Otilde" unicode="&#xd5;" horiz-adv-x="1517" 
d="M1034 1681q22 0 28 -3t21 -10q14 -7 25 -11l31 -12q63 -39 90 -39t98 47q12 -1 9 -15t-21 -28q-18 -18 -35 -37q-64 -74 -110 -74t-64 10t-47 25l-39 12q-52 27 -76 27t-49 -27q-20 -27 -25 -26q-20 0 -16 16q4 4 16 20t25 29l29 27q33 33 57 51q31 18 53 18zM733 72
l60 -4q88 0 155 43l107 61q23 16 61 61l2 5q55 55 154 188q18 33 33 82l38 172q5 10 13 64t16 104l-4 43q-4 82 -33 168q-18 47 -78 135q-12 23 -40 61q-6 8 -64 27q-35 16 -104 18l-64 11q-39 -2 -84 -29l-88 -51q-49 -39 -121 -111q-8 -8 -69 -88l-39 -51l-27 -43
q-8 -12 -39 -64q-12 -25 -18 -60t-11 -53q-4 -17 -6 -30l-12 -61l-33 -131q-10 -45 8 -224q0 -10 46 -73q16 -43 24 -56l49 -41q51 -45 76 -57q33 -10 92 -16zM1152 1405q64 1 114 -19t82 -52q34 -32 77 -66q10 -12 44 -50t41 -48t16 -33l24 -62q28 -70 34 -81t5 -66
q14 -83 10 -102t-6 -29l-12 -82q0 -10 -20 -74l-17 -92q-4 -31 -21 -68t-77 -121l-45 -65l-105 -98q-37 -37 -141 -115q-193 -106 -410 -107q-131 0 -192 21q-213 63 -285 295q-54 181 -45 305l19 111q2 2 6 41q30 142 176 321q2 2 12 14t37 43t51 60q118 100 238 150
t140 54t102 9q84 6 148 6z" />
    <glyph glyph-name="Odieresis" unicode="&#xd6;" horiz-adv-x="1517" 
d="M1264 1473q-59 0 -60 65q-6 33 20 80t66 47q106 10 86 -98q-6 -25 -15 -44t-43 -35t-54 -15zM932 1681q23 0 48 -23q24 -24 24 -32v-18t-3 -17v-32q-2 -10 -18 -31q-35 -53 -82 -53q-47 1 -73 31t-17 65q6 35 52 73t69 37zM733 72l60 -4q88 0 155 43l107 61q23 16 61 61
l2 5q55 55 154 188q18 33 33 82l38 172q5 10 13 64t16 104l-4 43q-4 82 -33 168q-18 47 -78 135q-12 23 -40 61q-6 8 -64 27q-35 16 -104 18l-64 11q-39 -2 -84 -29l-88 -51q-49 -39 -121 -111q-8 -8 -69 -88l-39 -51l-27 -43q-8 -12 -39 -64q-12 -25 -18 -60t-11 -53
q-4 -17 -6 -30l-12 -61l-33 -131q-10 -45 8 -224q0 -10 46 -73q16 -43 24 -56l49 -41q51 -45 76 -57q33 -10 92 -16zM1152 1405q64 1 114 -19t82 -52q34 -32 77 -66q10 -12 44 -50t41 -48t16 -33l24 -62q28 -70 34 -81t5 -66q14 -83 10 -102t-6 -29l-12 -82q0 -10 -20 -74
l-17 -92q-4 -31 -21 -68t-77 -121l-45 -65l-105 -98q-37 -37 -141 -115q-193 -106 -410 -107q-131 0 -192 21q-213 63 -285 295q-54 181 -45 305l19 111q2 2 6 41q30 142 176 321q2 2 12 14t37 43t51 60q118 100 238 150t140 54t102 9q84 6 148 6z" />
    <glyph glyph-name="multiply" unicode="&#xd7;" horiz-adv-x="944" 
d="M412 1006q35 0 98 -82l18 -25q16 -16 25 -33q41 -80 90 -80q12 0 49 34q36 34 60 54t93 80t90 60t45 -35t-3 -57l-55 -48q-72 -63 -97 -83q-104 -82 -109 -109t34 -72q47 -47 106 -115q59 -67 55 -83t-24 -17h-23q-12 0 -16 -4l-19 -14q-2 -2 -43 -2q-12 0 -81 94
q-6 14 -21 27q-25 29 -31 36q-27 50 -50 50t-43 -20t-34 -32q-12 -10 -22 -20l-58 -49l-67 -64q-66 -41 -79 -41t-15 9l-17 20q-35 29 -32 41q2 16 77 76l76 59q51 47 58 51t17 10t17 11q7 4 21 13q14 8 16 24t-2 24l-33 39q-7 14 -28 49q-10 10 -21 23l-59 59
q-47 74 -43 88t24 34t56 20z" />
    <glyph glyph-name="Oslash" unicode="&#xd8;" horiz-adv-x="1517" 
d="M1368 899q0 39 -23 120t-40 81q-16 0 -54 -49l-141 -185q-35 -45 -109 -131l-67 -94q-4 -4 -45 -55q-41 -52 -57 -71t-21 -27q-6 -8 -16 -27q-10 -18 -21 -33q-2 -8 -43 -51l-14 -21l-49 -51q-4 -4 -48 -63t-49 -72q-8 -43 58 -76q31 -16 51 -18l113 -8q88 0 155 43
q33 20 107 61q23 12 61 61l2 5q55 55 154 188q18 33 33 82l8 31l10 53q4 27 12 49l8 39q5 10 13 64t16 104q-4 12 -4 51zM985 1311q-39 -2 -84 -29l-88 -51q-49 -39 -121 -111q-8 -8 -69 -88l-39 -51l-27 -43q-9 -12 -29 -48t-28 -73t-10 -44t-3 -19q-2 -12 -4 -23l-12 -61
l-35 -138q-4 -31 4 -131l4 -63q0 -20 2 -30t20 -33t34 -23t59 53l41 51l41 45l33 54l65 71q107 144 129 168t37 41l80 113l51 55l35 51q118 147 126 162q10 18 26 34t19 33t-11 52l-14 22q-11 5 -61 23t-107 20zM1120 1405q150 0 213 -49q17 -14 29 -14t26 22t23 37l53 63
q20 31 36 42q16 12 41 12q52 1 44 -29q-6 -27 -104 -135l-15 -25q-18 -33 -20 -35q-8 -37 53 -104l27 -53l24 -62q28 -70 34 -81t5 -66q14 -85 10 -103t-6 -28l-12 -82q0 -10 -20 -74l-17 -94q-16 -74 -98 -187l-45 -65l-39 -39l-66 -59q-78 -78 -141 -115
q-193 -106 -410 -107q-129 0 -192 21q-18 2 -52 16t-43 15q-8 0 -36 -28t-64 -79q-47 -61 -82 -61q-59 0 -53 26q0 6 58 70l36 49q53 60 57 76t-9 31l-25 30q-66 103 -92 225t-27 158q0 36 4 88l17 95q2 6 6 41q16 78 56 152t58 95l62 74q80 98 100 117q118 100 238 150
t140 54t102 9q82 6 116 6z" />
    <glyph glyph-name="Ugrave" unicode="&#xd9;" horiz-adv-x="1431" 
d="M970 1706q22 0 44 -16q29 -43 63 -91q29 -33 49 -57t15 -45q-2 -20 -27 -20l-8 2q-6 4 -22 11t-33 15l-78 25l-25 10q-31 10 -53 21q-23 18 -16 51q9 34 39 64t52 30zM322 571q0 4 5 29l9 45q41 206 74 262l8 119l14 43l6 29q10 57 11 88q0 82 -46 102q-31 14 -37 22
t-4 19q6 25 56 29l49 2h22q7 -2 17 -2t24 2h99l127 4l78 2q29 0 42 -9q30 -21 -12 -63q-4 -4 -72 -26t-108 -78q-27 -44 -59 -207l-7 -45q0 -37 -26 -125l-4 -25q-5 -26 -18 -61t-14 -71q-1 -37 -15 -95l-13 -63l-10 -37q-39 -139 -22 -189q33 -94 41 -109q9 -15 33 -29
t52 -38t44 -24l96 14l100 -4q35 4 109 31q77 39 99 61t70 88t53 81t11 38t13 47l81 301l7 51l24 123l12 47q0 4 -2 6q7 62 2 87q-6 26 2 118q0 23 -8 37l-35 33q-5 6 -28 51l-37 31q-29 23 -25 33q2 20 58 20l143 -12l64 4h90l55 2q18 0 26 -6t5 -21q-2 -23 -64 -69l-26 -15
q-8 -2 -25 -10q-20 -12 -57 -70q-18 -31 -43 -165l-37 -193l-15 -45l-55 -231q-9 -71 -12 -104t-26 -81q-23 -49 -25 -58t-18 -38q-16 -28 -36 -67t-63 -76q-121 -111 -197 -123q-37 -8 -55 -11l-180 -14q-74 0 -171 29t-133 48t-77 85q-5 11 -28 44q-47 71 -15 216l2 14
l14 58l13 69v45z" />
    <glyph glyph-name="Uacute" unicode="&#xda;" horiz-adv-x="1431" 
d="M1283 1700q46 0 46 -42t-36 -77t-81 -39l-34 -4q-2 0 -32 -9t-50 -18q-12 -3 -44 -17t-36 -13q-16 0 -12 16q125 100 184 152q49 51 95 51zM322 571q0 4 5 29l9 45q41 206 74 262l8 119l14 43l6 29q10 57 11 88q0 82 -46 102q-31 14 -37 22t-4 19q6 25 56 29l49 2h22
q7 -2 17 -2t24 2h99l127 4l78 2q29 0 42 -9q30 -21 -12 -63q-4 -4 -72 -26t-108 -78q-27 -44 -59 -207l-7 -45q0 -37 -26 -125l-4 -25q-5 -26 -18 -61t-14 -71q-1 -37 -15 -95l-13 -63l-10 -37q-39 -139 -22 -189q33 -94 41 -109q9 -15 33 -29t52 -38t44 -24l96 14l100 -4
q35 4 109 31q77 39 99 61t70 88t53 81t11 38t13 47l81 301l7 51l24 123l12 47q0 4 -2 6q7 62 2 87q-6 26 2 118q0 23 -8 37l-35 33q-5 6 -28 51l-37 31q-29 23 -25 33q2 20 58 20l143 -12l64 4h90l55 2q18 0 26 -6t5 -21q-2 -23 -64 -69l-26 -15q-8 -2 -25 -10
q-20 -12 -57 -70q-18 -31 -43 -165l-37 -193l-15 -45l-55 -231q-9 -71 -12 -104t-26 -81q-23 -49 -25 -58t-18 -38q-16 -28 -36 -67t-63 -76q-121 -111 -197 -123q-37 -8 -55 -11l-180 -14q-74 0 -171 29t-133 48t-77 85q-5 11 -28 44q-47 71 -15 216l2 14l14 58l13 69v45z
" />
    <glyph glyph-name="Ucircumflex" unicode="&#xdb;" horiz-adv-x="1431" 
d="M1128 1724q22 0 30 -8q9 -8 22 -37l24 -51l15 -29q35 -106 32 -121q-4 -16 -20 -16t-88 70q-31 74 -41 74q-25 0 -54 -39q-30 -39 -64 -61t-52 -36q-18 -13 -29 -14q-12 0 -10 21q12 12 39 47l69 82l19 26l41 39q12 18 31 43q14 10 36 10zM322 571q0 4 5 29l9 45
q41 206 74 262l8 119l14 43l6 29q10 57 11 88q0 82 -46 102q-31 14 -37 22t-4 19q6 25 56 29l49 2h22q7 -2 17 -2t24 2h99l127 4l78 2q29 0 42 -9q30 -21 -12 -63q-4 -4 -72 -26t-108 -78q-27 -44 -59 -207l-7 -45q0 -37 -26 -125l-4 -25q-5 -26 -18 -61t-14 -71
q-1 -37 -15 -95l-13 -63l-10 -37q-39 -139 -22 -189q33 -94 41 -109q9 -15 33 -29t52 -38t44 -24l96 14l100 -4q35 4 109 31q77 39 99 61t70 88t53 81t11 38t13 47l81 301l7 51l24 123l12 47q0 4 -2 6q7 62 2 87q-6 26 2 118q0 23 -8 37l-35 33q-5 6 -28 51l-37 31
q-29 23 -25 33q2 20 58 20l143 -12l64 4h90l55 2q18 0 26 -6t5 -21q-2 -23 -64 -69l-26 -15q-8 -2 -25 -10q-20 -12 -57 -70q-18 -31 -43 -165l-37 -193l-15 -45l-55 -231q-9 -71 -12 -104t-26 -81q-23 -49 -25 -58t-18 -38q-16 -28 -36 -67t-63 -76q-121 -111 -197 -123
q-37 -8 -55 -11l-180 -14q-74 0 -171 29t-133 48t-77 85q-5 11 -28 44q-47 71 -15 216l2 14l14 58l13 69v45z" />
    <glyph glyph-name="Udieresis" unicode="&#xdc;" horiz-adv-x="1431" 
d="M1270 1473q-59 0 -60 65q-6 33 20 80t66 47q109 10 86 -98q-6 -25 -15 -44t-43 -35t-54 -15zM907 1475q-47 1 -73 31t-17 65q6 35 51 73q46 38 68 37q22 0 48 -23t28 -36l-4 -31v-32q-4 -10 -19 -31q-35 -53 -82 -53zM322 571q0 4 5 29l9 45q41 206 74 262l8 119l14 43
l6 29q10 57 11 88q0 82 -46 102q-31 14 -37 22t-4 19q6 25 56 29l49 2h22q7 -2 17 -2t24 2h99l127 4l78 2q29 0 42 -9q30 -21 -12 -63q-4 -4 -72 -26t-108 -78q-27 -44 -59 -207l-7 -45q0 -37 -26 -125l-4 -25q-5 -26 -18 -61t-14 -71q-1 -37 -15 -95l-13 -63l-10 -37
q-39 -139 -22 -189q33 -94 41 -109q9 -15 33 -29t52 -38t44 -24l96 14l100 -4q35 4 109 31q77 39 99 61t70 88t53 81t11 38t13 47l81 301l7 51l24 123l12 47q0 4 -2 6q7 62 2 87q-6 26 2 118q0 23 -8 37l-35 33q-5 6 -28 51l-37 31q-29 23 -25 33q2 20 58 20l143 -12l64 4
h90l55 2q18 0 26 -6t5 -21q-2 -23 -64 -69l-26 -15q-8 -2 -25 -10q-20 -12 -57 -70q-18 -31 -43 -165l-37 -193l-15 -45l-55 -231q-9 -71 -12 -104t-26 -81q-23 -49 -25 -58t-18 -38q-16 -28 -36 -67t-63 -76q-121 -111 -197 -123q-37 -8 -55 -11l-180 -14q-74 0 -171 29
t-133 48t-77 85q-5 11 -28 44q-47 71 -15 216l2 14l14 58l13 69v45z" />
    <glyph glyph-name="Yacute" unicode="&#xdd;" horiz-adv-x="1161" 
d="M1148 1700q46 0 46 -42t-36 -77t-81 -39l-35 -4q-2 0 -32 -9t-49 -18q-12 -3 -44 -17t-36 -13q-16 0 -13 16q125 100 185 152q49 51 95 51zM598 0q-39 0 -55 -4h-8l-60 4l-26 -2h-48q-45 0 -43 18t19 25l49 20q31 16 72 70q63 65 63 119l31 121q13 60 33 108l14 111
q8 49 10 78q-3 18 -23 66t-51 140q-55 93 -63 120q-8 26 -39 100t-37 80l-33 38l-28 41l-25 27q-45 35 -53 45t12 31q27 2 82 6l70 6q16 0 57 -8l78 6l45 -4q2 -2 54 -2t46 -33q-4 -12 -20 -27l-39 -34q-25 -24 -29 -48t41 -124q18 -51 64 -113q6 -16 20 -51l21 -45
q14 -57 26 -58q59 0 189 189q28 40 48 60l52 52q57 59 29 123q1 5 -15 23t-28 28t-8 25q6 33 65 33h21q14 0 39 -2l22 -2l72 8q31 0 83 -8t46 -37q-4 -17 -16 -27t-59 -32q-48 -22 -161 -125q-16 -14 -67 -88l-201 -226q-44 -39 -64 -75t-34 -109l-29 -133q-14 -49 -18 -58
q0 -25 -7 -67l-39 -158q-22 -91 43 -164q29 -29 26 -45t-19 -14l-45 2q-23 -4 -43 -2l-97 2h-12z" />
    <glyph glyph-name="Thorn" unicode="&#xde;" horiz-adv-x="1021" 
d="M895 731q0 27 10 103q2 26 -17 54t-85 99q-15 8 -35 12l-47 -2l-39 2q-41 4 -87 -54t-46 -134q-4 -10 -11 -40t-12 -44l-10 -57l-16 -49q-16 -47 -16 -69t-3 -51q-2 -28 4 -59q12 -45 50 -41l69 13q57 4 72 6q46 16 70 42t37 37q13 12 44 50l37 86q25 59 28 64t3 32z
M203 0q-33 0 -68 10q-16 10 -13 26t11 23l64 45q16 16 34 66l31 88l2 14q2 4 8 53t25 111q20 63 27 94l16 121l18 66q2 8 7 41l43 209q4 21 5 39t11 90l20 110q10 47 -24 81t-31 50q6 35 55 37l121 -6q66 8 106 8t59 -12t15 -39q-3 -12 -35 -34t-48 -44q-50 -90 -50 -141
q4 -10 11 -8l24 2l21 -2l10 2l55 -2l74 -4q8 -2 47 -15q154 -12 219 -237q22 -80 4 -156q-35 -156 -153 -244q-90 -78 -148 -94l-41 -10q-76 -18 -82 -19l-43 3l-65 -9l-53 4q-53 3 -64 -122q-2 -12 -2 -25l12 -35q6 -31 24 -61t17 -41q-6 -33 -26 -33h-64q-27 -2 -51 -2h-2
l-43 2h-90z" />
    <glyph glyph-name="germandbls" unicode="&#xdf;" horiz-adv-x="985" 
d="M637 696q0 33 35 73t45 60q92 96 92 193q0 143 -94 143q-59 0 -137 -90q-18 -27 -52 -170q0 -58 -24 -140q-24 -81 -39 -157q-45 -178 -126 -473t-105 -369q-84 -264 -205 -348q-70 -51 -160 -51t-90 72q0 94 69 94q49 0 62 -33q8 -33 33 -32q37 0 57 51l35 82q2 8 9 38
t13 50l148 579q34 119 51 234q8 31 26 91t17 95v4q-10 16 -27 23l-63 -2q-14 0 -14 16q0 25 48 39t95 70q20 96 92 215q2 6 61 70t70 77q72 68 242 68q78 0 128 -47t50 -120t-6 -130q-4 -27 -48 -77t-67 -70t-76 -50q-43 -31 -43 -63q-1 -11 7 -19t70 -48t116 -103
q61 -78 61 -142l-4 -49q0 -66 -61 -182q-41 -80 -133 -125q-8 -6 -76 -41q-23 -6 -103 -8l-45 -4q-57 0 -111 30t-54 82t34 103t90 51t56 -41q0 -6 -41 -129q-4 -12 29 -23q34 -10 44 -10q92 0 142 168q22 78 22 94t-2 31v35l6 55q0 55 -84 164q-29 20 -55 47q-10 16 -10 49
z" />
    <glyph glyph-name="agrave" unicode="&#xe0;" horiz-adv-x="684" 
d="M368 1034q32 28 60 29q29 0 57 -41t43 -59l43 -43q27 -26 24 -50t-26 -24q-14 0 -65 26l-105 33q-77 24 -68 74q5 27 37 55zM356 92q66 0 97 105l39 122l36 224q4 25 -14 67t-41 45h-27q-30 -4 -67 -37l-66 -133q-24 -53 -63 -295q-10 -42 22 -70t84 -28zM514 -12
q-12 0 -39 10q-25 24 -40 32q-6 -5 -85 -24t-110 -18q-92 0 -144 63q-12 16 -10 47v21q0 20 2 28v7l10 32q6 16 39 134t41 143q71 200 141 233q20 14 72 29l29 12q43 16 57 17q72 0 113 -16t74 -89q16 -35 4 -86q0 -16 -9 -37l-59 -264q-8 -42 -9 -62t13 -48t31 -33l29 -13
q4 -4 2 -12t-53 -57t-99 -49z" />
    <glyph glyph-name="aacute" unicode="&#xe1;" horiz-adv-x="684" 
d="M725 1044q51 0 51 -40q0 -53 -55 -86q-31 -18 -59 -23l-37 -4q-70 -17 -112 -36t-44 -19q-18 0 -16 15q1 15 29 31t121 88q93 74 122 74zM356 92q66 0 97 105l39 122l36 224q4 25 -14 67t-41 45h-27q-30 -4 -67 -37l-66 -133q-24 -53 -63 -295q-10 -42 22 -70t84 -28z
M514 -12q-12 0 -39 10q-25 24 -40 32q-6 -5 -85 -24t-110 -18q-92 0 -144 63q-12 16 -10 47v21q0 20 2 28v7l10 32q6 16 39 134t41 143q71 200 141 233q20 14 72 29l29 12q43 16 57 17q72 0 113 -16t74 -89q16 -35 4 -86q0 -16 -9 -37l-59 -264q-8 -42 -9 -62t13 -48t31 -33
l29 -13q4 -4 2 -12t-53 -57t-99 -49z" />
    <glyph glyph-name="acircumflex" unicode="&#xe2;" horiz-adv-x="684" 
d="M578 1081q20 0 32 -6q0 -6 19 -39l39 -73q16 -41 22 -60l8 -37q6 -10 3 -22t-21 -13q-8 0 -86 66q-37 70 -43 70q-27 0 -59 -45q-24 -28 -46 -40t-52 -34t-38 -23q-12 0 -10 21q2 6 37 43l33 43l35 37l18 24l41 37q25 37 36 44q12 7 32 7zM356 92q66 0 97 105l39 122
l36 224q4 25 -14 67t-41 45h-27q-30 -4 -67 -37l-66 -133q-24 -53 -63 -295q-10 -42 22 -70t84 -28zM514 -12q-12 0 -39 10q-25 24 -40 32q-6 -5 -85 -24t-110 -18q-92 0 -144 63q-12 16 -10 47v21q0 20 2 28v7l10 32q6 16 39 134t41 143q71 200 141 233q20 14 72 29l29 12
q43 16 57 17q72 0 113 -16t74 -89q16 -35 4 -86q0 -16 -9 -37l-59 -264q-8 -42 -9 -62t13 -48t31 -33l29 -13q4 -4 2 -12t-53 -57t-99 -49z" />
    <glyph glyph-name="atilde" unicode="&#xe3;" horiz-adv-x="684" 
d="M468 1016q36 0 81 -27l33 -10q72 -41 80 -41q35 0 104 43q27 0 -38 -68q-23 -24 -60 -57q-37 -16 -70 -16t-100 36q-68 36 -113 37q-18 0 -74 -49q-16 0 -14 16t31 40l39 30q65 66 101 66zM356 92q66 0 97 105l39 122l36 224q4 25 -14 67t-41 45h-27q-30 -4 -67 -37
l-66 -133q-24 -53 -63 -295q-10 -42 22 -70t84 -28zM514 -12q-12 0 -39 10q-25 24 -40 32q-6 -5 -85 -24t-110 -18q-92 0 -144 63q-12 16 -10 47v21q0 20 2 28v7l10 32q6 16 39 134t41 143q71 200 141 233q20 14 72 29l29 12q43 16 57 17q72 0 113 -16t74 -89q16 -35 4 -86
q0 -16 -9 -37l-59 -264q-8 -42 -9 -62t13 -48t31 -33l29 -13q4 -4 2 -12t-53 -57t-99 -49z" />
    <glyph glyph-name="adieresis" unicode="&#xe4;" horiz-adv-x="684" 
d="M559 942q19 74 100 74q35 0 60 -27q53 -57 -43 -131q-33 -23 -43 -22q-35 0 -70 34q-8 8 -4 43v29zM430 1018q16 0 43 -23q2 -5 5 -39t1 -36q-6 -35 -37 -60q-14 -14 -34 -14q-80 0 -82 57q-2 10 -2 35q16 80 106 80zM356 92q66 0 97 105l39 122l36 224q4 25 -14 67
t-41 45h-27q-30 -4 -67 -37l-66 -133q-24 -53 -63 -295q-10 -42 22 -70t84 -28zM514 -12q-12 0 -39 10q-25 24 -40 32q-6 -5 -85 -24t-110 -18q-92 0 -144 63q-12 16 -10 47v21q0 20 2 28v7l10 32q6 16 39 134t41 143q71 200 141 233q20 14 72 29l29 12q43 16 57 17
q72 0 113 -16t74 -89q16 -35 4 -86q0 -16 -9 -37l-59 -264q-8 -42 -9 -62t13 -48t31 -33l29 -13q4 -4 2 -12t-53 -57t-99 -49z" />
    <glyph glyph-name="aring" unicode="&#xe5;" horiz-adv-x="684" 
d="M564 1014q-22 0 -40 -18q-20 -18 -26 -48q-6 -29 28 -51l31 2q27 4 47 31q12 22 16 34t-15 31t-41 19zM520 831q-88 1 -88 89t98 139q38 16 51 17t46 -14t43 -30q10 -10 14 -45l2 -26q-12 -53 -60 -91t-106 -39zM356 92q66 0 97 105l39 122l36 224q4 25 -14 67t-41 45
h-27q-30 -4 -67 -37l-66 -133q-24 -53 -63 -295q-10 -42 22 -70t84 -28zM514 -12q-12 0 -39 10q-25 24 -40 32q-6 -5 -85 -24t-110 -18q-92 0 -144 63q-12 16 -10 47v21q0 20 2 28v7l10 32q6 16 39 134t41 143q71 200 141 233q20 14 72 29l29 12q43 16 57 17q72 0 113 -16
t74 -89q16 -35 4 -86q0 -16 -9 -37l-59 -264q-8 -42 -9 -62t13 -48t31 -33l29 -13q4 -4 2 -12t-53 -57t-99 -49z" />
    <glyph glyph-name="ae" unicode="&#xe6;" horiz-adv-x="1054" 
d="M516 401q0 17 -18 17t-46 -20t-42 -31l-35 -23q-35 -20 -43 -29q-70 -63 -81 -115t23 -80t74 -28q41 0 70 21q80 51 86 82q0 15 -4 45t6 92t10 69zM844 678q-32 0 -75 -31q-44 -31 -49 -61t9 -37q33 -12 186 -12q53 -1 61 33t-18 66t-54 37t-60 5zM1016 182q14 0 10 -15
t-14 -28q0 -5 -13 -31q-16 -32 -86 -77q-71 -45 -186 -45q-54 0 -121 39q-12 10 -32 43q-20 32 -40 32q-22 0 -112 -57t-182 -57q-90 0 -144 65q-8 18 -10 84q19 97 41 131q31 51 152 119q25 14 94 40t106 50q43 33 48 61t-13 72q-18 45 -43 47h-45q-14 -4 -47 -37
q-59 -51 -90 -51q-37 0 -28 46t58 83q20 14 72 29l29 12q37 16 57 17q80 0 113 -14t52 -49q18 -36 32 -36t41 21q100 76 197 76t167 -80q49 -57 49 -107q0 -92 -81 -92l-52 4l-114 -6h-31l-113 8q-41 0 -66 -19q-25 -18 -29 -34t-9 -74q-6 -58 -4 -65q6 -31 63 -89t127 -59
q106 0 182 39q12 4 15 4z" />
    <glyph glyph-name="ccedilla" unicode="&#xe7;" horiz-adv-x="694" 
d="M479 72q74 0 164 45q32 0 -18 -39l-45 -33l-70 -43q-4 0 -52 -11t-52 -27q-4 -17 2 -19l38 -19q6 -2 16 -26t9 -29l-16 -41l-4 -29q-4 -18 -29 -39q-63 -47 -107 -47q-43 1 -61 11t-36 36t-13 44q4 18 20 32t29 15q14 0 29 -46q6 -16 59 -16q45 0 45 55q0 14 -6 17
l-51 28q-10 5 -7 17t8 30t10 40t-15 22q-63 8 -131 80l-13 18l-11 22q-5 12 -16 32t-20 51q0 33 2 82q0 25 4 110q29 127 134 231t239 122q4 2 82 2t96 -7q106 -33 88 -131q-6 -25 -28 -44t-43 -19q-55 0 -105 80q-4 8 -8 13t-7 9t-8 7q-5 2 -9 6t-11 5q-8 1 -11 2t-14 1
l-35 2h-22q-43 -4 -92 -58t-78 -178q0 -6 -4 -35l-12 -53q2 6 8 -14t25 -110q20 -90 64 -124t63 -30h26z" />
    <glyph glyph-name="egrave" unicode="&#xe8;" horiz-adv-x="671" 
d="M476 678q-54 0 -95 -35t-45 -61t10 -33q35 -12 186 -12q53 0 60 30q10 47 -26 79t-90 32zM633 182q14 0 10 -15t-14 -28q-19 -51 -56 -80q-10 -10 -32 -22q-82 -51 -197 -51q-25 0 -74 16q-43 18 -47 23q-35 27 -96 180q-10 91 -3 115q60 203 130 270q18 23 88 92
q94 70 182 70q119 0 195 -111q35 -49 24 -96q-16 -72 -79 -72l-52 4l-114 -6h-31l-113 8q-41 0 -66 -19q-24 -18 -30 -38t-11 -70t1 -74t52 -70t75 -57t65 -11t96 12q60 14 77 22t20 8zM428 1034q32 28 58 29q26 0 49 -23q16 -26 55 -77l43 -43q27 -27 22 -54
q-2 -20 -24 -20q-12 0 -66 26l-104 33q-29 8 -42 15q-35 16 -28 51q5 35 37 63z" />
    <glyph glyph-name="eacute" unicode="&#xe9;" horiz-adv-x="671" 
d="M476 678q-54 0 -95 -35t-45 -61t10 -33q35 -12 186 -12q53 0 60 30q10 47 -26 79t-90 32zM633 182q14 0 10 -15t-14 -28q-19 -51 -56 -80q-10 -10 -32 -22q-82 -51 -197 -51q-25 0 -74 16q-43 18 -47 23q-35 27 -96 180q-10 91 -3 115q60 203 130 270q18 23 88 92
q94 70 182 70q119 0 195 -111q35 -49 24 -96q-16 -72 -79 -72l-52 4l-114 -6h-31l-113 8q-41 0 -66 -19q-24 -18 -30 -38t-11 -70t1 -74t52 -70t75 -57t65 -11t96 12q60 14 77 22t20 8zM772 1044q51 0 51 -40q0 -53 -55 -86q-33 -20 -59 -23l-37 -4q-25 -6 -40 -11l-24 -8
q-21 -5 -55 -21q-35 -15 -37 -15q-20 0 -16 18q4 12 34 30t119 88q90 72 119 72z" />
    <glyph glyph-name="ecircumflex" unicode="&#xea;" horiz-adv-x="671" 
d="M476 678q-54 0 -95 -35t-45 -61t10 -33q35 -12 186 -12q53 0 60 30q10 47 -26 79t-90 32zM633 182q14 0 10 -15t-14 -28q-19 -51 -56 -80q-10 -10 -32 -22q-82 -51 -197 -51q-25 0 -74 16q-43 18 -47 23q-35 27 -96 180q-10 91 -3 115q60 203 130 270q18 23 88 92
q94 70 182 70q119 0 195 -111q35 -49 24 -96q-16 -72 -79 -72l-52 4l-114 -6h-31l-113 8q-41 0 -66 -19q-24 -18 -30 -38t-11 -70t1 -74t52 -70t75 -57t65 -11t96 12q60 14 77 22t20 8zM584 1081q20 0 32 -6q0 -6 19 -39l24 -47l15 -26q12 -31 20 -59t12 -38t2 -22
q-4 -12 -18 -12t-90 65q-37 70 -43 70q-27 0 -52 -34t-31 -40q-6 -5 -24 -15t-36 -22l-32 -21q-14 -9 -22 -9q-10 0 -8 20q2 6 37 43l33 43l35 37l18 24l41 37q25 37 36 44q12 7 32 7z" />
    <glyph glyph-name="edieresis" unicode="&#xeb;" horiz-adv-x="671" 
d="M476 678q-54 0 -95 -35t-45 -61t10 -33q35 -12 186 -12q53 0 60 30q10 47 -26 79t-90 32zM633 182q14 0 10 -15t-14 -28q-19 -51 -56 -80q-10 -10 -32 -22q-82 -51 -197 -51q-25 0 -74 16q-43 18 -47 23q-35 27 -96 180q-10 91 -3 115q60 203 130 270q18 23 88 92
q94 70 182 70q119 0 195 -111q35 -49 24 -96q-16 -72 -79 -72l-52 4l-114 -6h-31l-113 8q-41 0 -66 -19q-24 -18 -30 -38t-11 -70t1 -74t52 -70t75 -57t65 -11t96 12q60 14 77 22t20 8zM702 1016q37 0 62 -27q53 -57 -43 -131q-33 -23 -43 -22q-39 0 -70 34q-8 8 -4 43v29
q6 30 34 52t64 22zM475 1018q16 0 43 -23q6 -6 7 -54t-38 -81q-14 -14 -34 -14q-80 0 -82 57q-2 14 -2 35q16 80 106 80z" />
    <glyph glyph-name="igrave" unicode="&#xec;" horiz-adv-x="444" 
d="M299 0l-177 -2q-34 0 -30 22q4 14 46 51t34 68q18 57 27 84q10 27 16 60l10 43q17 111 31 155l6 21l17 49q6 27 -15 41q-35 31 -31 46t19 24l102 47q16 4 51 20t41 16q33 0 -4 -81q-6 -14 -16 -74t-26 -115q-15 -55 -19 -91t-8 -46l-11 -41q-31 -145 -16 -211
q20 -57 19 -66q-5 -30 -66 -20zM300 1063q22 0 44 -14l31 -41q16 -23 33 -45l43 -43q27 -27 22 -54q-2 -20 -24 -20q-12 0 -66 26l-104 33q-29 8 -42 15q-35 16 -28 51q5 35 37 63t54 29z" />
    <glyph glyph-name="iacute" unicode="&#xed;" horiz-adv-x="444" 
d="M299 0l-177 -2q-34 0 -30 22q4 14 46 51t34 68q18 57 27 84q10 27 16 60l10 43q17 111 31 155l6 21l17 49q6 27 -15 41q-35 31 -31 46t19 24l102 47q16 4 51 20t41 16q33 0 -4 -81q-6 -14 -16 -74t-26 -115q-15 -55 -19 -91t-8 -46l-11 -41q-31 -145 -16 -211
q20 -57 19 -66q-5 -30 -66 -20zM604 1044q51 0 51 -40q0 -53 -55 -86q-33 -20 -59 -23l-37 -4q-25 -6 -40 -11l-24 -8q-21 -5 -55 -21q-35 -15 -37 -15q-20 0 -16 18q4 12 34 30t119 88q90 72 119 72z" />
    <glyph glyph-name="icircumflex" unicode="&#xee;" horiz-adv-x="444" 
d="M299 0l-177 -2q-34 0 -30 22q4 14 46 51t34 68q18 57 27 84q10 27 16 60l10 43q17 111 31 155l6 21l17 49q6 27 -15 41q-35 31 -31 46t19 24l102 47q16 4 51 20t41 16q33 0 -4 -81q-6 -14 -16 -74t-26 -115q-15 -55 -19 -91t-8 -46l-11 -41q-31 -145 -16 -211
q20 -57 19 -66q-5 -30 -66 -20zM456 1081q20 0 33 -6q0 -6 19 -39l24 -47l15 -26q12 -31 20 -59q9 -28 13 -38t1 -22t-17 -12t-91 65q-37 70 -43 70q-27 0 -52 -34q-26 -34 -32 -40q-6 -5 -24 -15t-35 -22l-31 -21q-14 -9 -23 -9t-8 20q2 6 37 43l33 43l35 37l18 24l41 37
q25 37 36 44t31 7z" />
    <glyph glyph-name="idieresis" unicode="&#xef;" horiz-adv-x="444" 
d="M543 1020q35 0 49 -31q10 -31 5 -55t-33 -62t-44 -36q-37 0 -65 34q-8 10 -4 43v31q5 24 31 50t61 26zM348 1018q16 0 43 -23q6 -6 7 -54t-38 -81q-14 -14 -34 -14q-80 0 -82 57q-2 14 -2 35q16 80 106 80zM299 0l-177 -2q-34 0 -30 22q4 14 46 51t34 68q18 57 27 84
q10 27 16 60l10 43q17 111 31 155l6 21l17 49q6 27 -15 41q-35 31 -31 46t19 24l102 47q16 4 51 20t41 16q33 0 -4 -81q-6 -14 -16 -74t-26 -115q-15 -55 -19 -91t-8 -46l-11 -41q-31 -145 -16 -211q20 -57 19 -66q-5 -30 -66 -20z" />
    <glyph glyph-name="eth" unicode="&#xf0;" horiz-adv-x="864" 
d="M520 666q-89 0 -178 -121q-31 -41 -47 -121l-21 -105q0 -46 6 -75t8 -43q1 -14 3 -27q18 -33 31 -39l24 -12l23 -14q10 -7 20 -13q27 -17 37 -22h2q52 0 114 30t124 145q62 116 51 179l-10 57q-2 18 -21 97q-41 84 -166 84zM612 752q30 0 66 -9l41 -6q14 -1 17 17t-3 82
l-18 43q-6 25 -37 137q-20 94 -51 94q-2 0 -45 -28t-52 -27q-12 0 -20 20q-41 41 -39 53q3 12 23 30t48 28t29 28q2 6 -49 58l-43 35q-35 29 -33 41q2 20 30 20t61 -27l27 -15l30 -19q74 -45 76 -50q42 -1 75 25t35 29q48 16 60 16t28 -29t14 -43t-26 -24l-39 -21
q-72 -29 -74 -47q-3 -5 25 -43q91 -125 114 -273q23 -147 13 -239v-86q-4 -55 -18 -130t-74 -170t-107 -132q-137 -102 -241 -102t-190 56q-85 56 -130 155q-20 47 -6 129q0 4 3 14t6 26t7 31l17 72q10 53 100 145t262 125q58 11 88 11z" />
    <glyph glyph-name="ntilde" unicode="&#xf1;" horiz-adv-x="817" 
d="M451 700q116 58 153 58t105 -19q66 -10 84 -57q6 -61 4 -117l-2 -26l-9 -39l-10 -62q-12 -45 -16 -61l-15 -86q-8 -47 -8 -82t3 -69t23 -65q19 -30 23 -38t7 -10q-6 -27 -52 -27h-26q-12 0 -53 4h-7q-16 -4 -57 -4h-18q-49 0 -76 2q-20 2 -18 20t26 36q22 20 45 61l25 41
l16 96q0 2 10 26t21 70q41 199 33 236q-16 86 -89 86q-55 0 -100 -35q-4 -8 -24 -39l-29 -45l-14 -59l-9 -23l-4 -22q-4 -4 -6 -17l-6 -24q-8 -35 -23 -66q-6 -59 -10 -84q-14 -43 -14 -57l-4 -47l-4 -37q0 -3 3 -19t5 -28q14 -23 30 -35q16 -13 14 -25q-4 -12 -26 -12
t-102 10l-55 4q-14 2 -46 -6t-52 -8q-44 0 -38 29q2 16 52 45q15 10 43 50q47 68 77 234l15 62q2 8 14 58t-6 75q-20 12 -66 45q-4 12 0 16q4 16 45 36t107 50q82 56 92 56t14 -6l-4 -45q4 -4 9 -5zM709 840q-34 0 -68 18q-35 18 -86 36t-67 19q-16 0 -68 -49q-18 0 -14 16
t30 40l39 30q66 66 101 66t81 -27l33 -10q72 -41 80 -41q33 0 104 43q14 0 10 -10q-4 -9 -42 -49q-36 -40 -66 -66q-33 -16 -67 -16z" />
    <glyph glyph-name="ograve" unicode="&#xf2;" horiz-adv-x="864" 
d="M518 666q-35 0 -67 -17q-66 -45 -109 -104q-33 -41 -49 -121l-21 -105l7 -55q6 -49 10 -90q14 -27 33 -39l47 -26q47 -35 57 -35q52 0 116 30t110 115t58 139t5 70l-10 57q-2 18 -21 97q-37 84 -166 84zM455 -12q-115 0 -185 51t-88 76q-61 78 -61 159q0 25 7 54
q8 29 22 97t32 93q94 137 238 191q103 39 181 40q79 1 93 -3t66 -29q52 -24 71 -62l21 -37q35 -63 35 -135q0 -139 -123 -321q-45 -61 -131 -115q-82 -47 -84 -47q-55 -12 -94 -12zM512 1063q22 0 43 -14l31 -41q16 -23 32 -45l44 -43q27 -27 22 -54q-2 -20 -25 -20
q-12 0 -65 26l-105 33q-29 8 -42 15q-34 16 -28 51q7 35 39 63t54 29z" />
    <glyph glyph-name="oacute" unicode="&#xf3;" horiz-adv-x="864" 
d="M518 666q-35 0 -67 -17q-66 -45 -109 -104q-33 -41 -49 -121l-21 -105l7 -55q6 -49 10 -90q14 -27 33 -39l47 -26q47 -35 57 -35q52 0 116 30t110 115t58 139t5 70l-10 57q-2 18 -21 97q-37 84 -166 84zM455 -12q-115 0 -185 51t-88 76q-61 78 -61 159q0 25 7 54
q8 29 22 97t32 93q94 137 238 191q103 39 181 40q79 1 93 -3t66 -29q52 -24 71 -62l21 -37q35 -63 35 -135q0 -139 -123 -321q-45 -61 -131 -115q-82 -47 -84 -47q-55 -12 -94 -12zM815 1044q51 0 51 -40q0 -53 -55 -86q-33 -20 -59 -23l-37 -4q-25 -6 -40 -11l-24 -8
q-21 -5 -55 -21q-35 -15 -37 -15q-20 0 -16 18q3 12 33 30t120 88q90 72 119 72z" />
    <glyph glyph-name="ocircumflex" unicode="&#xf4;" horiz-adv-x="864" 
d="M518 666q-35 0 -67 -17q-66 -45 -109 -104q-33 -41 -49 -121l-21 -105l7 -55q6 -49 10 -90q14 -27 33 -39l47 -26q47 -35 57 -35q52 0 116 30t110 115t58 139t5 70l-10 57q-2 18 -21 97q-37 84 -166 84zM455 -12q-115 0 -185 51t-88 76q-61 78 -61 159q0 25 7 54
q8 29 22 97t32 93q94 137 238 191q103 39 181 40q79 1 93 -3t66 -29q52 -24 71 -62l21 -37q35 -63 35 -135q0 -139 -123 -321q-45 -61 -131 -115q-82 -47 -84 -47q-55 -12 -94 -12zM668 1081q20 0 32 -6q0 -6 19 -39l24 -47l15 -26q12 -31 20 -59t12 -38q13 -33 -20 -35
q-10 0 -86 66q-37 70 -43 70q-27 0 -52 -34t-31 -40q-6 -5 -24 -15t-36 -22l-32 -21q-14 -9 -22 -9q-10 0 -8 20q2 6 37 43l33 43l35 37l18 24l41 37q25 37 36 44q12 7 32 7z" />
    <glyph glyph-name="otilde" unicode="&#xf5;" horiz-adv-x="864" 
d="M518 666q-35 0 -67 -17q-66 -45 -109 -104q-33 -41 -49 -121l-21 -105l7 -55q6 -49 10 -90q14 -27 33 -39l47 -26q47 -35 57 -35q52 0 116 30t110 115t58 139t5 70l-10 57q-2 18 -21 97q-37 84 -166 84zM455 -12q-115 0 -185 51t-88 76q-61 78 -61 159q0 25 7 54
q8 29 22 97t32 93q94 137 238 191q103 39 181 40q79 1 93 -3t66 -29q52 -24 71 -62l21 -37q35 -63 35 -135q0 -139 -123 -321q-45 -61 -131 -115q-82 -47 -84 -47q-55 -12 -94 -12zM557 1016q35 0 82 -27l33 -10q72 -41 80 -41q33 0 104 43q14 0 9 -10q-5 -9 -41 -49
t-66 -66q-33 -16 -68 -16t-68 18q-34 18 -85 36t-68 19q-17 0 -53 -36l-15 -13q-18 0 -14 16t31 40l39 30q65 66 100 66z" />
    <glyph glyph-name="odieresis" unicode="&#xf6;" horiz-adv-x="864" 
d="M518 666q-35 0 -67 -17q-66 -45 -109 -104q-33 -41 -49 -121l-21 -105l7 -55q6 -49 10 -90q14 -27 33 -39l47 -26q47 -35 57 -35q52 0 116 30t110 115t58 139t5 70l-10 57q-2 18 -21 97q-37 84 -166 84zM455 -12q-115 0 -185 51t-88 76q-61 78 -61 159q0 25 7 54
q8 29 22 97t32 93q94 137 238 191q103 39 181 40q79 1 93 -3t66 -29q52 -24 71 -62l21 -37q35 -63 35 -135q0 -139 -123 -321q-45 -61 -131 -115q-82 -47 -84 -47q-55 -12 -94 -12zM745 1016q37 0 62 -27q53 -57 -43 -131q-33 -23 -43 -22q-39 0 -70 34q-8 8 -4 43v29
q5 30 33 52t65 22zM518 1018q16 0 43 -23q6 -6 7 -54t-38 -81q-14 -14 -34 -14q-80 0 -82 57q-2 14 -2 35q16 80 106 80z" />
    <glyph glyph-name="divide" unicode="&#xf7;" horiz-adv-x="944" 
d="M598 512q16 0 53 -43q18 -23 11 -66q-23 -96 -97 -96q-2 -1 -43 17t-61 30q-10 18 -2 62t35 67q8 9 48 19t56 10zM664 1057q-12 0 92 -25q32 -16 20 -70t-35 -73q-9 -9 -43 -23t-56 -14t-58 43q-23 23 -13 70t37 69t56 23zM778 621l-91 8q-105 0 -263 -17h-14
q-41 4 -76 4h-37q-37 0 -53 11q-6 8 4 55l2 29q6 29 51 28l74 -4q5 -2 27 -2t63 8l24 2q16 2 93 2t88 -2q63 8 88 9l80 -4l6 2l49 2l86 -4q29 -4 20 -23l-10 -35l-4 -41q-6 -29 -57 -28q-9 2 -54 6z" />
    <glyph glyph-name="oslash" unicode="&#xf8;" horiz-adv-x="864" 
d="M510 666q-74 0 -168 -121q-34 -43 -54 -141t-15 -124t9 -56t13 -29q8 0 37 41l22 24l49 62l78 88l35 49q50 60 83 98q34 39 36 55q6 31 -35 41q-60 13 -90 13zM686 522h-7q-7 0 -12 -5t-11 -10t-12 -16q-7 -10 -11 -16t-11 -17l-14 -22q-14 -14 -41 -49l-14 -18l-49 -47
q-45 -61 -129 -160q-31 -40 -15 -45l23 -19q31 -25 43 -24q147 0 231 153q74 141 56 225q-9 38 -11 54t-16 16zM508 737q58 13 112 13t78 -6q23 -6 31 -7q18 0 57 64q27 33 39 41t48 8t32 -25q-10 -39 -78 -100q-16 -17 -18 -29t27 -45l16 -35q37 -53 37 -127
q0 -133 -109 -303q-35 -53 -86 -96q-133 -102 -221 -102t-135 17t-59 17q-11 0 -65 -54t-80 -54t-39 6t-11 19l92 110q16 16 23 29q2 6 -29 59l-35 62q-27 43 -8 127v6q5 10 9 31q3 20 9 40q7 20 13 55t24 60q92 131 238 191q57 25 88 28z" />
    <glyph glyph-name="ugrave" unicode="&#xf9;" horiz-adv-x="784" 
d="M496 -31q-18 0 -19 17l2 45q4 6 -6 6q-35 -13 -61 -31t-68 -18q-106 0 -156 129q-12 33 9 132t33 139t16 58t5 24t3 17q2 12 8 60q6 49 2 73t-36 54q-32 31 -31 45q1 20 25 20t28 -2l51 -10q73 10 93 10t35 -14q15 -13 12 -29t-33 -102l-72 -354l-14 -43q-7 -7 -7 -21
q-10 -49 17 -82q12 -18 30 -18t64 16q45 16 61 32t43 53q27 38 31 58l12 89q20 53 26 110t40 160q18 31 6 57l-31 80q20 12 27 12l45 -8l92 2q30 0 17 -61l-27 -123l-18 -74l-23 -115q-6 -35 -8 -45t-2 -18l-29 -104q-6 -14 13 -47t26 -50q0 -6 -20 -18l-60 -37
q-102 -74 -151 -74zM470 1063q22 0 44 -14l31 -41q16 -23 33 -45l43 -43q27 -27 22 -54q-2 -20 -25 -20q-12 0 -65 26l-104 33q-29 8 -42 15q-35 16 -28 51q5 35 37 63t54 29z" />
    <glyph glyph-name="uacute" unicode="&#xfa;" horiz-adv-x="784" 
d="M496 -31q-18 0 -19 17l2 45q4 6 -6 6q-35 -13 -61 -31t-68 -18q-106 0 -156 129q-12 33 9 132t33 139t16 58t5 24t3 17q2 12 8 60q6 49 2 73t-36 54q-32 31 -31 45q1 20 25 20t28 -2l51 -10q73 10 93 10t35 -14q15 -13 12 -29t-33 -102l-72 -354l-14 -43q-7 -7 -7 -21
q-10 -49 17 -82q12 -18 30 -18t64 16q45 16 61 32t43 53q27 38 31 58l12 89q20 53 26 110t40 160q18 31 6 57l-31 80q20 12 27 12l45 -8l92 2q30 0 17 -61l-27 -123l-18 -74l-23 -115q-6 -35 -8 -45t-2 -18l-29 -104q-6 -14 13 -47t26 -50q0 -6 -20 -18l-60 -37
q-102 -74 -151 -74zM774 1044q51 0 51 -40q0 -53 -55 -86q-33 -20 -59 -23l-37 -4q-25 -6 -40 -11l-24 -8q-21 -5 -55 -21q-35 -15 -37 -15q-20 0 -16 18q4 12 34 30t119 88q90 72 119 72z" />
    <glyph glyph-name="ucircumflex" unicode="&#xfb;" horiz-adv-x="784" 
d="M496 -31q-18 0 -19 17l2 45q4 6 -6 6q-35 -13 -61 -31t-68 -18q-106 0 -156 129q-12 33 9 132t33 139t16 58t5 24t3 17q2 12 8 60q6 49 2 73t-36 54q-32 31 -31 45q1 20 25 20t28 -2l51 -10q73 10 93 10t35 -14q15 -13 12 -29t-33 -102l-72 -354l-14 -43q-7 -7 -7 -21
q-10 -49 17 -82q12 -18 30 -18t64 16q45 16 61 32t43 53q27 38 31 58l12 89q20 53 26 110t40 160q18 31 6 57l-31 80q20 12 27 12l45 -8l92 2q30 0 17 -61l-27 -123l-18 -74l-23 -115q-6 -35 -8 -45t-2 -18l-29 -104q-6 -14 13 -47t26 -50q0 -6 -20 -18l-60 -37
q-102 -74 -151 -74zM626 1081q20 0 33 -6q0 -6 19 -39l24 -47l15 -26q12 -31 20 -59q9 -28 13 -38t1 -22t-17 -12t-91 65q-37 70 -43 70q-27 0 -52 -34q-26 -34 -32 -40q-6 -5 -24 -15t-35 -22l-31 -21q-14 -9 -23 -9t-8 20q2 6 37 43l33 43l35 37l18 24l41 37q25 37 36 44
t31 7z" />
    <glyph glyph-name="udieresis" unicode="&#xfc;" horiz-adv-x="784" 
d="M496 -31q-18 0 -19 17l2 45q4 6 -6 6q-35 -13 -61 -31t-68 -18q-106 0 -156 129q-12 33 9 132t33 139t16 58t5 24t3 17q2 12 8 60q6 49 2 73t-36 54q-32 31 -31 45q1 20 25 20t28 -2l51 -10q73 10 93 10t35 -14q15 -13 12 -29t-33 -102l-72 -354l-14 -43q-7 -7 -7 -21
q-10 -49 17 -82q12 -18 30 -18t64 16q45 16 61 32t43 53q27 38 31 58l12 89q20 53 26 110t40 160q18 31 6 57l-31 80q20 12 27 12l45 -8l92 2q30 0 17 -61l-27 -123l-18 -74l-23 -115q-6 -35 -8 -45t-2 -18l-29 -104q-6 -14 13 -47t26 -50q0 -6 -20 -18l-60 -37
q-102 -74 -151 -74zM705 1016q37 0 61 -27q52 -57 -43 -131q-33 -23 -43 -22q-39 0 -70 34q-8 8 -4 43v29q6 30 34 52t65 22zM477 1018q16 0 43 -23q6 -6 7 -54t-38 -81q-14 -14 -34 -14q-80 0 -82 57q-2 14 -2 35q16 80 106 80z" />
    <glyph glyph-name="yacute" unicode="&#xfd;" horiz-adv-x="702" 
d="M451 262q25 0 49 49q2 5 6 11t10 18t12 20l43 76q67 98 88 168q4 16 -20 92v17q6 25 41 24l63 -4l58 2q56 1 50 -31q-3 -16 -56 -63l-17 -27q-44 -57 -70 -115t-54 -97l-99 -158l-55 -111l-35 -51q-33 -80 -131 -209l-47 -61q-37 -51 -66 -105q-61 -94 -76 -110
q-113 -137 -170 -146q-6 -2 -38 -2q-51 0 -43 45q6 25 28 41q14 14 78 31q45 12 152 186l69 111l23 45q33 63 41 99t8 79v39l-4 41q0 51 -2 94q-6 6 -27 111q-6 47 -13 121t-65 166q-19 35 -26 42q6 35 108 35l109 -12q47 -4 76 -6q29 -17 -15 -63q-24 -24 -26 -36v-108
q-17 -85 6 -133q18 -115 37 -115zM774 1044q51 0 51 -40q0 -53 -55 -86q-33 -20 -59 -23l-37 -4q-25 -6 -40 -11l-24 -8q-21 -5 -55 -21q-35 -15 -37 -15q-20 0 -16 18q4 12 34 30t119 88q90 72 119 72z" />
    <glyph glyph-name="thorn" unicode="&#xfe;" horiz-adv-x="821" 
d="M707 423q0 198 -166 198q-92 0 -119 -64l-14 -49l-21 -62l-8 -51l-33 -149l-6 -41l-8 -41q8 -53 12 -64q16 -35 98 -37l7 -2l43 -2q41 -4 92 45q123 121 123 319zM213 -410q0 -45 39 -71q18 -8 55 -27q10 -4 5 -24t-36 -21h-28q-14 2 -36 2t-79 -8h-10l-86 6
q-10 0 -23 -2h-22q-49 0 -41 29q3 12 33 32t43 40q13 21 26 46q27 102 35 136l23 84l12 61q2 9 4 21l5 30t5 31l2 22l21 80l6 35q2 4 8 24t12 36l7 53l10 51q0 18 24 130t66 243q6 24 6 57l16 78l15 47l28 135l-2 8l-2 62q4 31 0 53q-10 25 -16 29l-41 24q-4 2 -2 29
q8 29 86 63q20 10 55 37l53 29q72 37 80 45q19 0 13 -26t-15 -42l-10 -63q0 -6 -10 -29l-35 -133l-18 -102q-20 -54 -22 -68t-5 -34q-4 -20 -8 -54q-4 -33 -17 -72q-4 -23 9 -22q4 2 8 5t6 3q76 64 141 64t140 -26t90 -77q0 -2 4 -13t10 -41t10 -72t2 -53t-7 -33
q-5 -21 -10 -49t-11 -58l-9 -54q-11 -63 -81 -137t-134 -111t-86 -38l-88 -10l-117 22l-32 -57l-15 -56l-10 -71l-45 -197q-4 -20 -4 -31z" />
    <glyph glyph-name="ydieresis" unicode="&#xff;" horiz-adv-x="702" 
d="M451 262q25 0 49 49q2 5 6 11t10 18t12 20l43 76q67 98 88 168q4 16 -20 92v17q6 25 41 24l63 -4l58 2q56 1 50 -31q-3 -16 -56 -63l-17 -27q-44 -57 -70 -115t-54 -97l-99 -158l-55 -111l-35 -51q-33 -80 -131 -209l-47 -61q-37 -51 -66 -105q-61 -94 -76 -110
q-113 -137 -170 -146q-6 -2 -38 -2q-51 0 -43 45q6 25 28 41q14 14 78 31q45 12 152 186l69 111l23 45q33 63 41 99t8 79v39l-4 41q0 51 -2 94q-6 6 -27 111q-6 47 -13 121t-65 166q-19 35 -26 42q6 35 108 35l109 -12q47 -4 76 -6q29 -17 -15 -63q-24 -24 -26 -36v-108
q-17 -85 6 -133q18 -115 37 -115zM705 1016q37 0 61 -27q52 -57 -43 -131q-33 -23 -43 -22q-39 0 -70 34q-8 8 -4 43v29q6 30 34 52t65 22zM477 1018q16 0 43 -23q6 -6 7 -54t-38 -81q-14 -14 -34 -14q-80 0 -82 57q-2 14 -2 35q16 80 106 80z" />
    <glyph glyph-name="Cacute" unicode="&#x106;" horiz-adv-x="1300" 
d="M1283 383q30 0 20 -47q-1 -2 -13 -45t-16 -66l-12 -57q-12 -58 -24 -74t-24 -22l-22 -11q-108 -54 -111 -53l-63 -16q-102 -29 -123 -29q-142 0 -170 4h-78q-45 0 -103 35t-71 47l-41 37q-80 72 -116 121t-80 184q-20 53 -27 131q-2 34 25 158t57 205q47 109 103 162
t81 77l72 88q35 44 181 104t204 76q59 16 127 15q190 0 346 -107q2 0 18 -8t54 -24q23 -10 19 -42t-23 -126q-12 -41 -17 -62l-12 -57q-6 -23 -24 -23t-23 20q-3 20 -19 72t-25 72t-28 31l-53 43q-6 4 -37 30t-57 46q-12 4 -86 17t-94 13q-19 0 -56 -18q-78 -23 -151 -78
q-55 -29 -70 -39q-176 -162 -199 -266l-20 -90q0 -5 -22 -52t-26 -55q-3 -8 -1 -13t-13 -93l-14 -53l-4 -10l-2 -31l-14 -70q-6 -36 17 -110t48 -107q102 -139 252 -135l102 2l95 4q58 0 96 18t106 82q36 47 66 81t49 67q16 47 46 47zM1287 1700q46 0 46 -42t-36 -77
t-80 -39l-35 -4q-2 0 -32 -9t-50 -18q-12 -3 -44 -17t-36 -13q-16 0 -12 16q125 100 184 152q49 51 95 51z" />
    <glyph glyph-name="cacute" unicode="&#x107;" horiz-adv-x="694" 
d="M895 1044q51 0 51 -40q0 -53 -55 -86q-33 -20 -60 -23l-36 -4q-66 -16 -110 -35q-44 -20 -46 -20q-20 0 -16 18q3 12 33 30t120 88q90 72 119 72zM479 72q61 0 111 22t60 22q9 0 5 -10t-30 -28q-139 -90 -164 -90q-127 0 -170 20t-87 63t-69 134q0 62 6 190
q27 127 146 239t236 116q116 4 145 -2q78 -12 104 -68q29 -69 -19 -112q-22 -19 -44 -19q-55 0 -105 80q-4 8 -8 13t-7 9t-8 7q-5 2 -9 6t-11 5q-8 1 -11 2t-14 1l-35 2h-22q-43 -4 -92 -58t-78 -178q0 -6 -4 -35l-12 -53q0 -2 2 -9t5 -19t10 -42t12 -44q24 -100 68 -134
t63 -30h26z" />
    <glyph glyph-name="Ccaron" unicode="&#x10c;" horiz-adv-x="1300" 
d="M1283 383q30 0 20 -47q-1 -2 -13 -45t-16 -66l-12 -57q-12 -58 -24 -74t-24 -22l-22 -11q-108 -54 -111 -53l-63 -16q-102 -29 -123 -29q-142 0 -170 4h-78q-45 0 -103 35t-71 47l-41 37q-80 72 -116 121t-80 184q-20 53 -27 131q-2 34 25 158t57 205q47 109 103 162
t81 77l72 88q35 44 181 104t204 76q59 16 127 15q190 0 346 -107q2 0 18 -8t54 -24q23 -10 19 -42t-23 -126q-12 -41 -17 -62l-12 -57q-6 -23 -24 -23t-23 20q-3 20 -19 72t-25 72t-28 31l-53 43q-6 4 -37 30t-57 46q-12 4 -86 17t-94 13q-19 0 -56 -18q-78 -23 -151 -78
q-55 -29 -70 -39q-176 -162 -199 -266l-20 -90q0 -5 -22 -52t-26 -55q-3 -8 -1 -13t-13 -93l-14 -53l-4 -10l-2 -31l-14 -70q-6 -36 17 -110t48 -107q102 -139 252 -135l102 2l95 4q58 0 96 18t106 82q36 47 66 81t49 67q16 47 46 47zM962 1718q15 0 89 -67q35 -74 43 -74
q20 0 54 39t34 41q20 13 58 41q38 26 50 26t10 -18q-6 -10 -38 -47l-88 -111l-41 -39q-19 -35 -31 -44t-32 -9t-36 6q0 4 -18 39l-27 51l-12 29q-12 31 -23 61q0 12 -6 39q-14 37 14 37z" />
    <glyph glyph-name="ccaron" unicode="&#x10d;" horiz-adv-x="694" 
d="M574 1075q14 0 90 -65q35 -72 41 -72q27 0 59 45q25 29 29 33q27 16 63 40t45 25q16 0 12 -16q-6 -5 -18 -21t-21 -26l-88 -105l-41 -39q-18 -29 -28 -38q-30 -19 -70 -5q0 4 -18 37l-27 47l-12 29q-6 20 -31 94q-14 37 15 37zM479 72q61 0 111 22t60 22q9 0 5 -10
t-30 -28q-139 -90 -164 -90q-127 0 -170 20t-87 63t-69 134q0 62 6 190q27 127 146 239t236 116q116 4 145 -2q78 -12 104 -68q29 -69 -19 -112q-22 -19 -44 -19q-55 0 -105 80q-4 8 -8 13t-7 9t-8 7q-5 2 -9 6t-11 5q-8 1 -11 2t-14 1l-35 2h-22q-43 -4 -92 -58t-78 -178
q0 -6 -4 -35l-12 -53q0 -2 2 -9t5 -19t10 -42t12 -44q24 -100 68 -134t63 -30h26z" />
    <glyph glyph-name="dslash" unicode="&#x111;" horiz-adv-x="829" 
d="M545 590q-152 0 -228 -111q-31 -43 -63 -192q-12 -57 22 -137q25 -58 101 -58t135 55t74 132l18 96l17 51l4 59q6 68 6 70q-25 35 -86 35zM682 1024q9 3 43 -2q29 0 37 49q10 49 -4 80q0 12 -45 39q-8 4 -4 26t25 33q21 12 40 23q37 10 109 47q41 29 73 29q43 0 33 -37
q0 -5 -4 -15t-15 -41t-30 -81t-27 -79q-8 -30 -11 -46t7 -17q20 6 30 6q11 0 27 -12t15 -24q-2 -12 -14 -31q-20 -68 -33 -68l-47 8q-11 0 -19 -32l-28 -115l-127 -588q-6 -25 -2 -39l12 -28l8 -37q14 -33 12 -47q-10 -29 -55 -29l-47 4h-53q-41 0 -49 8l-13 35q0 2 -6 2
t-51 -21t-59 -22l-37 -2l-49 -6q-20 0 -64 15t-76 47q-31 32 -52 110t-9 145q53 238 170 336q61 51 182 80l68 16q63 0 92 -43q16 -23 18 -22q25 0 25 53l2 23l31 104q2 6 5 18t5 19q5 14 -45 14l-31 -4l-41 -6q-37 0 -2 70l4 12v6q0 41 37 41q24 -4 31 -4h8z" />
    <glyph glyph-name="Gbreve" unicode="&#x11e;" horiz-adv-x="1376" 
d="M1064 1403q208 0 259 -25l70 -35q35 -10 84 -36q43 -39 30 -97q-31 -132 -51 -202t-33 -70q-31 0 -49 129q-10 49 -18 61q-4 2 -37 31q-18 49 -66 86q-79 66 -197 66t-243 -66q-71 -37 -117 -79t-119 -170q-73 -130 -90 -203q4 -25 -6 -60l-6 -31q0 -4 -5 -22t-9 -33
l-21 -92l-20 -61q0 -101 9 -136t15 -71q27 -133 166 -199q80 -35 130 -35q50 1 96 13q48 12 90 14q74 2 121 69t47 143t-66 79q-27 2 -41 2q-23 6 -17 25t21 28l158 20q14 0 125 -12h22l52 6q36 0 24 -41q-4 -20 -10 -24l-43 -39q-12 -12 -29 -88l-10 -49l-20 -80
q-20 -87 -38 -99t-36 -12l-92 6q-16 0 -86 -18l-70 -6l-88 -10q-100 -12 -117 -13q-127 0 -158 10q-197 74 -270 232q-49 99 -61 195t-20 142t2 104q11 58 18 71l16 63q51 205 279 426q53 53 118 84q12 6 50 32t108 48t90 25q101 4 159 4zM1296 1686q14 0 8 -36t-53 -77
l-73 -62q-74 -31 -81 -29q-35 11 -73 11q-49 27 -76 94l-4 90l23 -2q14 -10 24 -44t25 -40q41 -14 76 -14z" />
    <glyph glyph-name="gbreve" unicode="&#x11f;" horiz-adv-x="792" 
d="M903 1057q14 0 6 -34t-49 -79q-12 -6 -76 -61l-73 -29l-19 2q-4 0 -59 8q-39 20 -62 68l-14 26l-2 93l23 -4q12 -4 20 -40t27 -42q53 -16 73 -17zM504 637q-47 0 -103 -37l-4 -6q-82 -82 -96 -127q-14 -74 -8 -100q-4 -6 12 -48q33 -106 86 -106q127 0 178 57q6 6 36 48
q63 88 42 229q-4 33 -31 53q-99 37 -112 37zM367 -158q-11 0 -66 11q-32 -8 -96 -64q-72 -53 -92 -143q-39 -186 159 -187q158 0 273 105q29 29 41 86q23 90 -97 170l-18 12q-22 16 -51 16zM283 135q-41 0 -46 -27q-5 -28 11 -40t55 -17l109 -14l106 2q8 -2 43 -27
q113 -41 139 -147q4 -35 -16 -107l-10 -32l-4 -25l-11 -35q-20 -74 -43 -110q-45 -68 -124 -107q-23 -10 -31 -16q-119 -70 -211 -70q-180 0 -246 111q-41 76 -27 145q23 95 43 147t78 89q57 37 60 49q-23 80 -23 140t23 87l49 57q-25 33 -31 68q-25 78 6 193q35 115 91 173
q55 58 93 76t68 24t52 18q24 10 78 10t83 -5q33 -16 53 -28t37 -12l31 20q30 23 52 23t38 -22q38 -53 -29 -109q-16 -13 -26 -21t-17 -76l-6 -55l-12 -62q-12 -53 -25 -81q-31 -72 -125 -129q-6 -6 -79 -46q-16 -5 -74 -12q-58 -6 -59 -6h-19l-58 2q-30 0 -42 4h-4z" />
    <glyph glyph-name="Idot" unicode="&#x130;" horiz-adv-x="569" 
d="M203 0q-33 0 -68 10q-16 10 -13 26t11 23l64 45q23 28 29 50t12 34q27 80 29 116q3 36 8 56t23 80q18 59 26 90l16 121l18 66q2 8 7 41l43 209q4 21 5 39t11 90l20 110q10 47 -24 81t-31 50q6 35 55 37l121 -6q66 8 106 8t59 -12t15 -39q-4 -12 -30 -31q-43 -27 -56 -53
q-37 -68 -81 -291q-10 -66 -31 -170l-12 -55q-21 -104 -35 -145t-20 -87t-15 -71q-8 -25 -14 -103l-21 -106l-6 -35q10 -27 22 -80l25 -30q12 -20 8 -35q-6 -33 -26 -33h-64q-27 -2 -51 -2h-2l-43 2h-90zM632 1681q32 -1 64 -23q33 -22 25 -62t-54 -80q-45 -40 -67 -39
q-22 0 -50 21t-28 38q6 12 6 63q4 10 19 29q21 35 37 44t48 9z" />
    <glyph glyph-name="dotlessi" unicode="&#x131;" horiz-adv-x="444" 
d="M299 0l-177 -2q-34 0 -30 22q4 14 46 51t34 68q18 57 27 84q10 27 16 60l10 43q17 111 31 155l6 21l17 49q6 27 -15 41q-35 31 -31 46t19 24l102 47q16 4 51 20t41 16q33 0 -4 -81q-6 -14 -16 -74t-26 -115q-15 -55 -19 -91t-8 -46l-11 -41q-31 -145 -16 -211
q20 -57 19 -66q-5 -30 -66 -20z" />
    <glyph glyph-name="Lslash" unicode="&#x141;" horiz-adv-x="929" 
d="M291 535q-12 0 -41 -23t-45 -23t-19 7l-8 20q-33 60 0 74l39 10q2 0 6 3t15 7l84 49q29 18 45 86q2 23 18 109l47 217l4 51q10 47 15 78q-12 24 -19 45l-12 35q-2 4 -53 27q-10 10 -9 26q8 27 84 31l138 -4q23 4 114 6l58 2q24 0 34 -7t8 -23t-18 -21l-28 -14l-33 -35
q-25 -23 -31 -31q-57 -104 -92 -250l-14 -86l-17 -74q-10 -47 10 -47q95 49 132 72q37 22 45 22q25 0 24 -18v-25q10 -35 10 -38q-2 -18 -34 -29q-28 -7 -136 -70q-35 -14 -80 -49q-16 -31 -22 -61l-14 -70q-29 -88 -41 -203q-1 -57 -17 -89t-16 -66q0 -66 80 -66q25 0 71 8
q70 0 84 2l23 2h53q19 0 57 35t97 99q57 82 78 82t10 -29l-25 -88l-10 -72q-6 -39 -10 -59q-10 -51 -43 -66q-33 -4 -78 -4h-53l-138 4l-45 -4h-20q-18 -2 -49 -2l-160 10l-119 -4l-102 -16q-53 0 -49 24q6 20 30 43q12 8 46 33q66 49 86 131q25 57 40 137l9 39q2 8 7 37
t13 66t-14 37z" />
    <glyph glyph-name="lslash" unicode="&#x142;" horiz-adv-x="436" 
d="M477 780q2 0 25 16t37 17q14 0 24 -70q0 -6 -6 -10l-20 -8l-39 -20l-37 -17q-31 -14 -37 -42t-10 -62l-4 -43l-25 -138q-8 -25 -14 -45t-11 -26l-4 -84q-6 -61 -8 -90q14 -68 27 -86l16 -19q4 -8 2 -28q-6 -20 -37 -25h-262l-10 -2q-14 0 -25 7t15 34l45 41l22 26
q39 45 43 64l6 45l21 59l12 45l15 87q2 14 11 57t11 61l14 45q4 19 -10 19t-38 -20q-44 -38 -58 5q-1 0 -10 41l39 23l36 25q45 14 56 28t41 133t30 138l-6 55q8 72 -16 82l-41 24q-4 2 -2 29q6 31 86 63q20 10 55 37l133 74q20 0 15 -27q-10 -18 -19 -43l-8 -63
q0 -4 -9 -24q-10 -18 -16 -48t-11 -50t-5 -23l-4 -15l-18 -102q-14 -41 -25 -80q-14 -70 8 -70z" />
    <glyph glyph-name="OE" unicode="&#x152;" horiz-adv-x="1783" 
d="M733 72l60 -4q72 0 108 16q68 37 81 50q12 12 26 58t20 66t13 53t8 35l16 76q2 14 6 39l6 20q22 95 34 133q11 39 17 62q8 59 27 147l37 148q12 53 35 112q0 31 -2 58q9 87 -33 129q-4 0 -9 2t-13 4t-32 12q-25 10 -91 12l-64 11q-39 -4 -101 -40q-62 -35 -88 -53
q-24 -18 -102 -96q-14 -14 -69 -88l-39 -53l-27 -43q-2 -4 -39 -61q-10 -25 -25 -98t-22 -103l-33 -135q-12 -33 8 -226q0 -10 46 -73q18 -49 30 -62q12 -8 52 -44t67 -48q33 -10 92 -16zM1030 0q-86 0 -132 -12t-165 -12t-180 20q-215 66 -285 295q-54 174 -45 305l19 111
q2 2 6 41q30 142 176 321q2 2 12 14t37 43t51 60q118 100 238 150t140 54t104 9q84 6 146 6q62 -1 102 -17t55 -16l92 4h41q12 2 40 2t54 -8q27 -8 33 -8l73 8l105 4q52 0 108 -14l66 8q41 0 37 -35q0 -6 -12 -102l-9 -23q-8 -45 -11 -110q-3 -64 -30 -64l-36 29
q-6 6 -23 80q-14 31 -33 69q-14 20 -53 33q-27 4 -61 6q-2 1 -45 15t-80 14q-90 0 -109 -51q0 -3 -14 -45l-15 -47q-18 -49 -34 -107q-5 -36 -24 -116t-19 -101q0 -57 53 -57q33 0 90 34t87 63q30 30 45 30t17 -18t-6 -54l-4 -39l-28 -113l-11 -36q-4 -18 -5 -46t-5 -39
q-5 -12 -19 -34t-24 -23l-16 4l-29 54l-6 45l-29 34q-8 20 -18 28t-52 9q-42 0 -57 -18q-2 -2 -24 -100q-27 -57 -56 -150l-8 -45l-12 -53q-6 -27 -25 -92l-10 -35q-16 -66 107 -72l84 -8h6q9 0 61 13t66 24l47 37q49 29 61 41q33 47 70 110q16 29 41 29t16 -43
q-29 -139 -42 -177t-29 -96q-18 -33 -74 -32q-18 0 -94 18l-60 -6q-27 2 -90 2h-20l-148 -4l-70 2h-100z" />
    <glyph glyph-name="oe" unicode="&#x153;" horiz-adv-x="1191" 
d="M1002 678q-50 0 -95 -31t-50 -61t9 -37q33 -12 187 -12q55 0 61 30q10 49 -25 80q-37 31 -87 31zM508 666q-33 0 -80 -35q-109 -88 -131 -191q-8 -23 -14 -78l-11 -40q-4 -27 9 -89q4 -41 10 -63t24 -31l52 -30q7 -7 29 -21t32 -14q94 0 166 131t59 233l-4 45
q-2 4 -14 107q-27 76 -127 76zM866 -14q-53 0 -123 39q-20 19 -35 43q-16 24 -32 24t-111 -69q-53 -37 -135 -37q-193 0 -280 180q-33 68 -29 114t11 73q7 29 12 51t8 32l10 45q8 41 82 115t180 114q104 38 176 38t86 -9l23 -14q41 -27 61 -57t35 -31q4 0 61 41
q103 74 191 74q89 0 160 -80q51 -57 51 -107q0 -92 -82 -92l-53 4l-113 -6h-31l-115 8q-41 0 -66 -19q-26 -20 -30 -40t-9 -70t2 -72q7 -24 52 -71t75 -57t66 -10t119 18l70 24q16 0 12 -15t-14 -28q-19 -51 -55 -80q-10 -10 -33 -22q-82 -51 -197 -51z" />
    <glyph glyph-name="Scedilla" unicode="&#x15e;" horiz-adv-x="1071" 
d="M213 432q14 0 16 -14l17 -117l8 -25q0 -8 18 -63l43 -43l29 -35q20 -27 59 -49q20 -25 37 -29q29 -14 39 -14l64 8q74 5 98 13q23 8 77 54t63 57t46 56q45 66 45 140q0 139 -153 194l-62 31l-133 39l-32 20q-57 37 -86 58q-29 39 -46 63q-53 78 -57 135l6 39q4 20 7 43
t6 33q2 10 6 34t45 83q63 96 196 178l47 29l33 14q91 41 189 41t132 -2t126 -41q20 -2 51 -31q16 -27 20 -100q2 -125 -2 -129l-4 -19l-2 -43q-3 -20 -25 -20t-32 12t-21 74q-6 20 -32 53l-43 35l-21 20l-16 17q-25 31 -56 67q-21 18 -47 18t-84 -7t-80 -15q-20 -8 -55 -41
l-74 -69q-46 -58 -55 -109q-29 -127 92 -205q25 -16 76 -26l21 -4q61 -16 79 -21l62 -35q27 -10 72 -36l34 -35q70 -72 82 -111q43 -109 39 -137q-16 -143 -28 -180q-29 -82 -105 -152q-70 -59 -90 -75t-96 -53q-76 -38 -125 -42t-70 -8q-10 -6 -13 -19t1 -18l39 -18
q6 -2 16 -26t8 -30l-16 -43l-4 -26q-4 -25 -29 -39q-59 -47 -105 -47t-64 10q-17 10 -38 43q-14 16 -10 43q4 13 20 27t30 14q13 0 28 -45q6 -18 59 -19q31 0 41 35q6 33 -2 39l-51 29q-10 6 -6 22l14 52q6 25 -6 28h-51l-33 2l-65 17q-10 2 -52 9t-75 13q-78 25 -74 78
l2 53q2 55 7 78t8 43t7 39l5 29q20 104 61 104z" />
    <glyph glyph-name="scedilla" unicode="&#x15f;" horiz-adv-x="628" 
d="M618 561q-24 0 -50 82t-80 82t-87 -45q-27 -34 -31 -62t17 -60q20 -32 84 -50l35 -25q10 -4 19 -9l22 -11q49 -49 65 -88t2 -109t-72 -142t-125 -94t-69 -24t-7 -22t-2 -27q3 -6 34 -23q6 -6 16 -28t8 -29l-14 -41q-10 -43 -17 -52t-42 -35t-74 -25q-78 0 -107 46t8 74
q17 14 29 15q16 0 31 -43q6 -18 57 -19q45 0 45 58q0 14 -8 16l-51 29q-6 2 -6 8l20 76l4 8q0 4 -32 18q-39 25 -51 25t-19 -8l-25 -27q-12 -4 -32 -4q-41 0 -33 33l14 63l4 29q0 4 2 13q2 8 5 26t6 30l8 41q4 29 22 29q6 0 17 -22q14 -52 62 -96t83 -44h53q55 10 91 49
t36 95t-63 90l-47 26q-7 12 -57 48t-76 59q-35 53 -23 113q31 147 197 188l71 2l47 2q16 0 54 -14l80 16q6 2 9 -2t4 -20t-5 -40t-17 -69l-8 -25q-14 -55 -31 -55z" />
    <glyph glyph-name="Scaron" unicode="&#x160;" horiz-adv-x="1071" 
d="M736 1718q15 0 89 -67q35 -74 43 -74q20 0 54 40t42 45q9 6 49 34q66 48 62 10q-6 -10 -39 -47l-88 -111l-41 -39q-23 -35 -33 -44t-30 -9t-35 6q0 4 -18 39l-27 51l-12 29q-12 31 -23 61q0 12 -6 39q-14 37 13 37zM211 432q16 0 18 -14l17 -117l8 -25q0 -8 18 -63
l43 -43l29 -35q20 -27 59 -49q25 -25 41 -31t35 -12l64 8q74 5 98 13q23 8 77 54t63 57t46 56q45 66 45 140q0 139 -153 194l-62 31l-133 39l-32 20q-57 37 -86 58q-29 39 -46 63q-53 78 -57 135l6 39q4 20 7 43t6 33q2 10 6 34t45 83q63 96 196 178l47 29l33 14
q91 41 189 41t132 -2t126 -41q20 -2 51 -31q16 -27 20 -100q2 -125 -2 -129l-4 -19l-2 -43q-3 -20 -25 -20t-32 12t-21 74q-6 20 -32 53l-43 35l-21 20l-16 17q-25 31 -56 67q-21 18 -47 18t-84 -7t-80 -15q-20 -8 -55 -41l-74 -69q-46 -58 -55 -109q-27 -129 92 -205
q25 -16 76 -26l21 -4q61 -16 74 -20t67 -38q74 -33 106 -69q74 -80 82 -113q4 -12 16 -53t23 -70q-4 -66 -16 -131l-8 -47q-12 -76 -109 -166q-144 -129 -266 -162q-55 -12 -84 -10l-117 6h-53l-33 2l-65 17q-10 2 -52 9t-75 13q-78 25 -74 78l2 53q3 75 22 160l5 29
q20 104 59 104z" />
    <glyph glyph-name="scaron" unicode="&#x161;" horiz-adv-x="628" 
d="M141 260q6 0 17 -22q14 -52 62 -96t83 -44h53q55 10 91 49t36 95t-63 90l-47 26q-7 12 -57 48t-76 59q-35 53 -23 113q31 147 197 188l71 2l47 2q16 0 54 -14l80 16q6 2 9 -2t4 -20t-5 -40t-17 -69l-8 -25q-14 -55 -31 -55q-24 0 -50 82t-80 82t-87 -45q-27 -34 -31 -62
t17 -60q20 -32 84 -50l35 -23q27 -12 41 -22q49 -49 65 -88t3 -103t-72 -145q-59 -80 -176 -113q-43 -14 -70 -14t-57 10l-37 25q-2 2 -12 2t-21 -10l-25 -27q-12 -4 -32 -4q-41 0 -33 33l14 65l4 27q-2 6 13 69l6 35q10 35 24 35zM391 1075q14 0 90 -65q35 -72 41 -72
q27 0 60 45q25 29 28 33q27 16 63 40t46 25q16 0 12 -16q-6 -6 -18 -22q-12 -15 -21 -25l-88 -105l-41 -39q-18 -29 -28 -38q-31 -20 -70 -5q0 4 -19 37l-26 47l-12 29q-6 20 -22 65t-13 50q4 16 18 16z" />
    <glyph glyph-name="Ydieresis" unicode="&#x178;" horiz-adv-x="1161" 
d="M1124 1473q-59 0 -59 65q-6 33 19 80q26 47 67 47q106 10 86 -98q-6 -25 -15 -44t-43 -35t-55 -15zM793 1681q23 0 48 -23q25 -24 24 -32t-1 -18t-2 -17v-32q-2 -10 -18 -31q-35 -53 -82 -53q-47 1 -73 31t-17 65q6 35 52 73t69 37zM598 0q-39 0 -55 -4h-8l-60 4l-26 -2
h-48q-45 0 -43 18t19 25l49 20q31 16 72 70q63 65 63 119l31 121q13 60 33 108l14 111q8 49 10 78q-3 18 -23 66t-51 140q-55 93 -63 120q-8 26 -39 100t-37 80l-33 38l-28 41l-25 27q-45 35 -53 45t12 31q27 2 82 6l70 6q16 0 57 -8l78 6l45 -4q2 -2 54 -2t46 -33
q-4 -12 -20 -27l-39 -34q-25 -24 -29 -48t41 -124q18 -51 64 -113q6 -16 20 -51l21 -45q14 -57 26 -58q59 0 189 189q28 40 48 60l52 52q57 59 29 123q1 5 -15 23t-28 28t-8 25q6 33 65 33h21q14 0 39 -2l22 -2l72 8q31 0 83 -8t46 -37q-4 -17 -16 -27t-59 -32
q-48 -22 -161 -125q-16 -14 -67 -88l-201 -226q-44 -39 -64 -75t-34 -109l-29 -133q-14 -49 -18 -58q0 -25 -7 -67l-39 -158q-22 -91 43 -164q29 -29 26 -45t-19 -14l-45 2q-23 -4 -43 -2l-97 2h-12z" />
    <glyph glyph-name="Zcaron" unicode="&#x17d;" 
d="M870 1577q20 0 54 39t34 41q13 7 55 38q73 53 64 11q-6 -10 -39 -47l-88 -111l-41 -39q-20 -35 -32 -44q-13 -9 -31 -9t-35 6q0 4 -18 39l-27 51l-12 29q-12 31 -23 61q0 12 -6 39q-14 37 13 37q15 0 89 -67q33 -74 43 -74zM973 1366q49 0 76 -6h8q43 4 78 4h36
q66 0 56 -43q-6 -33 -86 -129q-81 -96 -91 -112q-131 -205 -264 -386l-41 -51l-38 -63q-8 -14 -64 -93q-20 -25 -70 -73l-41 -58l-79 -127l-17 -18q-18 -29 -24 -59t4 -43q24 -23 152 -23t206 25q31 8 45 22q19 29 45 49q25 21 28 24t6 7t5 6t6 7t6 12q2 8 4 10q1 2 3 10
q11 45 45 45q33 0 24 -45q-2 -12 -12 -45l-8 -43l-15 -41q-14 -49 -30 -109q-6 -12 -15 -20l-53 4q-2 2 -26 -1t-48 -3q-22 0 -38 -1t-31 -3t-71 1t-92 3t-114 -6h-35l-22 -2q-10 4 -41 6l-39 6q-18 8 -100 8l-92 -12q-43 0 -33 35q8 53 130 196q34 41 52 64q18 18 74 90
l18 25l29 34l14 21q6 6 37 47q32 40 52 64t48 65q37 47 129 203l52 76l98 112q103 119 115 169t-17 61l-51 4l-74 4h-49q-12 4 -39 4q-94 0 -194 -47q-43 -23 -88 -105q-32 -53 -59 -23q-7 9 -3 17l15 39l8 51q8 24 19 54t7 34q2 6 6 36q6 46 33 46l80 -16l96 12q12 0 58 -9
t77 -9q32 0 91 8z" />
    <glyph glyph-name="zcaron" unicode="&#x17e;" horiz-adv-x="655" 
d="M396 657q-38 0 -52 -2t-68 -26q-16 -9 -36 -31t-29 -23q-12 0 -12 29q0 127 49 127l104 -2l54 2q16 2 42 -2t64 -8h27l180 2q35 0 26 -35q-2 -16 -36 -51q-45 -41 -47 -49l-66 -94l-37 -41l-121 -158q-10 -13 -44 -51q-33 -37 -72 -99q-29 -31 -33 -45q-4 -23 53 -22
q6 0 53 6h64q55 0 109 51t61 51q20 0 12 -45q0 -4 -6 -22t-10 -33l-7 -29q-8 -37 -18 -46t-45 -9l-78 4l-106 -6q-35 2 -103 6h-2q-10 -2 -16 -2l-35 -2q-6 0 -12 -2q-14 4 -75 5t-62 3q-16 8 -15 27q11 39 35 67t44 56q20 26 91 84l35 34q23 46 55 78l19 19q4 7 18 31
t27 42q49 46 79 92t54 80q5 19 -29 23q-45 16 -83 16zM535 938q27 0 59 45q25 29 29 33q27 16 63 40t45 25q16 0 12 -16q-6 -6 -18 -22l-20 -25l-89 -105l-41 -39q-18 -29 -28 -38q-30 -19 -70 -5q0 4 -18 37l-27 47l-12 29q-6 20 -31 94q-14 37 15 37q14 0 90 -65
q35 -72 41 -72z" />
    <glyph glyph-name="longs" unicode="&#x17f;" horiz-adv-x="468" 
d="M696 1352q90 0 90 -72q0 -10 -4 -31q-14 -63 -65 -63q-35 0 -46 12t-19 32t-29 21q-37 0 -58 -51l-20 -49q-33 -82 -43 -117l-19 -106l-6 -47q-14 -57 -37 -191q-10 -31 -30 -133l-21 -98l-10 -51q-143 -553 -209 -801q-74 -139 -144 -189t-159 -51q-90 0 -90 72
q0 10 4 31q14 63 65 63q29 0 41 -6q11 -7 21 -33t33 -26q37 0 57 51l35 82q100 385 215 858q7 53 35 139q18 80 14 94q-10 16 -27 23l-63 -2q-16 4 -14 22q4 19 60 37t60 41l21 102q2 15 11 31t42 92l8 21q4 16 68 133q29 56 105 108t128 52z" />
    <glyph glyph-name="florin" unicode="&#x192;" horiz-adv-x="632" 
d="M830 1421q43 0 69 -20t21 -51q-23 -96 -89 -97q-45 0 -51 27l-6 20q-6 20 -24 21q-39 0 -66 -51l-29 -49q-25 -50 -39 -73q-14 -22 -18 -34t-29 -74l-73 -213q-4 -23 13 -33t49 -14t33 -8t1 -35q-6 -23 -27 -24l-76 -4q-31 -2 -63 -64q-20 -51 -39 -88l-20 -53
q-10 -27 -101 -256q-2 -6 -28 -88q-83 -152 -88 -164q-51 -90 -121 -141q-13 -11 -101 -63t-96 -52q-26 0 -18 24t20 27l33 8q14 12 51 33q41 18 59 55l37 72q0 5 18 43q18 37 34 81t30 84t51 126l21 49q45 131 52 151t34 81q28 61 43 104q6 29 -21 37l-65 -2q-10 2 -8 20
q10 41 59 46t64 18q10 2 18 30l51 136q2 4 24 42t40 70l16 33l12 20q20 37 91 132q39 53 124 107t128 54z" />
    <glyph glyph-name="circumflex" unicode="&#x2c6;" horiz-adv-x="1019" 
d="M746 1081q20 0 32 -6q0 -6 19 -39l24 -47l15 -26q12 -31 20 -59t12 -38q13 -33 -20 -35q-10 0 -86 66q-37 70 -43 70q-27 0 -53 -34t-31 -40q-5 -5 -23 -15t-36 -22t-32 -21q-12 -9 -22 -9t-8 20q2 6 37 43l33 43l34 37l19 24l41 37q25 37 36 44q12 7 32 7z" />
    <glyph glyph-name="caron" unicode="&#x2c7;" horiz-adv-x="1019" 
d="M574 1075q14 0 90 -65q35 -72 41 -72q27 0 59 45q25 29 29 33q27 16 63 40t45 25q16 0 12 -16q-6 -5 -18 -21t-21 -26l-88 -105l-41 -39q-18 -29 -28 -38q-30 -19 -70 -5q0 4 -18 37l-27 47l-12 29q-6 20 -31 94q-14 37 15 37z" />
    <glyph glyph-name="breve" unicode="&#x2d8;" horiz-adv-x="1021" 
d="M903 1057q14 0 6 -34t-49 -79q-12 -6 -76 -61l-73 -29l-19 2q-4 0 -59 8q-39 20 -62 68l-14 26l-2 93l23 -4q12 -4 20 -40t27 -42q53 -16 73 -17z" />
    <glyph glyph-name="dotaccent" unicode="&#x2d9;" 
d="M698 836q-38 0 -62 24t-16 58t50 66q44 32 66 32t57 -35q8 -8 4 -43l-2 -31q-1 -5 -17 -29t-22 -26q-20 -16 -58 -16z" />
    <glyph glyph-name="ring" unicode="&#x2da;" 
d="M730 1014q-18 0 -38 -18t-26 -49q-6 -30 28 -50l31 2q25 2 52 36t0 56q-28 23 -47 23zM688 831q-88 0 -88 87q0 20 6 49q8 49 92 92q34 16 49 17t48 -14q33 -14 45 -30t12 -45l2 -26q-12 -53 -60 -91t-106 -39z" />
    <glyph glyph-name="ogonek" unicode="&#x2db;" 
d="M580 -274q-43 0 -69 38q-57 84 52 181q102 82 191 82q12 1 8 -11t-45 -18q-16 -10 -51 -32t-41 -25l-19 -35q-10 -16 -21 -52q-5 -16 27 -55l15 -14l92 14q4 -4 0 -10q-14 -63 -139 -63z" />
    <glyph glyph-name="tilde" unicode="&#x2dc;" 
d="M637 1016q35 0 82 -27l33 -10q72 -41 79 -41q33 0 105 43q14 0 9 -10q-5 -9 -41 -49t-66 -66q-33 -16 -68 -16t-68 18q-34 18 -86 36t-68 19q-16 0 -52 -36l-15 -13q-18 0 -14 16t31 40l39 30q65 66 100 66z" />
    <glyph glyph-name="hungarumlaut" unicode="&#x2dd;" 
d="M997 1059q51 0 52 -41q0 -43 -48 -84q-20 -18 -53 -29l-35 -10q-2 -2 -83 -38t-70 -42q-18 0 -17 19q59 57 158 161q45 64 96 64zM786 1059q45 0 45 -39q1 -39 -29 -71t-71 -44l-35 -10q-6 -2 -16 -7l-30 -15q-68 -32 -85 -45q-18 -13 -24 -13q-20 0 -17 19q2 14 30 34
t107 105q80 86 125 86z" />
    <glyph glyph-name="Omega" unicode="&#x3a9;" horiz-adv-x="1366" 
d="M969 1329q-274 0 -469 -250q-180 -229 -180 -523t298 -466l-18 -90h-567l-23 244h39q6 -94 72 -125q43 -20 153 -25l220 -6l2 12q-358 150 -359 486q0 72 15 141q63 291 311 483q225 176 523 176t448 -186q111 -137 110 -317q0 -250 -166 -459t-469 -324l-2 -12l236 6
q117 4 166 29q61 29 112 121h39l-131 -244h-563l18 90q96 47 134 68q162 90 272 242t147 335q21 85 21 197t-58 215q-98 182 -331 182z" />
    <glyph glyph-name="mu" unicode="&#x3bc;" horiz-adv-x="784" 
d="M373 -12q-12 0 -15 2l-90 10q-26 -4 -18 -66t0 -98q-8 -35 -46 -74t-81 -38q-18 0 -35 27q-16 28 -14 48l4 31q-5 20 -1 45q5 25 49 106t52 125l4 31q14 123 22 163t26 99q18 58 22 76t10 70q6 51 2 75t-38 54q-34 31 -31 45q2 20 36 20q8 0 72 -12q69 10 89 10t36 -14
t10 -43q0 -2 -30 -88l-72 -354l-14 -43q-7 -7 -7 -21q-10 -49 17 -82q12 -18 30 -18t64 16q45 16 61 30t43 56q27 41 31 55l12 91q20 53 25 102t41 168q18 31 6 57l-31 80q20 12 27 12l45 -8l92 2q30 0 19 -45q-9 -44 -25 -112t-24 -105l-9 -51l-22 -100q-2 -6 -2 -27
l-27 -98q-2 -20 20 -57q22 -36 20 -42q-1 -6 -21 -18l-60 -37q-119 -74 -151 -74l-23 68q-6 -2 -80 -41q-8 -8 -20 -8z" />
    <glyph glyph-name="pi" unicode="&#x3c0;" 
d="M848 76q45 0 108 24l-6 -34l-233 -80q-14 -8 -25 -9q-49 -1 -56 71t5 132l66 314q35 154 213 356h-353q0 -2 -5 -24t-16 -74q-76 -361 -175 -650q-47 -135 -127 -135q-57 0 -58 47q0 33 78 174q111 197 228 662q-80 -4 -119 -12q-104 -23 -246 -166l-21 26l181 183
q76 76 202 75h848l-22 -106h-311q-104 -166 -127 -268l-68 -318q-18 -96 -18 -129q4 -59 57 -59z" />
    <glyph glyph-name="endash" unicode="&#x2013;" horiz-adv-x="944" 
d="M216 463q9 0 11 -2l49 -10l33 6q25 4 39 4t62 -10l61 2l49 -4q4 0 62 12l55 2q57 2 100 -12l33 4l59 -6l89 10q20 0 28 -7t4 -22l-16 -43q-12 -37 -21 -57q-14 -10 -24 -11l-76 7l-43 -4q-24 8 -36 8t-30 -5t-120 -6q-68 10 -92 11l-72 -11q-8 0 -19 3l-47 4h-32
q-30 6 -52 6l-77 -10q-23 0 -29 20q2 -2 6 35l6 47q2 12 16 26t24 13z" />
    <glyph glyph-name="emdash" unicode="&#x2014;" horiz-adv-x="1216" 
d="M1067 455q12 -6 47 -6l66 10q20 -1 38 -17t15 -24q0 -10 -21 -45l-14 -37h-8q-2 0 -68 -8q-16 4 -26 0l-84 -9l-37 11l-60 -2l-45 4l-20 -2l-59 2q-14 0 -25 -2l-145 12l-183 -25l-65 13q-30 -4 -31 -4l-59 6l-88 -10q-45 0 -35 28l18 43q10 45 20 57t23 11l76 -6h6
q8 4 37 4q24 -8 31 -8l67 10l37 -2l326 2q68 -10 90 -10l72 10q10 0 20 -2l55 -4h29z" />
    <glyph glyph-name="quoteleft" unicode="&#x2018;" horiz-adv-x="399" 
d="M602 1403q14 0 11 -15q-3 -16 -11 -24t-80 -55q-25 -17 -33 -59t29 -70q16 -14 27 -25q4 -8 0 -25q-12 -55 -53 -83q-45 -14 -91 -27q-35 2 -51 43q0 14 -8 45l-10 43q0 2 2 8t6 29t16 57q31 76 93 113q14 12 45 28q53 17 108 17z" />
    <glyph glyph-name="quoteright" unicode="&#x2019;" horiz-adv-x="399" 
d="M313 1022q-25 0 6 45q0 2 74 47q4 2 17 27q12 25 14 33q10 41 -29 69q-25 22 -27 31q-1 10 1 18q12 55 55 84q8 6 90 29q39 -2 51 -43q4 -14 10 -45l7 -45q0 -34 -26 -99t-73 -98t-59 -39q-43 -14 -111 -14z" />
    <glyph glyph-name="quotesinglbase" unicode="&#x201a;" horiz-adv-x="399" 
d="M258 188q37 -4 49 -43q25 -69 16 -111t-22 -69q-27 -72 -92 -112q-54 -40 -156 -46q-10 1 -5 17t14 25t75 53q19 18 29 57t-27 68q-14 12 -26 26q-4 16 -2 25q12 57 57 82q18 10 90 28z" />
    <glyph glyph-name="quotedblleft" unicode="&#x201c;" horiz-adv-x="688" 
d="M891 1403q12 0 9 -15t-15 -30q-4 -2 -74 -49q-27 -17 -35 -59t29 -70q15 -12 25 -22t6 -28q-8 -55 -58 -83q-6 -4 -90 -27q-35 2 -51 43q0 13 -8 45l-8 43q-1 36 29 104t85 103q14 12 45 28q54 17 111 17zM602 1403q14 0 11 -15q-3 -16 -11 -24t-80 -55q-25 -17 -33 -59
t29 -70q16 -14 27 -25q4 -8 0 -25q-12 -55 -53 -83q-45 -14 -91 -27q-35 2 -51 43q0 14 -8 45l-10 43q0 2 2 8t6 29t16 57q31 76 93 113q14 12 45 28q53 17 108 17z" />
    <glyph glyph-name="quotedblright" unicode="&#x201d;" horiz-adv-x="688" 
d="M602 1022q-27 0 8 45q57 39 71 46t34 61q8 36 -26 68t-32 50q12 57 58 84q10 6 90 29q37 -4 48 -39q25 -80 11 -143q-25 -100 -106 -158q-33 -23 -45 -29q-43 -14 -111 -14zM313 1022q-25 0 6 45q0 2 74 47q4 2 17 27q12 25 14 33q10 41 -29 69q-25 22 -27 31q-1 10 1 18
q12 55 55 84q8 6 90 29q39 -2 51 -43q4 -14 10 -45l7 -45q0 -34 -26 -99t-73 -98t-59 -39q-43 -14 -111 -14z" />
    <glyph glyph-name="quotedblbase" unicode="&#x201e;" horiz-adv-x="688" 
d="M344 -190q-12 0 -10 13t18 32q57 39 72 47q25 20 33 57t-26 69t-32 50q12 55 58 82q10 5 90 28q35 -4 47 -39q24 -71 12 -143q0 -2 -7 -15t-9 -26q-27 -70 -92 -112q-10 -8 -43 -27q-55 -16 -111 -16zM55 -190q-26 0 6 45q0 2 74 47q19 18 29 58t-27 69q-23 14 -27 23
t1 26q12 53 55 82q8 5 90 28q39 -2 51 -43q0 -9 8 -45l9 -45q0 -39 -8 -53t-17 -37q-35 -78 -90 -112q-10 -8 -43 -27q-59 -16 -111 -16z" />
    <glyph glyph-name="dagger" unicode="&#x2020;" horiz-adv-x="806" 
d="M399 1083q43 0 87 -20t53 -21q65 0 43 140l2 30l-4 78q23 66 84 103q29 18 46 18t34 -28t18 -48l-2 -28v-17q-2 -61 -21 -86l-37 -51q-18 -25 -28 -68q-10 -37 49 -36q12 0 41 4q2 2 16 10t35 24t69 1t50 -19q32 -33 24 -61t-32 -58q-16 -12 -27 -20l-27 -4l-36 -8
l-50 12l-36 2q-6 2 -26 9t-32 11q-16 0 -39 -30q-31 -55 -22 -95l12 -61q2 -4 -2 -45q12 -51 10 -55q-33 -74 -41 -95l-22 -39l-21 -53l-14 -63q-25 -70 -37 -127l-16 -80l-72 -303q-2 -37 -8 -74q-10 -53 -55 -53q-25 0 -29 22l8 39q2 8 2 21l2 4q0 6 2 23t4 38l8 62l21 57
v10q0 14 2 23l8 37l8 53l7 18q4 33 10 68l4 37q8 33 12 51l17 92l2 58l4 38q-1 5 -13 52t17 100l47 94l16 58l23 63q8 51 -39 51q-20 0 -78 -30l-108 -15q-27 1 -42 21t-10 47q20 112 129 112z" />
    <glyph glyph-name="daggerdbl" unicode="&#x2021;" horiz-adv-x="806" 
d="M377 67q1 12 17 128q16 115 24 155q0 23 -7 82t13 88l37 41l6 27l22 45q3 13 -11 27t-31 14t-74 -31l-56 -6l-43 -6q-29 1 -44 27t-9 59q20 94 119 94q12 0 49 -12l23 -4q50 -27 80 -27t36 29q0 23 2 37l19 67q4 19 -10 33q-13 14 -33 14t-76 -30q-18 -2 -55 -9l-35 -4
q-4 -2 -25 -2q-21 -1 -35 19t-12 38t24 56q22 39 45 53q22 14 42 14t64 -10q45 -10 63 -20q58 -31 76 24q12 29 6 60l-8 45l4 30q-10 54 -7 68t33 68t43 53l58 2l16 4q19 -7 27 -39t4 -61v-17q4 -66 -19 -86l-37 -51q-25 -31 -30 -68q-8 -37 49 -36q12 0 41 4q12 6 43 24
t41 17l26 -2l31 4q8 -6 35 -33q18 -47 16 -60t-24 -45q-23 -29 -33 -28l-27 -6l-34 -9l-52 15q-80 22 -97 22t-50 -55l-6 -70l-10 -24q-4 -29 41 -29q23 0 34 3t52 30l45 8q14 6 19 6t30 -10l22 -4l17 -19l22 -20l-6 -23v-26q-4 -14 -31 -41q-16 -20 -24 -23l-29 -4l-35 -8
l-51 14h-39q-37 16 -55 23q-13 0 -27 -13q-30 -27 -11 -89t10 -100t-35 -88t-33 -77l-13 -34l-20 -89q0 -6 -14 -41t-18 -51q-5 -16 -13 -37l-31 -155q-2 -25 -11 -76t-42 -51q-45 0 -33 61q5 20 12 86l4 60l15 57q4 12 4 24z" />
    <glyph glyph-name="bullet" unicode="&#x2022;" horiz-adv-x="1366" 
d="M886 979q108 -1 174 -63q65 -62 64 -158q0 -156 -135 -266q-97 -82 -207 -82t-176 60t-65 159q0 156 135 266q102 84 210 84z" />
    <glyph glyph-name="ellipsis" unicode="&#x2026;" horiz-adv-x="1228" 
d="M1038 188q17 0 101 -49q16 -16 5 -62t-41 -68t-93 -21q-23 0 -60 39q-18 23 -10 63q22 98 98 98zM664 186q40 0 62 -20q32 -29 3 -86l-37 -41l-45 -45q-10 -8 -47 -8t-63 20q-20 23 -5 94q6 27 37 50q55 36 95 36zM188 -18q-20 0 -46 32t-23 49q12 59 49 97t85 39
q48 0 62 -39v-8q-4 -12 -5 -60t-19 -69q-51 -41 -103 -41z" />
    <glyph glyph-name="perthousand" unicode="&#x2030;" horiz-adv-x="1722" 
d="M1564 633q-66 0 -98 -39q-20 -20 -32 -80l-9 -18l-2 -27l-16 -53l-8 -43q2 -2 0 -11l-23 -73l-6 -33l-12 -41q-4 -45 -2 -49q-4 -86 47 -105q18 -6 45 -6q78 0 106 109q14 36 27 80l21 67q4 10 6 39l12 41l2 31l18 92l-4 51q-6 68 -72 68zM1582 711q48 0 77 -17
q90 -57 88 -176q-2 -39 0 -65l-2 -23q-2 -10 -8 -78q-2 -10 -17 -43l-37 -112q-27 -88 -103 -153q-76 -64 -162 -64q-87 0 -158 83q-12 13 -20 57t-5 62l14 62q2 4 8 55q4 4 13 37q2 20 18 70l10 26l19 39q16 49 68 121t88 90q61 29 109 29zM998 633q-30 0 -58 -23
q-18 -20 -41 -59l-20 -37l-19 -92l-26 -111l-3 -8q0 -6 -6 -40t-6 -70l-4 -50q-8 -33 11 -61q18 -28 62 -24q44 3 52 8q47 27 76 100q8 10 18 49l15 74l10 76l10 36l10 66l6 29v18q12 59 5 80q-8 14 -35 26t-57 13zM1031 711q48 0 95 -29q24 -16 48 -80t20 -131l2 -39
l-2 -26q0 -2 -2 -10t-7 -49q-5 -40 -6 -46q-1 -7 -7 -25t-9 -32l-12 -62q-6 -24 -30 -64t-42 -55q-113 -83 -197 -83t-131 61q-48 61 -42 156l8 92l4 20q0 23 6 45t16 64l7 12l6 23q14 20 28 65q41 115 162 176q37 17 85 17zM1272 1401q47 0 43 -33q-4 -16 -12 -25
l-181 -227q-27 -39 -108 -141q-30 -35 -90 -111t-68 -90q-8 -12 -14 -18l-35 -35q-11 -18 -73 -100t-96 -139q-33 -58 -58 -76l-76 -68l-17 -29q-3 -3 -17 -23t-28 -36q-16 -16 -61 -80q-71 -71 -99 -108q-28 -38 -36 -48q-41 -47 -69 -47q-29 0 -45 11t13 40q19 28 29 40
t48 60t58 69q21 21 37 38l41 56l129 165q41 47 70 72q29 26 69 92t81 105l34 51l70 78l47 65q43 49 92 111q87 132 131 180q3 4 13 18t60 79q50 66 77 87q16 17 41 17zM564 1313q-44 0 -75 -33q-14 -14 -28 -55q-15 -41 -21 -53t-14 -48l-20 -65q-2 -10 -7 -39l-10 -41
l-22 -123q4 -16 6 -51q5 -68 71 -68t99 39q16 20 28 78l9 20l24 95l4 28l2 11l21 73l6 33l10 39l4 51q-4 61 -23 85q-20 24 -64 24zM598 1389q152 0 166 -160q11 -109 -24 -211q-11 -35 -17 -60l-8 -24l-19 -39q-20 -59 -67 -125q-82 -115 -191 -115q-57 0 -84 17
q-90 57 -88 174l2 102l8 66q2 10 17 43l26 82l11 28q33 96 106 159q74 63 162 63z" />
    <glyph glyph-name="guilsinglleft" unicode="&#x2039;" horiz-adv-x="468" 
d="M543 725q20 0 18 -20q1 -2 -7 -11q-7 -9 -13 -16l-17 -41q-4 -10 -59 -59q-5 -6 -19 -24t-20 -28l-49 -51l-33 -31q-37 -37 -39 -50q-1 -12 17 -40t26 -69l8 -27l11 -33l20 -30q41 -59 33 -103q-10 -31 -37 -31q-10 0 -39 25l-27 23q-12 10 -30 61q-12 23 -31 53l-27 43
q-14 10 -51 60q-33 20 -33 28q-8 33 15 64q34 23 51 37q29 35 73 63t126 109l36 26q93 72 97 72z" />
    <glyph glyph-name="guilsinglright" unicode="&#x203a;" horiz-adv-x="468" 
d="M254 725q12 0 39 -25l24 -22q11 -8 23 -39t39 -76l29 -45q20 -14 51 -57q29 -20 33 -31q12 -42 -23 -65q-16 -10 -45 -33q-18 -25 -62 -56t-135 -116l-37 -27q-25 -19 -59 -45t-39 -27q-23 0 -16 21q12 16 18 27l19 41q4 10 59 59l39 49l47 53l33 31q39 35 41 49
q-4 6 -19 49q-25 47 -24 62l-19 57q-14 20 -47 86q-22 80 31 80z" />
    <glyph glyph-name="fraction" unicode="&#x2044;" horiz-adv-x="153" 
d="M757 1401q50 0 46 -31q-4 -18 -15 -27l-180 -227q-44 -70 -80 -110t-174 -215q-18 -33 -24 -35l-37 -35q-9 -9 -25 -33t-70 -98t-87 -131q-18 -27 -41 -53l-74 -68l-19 -29q-16 -25 -38 -55q-18 -18 -68 -84q-6 -14 -82 -86q-61 -74 -94 -111q-10 -6 -33 -6q-51 0 -43 33
q11 11 53 66q28 54 138 159l38 56l103 129l26 36q18 20 62 68q35 29 100 135q18 27 56 66l34 51l70 78l45 65l107 127q11 18 35 54t51 75q12 14 106 135l51 66q35 35 63 35z" />
    <glyph glyph-name="franc" unicode="&#x20a3;" horiz-adv-x="1294" 
d="M1350 770q92 0 92 -96q0 -68 -49 -107q-23 -16 -47 -16t-38 16q-16 16 -46 80q-4 4 -7 4q-39 0 -79 -86q-32 -60 -46 -121l-20 -94q-2 -32 -20 -76q0 -10 -9 -59l-6 -51q-12 -59 36 -90t42 -56q-6 -24 -41 -24t-119 6h-12l-72 -2q-74 0 -67 29q2 10 12 20l47 39
q16 12 27 35l45 168l12 67q2 6 23 133q10 74 -11 95q-34 17 -42 28q-18 26 22 52q31 14 96 52t96 48l13 -53q37 16 67 34l37 13q45 12 64 12zM430 1223q0 3 -18 31t-27 32l-35 21q-10 3 -3 31t50 26l41 -2q39 8 68 8t108 -14q57 0 127 14q88 6 124 6t126 -6l21 2q10 0 24 2
h78q12 2 39 2t36 -9t5 -26l-12 -49q0 -4 -3 -20t-5 -29l-33 -158q-8 -39 -31 -38q-35 0 -61 75q-1 10 -9 41t-15 59t-50 50l-25 10q-4 4 -16 10l-86 -10q-4 0 -15 5t-47 5q-96 0 -136 -81q-9 -19 -19 -48t-17 -43l-10 -53q0 -3 -8 -28t-12 -46l-15 -108q-38 -105 -10 -118
q19 -9 67 -9t72 10q25 14 82 84q49 55 90 55q25 0 -4 -135q-28 -85 -41 -145q-2 -119 -34 -119q-20 0 -23 14l-25 76q-12 32 -56 58t-83 26q-76 0 -102 -117q-12 -49 -29 -94l-18 -84l-4 -35l-41 -186v-49q2 -12 6 -41q2 -10 32 -28t25 -38q-2 -14 -31 -14l-96 6
q-4 0 -10 -2h-29l-74 6l-135 -6q-18 0 -18 14q4 16 59 58q94 102 115 204l98 486l8 49l25 68l12 67l17 55l18 109q2 2 -2 70v43z" />
    <glyph glyph-name="trademark" unicode="&#x2122;" horiz-adv-x="1662" 
d="M1016 1370h16l49 2h4q8 -4 27 -4h14l70 4q6 2 21 2q35 0 20 -82q-2 -10 -2 -62t24 -138q24 -87 27 -112q4 -25 8 -48l4 -29q25 -47 31 -73t12 -27q16 -1 54 51t61 94l66 101l84 145l28 45q6 15 33 59t53 66q20 6 80 6h12l21 -2l43 2q16 0 24 -14t5 -24q-2 -10 -9 -13
l-38 -14q-37 -31 -46 -50q-31 -74 -41 -145t-14 -100q-16 -66 -26 -117l-13 -53q-15 -108 -24 -117q-6 -26 -4 -68q2 -41 10 -43l31 -22q6 -2 2 -26t-29 -21l-27 2l-55 2l-47 -4l-66 2q-14 0 -22 -2h-29q-18 0 -26 5q-23 14 32 50q55 35 72 53q16 64 35 121l6 23l4 18l14 45
l4 29l7 43l8 59q6 55 -15 55q-4 0 -8 -4l-8 -18q-16 -10 -29 -29q-14 -35 -75 -114q-9 -16 -12 -22q-3 -5 -10 -19l-30 -60q-44 -59 -60 -89q-17 -31 -33 -54t-39 -53q-21 -31 -31 -31t-16 10t-10 47q-3 37 -7 51q-4 13 -9 33t-21 64t-52 217q-2 86 -41 86q-23 0 -35 -62
l-18 -77q0 -2 -25 -95l-4 -49q-2 -8 -16 -100q0 -37 6 -41q2 -8 34 -37t29 -43q-2 -18 -43 -18h-4l-49 2q-29 0 -57 2h-72q-47 4 -39 32q0 4 51 37t72 105q0 2 5 18q25 87 36 156l6 22q2 13 7 29t13 43q7 27 13 45l4 74q2 28 18 100t7 74q-4 8 -37 28t-28 44q5 22 34 22z
M451 547l-62 -10l-45 6l-53 -6q-8 0 -5 18q2 17 34 31t58 40t42 99l12 51l17 98l43 173q2 20 12 83l16 68q2 18 -2 62l-37 -3q-25 12 -30 13q-41 0 -74 -25q-10 -8 -49 -71q-16 -18 -37 -19q-20 0 -17 16l23 109l4 66q2 25 27 24l4 -2l98 -14l47 6q81 0 117 8l29 -4l36 -4
l39 -6l27 -2h16l62 6l127 18q31 0 24 -24q-12 -12 -76 -142q-22 -46 -44 -47q-18 0 -21 13v20q2 39 -9 49t-50 12l-45 9q-27 0 -47 -29t-19 -35l-4 -28q-5 -49 -19 -96t-14 -64l-24 -107l-4 -28q-20 -61 -21 -72l-8 -66l-14 -69q-8 -63 49 -82q14 -6 8 -33q-4 -23 -27 -18
h-26l-54 2z" />
    <glyph glyph-name="partialdiff" unicode="&#x2202;" 
d="M694 868q-111 0 -194 -75q-143 -127 -189 -351q-16 -88 -16 -149q0 -274 221 -275q109 0 197 76q139 125 188 350q18 84 19 150q-1 274 -226 274zM590 1370l26 37q393 -193 453 -594q29 -197 -21 -383t-180 -309q-158 -145 -364 -146q-160 1 -259 95t-100 252
q0 59 15 118q31 154 131 275t241 170q90 31 170 30q184 0 259 -155q-39 415 -371 610z" />
    <glyph glyph-name="increment" unicode="&#x2206;" horiz-adv-x="1366" 
d="M895 1210l-619 -934q-49 -74 -56 -106t19 -49q26 -16 83 -17h825zM1018 1399l332 -1399h-1336l926 1399h78z" />
    <glyph glyph-name="product" unicode="&#x220f;" horiz-adv-x="1366" 
d="M1571 1327q-59 0 -96 -13t-56 -61q-2 -8 -22 -90l-305 -1435q-23 -100 -9 -132t107 -32h47l-8 -37h-527l9 37h43q90 0 125 35q25 31 45 129l305 1435q20 98 10 129q-18 35 -115 35h-315q-74 0 -92 -8q-41 -16 -60 -66q-4 -10 -22 -90l-305 -1435q-23 -102 -9 -133
t105 -31h49l-8 -37h-524l8 37h43q76 0 108 21t60 143l305 1435q20 98 10 129q-18 35 -110 35h-50l9 39h1296l-8 -39h-43z" />
    <glyph glyph-name="summation" unicode="&#x2211;" horiz-adv-x="1366" 
d="M1356 1092q0 182 -162 213q-39 8 -123 8h-473l254 -797l-678 -895h537q113 0 188 19q193 45 303 292h37l-154 -405h-1069l693 915l-301 924h1052l-69 -328h-37q2 18 2 54z" />
    <glyph glyph-name="minus" unicode="&#x2212;" horiz-adv-x="944" 
d="M850 752q117 0 129 -7q25 -6 16 -32l-6 -29l-2 -29q-6 -29 -51 -28l-78 4h-27l-59 -6l-24 -2q-18 -2 -96 -2t-87 2l-86 -11l-18 2l-39 2q-6 2 -25 2l-55 -6q-76 2 -86 6q-27 2 -20 21l10 37l4 41q6 28 55 28l55 -6l97 6l73 -8l205 8q14 0 78 7h37z" />
    <glyph glyph-name="radical" unicode="&#x221a;" horiz-adv-x="1366" 
d="M1690 1686l-13 -56h-243l-725 -1630h-164l-21 737h-331l10 56h467l16 -691l707 1584h297z" />
    <glyph glyph-name="infinity" unicode="&#x221e;" horiz-adv-x="1366" 
d="M474 901q-99 0 -165 -60t-86 -157q-6 -29 -6 -53q1 -82 63 -123t160 -41t157 41q58 41 114 92l37 37q-49 119 -112 191t-162 73zM1180 463q82 0 145 49q86 66 109 174q6 29 6 53q0 90 -70 132t-166 42q-150 0 -289 -139q-22 -23 -32 -35q51 -129 100 -182q86 -94 197 -94
zM408 348q-111 0 -180 69t-68 177q0 184 151 328q115 109 256 108q197 0 295 -250q74 94 125 142q119 110 245 110t196 -72t69 -184q0 -193 -154 -334q-121 -108 -264 -108t-229 108q-43 56 -82 148q-185 -242 -360 -242z" />
    <glyph glyph-name="integral" unicode="&#x222b;" horiz-adv-x="1026" 
d="M156 -537q-84 0 -147 44t-63 117t39 120q38 47 88 47q51 0 75 -29t16 -67q-2 -10 -20 -41t-20 -38q-1 -7 -1 -24q0 -51 51 -51q92 0 162 142q41 80 72 211l204 962q35 170 62 244q54 143 154 237t235 95q83 0 147 -44t64 -116t-39 -120q-39 -46 -98 -46q-86 0 -86 76
q-1 22 21 60t23 43t1 22q0 47 -52 47q-94 0 -165 -148q-45 -96 -72 -221l-203 -952q-31 -147 -61 -236q-119 -334 -387 -334z" />
    <glyph glyph-name="approxequal" unicode="&#x2248;" 
d="M838 764q-39 0 -131 29l-121 38q-159 52 -264 -30q-16 -16 -80 -70l-27 19q172 199 338 198q66 0 181 -41t173 -41q119 0 240 113l27 -18q-53 -65 -150 -131t-186 -66zM392 532q-75 0 -138 -51q-20 -14 -80 -67l-27 18q180 199 338 199q65 0 181 -41t174 -41
q118 -1 237 110l29 -18q-58 -67 -152 -131t-168 -64t-147 27l-121 41q-51 18 -126 18z" />
    <glyph glyph-name="notequal" unicode="&#x2260;" horiz-adv-x="944" 
d="M852 748l-78 -9l-15 -4q-3 0 -7 -4t-6 -5t-9 -6q-6 -5 -8 -8q-2 -4 -11 -12q-10 -8 -30 -26t-22 -28q-2 -9 3 -13t19 -4l19 2h26q20 0 68 6q192 0 176 -33l-16 -37l-3 -28q-6 -27 -51 -27q-16 0 -33 2h-71q-12 0 -60 -6h-24l-98 -4q-14 0 -33 2h-33q-47 0 -145 -105
q-44 -35 -54 -35t-22 18q-12 17 -49 40l34 57q-33 20 -43 21h-49q-12 6 -20 20l12 37l2 41q6 29 46 29t65 -4l102 4q8 -2 33 -2q25 -1 57 37t37 49q2 18 -16 18l-72 -2q-53 4 -55 4l-72 -4q-63 0 -74 16q-12 33 -2 84q6 31 58 31l53 -4l102 4q47 -6 66 -6l98 8h45
q27 -4 103 72q2 2 12 11t31 29t34 21q12 1 42 -25t30 -30l-41 -72q6 -2 21 -4h53q49 0 37 -53q0 -6 -18 -37t-48 -31z" />
    <glyph glyph-name="lessequal" unicode="&#x2264;" 
d="M102 70h848l-14 -70h-848zM1204 1257l-16 -75l-731 -418l551 -428l-43 -203l-727 567l2 13z" />
    <glyph glyph-name="greaterequal" unicode="&#x2265;" 
d="M117 133l16 76l729 420l-549 428l43 200l725 -569l-2 -12zM102 70h848l-14 -70h-848z" />
    <glyph glyph-name="null" unicode="&#x2400;" horiz-adv-x="0" 
 />
    <glyph glyph-name="lozenge" unicode="&#x25ca;" horiz-adv-x="1366" 
d="M944 1237l-520 -555l285 -553l522 553zM983 1419l377 -737l-688 -731l-375 731z" />
    <glyph glyph-name="fi" unicode="&#xfb01;" horiz-adv-x="835" 
d="M819 1008q43 0 70 -27t19 -57t-44 -70q-38 -39 -62 -39t-69 29q-18 12 -18 39t4 47t37 51q20 27 63 27zM637 0h-53l-72 -4q-51 9 35 88q23 23 18 27l15 61l22 59l31 144q0 6 1 14t4 30t5 30l10 34l9 23l12 41q4 12 -6 28l-37 37q-4 4 -2 22t43 40q137 71 155 71
q29 0 21 -43q0 -4 -3 -13t-8 -25t-10 -31l-2 -19l-6 -26q0 -2 -20 -79t-25 -91l-4 -53l-33 -156l-4 -31q-4 -39 11 -94t16 -61q-6 -27 -70 -27h-6q-12 4 -47 4zM696 1352q109 0 86 -103q-14 -63 -65 -63q-27 0 -40 6t-23 32t-31 27q-39 0 -58 -51l-20 -49q-43 -115 -43 -117
l-19 -106l-6 -47q-4 -20 -4 -60q4 -18 39 -28q78 -23 72 -54q-2 -10 -10 -17t-89 -13q-27 -2 -39 -35q-31 -76 -36 -117l-21 -98l-10 -51q-2 -6 -5 -22t-6 -30q-2 -14 -14 -102t-12 -125q23 -66 102 -84q14 -2 11 -25q-4 -16 -27 -20h-270q-66 0 -98 9t-27 28q1 23 31 29
t64 23t42 36l12 49l17 45l10 39q25 105 33 167q8 63 12 80t29 93q18 82 14 94q-11 17 -27 23l-63 -2q-16 2 -14 22q2 19 59 35t61 43l21 102q8 15 25 59t28 64l8 21q6 25 68 133q29 56 105 108t128 52z" />
    <glyph glyph-name="fl" unicode="&#xfb02;" horiz-adv-x="837" 
d="M750 158q0 -10 14 -66q0 -4 29 -39q2 -8 -1 -27t-22 -24q-27 -2 -61 -2h-170l-56 -2q-26 0 -22 16q2 14 12 25l45 41l23 26q8 8 34 48q6 10 17 61l20 59l54 265l26 90q4 12 6 57l17 78q0 13 24 92q19 93 29 213q6 72 -31 84l-30 10q-29 10 -41 35l-15 35q-8 18 -28 18
q-39 0 -58 -51l-20 -49q-43 -115 -43 -117l-19 -106l-6 -47q-4 -20 -4 -60q4 -18 39 -28q78 -23 72 -54q-2 -10 -10 -17t-89 -13q-27 -2 -39 -35q-31 -76 -36 -117l-21 -98l-10 -51q-2 -6 -5 -22t-6 -30q-2 -14 -14 -102t-12 -125q4 -14 47 -61q7 -12 25 -20t14 -26t-27 -22
h-229q-113 0 -119 2q-27 6 -20 35q1 23 31 29t64 23t42 36l12 49l17 45l10 39q25 105 33 167q8 63 12 80t29 93q18 82 14 94q-8 27 -25 23l-67 -2q-16 -4 -12 22q4 13 60 35t60 43l21 102q8 15 25 59t28 64l8 21q6 25 68 133q29 56 105 108t116 52q41 0 77 -20t30 -48
l-13 -51q-4 -12 13 -12q8 0 45 30l53 29q76 43 80 45q20 0 14 -27q0 -2 -2 -7t-5 -14t-7 -20l-11 -63l-12 -29q-2 -8 -35 -133l-16 -100l-8 -21l-23 -96l-12 -41l-12 -53l-13 -45q0 -8 -8 -47t-13 -105t-46 -192v-53q-4 -72 -10 -107v-14z" />
    <glyph glyph-name="CR" horiz-adv-x="665" 
 />
    <glyph glyph-name="glyph272" 
d="M858 1681q32 -1 66 -23t24 -62q-8 -40 -54 -80t-66 -39q-20 0 -50 21q-28 21 -28 38q6 12 6 63q4 10 21 37t33 36t48 9z" />
    <glyph glyph-name="glyph271" 
d="M855 1667q-17 0 -37 -19q-20 -18 -23 -36q-4 -18 5 -40t19 -26h29q51 6 63 62q6 27 -22 49q-17 10 -34 10zM979 1640v-26q-6 -37 -33 -70q-51 -70 -133 -69q-88 0 -88 90q0 25 6 55q10 47 94 94q38 19 52 20q14 2 47 -16t44 -34t11 -44z" />
    <glyph glyph-name="glyph270" 
d="M963 1473q-61 0 -62 65q-9 31 19 78t70 49q42 3 70 -17t18 -63t-18 -61q-9 -18 -47 -34t-50 -17zM696 1475q-34 1 -60 31t-18 65q6 35 52 73t69 37q23 0 49 -23t25 -36l-6 -31v-32q-34 -84 -111 -84z" />
    <glyph glyph-name="glyph269" horiz-adv-x="1021" 
d="M788 1681q22 0 39 -9q18 -9 33 -15l31 -12q63 -39 90 -39t98 47q12 -1 9 -15t-21 -28q-18 -18 -35 -37q-66 -74 -106 -74t-52 4q-13 4 -31 15q-19 10 -32 16l-39 12q-52 27 -76 27t-49 -27q-20 -27 -24 -26q-20 0 -17 16q3 4 41 49l29 27q33 33 57 51q33 18 55 18z" />
    <glyph glyph-name="glyph268" 
d="M1016 1473q-59 0 -60 65q-6 33 20 80t73 48q48 1 69 -21q20 -23 12 -63t-17 -59t-43 -35t-54 -15zM653 1475q-47 1 -73 31t-17 65q6 35 52 73q45 38 67 37q22 0 48 -23t28 -36l-4 -31v-32q-4 -10 -19 -31q-35 -53 -82 -53z" />
    <glyph glyph-name="glyph267" 
d="M1039 1700q46 0 46 -42q1 -42 -35 -77t-81 -39l-35 -4q-2 0 -32 -9t-50 -18q-12 -3 -44 -17t-36 -13q-16 0 -12 16q125 100 184 152q49 51 95 51z" />
    <glyph glyph-name="glyph266" 
d="M726 1706q22 0 44 -16q29 -43 64 -91q30 -33 50 -57t13 -45q-2 -20 -27 -20q-12 4 -63 28l-78 25l-24 10q-31 10 -54 21q-23 18 -16 51q9 34 39 64t52 30z" />
    <glyph glyph-name="glyph265" horiz-adv-x="1019" 
d="M880 1724q22 0 30 -8q9 -8 22 -37l24 -51l15 -29q8 -18 21 -65t12 -55q-4 -17 -20 -17t-89 70q-31 74 -41 74q-25 0 -52 -39t-63 -61t-54 -36q-18 -13 -30 -14q-12 0 -10 21q12 12 39 47l35 43l35 39l18 26l41 39q12 18 31 43q14 10 36 10z" />
    <glyph glyph-name="glyph264" horiz-adv-x="1021" 
d="M1038 1686q14 0 8 -36t-53 -77l-73 -62q-74 -31 -81 -29q-35 11 -73 11q-49 27 -76 94l-4 90l23 -2q14 -10 24 -44t25 -40q41 -14 76 -14z" />
    <glyph glyph-name="glyph263" horiz-adv-x="1019" 
d="M710 1718q15 0 89 -67q33 -74 43 -74q20 0 54 39t34 41q20 13 58 41q68 49 61 8q-6 -10 -39 -47l-88 -111l-41 -39q-19 -35 -31 -44t-32 -9t-36 6q0 4 -18 39l-27 51l-12 29q-12 31 -23 61q0 12 -6 39q-14 37 14 37z" />
    <glyph glyph-name="glyph262" 
d="M834 1020q35 0 49 -31q10 -31 5 -55t-33 -62t-44 -36q-37 0 -66 34q-8 10 -4 43v31q4 24 31 50t62 26zM616 846q-80 0 -81 57q-2 14 -3 35q16 80 107 80q16 0 43 -23q6 -6 7 -54t-38 -81q-14 -14 -35 -14z" />
    <glyph glyph-name="apple" horiz-adv-x="1366" 
d="M1241 577q0 -152 148 -233q-88 -141 -185 -244q-141 -152 -246 -151q-49 0 -120 39q-39 18 -111 18q-73 0 -97 -7t-83 -30t-98 -22q-125 0 -205 203q-62 160 -62 280t19 207q43 199 194 332q125 109 281 108q61 -1 137 -31t113 -30t133 33t151 32q187 0 265 -145
q-74 -47 -113 -86q-121 -121 -121 -273zM1284 1415q-27 -137 -129 -235q-113 -115 -250 -119q33 143 135 243t244 111z" />
    <glyph glyph-name="glyph272" 
d="M283 129h512l331 1559h-512zM129 0l387 1817h768l-387 -1817h-768z" />
  </font>
</defs>
</svg>
